<svg xmlns="http://www.w3.org/2000/svg" viewBox="0 0 48 48" fill="none" id="arbitrum">\n <g
        clip-path="url(#arbitrum_clip0_21203_104983)">\n
        <path
            d="M34.2371 14.2291V14.2056C34.0728 13.7831 33.486 13.7831 33.3217 14.2056L30.4816 21.9982C30.4112 22.2095 30.4112 22.4442 30.4816 22.6789L38.0583 43.4538C37.3511 43.9657 36.6148 44.44 35.8524 44.8738L29.4489 27.3028C29.2846 26.8803 28.6978 26.8803 28.5335 27.3028L25.6934 35.0955C25.623 35.3067 25.623 35.5414 25.6934 35.7761L29.8817 47.274C27.9997 47.7481 26.0295 48 24.0001 48C22.1045 48 20.2604 47.7803 18.4915 47.3646L32.3828 9.25304C32.5002 8.92444 32.2655 8.59583 31.9369 8.59583V8.6193H26.4679C26.0689 8.6193 25.6934 8.87749 25.5525 9.25304L12.4851 45.0623C11.7183 44.6424 10.977 44.1816 10.2642 43.6831L22.8298 9.25304C22.9472 8.92444 22.7125 8.59583 22.3839 8.59583L22.3604 8.6193H16.8915C16.4924 8.6193 16.1169 8.87749 15.9761 9.25304L5.16895 38.8805C1.9322 34.7903 0 29.6209 0 24.0001C0 10.7451 10.7451 0 24.0001 0C37.2551 0 48 10.7451 48 24.0001C48 29.4597 46.1772 34.4932 43.1066 38.5256L34.2371 14.2291Z"
            fill="#213147" />\n
        <path
            d="M35.8525 44.8742C34.002 45.9273 31.9977 46.7413 29.8817 47.2744L25.6934 35.7765C25.623 35.5418 25.623 35.3071 25.6934 35.0958L28.5335 27.3032C28.6978 26.8807 29.2846 26.8807 29.4489 27.3032L35.8525 44.8742Z"
            fill="#12AAFF" />\n
        <path
            d="M43.1065 38.5256C41.6754 40.4052 39.9733 42.0675 38.0582 43.4537L30.4815 22.6788C30.4111 22.4441 30.4111 22.2094 30.4815 21.9982L33.3216 14.2055C33.4859 13.783 34.0727 13.783 34.237 14.2055V14.229L43.1065 38.5256Z"
            fill="#12AAFF" />\n
        <path
            d="M22.8298 9.25291L10.2642 43.6829C8.34045 42.338 6.62279 40.7182 5.16895 38.8804L15.976 9.25291C16.1169 8.87736 16.4924 8.61917 16.8914 8.61917H22.3604L22.3838 8.5957C22.7124 8.5957 22.9472 8.92431 22.8298 9.25291Z"
            fill="white" />\n
        <path
            d="M32.3831 9.25291L18.4918 47.3645C16.3669 46.8657 14.3509 46.0844 12.4854 45.0622L25.5528 9.25291C25.6936 8.87736 26.0692 8.61917 26.4682 8.61917H31.9371V8.5957C32.2657 8.5957 32.5004 8.92431 32.3831 9.25291Z"
            fill="white" />\n
        <circle cx="24" cy="24" r="23.5" stroke="currentColor" />\n
    </g>\n <defs>\n <clipPath id="arbitrum_clip0_21203_104983">\n
            <rect width="48" height="48" fill="white" />\n
        </clipPath>\n </defs>\n</svg>