<svg xmlns="http://www.w3.org/2000/svg" viewBox="0 0 48 48" fill="none" id="mantle">\n <g
        clip-path="url(#mantle_clip0_21203_105005)">\n
        <path d="M48 0H0V48H48V0Z" fill="black" />\n
        <path
            d="M24 42V35.8703C23.3853 35.8703 22.7572 35.8167 22.1425 35.7228L21.1804 41.772C22.1158 41.9329 23.0646 42 24 42ZM26.8062 41.7854C27.7416 41.6379 28.6637 41.4232 29.559 41.1282L27.6748 35.2936C27.0869 35.4814 26.4722 35.6289 25.8575 35.7228L26.8062 41.7854ZM18.441 41.1282L20.3252 35.307C19.7372 35.1192 19.1626 34.8778 18.6013 34.5961L15.8218 40.0551C16.6637 40.4709 17.5457 40.8331 18.441 41.1282ZM32.1648 40.0551C33.0067 39.6259 33.8085 39.1297 34.5702 38.5797L30.9621 33.6304C30.4677 33.9925 29.9332 34.3279 29.3719 34.5961L32.1648 40.0551ZM13.4165 38.5663L17.0245 33.617C16.5301 33.2548 16.049 32.8525 15.608 32.4098L11.2784 36.7422C11.9465 37.3994 12.6682 38.0164 13.4165 38.5663ZM36.6949 36.769L36.735 36.7288C37.4031 36.0715 38.0178 35.3472 38.5657 34.5961L33.6214 30.9881C33.2606 31.4844 32.8463 31.9672 32.4187 32.3964L32.3519 32.4635L34.4365 34.4352L36.6949 36.769ZM9.44766 34.5827L14.392 30.9747C14.0312 30.4784 13.6971 29.9419 13.4165 29.392L7.96437 32.1684C8.39198 33.0134 8.88641 33.8182 9.44766 34.5827ZM40.0356 32.1818C40.4632 31.3502 40.8241 30.465 41.118 29.5663L35.2918 27.6885C35.1047 28.2787 34.8641 28.8554 34.5835 29.4054L40.0356 32.1818ZM6.88196 29.5663L12.7082 27.6751C12.5212 27.0849 12.3742 26.4814 12.2806 25.8644L6.22717 26.8167C6.37416 27.7422 6.60134 28.6677 6.88196 29.5663ZM41.7728 26.8301C41.9198 25.9046 42 24.9523 42 24.0134H35.8797C35.8797 24.6304 35.8263 25.2608 35.7327 25.8778L41.7728 26.8301ZM12.1336 24C12.1336 23.383 12.1871 22.7526 12.2806 22.1356L6.22717 21.1833C6.08018 22.1088 6.01336 23.0611 6 24H12.1336ZM35.7327 22.149L41.7862 21.1967C41.6392 20.2712 41.4254 19.3458 41.1314 18.4471L35.3051 20.3249C35.4922 20.9285 35.6392 21.532 35.7327 22.149ZM12.7082 20.3249C12.8953 19.7347 13.1359 19.158 13.4165 18.608L7.96437 15.8316C7.53675 16.6632 7.17595 17.5484 6.88196 18.4471L12.7082 20.3249ZM34.5969 18.6215L40.0624 15.845C39.6347 15 39.1403 14.1952 38.5791 13.4307L33.6214 17.0387C33.9822 17.535 34.3163 18.0715 34.5969 18.6215ZM14.392 17.0253C14.7528 16.5291 15.167 16.0462 15.608 15.6036L15.6214 15.5902L11.2918 11.2578L11.2784 11.2712C10.6102 11.9419 9.99555 12.6528 9.44766 13.4173L14.392 17.0253ZM32.4187 15.6304L33.7283 14.3025L36.735 11.2981L36.7216 11.2846C36.0534 10.6274 35.3452 10.0104 34.5969 9.46051L30.9889 14.4098C31.4833 14.772 31.9644 15.1744 32.392 15.617L32.4187 15.6304ZM17.0379 14.383C17.5323 14.0209 18.0668 13.699 18.6281 13.4173L15.8486 7.95827C15.0067 8.38748 14.2049 8.88376 13.4432 9.43368L17.0379 14.383ZM29.412 13.4307L32.2049 7.97168C31.363 7.54247 30.4944 7.18033 29.5991 6.88525L27.7016 12.7064C28.2762 12.9076 28.8508 13.149 29.412 13.4307ZM20.3519 12.7064C20.9399 12.5186 21.5546 12.3711 22.1693 12.2772L21.2205 6.22802C20.2984 6.37556 19.363 6.59016 18.4677 6.88525L20.3519 12.7064ZM25.8708 12.2772L26.833 6.22802C25.9109 6.08048 24.9621 6 24.0267 6V12.1297C24.6414 12.1297 25.2695 12.1833 25.8708 12.2772Z"
            fill="white" />\n
        <path
            d="M23.9934 36V29.863C23.4771 29.863 22.9741 29.7961 22.471 29.6624L20.8825 35.5855C21.9018 35.8529 22.9476 36 23.9934 36ZM27.1042 35.5855C28.1236 35.3181 29.0899 34.917 30.0033 34.3822L26.9322 29.0741C26.4953 29.3281 26.0188 29.5287 25.529 29.6624L27.1042 35.5855ZM17.9967 34.3822L21.0678 29.0741C20.631 28.8201 20.2206 28.4992 19.85 28.1382L19.797 28.0847L17.8643 30.1304L15.4815 32.4435L15.5212 32.4836C16.2625 33.2189 17.0965 33.8607 17.9967 34.3822ZM32.4788 32.4836C33.2201 31.7348 33.8687 30.9059 34.385 29.9967L29.0767 26.9214C28.8252 27.3627 28.5074 27.7638 28.1368 28.1382L32.4788 32.4836ZM13.6018 29.9833L18.9101 26.9214C18.6586 26.4802 18.46 26.0123 18.3276 25.5175L12.4104 27.0953C12.6751 28.098 13.0855 29.0741 13.6018 29.9833ZM35.5896 27.1086C35.8544 26.0925 36 25.0496 36 24.0067H29.8709C29.8709 24.5148 29.8047 25.0362 29.6724 25.5309L35.5896 27.1086ZM18.1423 23.9933C18.1423 23.4852 18.2085 22.9638 18.3409 22.4691L12.4104 20.8914C12.1456 21.9075 12 22.9504 12 23.9933H18.1423ZM29.6591 22.4825L35.5896 20.9047C35.3249 19.8886 34.9145 18.9125 34.3982 18.0033L29.0899 21.0652C29.3282 21.5198 29.5268 21.9877 29.6591 22.4825ZM18.9233 21.0652C19.1748 20.6373 19.4793 20.2228 19.85 19.8618L19.8632 19.8485L17.6657 17.6557L15.5609 15.4763L15.5212 15.5164C14.7799 16.2518 14.1445 17.0942 13.615 17.99L18.9233 21.0652ZM28.1368 19.8618L30.3078 17.6825L32.5317 15.5699L32.4788 15.5164C31.7375 14.7677 30.9035 14.1393 30.0033 13.6045L26.9322 18.9125C27.369 19.1666 27.7661 19.4741 28.1368 19.8351V19.8618ZM21.0678 18.9125C21.5047 18.6585 21.9812 18.4579 22.471 18.3242L20.909 12.4011C19.8897 12.6685 18.9233 13.0696 18.0099 13.6045L21.0678 18.9125ZM25.5157 18.3376L27.1042 12.4145C26.0982 12.1471 25.0524 12 24.0066 12V18.137C24.5097 18.137 25.0259 18.2039 25.5157 18.3376Z"
            fill="white" />\n
    </g>\n
    <rect x="0.5" y="0.5" width="47" height="47" rx="23.5" stroke="currentColor" />\n <defs>\n <clipPath
            id="mantle_clip0_21203_105005">\n
            <rect width="48" height="48" rx="24" fill="white" />\n
        </clipPath>\n </defs>\n
</svg>