<svg xmlns="http://www.w3.org/2000/svg" viewBox="0 0 48 48" fill="none" id="optimism">\n
	<path
		d="M47.5 24C47.5 36.9787 36.9787 47.5 24 47.5C11.0213 47.5 0.5 36.9787 0.5 24C0.5 11.0213 11.0213 0.5 24 0.5C36.9787 0.5 47.5 11.0213 47.5 24Z"
		fill="#FF0420" stroke="currentColor" />\n
	<path
		d="M17.0002 30.3788C15.5711 30.3788 14.4003 30.0424 13.4877 29.37C12.587 28.6855 12.1367 27.7127 12.1367 26.4518C12.1367 26.1876 12.1666 25.8635 12.2266 25.4791C12.383 24.6145 12.6051 23.5757 12.8933 22.3628C13.7098 19.0604 15.8174 17.4092 19.216 17.4092C20.1405 17.4092 20.9691 17.5654 21.7016 17.8775C22.4344 18.1777 23.0107 18.6341 23.4309 19.2467C23.8513 19.847 24.0616 20.5676 24.0616 21.4081C24.0616 21.6603 24.0315 21.9786 23.9713 22.3628C23.7913 23.4315 23.5751 24.4703 23.3229 25.4791C22.9026 27.1244 22.1761 28.3552 21.1434 29.1718C20.1104 29.9763 18.7295 30.3788 17.0002 30.3788ZM17.2524 27.7847C17.925 27.7847 18.4952 27.5867 18.9638 27.1905C19.4442 26.7941 19.7863 26.1876 19.9904 25.3711C20.2666 24.2422 20.4769 23.2574 20.6209 22.4169C20.6689 22.1647 20.6929 21.9066 20.6929 21.6422C20.6929 20.5495 20.1224 20.003 18.9817 20.003C18.3091 20.003 17.7328 20.2011 17.2524 20.5975C16.784 20.9939 16.4479 21.6003 16.2437 22.4169C16.0275 23.2214 15.8113 24.2062 15.5953 25.3711C15.5471 25.6113 15.5231 25.8635 15.5231 26.1276C15.5231 27.2324 16.0997 27.7847 17.2524 27.7847Z"
		fill="white" />\n
	<path
		d="M24.8921 30.1993C24.7599 30.1993 24.6578 30.1572 24.5858 30.0732C24.5258 29.977 24.5078 29.869 24.5318 29.749L27.0176 18.0403C27.0416 17.9081 27.1077 17.8001 27.2157 17.7159C27.3239 17.6319 27.438 17.5898 27.558 17.5898H32.3497C33.6826 17.5898 34.7513 17.8662 35.5559 18.4186C36.3726 18.971 36.7808 19.7696 36.7808 20.8143C36.7808 21.1145 36.7448 21.4267 36.6728 21.7509C36.3726 23.132 35.7661 24.1527 34.8534 24.8133C33.9529 25.4737 32.7157 25.8039 31.1426 25.8039H28.7109L27.8823 29.749C27.8582 29.881 27.7922 29.989 27.6842 30.0732C27.5761 30.1572 27.462 30.1993 27.342 30.1993H24.8921ZM31.2687 23.3181C31.7731 23.3181 32.2114 23.18 32.5838 22.9038C32.9679 22.6276 33.2201 22.2313 33.3403 21.7149C33.3763 21.5107 33.3944 21.3307 33.3944 21.1745C33.3944 20.8263 33.2923 20.5622 33.0881 20.382C32.8839 20.1898 32.5358 20.0938 32.0434 20.0938H29.8817L29.1972 23.3181H31.2687Z"
		fill="white" />\n
</svg>