<svg xmlns="http://www.w3.org/2000/svg" viewBox="0 0 48 48" fill="none" id="polygon">\n
    <rect x="0.5" y="0.5" width="47" height="47" rx="23.5" fill="white" stroke="currentColor" />\n
    <path
        d="M30.9255 19.5424C30.426 19.2604 29.7768 19.2604 29.2275 19.5424L25.3321 21.7047L22.6853 23.115L18.79 25.2772C18.2906 25.5592 17.6414 25.5592 17.0921 25.2772L13.9958 23.5849C13.4964 23.3029 13.1468 22.7859 13.1468 22.2218V18.8843C13.1468 18.3203 13.4465 17.8032 13.9958 17.5212L17.0421 15.8759C17.5415 15.5939 18.1908 15.5939 18.7401 15.8759L21.7865 17.5212C22.2858 17.8032 22.6354 18.3203 22.6354 18.8843V21.0466L25.2822 19.5894V17.4271C25.2822 16.8631 24.9826 16.346 24.4333 16.064L18.79 12.9615C18.2906 12.6795 17.6414 12.6795 17.0921 12.9615L11.349 16.064C10.7996 16.346 10.5 16.8631 10.5 17.4271V23.679C10.5 24.2431 10.7996 24.7602 11.349 25.0422L17.0921 28.1446C17.5915 28.4267 18.2407 28.4267 18.79 28.1446L22.6853 26.0293L25.3321 24.5721L29.2275 22.4568C29.7269 22.1748 30.3761 22.1748 30.9255 22.4568L33.9718 24.1021C34.4711 24.3841 34.8208 24.9012 34.8208 25.4653V28.8027C34.8208 29.3668 34.5212 29.8838 33.9718 30.1659L30.9255 31.8581C30.426 32.1402 29.7768 32.1402 29.2275 31.8581L26.1812 30.2129C25.6818 29.9309 25.3321 29.4138 25.3321 28.8497V26.6874L22.6853 28.1446V30.3069C22.6853 30.8709 22.985 31.3881 23.5343 31.6701L29.2775 34.7725C29.7768 35.0545 30.426 35.0545 30.9754 34.7725L36.7185 31.6701C37.2179 31.3881 37.5675 30.8709 37.5675 30.3069V24.055C37.5675 23.491 37.2678 22.9739 36.7185 22.6919L30.9255 19.5424Z"
        fill="#8347E5" />\n
</svg>