<svg viewBox="0 0 40 40" fill="none" xmlns="http://www.w3.org/2000/svg" id="scroll">\n<g
        clip-path="url(#scroll_clip0_22510_30461)">\n
        <rect width="40" height="40" rx="20" fill="#FFF8F3" />\n
        <path
            d="M28.1417 23.3581V11.7527C28.1262 10.7816 27.371 10 26.4231 10H14.6009C12.05 10.0395 10 12.179 10 14.8001C10 15.6843 10.2312 16.4422 10.5857 17.1054C10.8863 17.658 11.3564 18.1791 11.8188 18.566C11.9498 18.6765 11.8882 18.6291 12.2889 18.8818C12.8438 19.2291 13.4757 19.4028 13.4757 19.4028L13.468 26.3424C13.4834 26.674 13.5143 26.9898 13.599 27.2819C13.8611 28.2609 14.5238 29.0109 15.4255 29.374C15.8032 29.5241 16.227 29.6267 16.6817 29.6346L26.1225 29.6661C28.0029 29.6661 29.5288 28.103 29.5288 26.1687C29.5365 25.024 28.9817 23.9976 28.1417 23.3581Z"
            fill="#FFEEDA" />\n
        <path
            d="M28.3731 26.2553C28.3346 27.4948 27.3404 28.4895 26.1227 28.4895L19.626 28.4658C20.1423 27.85 20.4582 27.0526 20.4582 26.1842C20.4582 24.8184 19.6645 23.8789 19.6645 23.8789H26.1304C27.3712 23.8789 28.3808 24.9131 28.3808 26.1842L28.3731 26.2553Z"
            fill="#EBC28E" />\n
        <path
            d="M12.4353 17.5869C11.6878 16.8606 11.1637 15.9211 11.1637 14.8079V14.6895C11.2254 12.7868 12.7513 11.2552 14.6086 11.1999H26.4308C26.739 11.2157 26.9857 11.4368 26.9857 11.7605V22.008C27.2554 22.0554 27.3863 22.0949 27.6484 22.1897C27.8565 22.2686 28.1417 22.4344 28.1417 22.4344V11.7605C28.1262 10.7894 27.371 10.0078 26.4231 10.0078H14.6009C12.05 10.0473 10 12.1868 10 14.8079C10 16.3316 10.6782 17.6343 11.788 18.55C11.865 18.6133 11.9344 18.6922 12.1348 18.6922C12.4816 18.6922 12.7282 18.408 12.7128 18.1001C12.7051 17.8395 12.5972 17.7448 12.4353 17.5869Z"
            fill="#101010" />\n
        <path
            d="M26.1227 22.6791H16.8515C16.2272 22.687 15.7263 23.2002 15.7263 23.8397V25.2054C15.7417 25.8371 16.2658 26.3739 16.89 26.3739H17.5759V25.2054H16.89V23.8713C16.89 23.8713 17.0596 23.8713 17.2677 23.8713C18.4391 23.8713 19.3023 24.9844 19.3023 26.1766C19.3023 27.2345 18.362 28.5845 16.7898 28.474C15.3949 28.3792 14.6397 27.1081 14.6397 26.1766V14.6027C14.6397 14.0816 14.2235 13.6553 13.7149 13.6553H12.79V14.8395H13.4759V26.1844C13.4374 28.4898 15.0789 29.6504 16.7898 29.6504L26.1304 29.6819C28.0109 29.6819 29.5368 28.1187 29.5368 26.1844C29.5368 24.2502 28.0032 22.6791 26.1227 22.6791ZM28.373 26.2555C28.3345 27.495 27.3403 28.4898 26.1227 28.4898L19.6259 28.4661C20.1423 27.8503 20.4583 27.0529 20.4583 26.1844C20.4583 24.8187 19.6644 23.8791 19.6644 23.8791H26.1304C27.3712 23.8791 28.3808 24.9134 28.3808 26.1844L28.373 26.2555Z"
            fill="#101010" />\n
        <path
            d="M23.6257 15.0524H16.6357V13.8682H23.6257C23.9417 13.8682 24.2038 14.1287 24.2038 14.4603C24.2038 14.784 23.9495 15.0524 23.6257 15.0524Z"
            fill="#101010" />\n
        <path
            d="M23.6257 20.6257H16.6357V19.4414H23.6257C23.9417 19.4414 24.2038 19.702 24.2038 20.0336C24.2038 20.3572 23.9495 20.6257 23.6257 20.6257Z"
            fill="#101010" />\n
        <path
            d="M24.8589 17.8395H16.6357V16.6553H24.8511C25.1671 16.6553 25.4291 16.9158 25.4291 17.2474C25.4368 17.5711 25.1748 17.8395 24.8589 17.8395Z"
            fill="#101010" />\n
    </g>\n
    <rect x="0.5" y="0.5" width="39" height="39" rx="19.5" stroke="currentColor" />\n<defs>\n<clipPath
            id="scroll_clip0_22510_30461">\n
            <rect width="40" height="40" rx="20" fill="white" />\n
        </clipPath>\n</defs>\n
</svg>