<svg width="200" height="84" viewBox="0 0 200 84" fill="none" xmlns="http://www.w3.org/2000/svg">
    <g clip-path="url(#clip0_14515_3220)">
        <path
            d="M79.0686 55.9999C77.113 55.9999 75.3349 55.4213 73.9386 54.214C73.8344 54.1253 73.7342 54.0327 73.6377 53.9363C69.0593 56.5553 64.4616 56.7019 61.5919 54.214C59.4087 52.324 58.564 49.2769 59.212 45.6357C59.7944 42.3494 61.5572 38.8857 64.1723 35.8849C69.9002 29.3161 77.7379 27.079 82.0193 30.7857L79.4813 33.6979C76.7042 31.291 70.7217 34.2494 67.0883 38.4151C64.9244 40.8953 63.478 43.6956 63.0152 46.3069C62.7837 47.6106 62.6179 49.9981 64.126 51.3019C65.692 52.6596 68.6157 52.3587 71.6783 50.6114C70.1354 45.5894 73.1054 39.6417 75.7669 36.5791C77.1747 34.963 78.8796 34.2186 80.569 34.4809C82.675 34.8087 84.2333 36.6833 84.3606 39.0323C84.4223 40.1701 84.1639 41.3581 83.5699 42.6657C82.513 44.9993 81.082 47.2287 79.4389 49.1149C78.6482 50.0213 77.8034 50.8621 76.9124 51.6181C79.8439 53.4117 85.4174 50.5381 88.8696 46.5807L91.7856 49.1149C87.9284 53.539 83.1109 55.9999 79.0686 55.9999ZM79.9056 38.2879C79.5932 38.2879 79.138 38.5926 78.6906 39.1094C76.8623 41.2077 74.9684 44.9106 75.1343 48.031C75.6164 47.5759 76.0793 47.0937 76.5229 46.5846C77.9269 44.9761 79.1457 43.0707 80.0483 41.0766C80.38 40.3476 80.5266 39.7459 80.4996 39.2406C80.4803 38.878 80.3029 38.3457 79.9711 38.2956C79.9519 38.2879 79.9287 38.2879 79.9056 38.2879Z"
            fill="#7A8AA0" />
        <path
            d="M123.8 45.3232H121.304V29.3855H117.447H114.944L109.143 45.3232V49.1804H117.447V55.6141H121.304V49.1804H123.8V45.3232ZM112.919 45.3232L117.447 32.8839V45.3232H112.919Z"
            fill="#7A8AA0" />
        <path d="M129.586 29.3855L124.186 33.8559L126.527 36.7141L129.586 33.9909V55.6141H133.443V29.3855H129.586Z"
            fill="#7A8AA0" />
        <path
            d="M104.904 55.6141H108.757L104.125 29.3855H97.961L93.3286 55.6141H97.1819L98.2734 49.1804H103.808L104.904 55.6141ZM98.9291 45.3232L101.043 32.8839L103.157 45.3232H98.9291Z"
            fill="#7A8AA0" />
        <path
            d="M138.145 31.9313C138.399 31.8194 138.554 31.588 138.554 31.2756C138.554 30.832 138.245 30.5427 137.763 30.5427H137.281H136.972H136.818V32.857H137.281V32.0084H137.666L138.129 32.857H138.669L138.145 31.9313ZM138.091 31.2756C138.091 31.4684 137.99 31.6227 137.686 31.6227H137.281V30.9284H137.686C137.99 30.9284 138.091 31.0827 138.091 31.2756Z"
            fill="#7A8AA0" />
        <path
            d="M137.686 29.3855C136.409 29.3855 135.371 30.4231 135.371 31.6998C135.371 32.9765 136.409 34.0141 137.686 34.0141C138.962 34.0141 140 32.9765 140 31.6998C140 30.4231 138.962 29.3855 137.686 29.3855ZM137.686 33.5512C136.664 33.5512 135.834 32.7219 135.834 31.6998C135.834 30.6776 136.664 29.8484 137.686 29.8484C138.708 29.8484 139.537 30.6776 139.537 31.6998C139.537 32.7219 138.708 33.5512 137.686 33.5512Z"
            fill="#7A8AA0" />
    </g>
    <defs>
        <clipPath id="clip0_14515_3220">
            <rect width="81" height="27" fill="white" transform="translate(59 29)" />
        </clipPath>
    </defs>
</svg>