<svg width="200" height="84" viewBox="0 0 200 84" fill="none" xmlns="http://www.w3.org/2000/svg">
    <path
        d="M70.9303 42C70.9303 36.4772 66.4532 32 60.9303 32C55.4075 32 50.9303 36.4772 50.9303 42C50.9303 44.3811 51.7626 46.5678 53.152 48.2852L55.94 42.9354C56.2254 42.3879 56.7781 42.0348 57.3901 42.0024L57.4823 42H59.8411C59.9111 42 59.98 42.0169 60.042 42.0492C60.2398 42.1523 60.3252 42.386 60.2475 42.5894L60.2267 42.6357L56.0176 50.7121C57.4686 51.532 59.1448 52 60.9303 52C62.7016 52 64.3653 51.5395 65.8083 50.7317L58.8703 37.4183C58.7594 37.2054 58.842 36.9428 59.055 36.8318C59.117 36.7995 59.1859 36.7826 59.2559 36.7826H61.6147C62.2629 36.7826 62.8574 37.1431 63.1569 37.718L64.7614 40.7961L64.7859 40.8387C64.7939 40.853 64.8017 40.8675 64.8093 40.8821L68.6834 48.3164C70.088 46.5943 70.9303 44.3955 70.9303 42Z"
        fill="#7A8AA0" />
    <path d="M90.5662 48.3403H92.8146V35.7036H90.5662V48.3403Z" fill="#7A8AA0" />
    <path d="M95.3071 48.3403H97.5555V35.7036H95.3071V48.3403Z" fill="#7A8AA0" />
    <path
        d="M107.247 40.34C106.637 39.6951 105.852 39.3813 104.894 39.3813C103.708 39.3813 102.837 39.7822 102.296 40.6014V39.6253H100.048V48.3403H102.296V43.6342C102.296 42.1875 103.046 41.4729 104.214 41.4729C105.26 41.4729 105.939 42.1004 105.939 43.2682V48.3403H108.188V42.9893C108.188 41.8564 107.874 40.9849 107.247 40.34Z"
        fill="#7A8AA0" />
    <path fill-rule="evenodd" clip-rule="evenodd"
        d="M114.471 48.5843C115.761 48.5843 116.859 48.1485 117.748 47.2596C118.637 46.3707 119.09 45.2726 119.09 43.9828C119.09 42.693 118.637 41.6123 117.748 40.7234C116.859 39.8345 115.761 39.3813 114.471 39.3813C113.181 39.3813 112.083 39.8345 111.194 40.7234C110.306 41.6123 109.87 42.693 109.87 43.9828C109.87 45.2726 110.306 46.3707 111.194 47.2596C112.083 48.1485 113.181 48.5843 114.471 48.5843ZM114.471 46.3881C113.791 46.3881 113.234 46.1615 112.781 45.7084C112.345 45.2552 112.118 44.68 112.118 43.9828C112.118 43.2856 112.345 42.7104 112.781 42.2572C113.234 41.8041 113.791 41.5775 114.471 41.5775C115.151 41.5775 115.709 41.8041 116.162 42.2572C116.615 42.7104 116.842 43.2856 116.842 43.9828C116.842 44.68 116.615 45.2552 116.162 45.7084C115.709 46.1615 115.151 46.3881 114.471 46.3881Z"
        fill="#7A8AA0" />
    <path fill-rule="evenodd" clip-rule="evenodd"
        d="M127.718 35.7036V40.6537C127.056 39.7996 126.114 39.3813 124.894 39.3813C123.726 39.3813 122.716 39.8345 121.879 40.7234C121.06 41.6123 120.641 42.693 120.641 43.9828C120.641 45.2726 121.06 46.3707 121.879 47.2596C122.716 48.1485 123.726 48.5843 124.894 48.5843C126.114 48.5843 127.056 48.166 127.718 47.3119V48.3403H129.966V35.7036H127.718ZM125.313 46.4404C124.615 46.4404 124.04 46.2138 123.57 45.7606C123.116 45.29 122.89 44.6974 122.89 43.9828C122.89 43.2682 123.116 42.6756 123.57 42.2224C124.04 41.7518 124.615 41.5252 125.313 41.5252C126.01 41.5252 126.585 41.7518 127.038 42.2224C127.491 42.6756 127.718 43.2682 127.718 43.9828C127.718 44.6974 127.491 45.29 127.038 45.7606C126.585 46.2138 126.01 46.4404 125.313 46.4404Z"
        fill="#7A8AA0" />
    <path fill-rule="evenodd" clip-rule="evenodd"
        d="M134.097 44.9066H140.668C140.721 44.5754 140.755 44.2791 140.755 43.9828C140.755 42.6756 140.337 41.5949 139.501 40.706C138.681 39.8171 137.618 39.3813 136.346 39.3813C135.004 39.3813 133.888 39.8171 133.034 40.706C132.18 41.5775 131.744 42.6756 131.744 43.9828C131.744 45.3075 132.18 46.4056 133.051 47.277C133.923 48.1485 135.073 48.5843 136.52 48.5843C138.193 48.5843 139.466 47.9568 140.32 46.7193L138.507 45.6735C138.071 46.2487 137.409 46.545 136.555 46.545C135.213 46.545 134.394 46.0047 134.097 44.9066ZM138.507 43.1636H134.062C134.324 42.0481 135.143 41.4032 136.346 41.4032C137.374 41.4032 138.246 41.9784 138.507 43.1636Z"
        fill="#7A8AA0" />
    <path
        d="M148.895 41.2289C148.215 40.0436 146.995 39.3813 145.584 39.3813C144.642 39.3813 143.858 39.6253 143.213 40.1308C142.586 40.6188 142.272 41.2986 142.272 42.1527C142.272 43.9654 143.893 44.5057 145.183 44.8369C146.072 45.0635 146.769 45.3249 146.769 45.7955C146.769 46.301 146.368 46.545 145.566 46.545C144.677 46.545 144.119 46.1615 143.858 45.412L141.906 46.5101C142.551 47.8871 143.771 48.5843 145.566 48.5843C146.56 48.5843 147.396 48.3403 148.059 47.8697C148.738 47.3816 149.07 46.6844 149.07 45.7955C149.087 43.9305 147.431 43.3205 146.159 43.059C145.27 42.8324 144.573 42.571 144.573 42.1004C144.573 41.6646 145.008 41.3857 145.584 41.3857C146.228 41.3857 146.699 41.6821 146.978 42.2747L148.895 41.2289Z"
        fill="#7A8AA0" />
    <path fill-rule="evenodd" clip-rule="evenodd"
        d="M89.0261 48.3403L84.5852 35.7036H81.4983L77.0755 48.3403H79.7653L80.5235 46.0657H85.5601L86.3183 48.3403H89.0261ZM81.3178 43.7369L83.0508 38.5739L84.7838 43.7369H81.3178Z"
        fill="#7A8AA0" />
</svg>