<svg width="200" height="84" viewBox="0 0 200 84" fill="none" xmlns="http://www.w3.org/2000/svg">
    <path d="M53.2476 27.1711L39.3175 30.1867H53.2476V27.1711Z" fill="#7A8AA0" />
    <path d="M39.1517 31.6945C39.3455 33.1119 39.5734 34.4512 39.8305 35.7165H53.2476V31.6945H39.1517Z"
        fill="#7A8AA0" />
    <path d="M40.1565 37.2243C40.4908 38.6658 40.8635 40.004 41.2655 41.2461H53.2476V37.2243H40.1565Z" fill="#7A8AA0" />
    <path d="M41.7844 42.7539C42.3284 44.2426 42.9143 45.5776 43.5233 46.776H53.2476V42.7539H41.7844Z" fill="#7A8AA0" />
    <path d="M44.3411 48.2837C45.2791 49.9025 46.2501 51.2256 47.1911 52.3055H53.2476V48.2837H44.3411Z"
        fill="#7A8AA0" />
    <path d="M48.64 53.8133C51.207 56.223 53.2476 56.8289 53.2476 56.8289V53.8133H48.64Z" fill="#7A8AA0" />
    <path d="M54.7899 27.1711V56.829C54.7899 56.829 66.3847 53.3913 69.0685 30.2621L54.7899 27.1711Z" fill="#7A8AA0" />
    <path fill-rule="evenodd" clip-rule="evenodd"
        d="M82.2899 42.3242L77.264 29.0559L77.0379 28.9805C76.9206 28.9805 76.8117 28.9972 76.7112 29.0307C76.6274 29.0642 76.5436 29.1229 76.4599 29.2066C76.3929 29.2904 76.3342 29.3658 76.284 29.4328C76.2337 29.4998 76.1751 29.6087 76.1081 29.7595C76.041 29.8935 75.9908 30.0108 75.9573 30.1113C75.9238 30.1951 75.8735 30.3291 75.8065 30.5134C75.7562 30.6976 75.7144 30.8317 75.6809 30.9154L71.3083 42.1483C70.8727 43.2708 70.4791 44.0582 70.1272 44.5105C70.01 44.6613 69.7922 44.7785 69.4739 44.8623C69.1556 44.9461 68.8959 44.9879 68.6949 44.9879C68.6278 44.9879 68.5943 45.1052 68.5943 45.3398C68.5943 45.524 68.6278 45.6497 68.6949 45.7167C68.9797 45.7 69.2728 45.6832 69.5744 45.6665C69.8927 45.6497 70.1775 45.6329 70.4288 45.6162C70.6801 45.5994 70.9733 45.5911 71.3083 45.5911C71.3586 45.5911 72.2214 45.6329 73.8967 45.7167C73.9302 45.6329 73.9386 45.4905 73.9218 45.2895C73.9218 45.0885 73.8967 44.988 73.8464 44.988C73.6956 44.988 73.4527 44.9544 73.1177 44.8874C72.7826 44.8037 72.5397 44.7032 72.3889 44.5859C72.2549 44.4854 72.1879 44.3178 72.1879 44.0833C72.1879 43.765 72.3303 43.187 72.6151 42.3494L73.6956 39.5851L73.8213 39.5097C75.0778 39.426 76.1416 39.3841 77.0127 39.3841C77.6326 39.3841 78.2692 39.4092 78.9226 39.4595C78.9728 39.4595 79.0231 39.493 79.0733 39.56L80.2042 42.676C80.2544 42.8436 80.3047 43.0781 80.355 43.3797C80.422 43.6645 80.4555 43.9158 80.4555 44.1335C80.4555 44.2676 80.4387 44.4016 80.4052 44.5356C80.355 44.6696 80.179 44.7785 79.8775 44.8623C79.5759 44.9461 79.3246 44.988 79.1236 44.988C79.0566 44.988 79.0147 45.0968 78.998 45.3146C78.998 45.5157 79.0315 45.6497 79.0985 45.7167C81.0251 45.6329 81.9967 45.5911 82.0135 45.5911C82.181 45.5911 83.1024 45.6329 84.7777 45.7167C84.8112 45.6162 84.828 45.5324 84.828 45.4654C84.828 45.1471 84.7945 44.988 84.7275 44.988C84.5264 44.988 84.2165 44.9126 83.7977 44.7618C83.3789 44.5943 83.1192 44.3848 83.0187 44.1335C82.8344 43.7147 82.5915 43.1116 82.2899 42.3242ZM76.1332 38.1779C75.8149 38.1779 75.2202 38.1611 74.349 38.1276C74.3155 38.1276 74.2987 38.0941 74.2987 38.0271L76.4599 32.4232L78.4954 37.9768L78.42 38.1025C77.6326 38.1527 76.8703 38.1779 76.1332 38.1779Z"
        fill="#7A8AA0" />
    <path
        d="M87.2907 36.2429H85.8332C85.7494 36.2429 85.7075 36.067 85.7075 35.7152C85.7075 35.6147 85.7159 35.556 85.7327 35.5393C86.2185 35.3215 86.7462 34.8776 87.3158 34.2074C87.5001 33.9896 87.676 33.7467 87.8435 33.4787C88.0278 33.1939 88.1786 32.951 88.2959 32.7499C88.4131 32.5489 88.4718 32.44 88.4718 32.4232C88.9744 32.4232 89.2257 32.4651 89.2257 32.5489V35.0367C89.6612 35.0367 90.323 35.0451 91.2109 35.0618H92.6181C92.7522 35.0618 92.8192 35.1372 92.8192 35.288C92.8192 35.5896 92.7354 35.9079 92.5679 36.2429H89.2257V42.3996C89.2257 43.0698 89.3932 43.6059 89.7283 44.0079C90.0801 44.41 90.5324 44.611 91.0852 44.611C91.5878 44.611 92.1072 44.4519 92.6433 44.1336C92.6935 44.1001 92.7689 44.1755 92.8694 44.3598C92.97 44.5273 93.0118 44.6194 92.9951 44.6362C92.7438 44.9042 92.3585 45.1723 91.8391 45.4403C91.3198 45.6916 90.7837 45.8173 90.2308 45.8173C89.3932 45.8173 88.6896 45.5408 88.12 44.988C87.5671 44.4351 87.2907 43.6477 87.2907 42.6258V36.2429Z"
        fill="#7A8AA0" />
    <path
        d="M93.7238 36.2429H95.1814V42.6258C95.1814 43.6477 95.4578 44.4351 96.0106 44.988C96.5802 45.5408 97.2839 45.8173 98.1215 45.8173C98.6744 45.8173 99.2105 45.6916 99.7298 45.4403C100.249 45.1723 100.634 44.9042 100.886 44.6362C100.903 44.6194 100.861 44.5273 100.76 44.3598C100.66 44.1755 100.584 44.1001 100.534 44.1336C99.9978 44.4519 99.4785 44.611 98.9759 44.611C98.4231 44.611 97.9707 44.41 97.6189 44.0079C97.2839 43.6059 97.1163 43.0698 97.1163 42.3996V36.2429H100.459C100.626 35.9079 100.71 35.5896 100.71 35.288C100.71 35.1372 100.643 35.0618 100.509 35.0618H99.1016C98.2137 35.0451 97.5519 35.0367 97.1163 35.0367V32.5489C97.1163 32.4651 96.865 32.4232 96.3624 32.4232C96.3624 32.44 96.3038 32.5489 96.1865 32.7499C96.0693 32.951 95.9185 33.1939 95.7342 33.4787C95.5667 33.7467 95.3908 33.9896 95.2065 34.2074C94.6369 34.8776 94.1092 35.3215 93.6233 35.5393C93.6066 35.556 93.5982 35.6147 93.5982 35.7152C93.5982 36.067 93.6401 36.2429 93.7238 36.2429Z"
        fill="#7A8AA0" />
    <path fill-rule="evenodd" clip-rule="evenodd"
        d="M106.967 34.6849C107.738 34.6849 108.416 34.8357 109.003 35.1372C109.589 35.422 110.033 35.799 110.334 36.268C110.653 36.7204 110.879 37.1895 111.013 37.6753C111.164 38.1444 111.239 38.6135 111.239 39.0825C111.239 39.4176 111.189 39.627 111.088 39.7108C110.988 39.7778 110.795 39.8113 110.51 39.8113H104.178C104.044 39.8113 103.977 39.8532 103.977 39.9369C103.977 40.9924 104.295 41.9641 104.932 42.852C105.568 43.7399 106.49 44.1838 107.696 44.1838C108.048 44.1838 108.383 44.1503 108.701 44.0833C109.019 44.0163 109.287 43.9409 109.505 43.8571C109.74 43.7566 109.932 43.6645 110.083 43.5807C110.251 43.4802 110.393 43.3881 110.51 43.3043L110.686 43.1787C110.787 43.1787 110.837 43.2875 110.837 43.5053C110.837 43.6394 110.787 43.7901 110.686 43.9577C110.351 44.4268 109.857 44.854 109.204 45.2393C108.55 45.6078 107.838 45.7921 107.068 45.7921C105.677 45.7921 104.479 45.2728 103.474 44.2341C102.486 43.1787 101.991 41.897 101.991 40.3893C101.991 38.6302 102.461 37.2397 103.399 36.2178C104.354 35.1959 105.543 34.6849 106.967 34.6849ZM106.716 35.6147C105.845 35.6147 105.175 35.9916 104.705 36.7455C104.253 37.4826 104.027 38.0941 104.027 38.58C104.027 38.6972 104.077 38.7559 104.178 38.7559H109.078C109.162 38.7559 109.204 38.6721 109.204 38.5046C109.204 37.9685 108.977 37.357 108.525 36.6701C108.073 35.9665 107.47 35.6147 106.716 35.6147Z"
        fill="#7A8AA0" />
    <path
        d="M118.049 34.8105C117.496 34.71 117.036 34.6598 116.667 34.6598C115.695 34.6598 114.841 34.9446 114.104 35.5142C113.383 36.0838 113.023 36.8209 113.023 37.7256C113.023 38.7642 113.677 39.6605 114.983 40.4144C115.168 40.5317 115.452 40.6908 115.838 40.8919C116.223 41.0929 116.516 41.2604 116.717 41.3945C116.935 41.5117 117.161 41.6709 117.396 41.8719C117.647 42.0562 117.823 42.274 117.924 42.5253C118.041 42.7598 118.099 43.0195 118.099 43.3043C118.099 43.8572 117.924 44.2844 117.572 44.5859C117.237 44.8707 116.801 45.0131 116.265 45.0131C115.645 45.0131 115.067 44.7786 114.531 44.3095C114.012 43.8237 113.702 43.3294 113.601 42.8268C113.585 42.7263 113.45 42.6761 113.199 42.6761C113.132 42.6761 113.032 42.7263 112.898 42.8268C112.898 43.1619 112.94 43.6142 113.023 44.1838C113.124 44.7534 113.224 45.1723 113.325 45.4403C113.543 45.4738 113.853 45.5408 114.255 45.6414C114.657 45.7419 115 45.8089 115.285 45.8424C115.587 45.8926 115.913 45.9178 116.265 45.9178C117.304 45.9178 118.208 45.5911 118.979 44.9377C119.75 44.2676 120.135 43.4383 120.135 42.4499C120.135 42.1986 120.076 41.9557 119.959 41.7212C119.859 41.4699 119.75 41.2688 119.632 41.118C119.515 40.9505 119.322 40.7662 119.054 40.5652C118.803 40.3642 118.61 40.2218 118.476 40.138C118.342 40.0542 118.108 39.9202 117.773 39.7359C117.454 39.5349 117.262 39.4176 117.195 39.3841C117.111 39.3338 116.893 39.2166 116.541 39.0323C116.206 38.8313 115.989 38.6972 115.888 38.6302L115.436 38.2533C115.251 38.069 115.126 37.8847 115.059 37.7004C114.992 37.4994 114.958 37.2732 114.958 37.0219C114.958 36.0335 115.561 35.5393 116.768 35.5393C117.27 35.5393 117.714 35.7487 118.099 36.1675C118.502 36.5864 118.744 37.0303 118.828 37.4994C118.845 37.6167 118.971 37.6753 119.205 37.6753C119.423 37.6753 119.532 37.6334 119.532 37.5497C119.498 36.6115 119.398 35.7571 119.23 34.9864C119.012 34.9529 118.619 34.8943 118.049 34.8105Z"
        fill="#7A8AA0" />
    <path
        d="M122.924 36.2429H121.467C121.383 36.2429 121.341 36.067 121.341 35.7152C121.341 35.6147 121.35 35.556 121.366 35.5393C121.852 35.3215 122.38 34.8776 122.949 34.2074C123.134 33.9896 123.31 33.7467 123.477 33.4787C123.661 33.1939 123.812 32.951 123.93 32.7499C124.047 32.5489 124.105 32.44 124.105 32.4232C124.608 32.4232 124.859 32.4651 124.859 32.5489V35.0367C125.295 35.0367 125.957 35.0451 126.845 35.0618H128.252C128.386 35.0618 128.453 35.1372 128.453 35.288C128.453 35.5896 128.369 35.9079 128.202 36.2429H124.859V42.3996C124.859 43.0698 125.027 43.6059 125.362 44.0079C125.714 44.41 126.166 44.611 126.719 44.611C127.221 44.611 127.741 44.4519 128.277 44.1336C128.327 44.1001 128.403 44.1755 128.503 44.3598C128.604 44.5273 128.645 44.6194 128.629 44.6362C128.377 44.9042 127.992 45.1723 127.473 45.4403C126.953 45.6916 126.417 45.8173 125.864 45.8173C125.027 45.8173 124.323 45.5408 123.754 44.988C123.201 44.4351 122.924 43.6477 122.924 42.6258L122.924 36.2429Z"
        fill="#7A8AA0" />
    <path fill-rule="evenodd" clip-rule="evenodd"
        d="M136.67 35.3634C136.268 34.9111 135.606 34.6849 134.685 34.6849C133.596 34.6849 132.524 35.0451 131.468 35.7655C130.413 36.4691 129.885 37.1811 129.885 37.9015C130.069 38.2198 130.396 38.3789 130.865 38.3789C131.552 38.3789 131.896 38.0857 131.896 37.4994C131.896 36.9465 132.063 36.5026 132.398 36.1675C132.733 35.8157 133.152 35.6398 133.655 35.6398C134.124 35.6398 134.526 35.7906 134.861 36.0921C135.196 36.3769 135.363 36.7874 135.363 37.3235V39.2082C135.363 39.4092 135.288 39.5349 135.137 39.5851C134.936 39.6689 134.584 39.7945 134.082 39.9621C133.579 40.1296 133.169 40.272 132.85 40.3893C132.549 40.4898 132.18 40.649 131.745 40.8667C131.309 41.0845 130.966 41.3023 130.714 41.5201C130.463 41.7211 130.245 41.9892 130.061 42.3243C129.877 42.6426 129.785 42.986 129.785 43.3546C129.785 44.1755 130.036 44.7953 130.539 45.2141C131.041 45.6162 131.678 45.8173 132.448 45.8173C132.783 45.8173 133.11 45.767 133.428 45.6665C133.764 45.566 134.048 45.4403 134.283 45.2895C134.534 45.1388 134.752 44.9964 134.936 44.8623C135.121 44.7116 135.263 44.5859 135.363 44.4854C135.481 44.3681 135.548 44.3095 135.564 44.3095C135.698 44.6613 135.941 44.9964 136.293 45.3147C136.645 45.633 137.014 45.7921 137.399 45.7921C137.885 45.7921 138.471 45.4989 139.158 44.9126C139.242 44.7786 139.284 44.6027 139.284 44.3849C139.284 44.2508 139.25 44.1838 139.183 44.1838C138.831 44.4184 138.538 44.5356 138.304 44.5356C137.985 44.5356 137.734 44.4184 137.55 44.1838C137.365 43.9493 137.273 43.6561 137.273 43.3043V37.4994C137.273 36.511 137.072 35.799 136.67 35.3634ZM133.428 44.3849C132.976 44.3849 132.608 44.2676 132.323 44.0331C132.038 43.7818 131.896 43.43 131.896 42.9776C131.896 42.5923 132.03 42.2572 132.298 41.9724C132.582 41.6709 132.867 41.4615 133.152 41.3442C133.454 41.2102 133.864 41.0594 134.383 40.8919C134.903 40.7243 135.229 40.6071 135.363 40.5401V43.1284C135.363 43.4132 135.154 43.698 134.735 43.9828C134.316 44.2508 133.881 44.3849 133.428 44.3849Z"
        fill="#7A8AA0" />
    <path
        d="M147.551 34.6345C148.724 34.6345 149.545 35.0534 150.014 35.891C150.483 36.7287 150.718 38.0856 150.718 39.962V42.2488C150.718 43.2204 150.785 43.966 150.919 44.4853C150.952 44.6026 151.17 44.7198 151.572 44.8371C151.974 44.9376 152.259 44.9879 152.426 44.9879C152.477 44.9879 152.51 45.0884 152.527 45.2894C152.544 45.4905 152.535 45.6329 152.502 45.7166C150.826 45.6329 149.93 45.591 149.813 45.591C149.779 45.591 148.9 45.6329 147.174 45.7166C147.107 45.6496 147.074 45.5156 147.074 45.3146C147.074 45.0968 147.107 44.9879 147.174 44.9879C147.375 44.9879 147.652 44.9376 148.004 44.8371C148.372 44.7198 148.573 44.6026 148.607 44.4853C148.724 43.9995 148.783 43.4131 148.783 42.7262V40.2133C148.783 38.6552 148.582 37.5914 148.179 37.0218C147.777 36.4522 147.124 36.1674 146.219 36.1674C145.683 36.1674 145.164 36.3685 144.661 36.7705C144.175 37.1559 143.933 37.5077 143.933 37.826V42.2488C143.933 43.2204 144 43.966 144.134 44.4853C144.167 44.6026 144.385 44.7198 144.787 44.8371C145.189 44.9376 145.474 44.9879 145.641 44.9879C145.692 44.9879 145.725 45.0884 145.742 45.2894C145.759 45.4905 145.75 45.6329 145.717 45.7166C144.041 45.6329 143.145 45.591 143.028 45.591C142.927 45.591 142.014 45.6329 140.289 45.7166C140.222 45.6496 140.188 45.5156 140.188 45.3146C140.188 45.0968 140.222 44.9879 140.289 44.9879C140.49 44.9879 140.783 44.9376 141.168 44.8371C141.57 44.7198 141.788 44.6026 141.822 44.4853C141.939 43.9995 141.998 43.4131 141.998 42.7262V37.9768C141.998 37.3234 141.88 36.8711 141.646 36.6198C141.478 36.4187 141.269 36.2847 141.018 36.2177C140.783 36.1339 140.582 36.092 140.414 36.092C140.264 36.092 140.188 36.0753 140.188 36.0418C140.188 35.6397 140.239 35.4303 140.339 35.4135C142.115 35.1455 143.271 34.9277 143.807 34.7602H143.882L143.933 34.735C144 34.735 144.041 34.8104 144.058 34.9612C144.075 35.0952 144.075 35.1958 144.058 35.2628C143.991 35.7319 143.958 36.0669 143.958 36.2679C143.958 36.335 143.974 36.3685 144.008 36.3685C144.025 36.3685 144.05 36.3517 144.083 36.3182C144.469 35.9161 144.988 35.5392 145.641 35.1874C146.311 34.8188 146.948 34.6345 147.551 34.6345Z"
        fill="#7A8AA0" />
    <path
        d="M153.683 36.2429H155.14L155.14 42.6258C155.14 43.6477 155.417 44.4351 155.97 44.988C156.539 45.5408 157.243 45.8173 158.081 45.8173C158.633 45.8173 159.169 45.6916 159.689 45.4403C160.208 45.1723 160.593 44.9042 160.845 44.6362C160.862 44.6194 160.82 44.5273 160.719 44.3598C160.619 44.1755 160.543 44.1001 160.493 44.1336C159.957 44.4519 159.438 44.611 158.935 44.611C158.382 44.611 157.93 44.41 157.578 44.0079C157.243 43.6059 157.075 43.0698 157.075 42.3996V36.2429H160.418C160.585 35.9079 160.669 35.5896 160.669 35.288C160.669 35.1372 160.602 35.0618 160.468 35.0618H159.061C158.173 35.0451 157.511 35.0367 157.075 35.0367V32.5489C157.075 32.4651 156.824 32.4232 156.321 32.4232C156.321 32.44 156.263 32.5489 156.146 32.7499C156.028 32.951 155.877 33.1939 155.693 33.4787C155.526 33.7467 155.35 33.9896 155.165 34.2074C154.596 34.8776 154.068 35.3215 153.582 35.5393C153.566 35.556 153.557 35.6147 153.557 35.7152C153.557 36.067 153.599 36.2429 153.683 36.2429Z"
        fill="#7A8AA0" />
    <path
        d="M76.6784 52.4048L77.3286 49.0594C77.4103 48.6259 77.4511 48.3212 77.4511 48.1453C77.4511 48.1013 77.4417 48.0699 77.4229 48.0511C77.4103 48.0259 77.3318 48.004 77.1873 47.9851C77.0428 47.96 76.8198 47.9474 76.5182 47.9474C76.1853 47.9474 75.9497 48.0008 75.8115 48.1076C75.6732 48.2081 75.5256 48.4343 75.3685 48.7861C75.356 48.8175 75.3246 48.8332 75.2743 48.8332C75.1926 48.8332 75.1298 48.8112 75.0858 48.7673L75.5005 47.4197C75.7392 47.4888 75.9371 47.5234 76.0942 47.5234C76.3392 47.5234 76.6564 47.5328 77.0459 47.5516C77.4354 47.5705 77.7527 47.5799 77.9977 47.5799C78.2427 47.5799 78.5663 47.5705 78.9683 47.5516C79.3704 47.5328 79.694 47.5234 79.939 47.5234C80.0772 47.5234 80.2845 47.4888 80.5609 47.4197L80.4667 48.7673C80.4101 48.8112 80.3379 48.8332 80.2499 48.8332C80.1934 48.8332 80.1651 48.8175 80.1651 48.7861C80.1651 48.4469 80.1023 48.2238 79.9767 48.117C79.8573 48.004 79.65 47.9474 79.3547 47.9474C78.7328 47.9474 78.3998 47.9945 78.3558 48.0888C78.2679 48.2772 78.1799 48.5914 78.092 49.0311L77.4323 52.433C77.3632 52.7786 77.3286 53.0613 77.3286 53.2812C77.3286 53.3314 77.3695 53.3785 77.4511 53.4225C77.5391 53.4602 77.6239 53.4853 77.7056 53.4979L77.8375 53.5167C77.8501 53.5167 77.8564 53.5293 77.8564 53.5544C77.8564 53.6235 77.8375 53.6958 77.7998 53.7712C77.2218 53.7398 76.8952 53.7241 76.8198 53.7241C76.8072 53.7241 76.4617 53.7398 75.7832 53.7712C75.7706 53.7586 75.7643 53.7335 75.7643 53.6958C75.7643 53.5764 75.7863 53.5167 75.8303 53.5167C75.9057 53.5167 76.0188 53.4979 76.1695 53.4602C76.3203 53.4162 76.4083 53.366 76.4334 53.3094C76.5276 53.0958 76.6093 52.7943 76.6784 52.4048Z"
        fill="#7A8AA0" />
    <path
        d="M83.7272 50.2656C83.7272 49.851 83.5702 49.6436 83.2561 49.6436C83.0676 49.6436 82.8194 49.7881 82.5116 50.0771C82.2101 50.3598 81.9525 50.6394 81.7389 50.9158C81.5316 51.1922 81.3965 51.387 81.3337 51.5001L81.9839 48.1736C82.0656 47.7526 82.1064 47.5171 82.1064 47.4668C82.1064 47.3663 82.0875 47.3066 82.0499 47.2877C81.6729 47.426 81.2771 47.5139 80.8625 47.5516C80.8122 47.6019 80.7871 47.6647 80.7871 47.7401C80.7871 47.7778 80.7965 47.7966 80.8154 47.7966C81.1986 47.7966 81.3902 47.8563 81.3902 47.9757C81.3902 48.0322 81.3619 48.1987 81.3054 48.4751L80.2876 53.7429C80.3882 53.768 80.495 53.7806 80.608 53.7806C80.7211 53.7806 80.8185 53.768 80.9002 53.7429L81.0604 53.0078C81.186 52.367 81.4656 51.7639 81.8991 51.1985C82.3388 50.6268 82.6624 50.341 82.8697 50.341C82.9891 50.341 83.0487 50.4761 83.0487 50.7462C83.0487 50.8781 83.0268 51.0477 82.9828 51.2551L82.653 52.81C82.609 53.0424 82.587 53.2089 82.587 53.3094C82.587 53.4539 82.6153 53.5733 82.6718 53.6675C82.7283 53.7555 82.8069 53.7994 82.9074 53.7994C83.1021 53.7994 83.3283 53.6863 83.5859 53.4602C83.8435 53.234 84.0131 53.0518 84.0948 52.9136C84.0948 52.8885 84.0759 52.8476 84.0382 52.7911C84.0068 52.7283 83.9848 52.6969 83.9723 52.6969L83.9157 52.7628C83.878 52.8005 83.8372 52.8445 83.7932 52.8948C83.7492 52.9387 83.699 52.9859 83.6424 53.0361C83.5922 53.0864 83.5388 53.1304 83.4822 53.168C83.432 53.1995 83.388 53.2152 83.3503 53.2152C83.2875 53.2152 83.2561 53.1366 83.2561 52.9796C83.2561 52.8979 83.2655 52.8194 83.2843 52.744L83.5953 51.2928C83.6833 50.8907 83.7272 50.5483 83.7272 50.2656Z"
        fill="#7A8AA0" />
    <path fill-rule="evenodd" clip-rule="evenodd"
        d="M86.771 49.6437C87.06 49.6437 87.2674 49.7191 87.393 49.8698C87.5249 50.0143 87.5909 50.1745 87.5909 50.3504C87.5909 50.6269 87.4495 50.9001 87.1668 51.1703C86.8841 51.4404 86.5731 51.6509 86.2339 51.8017C85.9009 51.9462 85.6308 52.0184 85.4235 52.0184C85.3983 52.0184 85.3858 52.1283 85.3858 52.3482C85.3858 52.6309 85.4392 52.8477 85.546 52.9985C85.6591 53.1429 85.8098 53.2152 85.9983 53.2152C86.0486 53.2152 86.0957 53.2089 86.1397 53.1963C86.1899 53.1838 86.237 53.1681 86.281 53.1492L86.4129 53.0927C86.4569 53.0676 86.4978 53.0393 86.5355 53.0079C86.5731 52.9765 86.6077 52.9482 86.6391 52.9231C86.6768 52.8979 86.7082 52.8728 86.7333 52.8477C86.7648 52.8163 86.7868 52.7911 86.7993 52.7723L86.8747 52.6969C86.8873 52.6969 86.9093 52.7283 86.9407 52.7911C86.9784 52.8477 86.9972 52.8885 86.9972 52.9136C86.9093 53.0644 86.7333 53.2497 86.4695 53.4696C86.2056 53.6895 85.9449 53.7995 85.6873 53.7995C85.3607 53.7995 85.1094 53.6738 84.9334 53.4225C84.7638 53.1649 84.679 52.8131 84.679 52.3671C84.679 51.764 84.9083 51.1609 85.3669 50.5577C85.8255 49.9484 86.2936 49.6437 86.771 49.6437ZM86.6768 50.03C86.3815 50.03 86.102 50.2436 85.8381 50.6708C85.5805 51.0918 85.4517 51.4184 85.4517 51.6509C85.4517 51.676 85.4643 51.6886 85.4894 51.6886C85.7156 51.6886 86.0077 51.5378 86.3658 51.2362C86.7302 50.9347 86.9124 50.6269 86.9124 50.3127C86.9124 50.1243 86.8339 50.03 86.6768 50.03Z"
        fill="#7A8AA0" />
    <path fill-rule="evenodd" clip-rule="evenodd"
        d="M93.2827 50.0112C93.1445 49.7661 92.9372 49.6436 92.6608 49.6436C92.5791 49.6436 92.4786 49.6688 92.3592 49.719C92.2398 49.763 92.0702 49.8855 91.8503 50.0865C91.6305 50.2876 91.42 50.5546 91.219 50.8875L91.775 48.1736C91.8566 47.7778 91.8975 47.5422 91.8975 47.4668C91.8975 47.3663 91.8786 47.3066 91.8409 47.2877C91.4577 47.426 91.0619 47.5139 90.6535 47.5516C90.6033 47.6019 90.5782 47.6647 90.5782 47.7401C90.5782 47.7778 90.5876 47.7966 90.6064 47.7966C90.9897 47.7966 91.1813 47.8563 91.1813 47.9757C91.1813 48.0511 91.153 48.2175 91.0965 48.4751L90.3143 52.4519C90.2955 52.5649 90.286 52.6686 90.286 52.7628C90.286 53.0958 90.3803 53.3534 90.5687 53.5356C90.7635 53.7115 90.9802 53.7994 91.219 53.7994C91.7592 53.7994 92.2744 53.5136 92.7644 52.9419C93.2545 52.3702 93.4995 51.6823 93.4995 50.8781C93.4995 50.5452 93.4272 50.2562 93.2827 50.0112ZM91.8786 50.52C92.0859 50.2813 92.2556 50.1619 92.3875 50.1619C92.4817 50.1619 92.5602 50.1933 92.6231 50.2562C92.6859 50.3127 92.7267 50.3975 92.7456 50.5106C92.7707 50.6237 92.7864 50.7211 92.7927 50.8027C92.799 50.8844 92.8021 50.9849 92.8021 51.1043C92.8021 51.4498 92.7424 51.8016 92.6231 52.1597C92.51 52.5115 92.3466 52.81 92.133 53.055C91.9257 53.2937 91.7027 53.4131 91.464 53.4131C91.2441 53.4131 91.0902 53.3094 91.0022 53.1021C90.9143 52.8948 90.9048 52.6183 90.9739 52.2728C91.0242 52.0027 91.1373 51.7011 91.3132 51.3681C91.4891 51.0352 91.6776 50.7525 91.8786 50.52Z"
        fill="#7A8AA0" />
    <path
        d="M95.0638 49.6437C95.1643 49.6437 95.2428 49.6908 95.2994 49.785C95.3559 49.873 95.3842 49.9892 95.3842 50.1337C95.3842 50.3033 95.3653 50.4698 95.3276 50.6331L94.9978 52.188C94.9538 52.3702 94.9318 52.5398 94.9318 52.6969C94.9318 52.967 94.9915 53.1021 95.1109 53.1021C95.1988 53.1021 95.3245 53.0299 95.4878 52.8854C95.6512 52.7346 95.8208 52.543 95.9967 52.3105C96.1789 52.0718 96.3485 51.7828 96.5056 51.4436C96.6689 51.1043 96.782 50.7682 96.8448 50.4352L97.005 49.7002C97.0867 49.6751 97.1841 49.6625 97.2972 49.6625C97.4102 49.6625 97.517 49.6751 97.6176 49.7002L97.0333 52.744C97.0145 52.8194 97.005 52.8979 97.005 52.9796C97.005 53.1367 97.0364 53.2152 97.0993 53.2152C97.137 53.2152 97.1809 53.1995 97.2312 53.1681C97.2877 53.1304 97.3411 53.0864 97.3914 53.0361C97.4479 52.9859 97.4982 52.9388 97.5422 52.8948C97.5862 52.8445 97.627 52.8006 97.6647 52.7629L97.7212 52.6969C97.7338 52.6969 97.7558 52.7283 97.7872 52.7911C97.8249 52.8477 97.8437 52.8885 97.8437 52.9136C97.7621 53.0518 97.5924 53.234 97.3349 53.4602C97.0773 53.6864 96.8511 53.7994 96.6564 53.7994C96.5558 53.7994 96.4773 53.7555 96.4208 53.6675C96.3642 53.5733 96.336 53.4539 96.336 53.3094C96.336 53.2089 96.3579 53.0424 96.4019 52.81L96.5715 51.943C96.5087 52.0624 96.3799 52.2571 96.1852 52.5273C95.9904 52.7974 95.7454 53.077 95.4501 53.366C95.1549 53.655 94.913 53.7994 94.7245 53.7994C94.4104 53.7994 94.2534 53.5921 94.2534 53.1775C94.2534 52.8885 94.2973 52.5461 94.3853 52.1503L94.668 50.8405C94.6994 50.6143 94.7151 50.4886 94.7151 50.4635C94.7151 50.3064 94.6837 50.2279 94.6209 50.2279C94.5957 50.2279 94.5612 50.2436 94.5172 50.275C94.4732 50.3002 94.4261 50.3347 94.3759 50.3787L94.2534 50.5012C94.2157 50.5389 94.1811 50.5766 94.1497 50.6143L94.1026 50.6708C94.09 50.6708 94.0649 50.6426 94.0272 50.586C93.9958 50.5232 93.9801 50.4792 93.9801 50.4541C94.0555 50.3284 94.2125 50.162 94.4512 49.9546C94.6963 49.7473 94.9004 49.6437 95.0638 49.6437Z"
        fill="#7A8AA0" />
    <path
        d="M101.029 49.9735C100.822 49.7347 100.539 49.6154 100.181 49.6154C99.8101 49.6154 99.4991 49.7442 99.2478 50.0017C98.9965 50.253 98.8709 50.5106 98.8709 50.7745C98.8709 50.9881 98.9306 51.1985 99.0499 51.4058C99.1756 51.6132 99.3106 51.7891 99.4551 51.9336C99.5996 52.0781 99.7316 52.2445 99.8509 52.433C99.9766 52.6152 100.039 52.788 100.039 52.9513C100.039 53.0581 99.9954 53.1586 99.9075 53.2529C99.8258 53.3408 99.7159 53.3848 99.5777 53.3848C99.408 53.3848 99.2698 53.3377 99.163 53.2434C99.0625 53.1492 98.9777 53.0581 98.9086 52.9702C98.8395 52.8759 98.7609 52.8288 98.673 52.8288C98.5788 52.8288 98.5002 52.8728 98.4374 52.9607C98.3809 53.0487 98.3526 53.1492 98.3526 53.2623C98.3526 53.3314 98.3683 53.3911 98.3997 53.4413C98.607 53.6801 98.8897 53.7994 99.2478 53.7994C99.6436 53.7994 99.9672 53.6926 100.218 53.479C100.47 53.2654 100.595 52.9859 100.595 52.6403C100.595 52.4267 100.533 52.2163 100.407 52.009C100.288 51.8016 100.156 51.6257 100.011 51.4812C99.8666 51.3367 99.7316 51.1734 99.6059 50.9912C99.4866 50.8027 99.4269 50.6268 99.4269 50.4635C99.4269 50.3504 99.4646 50.2499 99.54 50.1619C99.6153 50.074 99.719 50.03 99.8509 50.03C100.021 50.03 100.156 50.0771 100.256 50.1714C100.363 50.2656 100.451 50.3598 100.52 50.4541C100.589 50.542 100.668 50.586 100.756 50.586C100.85 50.586 100.925 50.5452 100.982 50.4635C101.045 50.3818 101.076 50.2844 101.076 50.1714C101.076 50.1148 101.06 50.0489 101.029 49.9735Z"
        fill="#7A8AA0" />
    <path
        d="M102.697 49.6437C102.797 49.6437 102.876 49.6908 102.932 49.785C102.989 49.873 103.017 49.9892 103.017 50.1337C103.017 50.2656 102.998 50.4321 102.961 50.6332L102.546 52.744C102.527 52.8194 102.518 52.898 102.518 52.9796C102.518 53.1367 102.549 53.2152 102.612 53.2152C102.65 53.2152 102.694 53.1995 102.744 53.1681C102.801 53.1304 102.854 53.0864 102.904 53.0362C102.961 52.9859 103.011 52.9388 103.055 52.8948C103.099 52.8446 103.14 52.8006 103.177 52.7629L103.234 52.6969C103.247 52.6969 103.269 52.7283 103.3 52.7912C103.338 52.8477 103.356 52.8885 103.356 52.9137C103.275 53.0519 103.105 53.2341 102.848 53.4602C102.59 53.6864 102.364 53.7995 102.169 53.7995C102.069 53.7995 101.99 53.7555 101.934 53.6675C101.877 53.5733 101.849 53.4539 101.849 53.3094C101.849 53.2089 101.871 53.0424 101.915 52.81L102.301 50.8405C102.332 50.6457 102.348 50.5201 102.348 50.4635C102.348 50.3065 102.317 50.2279 102.254 50.2279C102.229 50.2279 102.194 50.2436 102.15 50.2751C102.106 50.3002 102.059 50.3347 102.009 50.3787L101.886 50.5012C101.849 50.5389 101.814 50.5766 101.783 50.6143L101.736 50.6709C101.723 50.6709 101.698 50.6426 101.66 50.586C101.629 50.5232 101.613 50.4792 101.613 50.4541C101.689 50.3285 101.846 50.162 102.084 49.9547C102.329 49.7473 102.533 49.6437 102.697 49.6437Z"
        fill="#7A8AA0" />
    <path
        d="M102.97 47.6553C103.064 47.6553 103.143 47.693 103.206 47.7684C103.275 47.8438 103.309 47.9317 103.309 48.0323C103.309 48.183 103.259 48.315 103.159 48.428C103.064 48.5411 102.945 48.5977 102.801 48.5977C102.7 48.5977 102.621 48.56 102.565 48.4846C102.508 48.4029 102.48 48.3055 102.48 48.1925C102.48 48.048 102.527 47.9223 102.621 47.8155C102.716 47.7087 102.832 47.6553 102.97 47.6553Z"
        fill="#7A8AA0" />
    <path
        d="M105.439 49.785C105.383 49.6908 105.304 49.6437 105.204 49.6437C105.04 49.6437 104.836 49.7473 104.591 49.9546C104.352 50.162 104.195 50.3284 104.12 50.4541C104.12 50.4792 104.135 50.5232 104.167 50.586C104.205 50.6426 104.23 50.6708 104.242 50.6708L104.289 50.6143C104.321 50.5766 104.355 50.5389 104.393 50.5012L104.516 50.3787C104.566 50.3347 104.613 50.3002 104.657 50.275C104.701 50.2436 104.735 50.2279 104.761 50.2279C104.823 50.2279 104.855 50.3064 104.855 50.4635C104.855 50.4886 104.839 50.6143 104.808 50.8405L104.252 53.7429C104.352 53.768 104.459 53.7806 104.572 53.7806C104.685 53.7806 104.783 53.768 104.864 53.7429L105.024 53.0079C105.15 52.3671 105.43 51.764 105.863 51.1985C106.303 50.6269 106.626 50.341 106.834 50.341C106.953 50.341 107.013 50.4761 107.013 50.7462C107.013 50.8781 106.991 51.0478 106.947 51.2551L106.617 52.81C106.573 53.0424 106.551 53.2089 106.551 53.3094C106.551 53.4539 106.579 53.5733 106.636 53.6675C106.692 53.7555 106.771 53.7994 106.871 53.7994C107.066 53.7994 107.292 53.6864 107.55 53.4602C107.808 53.234 107.977 53.0518 108.059 52.9136C108.059 52.8885 108.04 52.8477 108.002 52.7911C107.971 52.7283 107.949 52.6969 107.936 52.6969L107.88 52.7629C107.842 52.8006 107.801 52.8445 107.757 52.8948C107.713 52.9388 107.663 52.9859 107.607 53.0361C107.556 53.0864 107.503 53.1304 107.446 53.1681C107.396 53.1995 107.352 53.2152 107.314 53.2152C107.252 53.2152 107.22 53.1367 107.22 52.9796C107.22 52.8979 107.23 52.8194 107.248 52.744L107.559 51.2928C107.647 50.8907 107.691 50.5483 107.691 50.2656C107.691 49.851 107.534 49.6437 107.22 49.6437C107.032 49.6437 106.784 49.7882 106.476 50.0771C106.174 50.3599 105.917 50.6394 105.703 50.9158C105.496 51.1923 105.361 51.387 105.298 51.5001L105.467 50.6331C105.505 50.4384 105.524 50.2719 105.524 50.1337C105.524 49.9892 105.496 49.873 105.439 49.785Z"
        fill="#7A8AA0" />
    <path fill-rule="evenodd" clip-rule="evenodd"
        d="M110.707 49.6437C110.996 49.6437 111.203 49.7191 111.329 49.8698C111.461 50.0143 111.527 50.1745 111.527 50.3504C111.527 50.6269 111.385 50.9001 111.103 51.1703C110.82 51.4404 110.509 51.6509 110.17 51.8017C109.837 51.9462 109.567 52.0184 109.359 52.0184C109.334 52.0184 109.322 52.1283 109.322 52.3482C109.322 52.6309 109.375 52.8477 109.482 52.9985C109.595 53.1429 109.746 53.2152 109.934 53.2152C109.984 53.2152 110.032 53.2089 110.076 53.1963C110.126 53.1838 110.173 53.1681 110.217 53.1492L110.349 53.0927C110.393 53.0676 110.434 53.0393 110.471 53.0079L110.514 52.9727C110.535 52.955 110.556 52.9384 110.575 52.9231C110.613 52.8979 110.644 52.8728 110.669 52.8477C110.701 52.8163 110.723 52.7911 110.735 52.7723L110.811 52.6969C110.823 52.6969 110.845 52.7283 110.877 52.7911C110.914 52.8477 110.933 52.8885 110.933 52.9136C110.845 53.0644 110.669 53.2497 110.405 53.4696C110.141 53.6895 109.881 53.7995 109.623 53.7995C109.296 53.7995 109.045 53.6738 108.869 53.4225C108.7 53.1649 108.615 52.8131 108.615 52.3671C108.615 51.764 108.844 51.1609 109.303 50.5577C109.761 49.9484 110.229 49.6437 110.707 49.6437ZM110.613 50.03C110.317 50.03 110.038 50.2436 109.774 50.6708C109.516 51.0918 109.388 51.4184 109.388 51.6509C109.388 51.676 109.4 51.6886 109.425 51.6886C109.651 51.6886 109.944 51.5378 110.302 51.2362C110.666 50.9347 110.848 50.6269 110.848 50.3127C110.848 50.1243 110.77 50.03 110.613 50.03Z"
        fill="#7A8AA0" />
    <path
        d="M114.655 49.9735C114.448 49.7347 114.165 49.6154 113.807 49.6154C113.437 49.6154 113.126 49.7442 112.874 50.0017C112.623 50.253 112.497 50.5106 112.497 50.7745C112.497 50.9881 112.557 51.1985 112.676 51.4058C112.802 51.6132 112.937 51.7891 113.082 51.9336C113.226 52.0781 113.358 52.2445 113.477 52.433C113.603 52.6152 113.666 52.788 113.666 52.9513C113.666 53.0581 113.622 53.1586 113.534 53.2529C113.452 53.3408 113.342 53.3848 113.204 53.3848C113.035 53.3848 112.896 53.3377 112.79 53.2434C112.689 53.1492 112.604 53.0581 112.535 52.9702C112.466 52.8759 112.387 52.8288 112.299 52.8288C112.205 52.8288 112.127 52.8728 112.064 52.9607C112.007 53.0487 111.979 53.1492 111.979 53.2623C111.979 53.3314 111.995 53.3911 112.026 53.4413C112.233 53.6801 112.516 53.7994 112.874 53.7994C113.27 53.7994 113.594 53.6926 113.845 53.479C114.096 53.2654 114.222 52.9859 114.222 52.6403C114.222 52.4267 114.159 52.2163 114.033 52.009C113.914 51.8016 113.782 51.6257 113.638 51.4812C113.493 51.3367 113.358 51.1734 113.232 50.9912C113.113 50.8027 113.053 50.6268 113.053 50.4635C113.053 50.3504 113.091 50.2499 113.166 50.1619C113.242 50.074 113.345 50.03 113.477 50.03C113.647 50.03 113.782 50.0771 113.883 50.1714C113.989 50.2656 114.077 50.3598 114.146 50.4541C114.216 50.542 114.294 50.586 114.382 50.586C114.476 50.586 114.552 50.5452 114.608 50.4635C114.671 50.3818 114.702 50.2844 114.702 50.1714C114.702 50.1148 114.687 50.0489 114.655 49.9735Z"
        fill="#7A8AA0" />
    <path
        d="M116.823 49.6154C117.181 49.6154 117.464 49.7347 117.671 49.9735C117.702 50.0489 117.718 50.1148 117.718 50.1714C117.718 50.2844 117.687 50.3818 117.624 50.4635C117.567 50.5452 117.492 50.586 117.398 50.586C117.31 50.586 117.231 50.542 117.162 50.4541C117.093 50.3598 117.005 50.2656 116.898 50.1714C116.798 50.0771 116.663 50.03 116.493 50.03C116.361 50.03 116.257 50.074 116.182 50.1619C116.107 50.2499 116.069 50.3504 116.069 50.4635C116.069 50.6268 116.129 50.8027 116.248 50.9912C116.374 51.1734 116.509 51.3367 116.653 51.4812C116.798 51.6257 116.93 51.8016 117.049 52.009C117.175 52.2163 117.237 52.4267 117.237 52.6403C117.237 52.9859 117.112 53.2654 116.86 53.479C116.609 53.6926 116.286 53.7994 115.89 53.7994C115.532 53.7994 115.249 53.6801 115.042 53.4413C115.01 53.3911 114.995 53.3314 114.995 53.2623C114.995 53.1492 115.023 53.0487 115.079 52.9607C115.142 52.8728 115.221 52.8288 115.315 52.8288C115.403 52.8288 115.481 52.8759 115.551 52.9702C115.62 53.0581 115.705 53.1492 115.805 53.2434C115.912 53.3377 116.05 53.3848 116.22 53.3848C116.358 53.3848 116.468 53.3408 116.55 53.2529C116.637 53.1586 116.681 53.0581 116.681 52.9513C116.681 52.788 116.619 52.6152 116.493 52.433C116.374 52.2445 116.242 52.0781 116.097 51.9336C115.953 51.7891 115.818 51.6132 115.692 51.4058C115.573 51.1985 115.513 50.9881 115.513 50.7745C115.513 50.5106 115.639 50.253 115.89 50.0017C116.141 49.7442 116.452 49.6154 116.823 49.6154Z"
        fill="#7A8AA0" />
    <path fill-rule="evenodd" clip-rule="evenodd"
        d="M123.099 50.03C122.898 49.7724 122.612 49.6437 122.241 49.6437C121.764 49.6437 121.299 49.9358 120.847 50.5201C120.394 51.1043 120.168 51.7231 120.168 52.3765C120.168 52.8288 120.266 53.1775 120.46 53.4225C120.661 53.6675 120.95 53.79 121.327 53.79C121.805 53.79 122.27 53.5042 122.722 52.9325C123.181 52.3545 123.41 51.742 123.41 51.0949C123.41 50.6426 123.306 50.2876 123.099 50.03ZM121.271 50.7745C121.528 50.2782 121.814 50.03 122.128 50.03C122.304 50.03 122.442 50.1274 122.543 50.3222C122.643 50.5169 122.694 50.7996 122.694 51.1703C122.694 51.6729 122.571 52.1723 122.326 52.6686C122.087 53.1587 121.811 53.4037 121.497 53.4037C121.321 53.4037 121.173 53.3031 121.054 53.1021C120.941 52.9011 120.884 52.6184 120.884 52.254C120.884 51.7577 121.013 51.2645 121.271 50.7745Z"
        fill="#7A8AA0" />
    <path
        d="M127.217 47.1558C127.619 47.1558 127.877 47.2626 127.99 47.4762C127.99 47.8845 127.877 48.0887 127.65 48.0887C127.563 48.0887 127.478 48.0416 127.396 47.9474C127.321 47.8531 127.239 47.7589 127.151 47.6647C127.069 47.5641 126.978 47.5139 126.878 47.5139C126.677 47.5139 126.463 47.7212 126.237 48.1358C126.011 48.5442 125.835 49.1159 125.709 49.8509V49.8698C125.709 49.8949 125.719 49.9075 125.737 49.9075H126.821C126.853 49.9075 126.868 49.9452 126.868 50.0206C126.868 50.1211 126.834 50.2279 126.765 50.341H125.662C125.631 50.341 125.612 50.3661 125.606 50.4163L125.087 53.234C124.937 54.1072 124.67 54.7732 124.286 55.2318C123.909 55.6904 123.498 55.9197 123.052 55.9197C122.832 55.9197 122.659 55.8789 122.533 55.7972C122.408 55.7218 122.326 55.6339 122.288 55.5333C122.282 55.3888 122.317 55.2601 122.392 55.147C122.468 55.0339 122.562 54.9774 122.675 54.9774C122.731 54.9774 122.785 55.0056 122.835 55.0622C122.885 55.125 122.929 55.191 122.967 55.2601C123.005 55.3354 123.061 55.4014 123.137 55.458C123.206 55.5208 123.284 55.5522 123.372 55.5522C123.492 55.5522 123.611 55.4768 123.73 55.326C123.85 55.1815 123.95 54.9962 124.032 54.77C124.12 54.5501 124.192 54.3397 124.249 54.1387C124.311 53.9376 124.355 53.7586 124.381 53.6015L124.946 50.4069V50.3881C124.946 50.3567 124.937 50.341 124.918 50.341H124.305C124.293 50.341 124.286 50.3315 124.286 50.3127C124.286 50.2562 124.337 50.1745 124.437 50.0677C124.538 49.9609 124.638 49.9075 124.739 49.9075H125.012C125.037 49.9075 125.056 49.8792 125.068 49.8227C125.194 49.0499 125.464 48.4123 125.879 47.9097C126.293 47.4071 126.74 47.1558 127.217 47.1558Z"
        fill="#7A8AA0" />
    <path
        d="M131.731 49.9735C131.524 49.7347 131.241 49.6154 130.883 49.6154C130.512 49.6154 130.201 49.7442 129.95 50.0017C129.699 50.253 129.573 50.5106 129.573 50.7745C129.573 50.9881 129.633 51.1985 129.752 51.4058C129.878 51.6132 130.013 51.7891 130.157 51.9336C130.302 52.0781 130.434 52.2445 130.553 52.433C130.679 52.6152 130.741 52.788 130.741 52.9513C130.741 53.0581 130.697 53.1586 130.609 53.2529C130.528 53.3408 130.418 53.3848 130.28 53.3848C130.11 53.3848 129.972 53.3377 129.865 53.2434C129.764 53.1492 129.68 53.0581 129.611 52.9702C129.541 52.8759 129.463 52.8288 129.375 52.8288C129.281 52.8288 129.202 52.8728 129.139 52.9607C129.083 53.0487 129.055 53.1492 129.055 53.2623C129.055 53.3314 129.07 53.3911 129.102 53.4413C129.309 53.6801 129.592 53.7994 129.95 53.7994C130.346 53.7994 130.669 53.6926 130.92 53.479C131.172 53.2654 131.297 52.9859 131.297 52.6403C131.297 52.4267 131.235 52.2163 131.109 52.009C130.99 51.8016 130.858 51.6257 130.713 51.4812C130.569 51.3367 130.434 51.1734 130.308 50.9912C130.189 50.8027 130.129 50.6268 130.129 50.4635C130.129 50.3504 130.167 50.2499 130.242 50.1619C130.317 50.074 130.421 50.03 130.553 50.03C130.723 50.03 130.858 50.0771 130.958 50.1714C131.065 50.2656 131.153 50.3598 131.222 50.4541C131.291 50.542 131.37 50.586 131.458 50.586C131.552 50.586 131.627 50.5452 131.684 50.4635C131.747 50.3818 131.778 50.2844 131.778 50.1714C131.778 50.1148 131.762 50.0489 131.731 49.9735Z"
        fill="#7A8AA0" />
    <path
        d="M133.295 48.6353C133.314 48.5725 133.468 48.5411 133.757 48.5411C133.832 48.5411 133.889 48.5442 133.927 48.5505L133.691 49.785H134.549C134.58 49.785 134.596 49.8258 134.596 49.9075C134.596 49.9829 134.567 50.074 134.511 50.1808H133.616L133.116 52.744C133.097 52.8194 133.088 52.8979 133.088 52.9796C133.088 53.1366 133.119 53.2152 133.182 53.2152C133.22 53.2152 133.264 53.1995 133.314 53.168C133.371 53.1304 133.424 53.0864 133.474 53.0361C133.531 52.9859 133.581 52.9387 133.625 52.8948C133.669 52.8445 133.71 52.8005 133.747 52.7628L133.804 52.6969C133.817 52.6969 133.839 52.7283 133.87 52.7911C133.908 52.8476 133.926 52.8885 133.926 52.9136C133.845 53.0518 133.675 53.234 133.418 53.4602C133.16 53.6863 132.934 53.7994 132.739 53.7994C132.639 53.7994 132.56 53.7554 132.504 53.6675C132.447 53.5733 132.419 53.4539 132.419 53.3094C132.419 53.2089 132.441 53.0424 132.485 52.8099L132.994 50.1808H132.324C132.306 50.1808 132.296 50.1462 132.296 50.0771C132.296 49.9954 132.334 49.8981 132.409 49.785H133.069L133.295 48.6353Z"
        fill="#7A8AA0" />
    <path fill-rule="evenodd" clip-rule="evenodd"
        d="M137.913 49.7662C137.693 49.6845 137.464 49.6437 137.225 49.6437C136.804 49.6437 136.383 49.7882 135.962 50.0771C135.541 50.3599 135.196 50.7274 134.925 51.1797C134.661 51.6258 134.53 52.0718 134.53 52.5178C134.53 52.8697 134.608 53.1712 134.765 53.4225C134.928 53.6675 135.148 53.79 135.425 53.79C135.55 53.79 135.682 53.7461 135.821 53.6581C135.965 53.5639 136.1 53.4445 136.226 53.3C136.351 53.1555 136.455 53.0267 136.537 52.9136C136.618 52.7943 136.691 52.678 136.754 52.565C136.754 52.5775 136.747 52.6058 136.735 52.6498C136.728 52.6875 136.719 52.7409 136.706 52.81C136.662 53.0361 136.64 53.2026 136.64 53.3094C136.64 53.4539 136.669 53.5733 136.725 53.6675C136.782 53.7555 136.86 53.7995 136.961 53.7995C137.156 53.7995 137.382 53.6864 137.639 53.4602C137.897 53.234 138.067 53.0519 138.148 52.9136C138.148 52.8885 138.129 52.8477 138.092 52.7911C138.06 52.7283 138.038 52.6969 138.026 52.6969L137.969 52.7629C137.932 52.8006 137.891 52.8445 137.847 52.8948C137.803 52.9388 137.752 52.9859 137.696 53.0361C137.646 53.0864 137.592 53.1304 137.536 53.1681C137.485 53.1995 137.441 53.2152 137.404 53.2152C137.341 53.2152 137.31 53.1367 137.31 52.9796C137.31 52.8979 137.319 52.8194 137.338 52.744L137.913 49.7662ZM135.745 50.8028C136.097 50.319 136.458 50.0771 136.829 50.0771C137.011 50.0771 137.14 50.118 137.215 50.1997L137.027 51.1609C136.933 51.632 136.744 52.0969 136.461 52.5555C136.185 53.0142 135.934 53.2435 135.708 53.2435C135.387 53.2435 135.227 52.9356 135.227 52.32C135.227 51.786 135.4 51.2802 135.745 50.8028Z"
        fill="#7A8AA0" />
    <path fill-rule="evenodd" clip-rule="evenodd"
        d="M141.673 49.6436C141.861 49.6436 142.025 49.7065 142.163 49.8321C142.307 49.9515 142.379 50.1023 142.379 50.2844C142.379 50.6928 142.197 51.0289 141.833 51.2928C141.475 51.5566 141.013 51.7357 140.448 51.8299C140.825 52.3953 141.11 52.7691 141.305 52.9513C141.506 53.1335 141.676 53.2246 141.814 53.2246C141.927 53.2246 142.034 53.1775 142.134 53.0832C142.241 52.989 142.32 52.8979 142.37 52.81C142.389 52.81 142.417 52.8351 142.455 52.8853C142.499 52.9356 142.521 52.9733 142.521 52.9984C142.489 53.1052 142.373 53.2623 142.172 53.4696C141.971 53.6769 141.78 53.7806 141.597 53.7806C141.516 53.7806 141.434 53.768 141.352 53.7429C141.277 53.7178 141.198 53.6769 141.117 53.6204C141.041 53.5638 140.969 53.5104 140.9 53.4602C140.837 53.4099 140.765 53.3345 140.683 53.234C140.608 53.1335 140.545 53.055 140.495 52.9984C140.445 52.9356 140.379 52.8414 140.297 52.7157C140.221 52.5901 140.168 52.5021 140.137 52.4519C140.105 52.4016 140.052 52.3105 139.976 52.1786C139.901 52.0466 139.854 51.9681 139.835 51.943L139.486 53.7429C139.373 53.7743 139.27 53.79 139.175 53.79C139.094 53.79 138.99 53.7743 138.864 53.7429L139.892 48.4751C139.948 48.2175 139.976 48.0511 139.976 47.9757C139.976 47.8563 139.785 47.7966 139.402 47.7966C139.383 47.7966 139.373 47.7778 139.373 47.7401C139.373 47.6647 139.398 47.6019 139.449 47.5516C139.857 47.5139 140.253 47.426 140.636 47.2877C140.674 47.3066 140.693 47.3663 140.693 47.4668C140.693 47.5422 140.652 47.7778 140.57 48.1736L140.08 50.7085L140.184 50.586C140.253 50.5043 140.335 50.4164 140.429 50.3221C140.529 50.2216 140.642 50.118 140.768 50.0112C140.9 49.9044 141.044 49.8164 141.201 49.7473C141.365 49.6782 141.522 49.6436 141.673 49.6436ZM141.333 50.0865C141.132 50.0865 140.856 50.297 140.504 50.7179C140.159 51.1388 139.986 51.4184 139.986 51.5566C139.986 51.5692 139.992 51.5755 140.005 51.5755C140.03 51.5755 140.061 51.5723 140.099 51.566C140.143 51.5598 140.221 51.5472 140.335 51.5283C140.454 51.5032 140.567 51.4749 140.674 51.4435C140.787 51.4121 140.906 51.3681 141.032 51.3116C141.164 51.2488 141.277 51.1828 141.371 51.1137C141.465 51.0383 141.544 50.9472 141.607 50.8404C141.676 50.7336 141.71 50.6174 141.71 50.4918C141.71 50.2216 141.585 50.0865 141.333 50.0865Z"
        fill="#7A8AA0" />
    <path
        d="M144.83 49.785C144.773 49.6908 144.695 49.6437 144.594 49.6437C144.431 49.6437 144.226 49.7473 143.981 49.9547C143.743 50.162 143.586 50.3285 143.51 50.4541C143.51 50.4792 143.526 50.5232 143.557 50.586C143.595 50.6426 143.62 50.6709 143.633 50.6709L143.68 50.6143C143.711 50.5766 143.746 50.5389 143.784 50.5012L143.906 50.3787C143.956 50.3347 144.003 50.3002 144.047 50.2751C144.091 50.2436 144.126 50.2279 144.151 50.2279C144.214 50.2279 144.245 50.3065 144.245 50.4635C144.245 50.5201 144.23 50.6457 144.198 50.8405L143.812 52.81C143.768 53.0424 143.746 53.2089 143.746 53.3094C143.746 53.4539 143.774 53.5733 143.831 53.6675C143.887 53.7555 143.966 53.7995 144.066 53.7995C144.261 53.7995 144.487 53.6864 144.745 53.4602C145.002 53.2341 145.172 53.0519 145.254 52.9137C145.254 52.8885 145.235 52.8477 145.197 52.7912C145.166 52.7283 145.144 52.6969 145.131 52.6969L145.075 52.7629C145.037 52.8006 144.996 52.8446 144.952 52.8948C144.908 52.9388 144.858 52.9859 144.801 53.0362C144.751 53.0864 144.698 53.1304 144.641 53.1681C144.591 53.1995 144.547 53.2152 144.509 53.2152C144.446 53.2152 144.415 53.1367 144.415 52.9796C144.415 52.898 144.424 52.8194 144.443 52.744L144.858 50.6332C144.896 50.4321 144.914 50.2656 144.914 50.1337C144.914 49.9892 144.886 49.873 144.83 49.785Z"
        fill="#7A8AA0" />
    <path
        d="M145.103 47.7684C145.04 47.693 144.962 47.6553 144.867 47.6553C144.729 47.6553 144.613 47.7087 144.519 47.8155C144.424 47.9223 144.377 48.048 144.377 48.1925C144.377 48.3055 144.406 48.4029 144.462 48.4846C144.519 48.56 144.597 48.5977 144.698 48.5977C144.842 48.5977 144.962 48.5411 145.056 48.428C145.156 48.315 145.207 48.183 145.207 48.0323C145.207 47.9317 145.172 47.8438 145.103 47.7684Z"
        fill="#7A8AA0" />
    <path
        d="M147.101 49.6437C147.201 49.6437 147.28 49.6908 147.336 49.785C147.393 49.873 147.421 49.9892 147.421 50.1337C147.421 50.2719 147.402 50.4384 147.365 50.6331L147.195 51.5001C147.258 51.387 147.393 51.1923 147.6 50.9158C147.814 50.6394 148.071 50.3599 148.373 50.0771C148.681 49.7882 148.929 49.6437 149.117 49.6437C149.431 49.6437 149.589 49.851 149.589 50.2656C149.589 50.5483 149.545 50.8907 149.457 51.2928L149.146 52.744C149.127 52.8194 149.117 52.8979 149.117 52.9796C149.117 53.1367 149.149 53.2152 149.212 53.2152C149.249 53.2152 149.293 53.1995 149.344 53.1681C149.4 53.1304 149.453 53.0864 149.504 53.0361C149.56 52.9859 149.611 52.9388 149.654 52.8948C149.698 52.8445 149.739 52.8006 149.777 52.7629L149.834 52.6969C149.846 52.6969 149.868 52.7283 149.899 52.7911C149.937 52.8477 149.956 52.8885 149.956 52.9136C149.874 53.0518 149.705 53.234 149.447 53.4602C149.19 53.6864 148.963 53.7994 148.769 53.7994C148.668 53.7994 148.59 53.7555 148.533 53.6675C148.476 53.5733 148.448 53.4539 148.448 53.3094C148.448 53.2089 148.47 53.0424 148.514 52.81L148.844 51.2551C148.888 51.0478 148.91 50.8781 148.91 50.7462C148.91 50.4761 148.85 50.341 148.731 50.341C148.524 50.341 148.2 50.6269 147.76 51.1985C147.327 51.764 147.047 52.3671 146.922 53.0079L146.761 53.7429C146.68 53.768 146.582 53.7806 146.469 53.7806C146.356 53.7806 146.249 53.768 146.149 53.7429L146.705 50.8405C146.736 50.6143 146.752 50.4886 146.752 50.4635C146.752 50.3064 146.721 50.2279 146.658 50.2279C146.633 50.2279 146.598 50.2436 146.554 50.275C146.51 50.3002 146.463 50.3347 146.413 50.3787L146.29 50.5012C146.253 50.5389 146.218 50.5766 146.187 50.6143L146.139 50.6708C146.127 50.6708 146.102 50.6426 146.064 50.586C146.033 50.5232 146.017 50.4792 146.017 50.4541C146.092 50.3284 146.249 50.162 146.488 49.9546C146.733 49.7473 146.937 49.6437 147.101 49.6437Z"
        fill="#7A8AA0" />
    <path fill-rule="evenodd" clip-rule="evenodd"
        d="M153.235 49.7662C153.009 49.6782 152.802 49.6343 152.613 49.6343C152.161 49.6343 151.75 49.8259 151.379 50.2091C151.015 50.586 150.832 51.0384 150.832 51.5661C150.832 51.7923 150.901 51.9902 151.04 52.1598C151.184 52.3231 151.332 52.4362 151.483 52.499C151.64 52.5619 151.778 52.5933 151.897 52.5933C151.715 52.6372 151.511 52.7283 151.285 52.8665C151.065 53.0048 150.955 53.1273 150.955 53.2341C150.955 53.3534 151.033 53.4665 151.19 53.5733L151.36 53.6864C151.19 53.7618 151.04 53.8372 150.908 53.9126C150.776 53.988 150.631 54.0822 150.474 54.1953C150.324 54.3084 150.207 54.434 150.126 54.5722C150.044 54.7167 150.003 54.8643 150.003 55.0151C150.003 55.3041 150.138 55.5303 150.408 55.6936C150.685 55.857 151.04 55.9386 151.473 55.9386C152.145 55.9386 152.679 55.8067 153.075 55.5428C153.477 55.279 153.678 54.924 153.678 54.478C153.678 54.2769 153.615 54.0979 153.49 53.9408C153.37 53.7838 153.223 53.6613 153.047 53.5733C152.871 53.4854 152.692 53.4131 152.51 53.3566C152.334 53.2938 152.183 53.2372 152.057 53.187C151.938 53.1304 151.878 53.0739 151.878 53.0173C151.878 52.9545 151.932 52.8885 152.039 52.8194C152.145 52.744 152.293 52.6624 152.482 52.5744C152.676 52.4802 152.805 52.4142 152.868 52.3765C152.943 52.3325 153.016 52.2791 153.085 52.2163C153.16 52.1535 153.251 52.0593 153.358 51.9336C153.471 51.808 153.559 51.6478 153.622 51.453C153.691 51.252 153.725 51.0352 153.725 50.8028C153.725 50.7023 153.707 50.5389 153.669 50.3128C153.669 50.2751 153.688 50.2562 153.725 50.2562H154.253C154.278 50.2311 154.3 50.1871 154.319 50.1243C154.344 50.0615 154.357 50.0081 154.357 49.9641C154.357 49.9138 154.338 49.8887 154.3 49.8887H153.895C153.681 49.8887 153.462 49.8479 153.235 49.7662ZM152.953 54.4686C153.034 54.5879 153.075 54.7167 153.075 54.8549C153.075 55.0497 152.962 55.2099 152.736 55.3355C152.51 55.4675 152.243 55.5334 151.935 55.5334C151.112 55.5334 150.7 55.2821 150.7 54.7795C150.7 54.679 150.726 54.5816 150.776 54.4874C150.832 54.3932 150.889 54.3178 150.946 54.2612C151.008 54.2047 151.103 54.1419 151.228 54.0728C151.354 54.0037 151.442 53.9565 151.492 53.9314C151.549 53.9063 151.637 53.8686 151.756 53.8183C151.932 53.8749 152.079 53.9251 152.199 53.9691C152.324 54.0194 152.463 54.0853 152.613 54.167C152.764 54.255 152.877 54.3555 152.953 54.4686ZM151.794 50.4447C151.97 50.1431 152.193 49.9924 152.463 49.9924C152.639 49.9924 152.777 50.0929 152.877 50.2939C152.978 50.495 153.028 50.7211 153.028 50.9724C153.028 51.2865 152.94 51.5818 152.764 51.8582C152.595 52.1347 152.378 52.2729 152.114 52.2729C151.932 52.2729 151.79 52.1912 151.69 52.0279C151.589 51.8645 151.539 51.6603 151.539 51.4153C151.539 51.0635 151.624 50.74 151.794 50.4447Z"
        fill="#7A8AA0" />
</svg>