<svg width="200" height="84" viewBox="0 0 200 84" fill="none" xmlns="http://www.w3.org/2000/svg">
    <path fill-rule="evenodd" clip-rule="evenodd"
        d="M43.0436 31.6223L36.0037 35.8604L36 37.1582L39.724 39.3858L36.0053 41.6246L36.0015 42.9224L39.2702 44.8776L36.0052 46.8416L36.0015 48.1394L43.0866 52.3775L50.1265 48.1394L50.1302 46.8416L46.8631 44.887L50.1265 42.9224L50.1303 41.6246L46.406 39.3969L50.125 37.1577L50.1288 35.8599L43.0436 31.6223ZM40.2037 39.6727L43.0852 41.3963L45.9266 39.6855L49.6481 41.9119V42.6362L43.0883 46.5864L36.4852 42.6362V41.9119L40.2037 39.6727Z"
        fill="#7A8AA0" />
    <path fill-rule="evenodd" clip-rule="evenodd"
        d="M70.3596 35.0212V40.0382C70.8801 39.1004 72.3329 38.5859 73.2673 38.5859C75.8518 38.5859 77.7728 40.2038 77.7728 43.3287C77.7728 46.3066 75.8166 48.0715 73.2135 48.0715C72.6556 48.1037 72.0992 47.9868 71.5988 47.7322C71.0985 47.4775 70.6714 47.0939 70.3596 46.6191V47.8688H68.1698V35.0212H70.3596ZM70.5031 43.3306C70.4933 43.6784 70.5517 44.0247 70.6748 44.349C70.798 44.6734 70.9835 44.9692 71.2203 45.2189C71.4571 45.4685 71.7405 45.667 72.0535 45.8025C72.3666 45.938 72.7029 46.0079 73.0428 46.0079C73.3826 46.0079 73.719 45.938 74.0321 45.8025C74.3451 45.667 74.6284 45.4685 74.8652 45.2189C75.102 44.9692 75.2875 44.6734 75.4107 44.349C75.5339 44.0246 75.5923 43.6782 75.5825 43.3303C75.6026 42.9835 75.552 42.6362 75.4338 42.3105C75.3157 41.9849 75.1325 41.6881 74.896 41.4389C74.6596 41.1898 74.375 40.9939 74.0605 40.8638C73.746 40.7336 73.4085 40.6719 73.0694 40.6828C72.7292 40.677 72.3914 40.7417 72.0762 40.873C71.7611 41.0043 71.4751 41.1995 71.2354 41.4468C70.9957 41.6941 70.8073 41.9885 70.6814 42.3122C70.5556 42.6359 70.495 42.9823 70.5031 43.3306Z"
        fill="#7A8AA0" />
    <path d="M82.0083 35.0217V47.8715H79.8366V35.0217H82.0083Z" fill="#7A8AA0" />
    <path fill-rule="evenodd" clip-rule="evenodd"
        d="M92.8765 45.1894C93.0985 44.6034 93.1989 43.9765 93.1712 43.3485C93.1778 42.725 93.0635 42.1064 92.8351 41.5285C92.6067 40.9505 92.2686 40.4247 91.8405 39.9814C91.4123 39.5381 90.9025 39.1862 90.3407 38.9461C89.7789 38.7059 89.1761 38.5823 88.5674 38.5823C87.9586 38.5823 87.3558 38.7059 86.794 38.9461C86.2321 39.1862 85.7224 39.5381 85.2943 39.9814C84.8661 40.4247 84.528 40.9505 84.2996 41.5285C84.0711 42.1064 83.9569 42.725 83.9634 43.3485C83.9634 45.9589 85.6866 48.0728 88.5586 48.0728C89.1717 48.1011 89.7838 47.9983 90.3559 47.7709C90.9281 47.5435 91.4478 47.1965 91.8817 46.7521C92.3157 46.3076 92.6545 45.7754 92.8765 45.1894ZM88.5586 46.0141C86.9613 46.0141 86.1533 44.7272 86.1533 43.3485C86.1533 41.9884 86.9799 40.665 88.5586 40.6644C88.8893 40.6767 89.2142 40.7562 89.5147 40.8982C89.8152 41.0402 90.0852 41.2419 90.3089 41.4916C90.5327 41.7413 90.7058 42.034 90.8182 42.3528C90.9306 42.6716 90.9801 43.01 90.9638 43.3485C90.9638 44.7272 90.1559 46.0141 88.5586 46.0141Z"
        fill="#7A8AA0" />
    <path
        d="M102.723 46.7132C102.283 47.1825 101.753 47.5525 101.166 47.7994C100.579 48.0463 99.9473 48.1648 99.3127 48.1471C96.7458 48.1471 94.6099 46.5663 94.6099 43.3491C94.6099 40.1319 96.7458 38.5511 99.3127 38.5511C99.9077 38.5302 100.5 38.6391 101.051 38.8704C101.602 39.1018 102.098 39.4504 102.508 39.8932L101.125 41.3822C100.639 40.9283 100.007 40.6732 99.3484 40.665C99.0052 40.656 98.6639 40.7199 98.3459 40.8526C98.028 40.9853 97.7402 41.184 97.5008 41.4361C97.2615 41.6882 97.0756 41.9883 96.9549 42.3175C96.8343 42.6467 96.7814 42.9979 96.7997 43.3491C96.7748 43.6967 96.8221 44.0458 96.9384 44.3733C97.0547 44.7009 97.2374 44.9995 97.4745 45.2495C97.7116 45.4996 97.9977 45.6954 98.314 45.824C98.6302 45.9527 98.9695 46.0113 99.3095 45.996C99.6655 46.0097 100.02 45.9501 100.354 45.8206C100.687 45.6911 100.991 45.4944 101.248 45.2423L102.723 46.7132Z"
        fill="#7A8AA0" />
    <path
        d="M106.273 42.4503V35.0217H104.081V47.8715H106.271V43.7721L109.737 47.8715H112.376V47.7076L108.265 43.0752L111.873 38.9392V38.8103H109.253L106.273 42.4503Z"
        fill="#7A8AA0" />
    <path
        d="M119.607 41.2177C119.313 40.9395 118.968 40.7246 118.592 40.5857C118.216 40.4467 117.817 40.3865 117.417 40.4087C116.376 40.4087 115.802 40.7397 115.802 41.3094C115.802 41.8977 116.322 42.2287 117.455 42.3019C119.124 42.4111 121.242 42.7984 121.242 45.2061C121.242 46.8055 119.967 48.1841 117.436 48.1841C116.68 48.2377 115.922 48.1206 115.215 47.841C114.508 47.5615 113.869 47.1263 113.344 46.5662L114.421 44.9669C115.263 45.7409 116.342 46.1895 117.472 46.2352C118.298 46.2532 119.072 45.8125 119.072 45.1504C119.072 44.5256 118.57 44.2677 117.312 44.1946C115.643 44.0656 113.65 43.4408 113.65 41.3821C113.65 39.2862 115.768 38.551 117.384 38.551C118.007 38.5086 118.632 38.5922 119.223 38.7972C119.814 39.0021 120.36 39.3244 120.83 39.7456L119.607 41.2177Z"
        fill="#7A8AA0" />
    <path
        d="M129.125 47.7994C129.712 47.5525 130.242 47.1825 130.682 46.7132L129.21 45.2423C128.953 45.4944 128.648 45.6911 128.315 45.8205C127.982 45.95 127.627 46.0097 127.271 45.996C126.931 46.0117 126.592 45.9534 126.275 45.8249C125.958 45.6964 125.672 45.5007 125.435 45.2506C125.197 45.0005 125.014 44.7018 124.898 44.374C124.781 44.0463 124.734 43.697 124.758 43.3491C124.74 42.9979 124.793 42.6467 124.914 42.3175C125.034 41.9882 125.22 41.6881 125.46 41.4361C125.699 41.184 125.987 40.9853 126.305 40.8526C126.623 40.7199 126.964 40.656 127.307 40.665C127.965 40.6731 128.598 40.9283 129.084 41.3821L130.466 39.8932C130.057 39.4504 129.56 39.1019 129.01 38.8705C128.459 38.6391 127.866 38.5303 127.271 38.5511C124.705 38.5511 122.569 40.1319 122.569 43.3491C122.569 46.5663 124.705 48.1471 127.271 48.1471C127.906 48.1647 128.537 48.0463 129.125 47.7994Z"
        fill="#7A8AA0" />
    <path fill-rule="evenodd" clip-rule="evenodd"
        d="M139.047 38.8081H141.219V47.871H139.047V46.5475C138.545 47.6137 137.162 48.1282 136.175 48.1468C133.554 48.1654 131.616 46.5082 131.616 43.3308C131.616 40.2059 133.642 38.5694 136.228 38.588C136.782 38.5669 137.331 38.6909 137.824 38.9482C138.317 39.2056 138.738 39.5877 139.047 40.0584L139.047 38.8081ZM133.806 43.3303C133.784 43.692 133.836 44.0546 133.959 44.3945C134.082 44.7344 134.273 45.0442 134.52 45.304C134.766 45.5637 135.064 45.7676 135.392 45.9026C135.721 46.0376 136.073 46.1006 136.427 46.0876C139.873 46.0876 139.873 40.591 136.427 40.591C136.074 40.5757 135.722 40.6366 135.394 40.7696C135.065 40.9027 134.768 41.1049 134.521 41.3633C134.274 41.6216 134.082 41.9302 133.959 42.2692C133.836 42.6082 133.784 42.9693 133.806 43.3303Z"
        fill="#7A8AA0" />
    <path fill-rule="evenodd" clip-rule="evenodd"
        d="M143.514 38.8089V51.6586L145.705 51.6597V46.8066C146.333 47.7991 147.715 48.0935 148.648 48.0935C151.484 48.0935 153.117 45.9976 153.117 43.3507C153.145 42.7279 153.048 42.1059 152.831 41.5234C152.614 40.941 152.282 40.4106 151.856 39.9655C151.43 39.5204 150.918 39.1701 150.354 38.9365C149.79 38.7029 149.184 38.591 148.576 38.6079C148.019 38.5996 147.468 38.727 146.969 38.9795C146.47 39.232 146.036 39.6024 145.704 40.0602V38.8089H143.514ZM150.191 41.5296C150.663 42.0123 150.927 42.667 150.927 43.3496C150.927 44.0322 150.663 44.6868 150.191 45.1695C149.72 45.6522 149.081 45.9233 148.414 45.9233C147.748 45.9233 147.109 45.6522 146.637 45.1695C146.166 44.6868 145.901 44.0322 145.901 43.3496C145.901 42.667 146.166 42.0123 146.637 41.5296C147.109 41.047 147.748 40.7758 148.414 40.7758C149.081 40.7758 149.72 41.047 150.191 41.5296Z"
        fill="#7A8AA0" />
    <path fill-rule="evenodd" clip-rule="evenodd"
        d="M157.049 44.1404C157.192 45.2618 158.144 46.0707 159.687 46.0707C160.55 46.0844 161.389 45.7848 162.057 45.2252L163.457 46.641C162.422 47.617 161.058 48.1441 159.651 48.1114C156.6 48.1114 154.787 46.181 154.787 43.2763C154.787 40.5189 156.618 38.5334 159.49 38.5334C162.452 38.5334 164.301 40.4086 163.96 44.1404H157.049ZM161.859 42.2832C161.715 41.1067 160.818 40.5184 159.562 40.5184C159.013 40.4748 158.467 40.6266 158.016 40.9483C157.564 41.2699 157.235 41.7415 157.085 42.2832H161.859Z"
        fill="#7A8AA0" />
</svg>