<svg width="200" height="84" viewBox="0 0 200 84" fill="none" xmlns="http://www.w3.org/2000/svg">
    <path fill-rule="evenodd" clip-rule="evenodd"
        d="M42.5439 31.1778L39.027 33.2083L31.3576 27V39.5438L31.3625 39.5409V50.5445L42.5439 57L53.7252 50.5445V27.1285L46.1505 33.2601L42.5439 31.1778ZM33.3175 49.4158V40.6068L42.5348 46.1755L51.7702 40.7442V49.4158L42.5439 54.7426L33.3175 49.4158ZM42.5482 43.8996L33.6894 38.5474L42.5439 33.4353L51.5249 38.6205L42.5482 43.8996ZM51.7702 36.259L48.1653 34.1444L51.7702 31.2262V36.259ZM36.9174 34.0158L33.3125 36.1305V31.0977L36.9174 34.0158Z"
        fill="#7A8AA0" />
    <path fill-rule="evenodd" clip-rule="evenodd"
        d="M68.3265 43.1113C68.3265 44.6054 67.0499 45.0972 65.7449 45.0972H62.8889V37.9668H65.5368C66.804 37.9668 67.6551 38.4585 67.6551 39.8203C67.6551 40.4634 67.4471 40.9835 66.8702 41.2767V41.2956C67.8915 41.428 68.3265 42.1183 68.3265 43.1113ZM64.9316 42.1467H64.7424V43.6787H64.9789L65.0345 43.6787C65.5876 43.6796 66.4541 43.6811 66.4541 42.9221C66.4541 42.1307 65.6783 42.1391 65.0828 42.1456C65.0308 42.1461 64.9802 42.1467 64.9316 42.1467ZM64.8748 39.3853H64.7424V40.766H64.9505C65.4422 40.766 65.9529 40.6809 65.9529 40.0756C65.9529 39.4231 65.376 39.3853 64.8748 39.3853Z"
        fill="#7A8AA0" />
    <path d="M73.9828 37.9668H72.1293V45.0972H76.2052V43.5273H73.9828V37.9668Z" fill="#7A8AA0" />
    <path fill-rule="evenodd" clip-rule="evenodd"
        d="M79.2875 41.3997C79.2875 39.2435 81.1787 37.7305 83.2308 37.7305C85.2829 37.7305 87.1742 39.2435 87.1742 41.3997C87.1742 43.7071 85.5195 45.3336 83.2308 45.3336C80.9426 45.3336 79.2875 43.7071 79.2875 41.3997ZM85.2452 41.4091C85.2452 40.4256 84.3375 39.5272 83.2308 39.5272C82.1246 39.5272 81.2168 40.4256 81.2168 41.4091C81.2168 42.6385 82.1246 43.5369 83.2308 43.5369C84.3375 43.5369 85.2452 42.6385 85.2452 41.4091Z"
        fill="#7A8AA0" />
    <path
        d="M95.9688 38.1367C95.4202 37.9097 94.8717 37.7773 94.2759 37.7773C93.2735 37.7773 92.2615 38.2123 91.5618 38.9311C90.881 39.6309 90.5121 40.5671 90.5121 41.5411C90.5121 42.6003 90.8713 43.527 91.6564 44.2363C92.3938 44.9077 93.3397 45.286 94.3324 45.286C94.8938 45.286 95.33 45.1517 95.9194 44.9702L95.9688 44.955V42.7327C95.581 43.1961 94.9755 43.4892 94.3705 43.4892C93.2165 43.4892 92.4411 42.6759 92.4411 41.5506C92.4411 40.4442 93.2074 39.5741 94.342 39.5741C94.9755 39.5741 95.5902 39.8484 95.9688 40.359V38.1367Z"
        fill="#7A8AA0" />
    <path
        d="M101.803 40.9078H101.822L104.063 37.9668H106.361L103.524 41.3429L106.617 45.0972H104.214L101.822 42.0048H101.803V45.0972H99.9494V37.9668H101.803V40.9078Z"
        fill="#7A8AA0" />
    <path fill-rule="evenodd" clip-rule="evenodd"
        d="M109.955 45.0972H112.585C114.561 45.0972 116.206 43.5368 116.206 41.532C116.206 39.5272 114.571 37.9668 112.585 37.9668H109.955V45.0972ZM111.809 39.5366H112.244C113.436 39.5366 114.277 40.2553 114.277 41.532C114.277 42.9221 113.332 43.5273 112.225 43.5273H111.809V39.5366Z"
        fill="#7A8AA0" />
    <path fill-rule="evenodd" clip-rule="evenodd"
        d="M124.736 45.0972L124.272 43.8583H121.719L121.227 45.0972H119.26L122.003 37.9668H124.026L126.712 45.0972H124.736ZM122.23 42.4398H123.771L123.014 40.1702H122.995L122.23 42.4398Z"
        fill="#7A8AA0" />
    <path
        d="M134.184 39.5366V37.9668H130.127V45.0972H134.184V43.5273H131.98V42.298H134.071V40.7282H131.98V39.5366H134.184Z"
        fill="#7A8AA0" />
    <path
        d="M139.583 45.0972H137.739L138.949 37.9668H140.774L142.221 41.7779L143.753 37.9668H145.597L146.675 45.0972H144.822L144.302 40.993H144.283L142.571 45.0972H141.833L140.197 40.993H140.178L139.583 45.0972Z"
        fill="#7A8AA0" />
    <path fill-rule="evenodd" clip-rule="evenodd"
        d="M153.881 37.7305C151.829 37.7305 149.938 39.2435 149.938 41.3997C149.938 43.7071 151.593 45.3336 153.881 45.3336C156.17 45.3336 157.825 43.7071 157.825 41.3997C157.825 39.2435 155.933 37.7305 153.881 37.7305ZM153.881 39.5272C154.988 39.5272 155.895 40.4256 155.895 41.4091C155.895 42.6385 154.988 43.5369 153.881 43.5369C152.775 43.5369 151.867 42.6385 151.867 41.4091C151.867 40.4256 152.775 39.5272 153.881 39.5272Z"
        fill="#7A8AA0" />
    <path
        d="M163.375 45.0972H161.522V37.9668H163.375L166.77 42.3263H166.789V37.9668H168.642V45.0972H166.789L163.394 40.7282H163.375V45.0972Z"
        fill="#7A8AA0" />
</svg>