<svg width="200" height="84" viewBox="0 0 200 84" fill="none" xmlns="http://www.w3.org/2000/svg">
    <path
        d="M54.0436 42C54.0436 42.9581 53.9521 43.8949 53.7773 44.8021C50.1221 43.5679 45.2358 42.4764 40.3707 42.7888C40.104 42.8059 39.8415 42.8248 39.583 42.8453V41.7486C39.583 40.7983 41.0232 39.3706 42.7372 39.3706C44.7389 39.3706 45.266 40.8547 45.6144 41.8359L45.6148 41.8369C45.6476 41.9294 45.6789 42.0173 45.7096 42.0992L47.1175 42.2283C47.3539 42.25 47.5578 42.0639 47.5578 41.8266V36.2248C47.5578 36.1898 47.5487 36.1555 47.5315 36.1252L46.7214 34.6986C46.6441 34.5625 46.4479 34.5625 46.3706 34.6986L45.7003 35.8791C45.6251 36.0115 45.4359 36.016 45.3545 35.8874L42.8481 31.927C42.7689 31.8019 42.5864 31.8019 42.5072 31.927L40.0062 35.8789C39.9235 36.0095 39.7307 36.0025 39.6578 35.8661L39.0467 34.7226C38.9707 34.5804 38.7669 34.5804 38.6909 34.7226L37.9404 36.1269C37.9248 36.1562 37.9166 36.1888 37.9166 36.222V43.0073C34.9756 43.3486 32.5819 43.938 30.4666 44.7548V42.8765C30.4666 42.1753 31.3957 41.2988 32.6578 41.2988C33.9199 41.2988 34.586 42.1753 34.849 42.8765L36.0057 42.6723C36.1984 42.6383 36.339 42.4708 36.339 42.2751V39.0732C36.339 39.0383 36.3299 39.0041 36.3128 38.9737L35.7695 38.015C35.6922 37.8786 35.4957 37.8786 35.4185 38.015L35.0151 38.7269C34.9399 38.8595 34.7505 38.864 34.6691 38.7351L32.916 35.9595C32.8368 35.8341 32.6541 35.8341 32.5749 35.9595L30.8272 38.7267C30.7446 38.8575 30.5515 38.8504 30.4787 38.7139L30.1187 38.039C30.0428 37.8966 29.8387 37.8966 29.7628 38.039L29.2633 38.9755C29.2477 39.0047 29.2396 39.0373 29.2396 39.0704V45.267C27.9472 45.8479 26.7474 46.5207 25.5691 47.2797C24.9394 45.6407 24.5943 43.8607 24.5943 42C24.5943 33.8678 31.1868 27.2753 39.319 27.2753C47.4512 27.2753 54.0436 33.8678 54.0436 42Z"
        fill="#7A8AA0" />
    <path fill-rule="evenodd" clip-rule="evenodd"
        d="M29.2396 47.7885C28.2442 48.1604 27.2983 48.5784 26.3741 49.0235C28.8684 53.6109 33.73 56.7247 39.319 56.7247C44.4757 56.7247 49.0134 54.0738 51.6435 50.0604C50.3734 49.2923 48.9317 48.5354 47.3825 47.8971V49.3095C47.3825 49.5323 47.2019 49.7129 46.9791 49.7129H46.5588C46.336 49.7129 46.1554 49.5323 46.1554 49.3095V47.4259C44.3146 46.7712 42.3538 46.3103 40.3707 46.207C40.1042 46.1932 39.8417 46.1824 39.583 46.1745V49.3095C39.583 49.5323 39.4024 49.7129 39.1796 49.7129H38.32C38.0972 49.7129 37.9166 49.5323 37.9166 49.3095V46.1654C35.0128 46.2242 32.6107 46.6793 30.4666 47.3633V48.6083C30.4666 48.8311 30.286 49.0117 30.0632 49.0117H29.643C29.4202 49.0117 29.2396 48.8311 29.2396 48.6083V47.7885ZM36.339 46.9082C36.339 46.9082 35.4625 46.9082 35.1119 47.0835L35.1119 48.6088C35.1119 48.8316 35.2925 49.0117 35.5153 49.0117H35.9356C36.1584 49.0117 36.339 48.8311 36.339 48.6083V46.9082Z"
        fill="#7A8AA0" />
    <path
        d="M42.2113 44.5417C34.6698 44.039 30.0711 46.1259 26.0037 48.2946C26.0292 48.3485 26.0551 48.4022 26.0812 48.4557C31.3439 46.1522 36.729 44.6686 42.6495 45.5058C46.2042 46.0085 49.5887 47.3753 52.3513 48.8602C52.593 48.4019 52.8113 47.9293 53.0045 47.444C49.8886 46.041 46.0864 44.8001 42.2113 44.5417Z"
        fill="#7A8AA0" />
    <path
        d="M108.661 37.5189H110.333V40.7268C109.904 41.0506 109.407 41.2991 108.842 41.4723C108.277 41.6455 107.709 41.7321 107.136 41.7321C106.316 41.7321 105.578 41.5589 104.923 41.2125C104.267 40.8586 103.752 40.3729 103.375 39.7554C103.006 39.1304 102.822 38.4263 102.822 37.6431C102.822 36.86 103.006 36.1596 103.375 35.5421C103.752 34.9171 104.271 34.4314 104.934 34.085C105.597 33.7311 106.342 33.5541 107.17 33.5541C107.863 33.5541 108.492 33.6708 109.057 33.9043C109.622 34.1377 110.096 34.4766 110.48 34.9209L109.305 36.0053C108.74 35.4104 108.059 35.1129 107.261 35.1129C106.756 35.1129 106.308 35.2183 105.917 35.4292C105.525 35.64 105.22 35.9375 105.002 36.3215C104.783 36.7056 104.674 37.1461 104.674 37.6431C104.674 38.1326 104.783 38.5694 105.002 38.9534C105.22 39.3375 105.521 39.6387 105.905 39.8571C106.297 40.0679 106.741 40.1734 107.238 40.1734C107.765 40.1734 108.24 40.0604 108.661 39.8345V37.5189Z"
        fill="#7A8AA0" />
    <path fill-rule="evenodd" clip-rule="evenodd"
        d="M72.136 38.2079C71.88 37.869 71.5261 37.6281 71.0742 37.485C71.4056 37.3118 71.6616 37.0746 71.8423 36.7734C72.0306 36.4721 72.1247 36.1295 72.1247 35.7455C72.1247 35.1129 71.8649 34.6121 71.3453 34.2431C70.8333 33.8742 70.0953 33.6897 69.1314 33.6897H65.2683V41.5966H69.3573C70.389 41.5966 71.1721 41.4121 71.7068 41.0431C72.249 40.6666 72.5201 40.1319 72.5201 39.4391C72.5201 38.9497 72.3921 38.5392 72.136 38.2079ZM67.0869 36.9315V35.0677H68.9055C69.3573 35.0677 69.6999 35.1468 69.9334 35.3049C70.1668 35.4555 70.2835 35.6852 70.2835 35.994C70.2835 36.3027 70.1668 36.5362 69.9334 36.6943C69.6999 36.8524 69.3573 36.9315 68.9055 36.9315H67.0869ZM70.3061 39.9813C70.0652 40.1395 69.7037 40.2185 69.2217 40.2185H67.0869V38.2644H69.2217C70.1932 38.2644 70.6789 38.592 70.6789 39.2471C70.6789 39.5784 70.5546 39.8232 70.3061 39.9813Z"
        fill="#7A8AA0" />
    <path fill-rule="evenodd" clip-rule="evenodd"
        d="M79.4355 39.394L80.9604 41.5966H82.9258L81.1524 39.0551C81.672 38.8292 82.0711 38.5054 82.3498 38.0837C82.6359 37.6544 82.779 37.1461 82.779 36.5587C82.779 35.9714 82.6397 35.4631 82.3611 35.0338C82.0824 34.6046 81.6833 34.2733 81.1637 34.0398C80.6516 33.8064 80.0454 33.6897 79.3451 33.6897H75.9225V41.5966H77.7524V39.394H79.4355ZM80.4973 35.5421C80.7834 35.7756 80.9265 36.1145 80.9265 36.5587C80.9265 36.9955 80.7834 37.3344 80.4973 37.5754C80.2111 37.8163 79.7932 37.9368 79.2435 37.9368H77.7524V35.1807H79.2435C79.7932 35.1807 80.2111 35.3012 80.4973 35.5421Z"
        fill="#7A8AA0" />
    <path d="M86.2459 33.6897H88.0758V41.5966H86.2459V33.6897Z" fill="#7A8AA0" />
    <path fill-rule="evenodd" clip-rule="evenodd"
        d="M95.5614 33.6897H91.9693V41.5966H95.5614C96.4198 41.5966 97.1766 41.4347 97.8318 41.1109C98.4945 40.7796 99.0065 40.3164 99.368 39.7215C99.737 39.1266 99.9215 38.4338 99.9215 37.6431C99.9215 36.8524 99.737 36.1596 99.368 35.5647C99.0065 34.9698 98.4945 34.5105 97.8318 34.1867C97.1766 33.8553 96.4198 33.6897 95.5614 33.6897ZM97.3574 39.4391C96.8905 39.8759 96.2617 40.0943 95.471 40.0943H93.7992V35.192H95.471C96.2617 35.192 96.8905 35.4141 97.3574 35.8584C97.8318 36.2952 98.069 36.8901 98.069 37.6431C98.069 38.3962 97.8318 38.9948 97.3574 39.4391Z"
        fill="#7A8AA0" />
    <path
        d="M120.172 41.5966V40.1282H115.869V38.2983H119.54V36.875H115.869V35.1581H120.025V33.6897H114.05V41.5966H120.172Z"
        fill="#7A8AA0" />
    <path d="M125.283 35.1807H122.753V33.6897H129.643V35.1807H127.113V41.5966H125.283V35.1807Z" fill="#7A8AA0" />
    <path fill-rule="evenodd" clip-rule="evenodd"
        d="M134.139 41.2013C134.801 41.5552 135.543 41.7321 136.364 41.7321C137.185 41.7321 137.923 41.5552 138.578 41.2013C139.233 40.8473 139.749 40.3616 140.125 39.7441C140.502 39.1191 140.69 38.4188 140.69 37.6431C140.69 36.8675 140.502 36.1709 140.125 35.5534C139.749 34.9284 139.233 34.4389 138.578 34.085C137.923 33.7311 137.185 33.5541 136.364 33.5541C135.543 33.5541 134.801 33.7311 134.139 34.085C133.484 34.4389 132.968 34.9284 132.591 35.5534C132.222 36.1709 132.038 36.8675 132.038 37.6431C132.038 38.4188 132.222 39.1191 132.591 39.7441C132.968 40.3616 133.484 40.8473 134.139 41.2013ZM137.629 39.8571C137.252 40.0679 136.831 40.1734 136.364 40.1734C135.897 40.1734 135.475 40.0679 135.099 39.8571C134.722 39.6387 134.425 39.3375 134.206 38.9534C133.996 38.5694 133.89 38.1326 133.89 37.6431C133.89 37.1537 133.996 36.7169 134.206 36.3328C134.425 35.9488 134.722 35.6513 135.099 35.4405C135.475 35.2221 135.897 35.1129 136.364 35.1129C136.831 35.1129 137.252 35.2221 137.629 35.4405C138.006 35.6513 138.299 35.9488 138.51 36.3328C138.728 36.7169 138.838 37.1537 138.838 37.6431C138.838 38.1326 138.728 38.5694 138.51 38.9534C138.299 39.3375 138.006 39.6387 137.629 39.8571Z"
        fill="#7A8AA0" />
    <path
        d="M155.768 33.6897L153.182 41.5966H151.216L149.477 36.2425L147.681 41.5966H145.727L143.129 33.6897H145.026L146.811 39.2471L148.675 33.6897H150.369L152.176 39.2923L154.018 33.6897H155.768Z"
        fill="#7A8AA0" />
    <path
        d="M164.929 41.5966V40.1282H160.626V38.2983H164.297V36.875H160.626V35.1581H164.783V33.6897H158.807V41.5966H164.929Z"
        fill="#7A8AA0" />
    <path fill-rule="evenodd" clip-rule="evenodd"
        d="M173.44 41.5966L171.915 39.394H170.232V41.5966H168.402V33.6897H171.825C172.525 33.6897 173.132 33.8064 173.644 34.0398C174.163 34.2733 174.562 34.6046 174.841 35.0338C175.12 35.4631 175.259 35.9714 175.259 36.5587C175.259 37.1461 175.116 37.6544 174.83 38.0837C174.551 38.5054 174.152 38.8292 173.632 39.0551L175.406 41.5966H173.44ZM173.406 36.5587C173.406 36.1145 173.263 35.7756 172.977 35.5421C172.691 35.3012 172.273 35.1807 171.723 35.1807H170.232V37.9368H171.723C172.273 37.9368 172.691 37.8163 172.977 37.5754C173.263 37.3344 173.406 36.9955 173.406 36.5587Z"
        fill="#7A8AA0" />
    <path
        d="M104.077 53.9734C103.564 53.9734 103.099 53.8621 102.683 53.6394C102.271 53.4119 101.947 53.0996 101.71 52.7027C101.477 52.3057 101.361 51.8579 101.361 51.3593C101.361 50.8607 101.48 50.4129 101.717 50.0159C101.954 49.6189 102.278 49.3091 102.69 49.0864C103.106 48.8589 103.571 48.7451 104.084 48.7451C104.5 48.7451 104.88 48.8178 105.224 48.963C105.568 49.1082 105.858 49.3188 106.096 49.5947L105.486 50.1684C105.118 49.7714 104.665 49.573 104.128 49.573C103.779 49.573 103.467 49.6504 103.191 49.8053C102.915 49.9554 102.7 50.166 102.545 50.4371C102.39 50.7082 102.312 51.0156 102.312 51.3593C102.312 51.703 102.39 52.0104 102.545 52.2815C102.7 52.5526 102.915 52.7656 103.191 52.9205C103.467 53.0706 103.779 53.1456 104.128 53.1456C104.665 53.1456 105.118 52.9447 105.486 52.5429L106.096 53.1238C105.858 53.3998 105.565 53.6103 105.217 53.7556C104.873 53.9008 104.493 53.9734 104.077 53.9734Z"
        fill="#7A8AA0" />
    <path fill-rule="evenodd" clip-rule="evenodd"
        d="M108.052 52.7244L107.551 53.9008H106.578L108.866 48.8178H109.795L112.09 53.9008H111.102L110.594 52.7244H108.052ZM110.282 51.9838L109.323 49.7618L108.372 51.9838H110.282Z"
        fill="#7A8AA0" />
    <path fill-rule="evenodd" clip-rule="evenodd"
        d="M116.378 49.0356C116.054 48.8904 115.671 48.8178 115.231 48.8178H113.14V53.9008H114.083V52.434H115.231C115.671 52.434 116.054 52.3614 116.378 52.2161C116.707 52.0709 116.959 51.8627 117.133 51.5916C117.308 51.3157 117.395 50.9938 117.395 50.6259C117.395 50.2531 117.308 49.9312 117.133 49.6601C116.959 49.389 116.707 49.1808 116.378 49.0356ZM116.124 51.3738C115.911 51.5481 115.599 51.6352 115.187 51.6352H114.083V49.6165H115.187C115.599 49.6165 115.911 49.7037 116.124 49.8779C116.337 50.0522 116.443 50.3015 116.443 50.6259C116.443 50.9502 116.337 51.1995 116.124 51.3738Z"
        fill="#7A8AA0" />
    <path d="M118.741 48.8178H119.685V53.9008H118.741V48.8178Z" fill="#7A8AA0" />
    <path d="M120.81 49.6165H122.494V53.9008H123.438V49.6165H125.123V48.8178H120.81V49.6165Z" fill="#7A8AA0" />
    <path fill-rule="evenodd" clip-rule="evenodd"
        d="M126.735 52.7244L126.234 53.9008H125.261L127.548 48.8178H128.477L130.772 53.9008H129.784L129.276 52.7244H126.735ZM128.964 51.9838L128.005 49.7618L127.054 51.9838H128.964Z"
        fill="#7A8AA0" />
    <path d="M132.766 48.8178H131.822V53.9008H135.424V53.102H132.766V48.8178Z" fill="#7A8AA0" />
    <path d="M93.4775 51.4803H67.7598V50.8752H93.4775V51.4803Z" fill="#7A8AA0" />
    <path d="M143.602 51.4803H171.942V50.8752H143.602V51.4803Z" fill="#7A8AA0" />
</svg>