<svg width="200" height="84" viewBox="0 0 200 84" fill="none" xmlns="http://www.w3.org/2000/svg">
    <path opacity="0.3" d="M58.1709 41.9082L51.7511 45.7601L58.1709 49.7954L64.7742 45.7601L58.1709 41.9082Z"
        fill="#7A8AA0" />
    <path opacity="0.6" d="M58.1711 38.4229L51.7513 42.2748L58.1711 46.3101L64.7744 42.2748L58.1711 38.4229Z"
        fill="#7A8AA0" />
    <path opacity="0.8" d="M58.1711 34.9388L51.7513 38.7907L58.1711 42.826L64.7744 38.7907L58.1711 34.9388Z"
        fill="#7A8AA0" />
    <path
        d="M44.9644 32.9205L58.1709 25.2167L71.5609 32.9205L65.8747 36.2221L58.1709 31.6365L50.2837 36.2221L44.9644 32.9205Z"
        fill="#7A8AA0" />
    <path d="M43.1302 51.0794V35.4884L48.8163 38.7901V47.9612L56.5201 52.3634V58.7832L43.1302 51.0794Z"
        fill="#7A8AA0" />
    <path d="M73.3951 35.4885V51.0795L60.0052 58.7833V52.3635L67.709 47.9613V38.7901L73.3951 35.4885Z" fill="#7A8AA0" />
    <path d="M109.219 40.3969V47.5672H110.893V40.3969H109.219Z" fill="#7A8AA0" />
    <path
        d="M109.247 38.6282C109.437 38.7914 109.7 38.8731 110.036 38.8731C110.371 38.8731 110.634 38.7824 110.825 38.6009C111.015 38.4195 111.111 38.1882 111.111 37.907C111.111 37.5896 111.015 37.3492 110.825 37.1859C110.643 37.0136 110.38 36.9274 110.036 36.9274C109.709 36.9274 109.451 37.0181 109.26 37.1995C109.07 37.381 108.974 37.6168 108.974 37.907C108.974 38.2154 109.065 38.4558 109.247 38.6282Z"
        fill="#7A8AA0" />
    <path
        d="M92.4978 37.4989V47.5672H94.1713V43.2405C94.1713 43.0228 94.2121 42.8233 94.2938 42.6419C94.3845 42.4605 94.5024 42.3017 94.6475 42.1657C94.8017 42.0205 94.9786 41.9117 95.1782 41.8391C95.3868 41.7575 95.6135 41.7167 95.8584 41.7167C96.1578 41.7076 96.4117 41.762 96.6204 41.8799C96.829 41.9888 96.9832 42.1657 97.083 42.4106C97.1827 42.6464 97.2326 42.9457 97.2326 43.3085V47.5672H98.9061V43.1861C98.9061 42.533 98.8109 41.9888 98.6204 41.5534C98.439 41.118 98.1624 40.7915 97.7905 40.5738C97.4276 40.3561 96.9741 40.2472 96.4299 40.2472C96.0489 40.2472 95.677 40.3289 95.3142 40.4921C94.9514 40.6554 94.6385 40.8731 94.3754 41.1452C94.2947 41.2259 94.2222 41.3096 94.1577 41.3962V37.4989H92.4978Z"
        fill="#7A8AA0" />
    <path
        d="M85.8908 47.3495C86.4622 47.5853 87.0926 47.7032 87.782 47.7032C88.2264 47.7032 88.6709 47.6488 89.1154 47.54C89.5689 47.422 89.9771 47.2633 90.3399 47.0638C90.7027 46.8642 90.993 46.642 91.2106 46.3971L90.3399 44.9957C90.1403 45.1952 89.9181 45.3721 89.6732 45.5263C89.4374 45.6714 89.1788 45.7848 88.8977 45.8664C88.6165 45.9481 88.3262 45.9889 88.0269 45.9889C87.5643 45.9889 87.138 45.9163 86.7479 45.7712C86.367 45.617 86.0359 45.3993 85.7547 45.1181C85.4826 44.8369 85.2694 44.5013 85.1152 44.1113C84.9701 43.7213 84.8976 43.2859 84.8976 42.8051C84.8976 42.3335 84.9747 41.9072 85.1289 41.5262C85.2831 41.1362 85.4917 40.8005 85.7547 40.5194C86.0268 40.2382 86.3443 40.0205 86.7071 39.8663C87.079 39.7121 87.4736 39.635 87.8908 39.635C88.172 39.635 88.4441 39.6803 88.7072 39.771C88.9793 39.8527 89.2378 39.9797 89.4827 40.152C89.7367 40.3153 89.9816 40.5194 90.2174 40.7643L91.3467 39.5261C91.1018 39.2087 90.7979 38.932 90.4351 38.6962C90.0723 38.4513 89.6732 38.2608 89.2378 38.1247C88.8024 37.9887 88.3534 37.9207 87.8908 37.9207C87.2105 37.9207 86.5801 38.0431 85.9996 38.288C85.4191 38.5329 84.9112 38.8776 84.4758 39.3221C84.0404 39.7665 83.7002 40.2835 83.4553 40.8731C83.2104 41.4627 83.088 42.1022 83.088 42.7915C83.088 43.5081 83.2014 44.1702 83.4281 44.778C83.664 45.3766 83.9905 45.8982 84.4077 46.3426C84.825 46.778 85.3193 47.1136 85.8908 47.3495Z"
        fill="#7A8AA0" />
    <path fill-rule="evenodd" clip-rule="evenodd"
        d="M103.252 47.7032C102.662 47.7032 102.127 47.54 101.646 47.2134C101.165 46.8869 100.78 46.4424 100.49 45.88C100.199 45.3177 100.054 44.6782 100.054 43.9616C100.054 43.2451 100.199 42.6056 100.49 42.0432C100.78 41.4808 101.174 41.0409 101.673 40.7234C102.172 40.406 102.735 40.2472 103.36 40.2472C103.723 40.2472 104.054 40.3017 104.354 40.4105C104.653 40.5103 104.916 40.6554 105.143 40.8459C105.342 41.0134 105.51 41.2018 105.646 41.4113V40.3969H107.333V47.5672H105.633V46.5609C105.476 46.7658 105.281 46.9515 105.048 47.1182C104.803 47.2905 104.526 47.4311 104.218 47.54C103.918 47.6488 103.596 47.7032 103.252 47.7032ZM103.714 46.2202C104.104 46.2202 104.449 46.125 104.748 45.9345C105.048 45.744 105.279 45.4809 105.442 45.1453C105.615 44.8007 105.701 44.4061 105.701 43.9616C105.701 43.5262 105.615 43.1407 105.442 42.8051C105.279 42.4695 105.048 42.2065 104.748 42.016C104.449 41.8255 104.104 41.7303 103.714 41.7303C103.324 41.7303 102.98 41.8255 102.68 42.016C102.39 42.2065 102.163 42.4695 102 42.8051C101.837 43.1407 101.755 43.5262 101.755 43.9616C101.755 44.4061 101.837 44.8007 102 45.1453C102.163 45.4809 102.39 45.744 102.68 45.9345C102.98 46.125 103.324 46.2202 103.714 46.2202Z"
        fill="#7A8AA0" />
    <path
        d="M112.77 47.5672V40.3969H114.403L114.422 41.4077C114.488 41.3169 114.564 41.2295 114.648 41.1452C114.911 40.8731 115.224 40.6554 115.587 40.4921C115.949 40.3289 116.321 40.2472 116.702 40.2472C117.246 40.2472 117.7 40.3561 118.063 40.5738C118.435 40.7915 118.711 41.118 118.893 41.5534C119.083 41.9888 119.178 42.533 119.178 43.1861V47.5672H117.505V43.3085C117.505 42.9457 117.455 42.6464 117.355 42.4106C117.256 42.1657 117.101 41.9888 116.893 41.8799C116.684 41.762 116.43 41.7076 116.131 41.7167C115.886 41.7167 115.659 41.7575 115.45 41.8391C115.251 41.9117 115.074 42.0205 114.92 42.1657C114.775 42.3017 114.657 42.4605 114.566 42.6419C114.484 42.8233 114.444 43.0228 114.444 43.2405V47.5672H112.77Z"
        fill="#7A8AA0" />
    <path d="M122.884 38.0431H121.116V47.5672H127.279V45.9345H122.884V38.0431Z" fill="#7A8AA0" />
    <path fill-rule="evenodd" clip-rule="evenodd"
        d="M131.198 47.7032C130.609 47.7032 130.073 47.54 129.593 47.2134C129.112 46.8869 128.726 46.4424 128.436 45.88C128.146 45.3177 128.001 44.6782 128.001 43.9616C128.001 43.2451 128.146 42.6056 128.436 42.0432C128.726 41.4808 129.121 41.0409 129.62 40.7234C130.119 40.406 130.681 40.2472 131.307 40.2472C131.67 40.2472 132.001 40.3017 132.3 40.4105C132.6 40.5103 132.863 40.6554 133.089 40.8459C133.289 41.0134 133.457 41.2018 133.593 41.4114V40.3969H135.28V47.5672H133.579V46.5609C133.422 46.7658 133.227 46.9515 132.994 47.1182C132.749 47.2905 132.473 47.4311 132.164 47.54C131.865 47.6488 131.543 47.7032 131.198 47.7032ZM131.661 46.2202C132.051 46.2202 132.396 46.125 132.695 45.9345C132.994 45.744 133.225 45.4809 133.389 45.1453C133.561 44.8007 133.647 44.4061 133.647 43.9616C133.647 43.5262 133.561 43.1407 133.389 42.8051C133.225 42.4695 132.994 42.2065 132.695 42.016C132.396 41.8255 132.051 41.7303 131.661 41.7303C131.271 41.7303 130.926 41.8255 130.627 42.016C130.337 42.2065 130.11 42.4695 129.946 42.8051C129.783 43.1407 129.702 43.5262 129.702 43.9616C129.702 44.4061 129.783 44.8007 129.946 45.1453C130.11 45.4809 130.337 45.744 130.627 45.9345C130.926 46.125 131.271 46.2202 131.661 46.2202Z"
        fill="#7A8AA0" />
    <path
        d="M139.189 47.725L137.904 50.6965H139.646L140.87 47.5672L143.864 40.3969H141.918L140.231 45.0773C140.17 45.2774 140.105 45.4733 140.036 45.665L140.018 45.61L140 45.5535C139.936 45.354 139.873 45.1952 139.809 45.0773L137.836 40.3969H135.904L139.189 47.725Z"
        fill="#7A8AA0" />
    <path fill-rule="evenodd" clip-rule="evenodd"
        d="M147.891 47.7032C147.138 47.7032 146.471 47.5445 145.891 47.227C145.319 46.9096 144.87 46.4787 144.544 45.9345C144.226 45.3812 144.067 44.7508 144.067 44.0433C144.067 43.4809 144.158 42.9684 144.34 42.5058C144.521 42.0432 144.77 41.6441 145.088 41.3085C145.414 40.9638 145.8 40.7008 146.244 40.5194C146.698 40.3289 147.192 40.2336 147.727 40.2336C148.199 40.2336 148.639 40.3243 149.047 40.5058C149.455 40.6872 149.809 40.9366 150.108 41.2541C150.408 41.5625 150.635 41.9344 150.789 42.3697C150.952 42.7961 151.029 43.2632 151.02 43.7711L151.006 44.3562H145.717C145.759 44.6414 145.844 44.8999 145.972 45.1317C146.172 45.4764 146.448 45.744 146.802 45.9345C147.165 46.1159 147.587 46.2066 148.068 46.2066C148.403 46.2066 148.712 46.1522 148.993 46.0433C149.274 45.9345 149.578 45.7395 149.904 45.4583L150.734 46.6148C150.489 46.8415 150.208 47.0365 149.891 47.1998C149.582 47.354 149.256 47.4765 148.911 47.5672C148.566 47.6579 148.226 47.7032 147.891 47.7032ZM145.918 42.7235C145.847 42.8695 145.792 43.0328 145.754 43.2133H149.387V43.1453C149.36 42.8641 149.269 42.6192 149.115 42.4106C148.961 42.1929 148.761 42.0251 148.517 41.9072C148.281 41.7802 148.018 41.7167 147.727 41.7167C147.283 41.7167 146.907 41.8028 146.598 41.9752C146.299 42.1475 146.072 42.397 145.918 42.7235Z"
        fill="#7A8AA0" />
    <path
        d="M152.257 40.3969V47.5672H153.945V43.7439C153.945 43.49 153.985 43.2632 154.067 43.0636C154.158 42.855 154.28 42.6736 154.434 42.5194C154.589 42.3652 154.765 42.2473 154.965 42.1657C155.174 42.075 155.391 42.0296 155.618 42.0296C155.763 42.0296 155.908 42.0477 156.053 42.084C156.199 42.1203 156.321 42.1657 156.421 42.2201L156.87 40.3833C156.779 40.347 156.661 40.3153 156.516 40.2881C156.38 40.2609 156.235 40.2472 156.081 40.2472C155.727 40.2472 155.387 40.3334 155.06 40.5058C154.743 40.669 154.462 40.8958 154.217 41.186C154.101 41.3231 154.002 41.4682 153.918 41.6214L153.904 40.3969H152.257Z"
        fill="#7A8AA0" />
</svg>