<svg width="200" height="84" viewBox="0 0 200 84" fill="none" xmlns="http://www.w3.org/2000/svg">
    <path fill-rule="evenodd" clip-rule="evenodd"
        d="M41.1444 29.4701C41.0143 29.3951 40.8548 29.3925 40.7225 29.4634L31.5866 34.3576C31.4489 34.4314 31.3615 34.5735 31.3577 34.7297L31.3576 34.7403V45.3035C31.3576 45.4605 31.4424 45.6053 31.5793 45.6821L47.3593 54.5303C47.489 54.6048 47.6482 54.6073 47.7804 54.5364L56.753 49.7281C56.8941 49.6525 56.9821 49.5055 56.9821 49.3455V46.7718C56.9821 46.7644 56.9819 46.7569 56.9815 46.7495C56.9806 46.7326 56.9788 46.7158 56.976 46.6992C56.9548 46.5738 56.8791 46.4624 56.7669 46.3969L46.1752 40.2129L47.775 39.3545L54.1339 42.909C54.2649 42.9823 54.4248 42.9827 54.5564 42.9096L56.7588 41.686C56.8966 41.6095 56.9821 41.4642 56.9821 41.3066V38.8595C56.9821 38.7244 56.9192 38.598 56.8139 38.5164C56.801 38.5064 56.7876 38.4971 56.7735 38.4886L56.7619 38.4818L41.1444 29.4701ZM55.6443 38.8392L54.3534 39.5085L47.9911 35.952C47.8613 35.8794 47.7035 35.8783 47.5727 35.9491L47.5557 35.9583L42.8102 38.5047L41.3062 37.6076L45.5388 35.2443L45.5419 35.2427C45.628 35.1952 45.6938 35.1209 45.7312 35.0334C45.7534 34.9816 45.7656 34.9253 45.7662 34.8672L45.5388 35.2443L45.7662 34.866C45.7668 34.7949 45.7499 34.7261 45.7186 34.6649C45.6812 34.5918 45.6233 34.5296 45.5498 34.487L41.1858 31.9584C41.0551 31.8826 40.8945 31.8803 40.7616 31.9522L34.0651 35.5762L32.6771 34.7583L40.9196 30.3427L55.6443 38.8392ZM54.7797 41.7924V40.2653L56.114 39.5735V41.0512L54.7797 41.7924ZM32.2257 35.5069V45.0493L47.1413 53.4128V51.8752L33.8552 44.1684C33.7228 44.0904 33.6415 43.9482 33.6415 43.7945V36.3564L32.2257 35.5069ZM41.4023 34.6644V33.0871L44.4504 34.8534L42.9818 35.6636L41.4023 34.6644ZM40.5341 33.0645V34.6465L36.1507 37.0515C36.0118 37.1277 35.9255 37.2736 35.9255 37.4321V42.2742L34.5096 43.058V36.3441L40.5341 33.0645ZM42.1311 36.1527L40.9525 35.4071L36.7936 37.689V42.2804L47.5874 48.5605L48.4748 48.1003L40.2203 43.3134L40.0039 42.9379V37.5972L40.004 37.5878C40.0066 37.4332 40.0913 37.2916 40.2264 37.2162L42.1311 36.1527ZM40.8721 42.6879V38.3641L42.3287 39.2431L42.3287 41.5514C42.3287 41.7075 42.4127 41.8518 42.5488 41.9289L51.0677 46.7538L49.3821 47.6229L40.8721 42.6879ZM47.3452 38.5999L43.1968 40.8258V39.3034L47.3452 37.0592V38.5999ZM52.179 47.1575L47.7752 49.441C47.6432 49.5094 47.4855 49.5056 47.3571 49.4308L36.3543 43.0292L34.9559 43.8033L47.5828 51.1276L55.6624 46.7573L45.2783 40.6944L43.6618 41.5616L52.194 46.394C52.3326 46.4725 52.417 46.6205 52.4141 46.7797C52.4112 46.9389 52.3213 47.0837 52.1799 47.157L52.179 47.1575ZM53.9116 41.7903L48.2133 38.6049V37.0708L53.9116 40.2562V41.7903ZM48.0094 53.4288L56.114 49.0856V47.5L48.0094 51.8839V53.4288Z"
        fill="#7A8AA0" />
    <path
        d="M155.548 35.2835C154.895 35.2835 154.398 35.4609 154.057 35.8157C153.731 36.1705 153.568 36.6957 153.568 37.3911V38.7111H157.017V39.9885H153.61V49.9095H152.099V39.9885H150.097V38.7111H152.099V37.3273C152.099 36.3054 152.39 35.4964 152.972 34.9002C153.568 34.3041 154.405 34.0061 155.484 34.0061C155.91 34.0061 156.321 34.0699 156.719 34.1977C157.116 34.3112 157.449 34.4815 157.719 34.7086L157.208 35.837C156.768 35.468 156.215 35.2835 155.548 35.2835Z"
        fill="#7A8AA0" />
    <path
        d="M84.8022 38.6259C86.2073 38.6259 87.3215 39.0375 88.1447 39.8607C88.982 40.6698 89.4007 41.8549 89.4007 43.4161V49.9095H87.8892V43.5651C87.8892 42.4013 87.5982 41.5142 87.0163 40.9039C86.4344 40.2936 85.6041 39.9885 84.5254 39.9885C83.319 39.9885 82.361 40.3504 81.6513 41.0743C80.9558 41.7839 80.6081 42.7703 80.6081 44.0335V49.9095H79.0965V34.1125H80.6081V40.6698C81.0197 40.0169 81.5874 39.513 82.3113 39.1582C83.0351 38.8034 83.8654 38.6259 84.8022 38.6259Z"
        fill="#7A8AA0" />
    <path
        d="M70.586 50.0372C69.1099 50.0372 67.7758 49.7108 66.5835 49.0579C65.4055 48.405 64.4758 47.5037 63.7946 46.3541C63.1275 45.1903 62.794 43.8916 62.794 42.4581C62.794 41.0246 63.1275 39.733 63.7946 38.5834C64.4758 37.4195 65.4126 36.5112 66.6048 35.8583C67.797 35.2054 69.1312 34.879 70.6073 34.879C71.7143 34.879 72.7362 35.0635 73.673 35.4325C74.6097 35.8015 75.4046 36.3408 76.0574 37.0505L75.0568 38.0511C73.893 36.8731 72.424 36.2841 70.6499 36.2841C69.4718 36.2841 68.4002 36.5537 67.4351 37.0931C66.47 37.6324 65.7107 38.3705 65.1571 39.3072C64.6178 40.244 64.3481 41.2942 64.3481 42.4581C64.3481 43.6219 64.6178 44.6722 65.1571 45.609C65.7107 46.5457 66.47 47.2837 67.4351 47.8231C68.4002 48.3624 69.4718 48.6321 70.6499 48.6321C72.4382 48.6321 73.9072 48.036 75.0568 46.8438L76.0574 47.8444C75.4046 48.554 74.6026 49.1005 73.6517 49.4837C72.715 49.8527 71.6931 50.0372 70.586 50.0372Z"
        fill="#7A8AA0" />
    <path fill-rule="evenodd" clip-rule="evenodd"
        d="M100.786 39.733C100.005 38.995 98.8837 38.6259 97.4218 38.6259C96.5418 38.6259 95.7044 38.7608 94.9096 39.0304C94.1148 39.2859 93.4335 39.6549 92.8658 40.1375L93.5471 41.2659C94.0155 40.8543 94.5761 40.5349 95.229 40.3078C95.8819 40.0665 96.5631 39.9459 97.2728 39.9459C98.3089 39.9459 99.0966 40.2014 99.6359 40.7123C100.175 41.2091 100.445 41.94 100.445 42.9052V43.5864H96.8896C95.3851 43.5864 94.2851 43.8774 93.5897 44.4593C92.9084 45.0412 92.5678 45.8077 92.5678 46.7586C92.5678 47.7379 92.9368 48.5256 93.6748 49.1218C94.4129 49.7179 95.4064 50.0159 96.6554 50.0159C97.5637 50.0159 98.3444 49.8527 98.9972 49.5263C99.6643 49.1998 100.168 48.7456 100.509 48.1637V49.9095H101.956V42.969C101.956 41.5355 101.566 40.4569 100.786 39.733ZM99.0824 48.2489C98.4721 48.6321 97.7411 48.8237 96.8896 48.8237C95.9954 48.8237 95.2999 48.6392 94.8032 48.2702C94.3064 47.887 94.058 47.3689 94.058 46.716C94.058 45.3819 95.0161 44.7148 96.9321 44.7148H100.445V46.5457C100.147 47.2837 99.6927 47.8515 99.0824 48.2489Z"
        fill="#7A8AA0" />
    <path d="M106.062 38.7111H107.574V49.9095H106.062V38.7111Z" fill="#7A8AA0" />
    <path
        d="M106.829 36.2628C106.516 36.2628 106.254 36.1563 106.041 35.9434C105.828 35.7305 105.721 35.4751 105.721 35.177C105.721 34.8931 105.828 34.6448 106.041 34.4319C106.254 34.219 106.516 34.1125 106.829 34.1125C107.141 34.1125 107.403 34.219 107.616 34.4319C107.829 34.6306 107.936 34.8719 107.936 35.1557C107.936 35.468 107.829 35.7305 107.616 35.9434C107.403 36.1563 107.141 36.2628 106.829 36.2628Z"
        fill="#7A8AA0" />
    <path
        d="M120.828 39.8607C120.004 39.0375 118.89 38.6259 117.485 38.6259C116.52 38.6259 115.668 38.8175 114.93 39.2008C114.207 39.5698 113.639 40.0949 113.227 40.7762V38.7111H111.78V49.9095H113.291V44.0335C113.291 42.7703 113.639 41.7839 114.334 41.0743C115.044 40.3504 116.002 39.9885 117.208 39.9885C118.287 39.9885 119.117 40.2936 119.699 40.9039C120.281 41.5142 120.572 42.4013 120.572 43.5651V49.9095H122.084V43.4161C122.084 41.8549 121.665 40.6698 120.828 39.8607Z"
        fill="#7A8AA0" />
    <path
        d="M130.616 50.0372C129.509 50.0372 128.444 49.8598 127.422 49.505C126.415 49.1501 125.634 48.6818 125.08 48.0998L125.698 46.8863C126.237 47.4257 126.954 47.8657 127.848 48.2063C128.742 48.5327 129.665 48.696 130.616 48.696C131.95 48.696 132.951 48.4547 133.618 47.9721C134.285 47.4754 134.618 46.8367 134.618 46.056C134.618 45.4599 134.434 44.9845 134.065 44.6296C133.71 44.2748 133.27 44.0051 132.745 43.8206C132.22 43.6219 131.489 43.409 130.552 43.1819C129.431 42.8981 128.536 42.6284 127.869 42.3729C127.202 42.1033 126.627 41.6988 126.145 41.1594C125.677 40.6201 125.442 39.8891 125.442 38.9666C125.442 38.2143 125.641 37.5331 126.038 36.9228C126.436 36.2983 127.046 35.8015 127.869 35.4325C128.693 35.0635 129.714 34.879 130.935 34.879C131.787 34.879 132.617 34.9996 133.426 35.2409C134.249 35.468 134.959 35.7873 135.555 36.1989L135.023 37.455C134.398 37.0434 133.731 36.7383 133.021 36.5396C132.312 36.3267 131.616 36.2202 130.935 36.2202C129.629 36.2202 128.643 36.4757 127.976 36.9866C127.323 37.4834 126.996 38.1292 126.996 38.924C126.996 39.5201 127.174 40.0027 127.529 40.3717C127.898 40.7265 128.352 41.0033 128.891 41.202C129.445 41.3865 130.183 41.5923 131.105 41.8194C132.198 42.0891 133.078 42.3587 133.745 42.6284C134.427 42.8839 135.001 43.2813 135.47 43.8206C135.938 44.3458 136.172 45.0625 136.172 45.9709C136.172 46.7231 135.967 47.4115 135.555 48.036C135.158 48.6463 134.54 49.1359 133.703 49.505C132.865 49.8598 131.836 50.0372 130.616 50.0372Z"
        fill="#7A8AA0" />
    <path fill-rule="evenodd" clip-rule="evenodd"
        d="M146.567 39.733C145.786 38.995 144.665 38.6259 143.203 38.6259C142.323 38.6259 141.486 38.7608 140.691 39.0304C139.896 39.2859 139.215 39.6549 138.647 40.1375L139.328 41.2659C139.797 40.8543 140.357 40.5349 141.01 40.3078C141.663 40.0665 142.344 39.9459 143.054 39.9459C144.09 39.9459 144.878 40.2014 145.417 40.7123C145.956 41.2091 146.226 41.94 146.226 42.9052V43.5864H142.671C141.166 43.5864 140.066 43.8774 139.371 44.4593C138.69 45.0412 138.349 45.8077 138.349 46.7586C138.349 47.7379 138.718 48.5256 139.456 49.1218C140.194 49.7179 141.188 50.0159 142.437 50.0159C143.345 50.0159 144.125 49.8527 144.778 49.5263C145.445 49.1998 145.949 48.7456 146.29 48.1637V49.9095H147.738V42.969C147.738 41.5355 147.347 40.4569 146.567 39.733ZM144.864 48.2489C144.253 48.6321 143.522 48.8237 142.671 48.8237C141.777 48.8237 141.081 48.6392 140.584 48.2702C140.088 47.887 139.839 47.3689 139.839 46.716C139.839 45.3819 140.797 44.7148 142.713 44.7148H146.226V46.5457C145.928 47.2837 145.474 47.8515 144.864 48.2489Z"
        fill="#7A8AA0" />
    <path fill-rule="evenodd" clip-rule="evenodd"
        d="M159.254 44.7787H168.621L168.642 44.3103C168.642 43.2032 168.408 42.2239 167.94 41.3723C167.472 40.5065 166.826 39.8324 166.003 39.3498C165.179 38.8672 164.25 38.6259 163.214 38.6259C162.177 38.6259 161.241 38.8672 160.403 39.3498C159.58 39.8324 158.927 40.5065 158.445 41.3723C157.976 42.2381 157.742 43.2174 157.742 44.3103C157.742 45.4032 157.99 46.3825 158.487 47.2483C158.984 48.114 159.672 48.7953 160.552 49.2921C161.447 49.7746 162.468 50.0159 163.618 50.0159C164.512 50.0159 165.328 49.8598 166.066 49.5475C166.819 49.2353 167.443 48.7811 167.94 48.185L167.088 47.2057C166.662 47.6882 166.159 48.0573 165.577 48.3127C164.995 48.554 164.356 48.6747 163.661 48.6747C162.426 48.6747 161.404 48.3198 160.595 47.6102C159.786 46.8863 159.339 45.9425 159.254 44.7787ZM160.488 40.9678C161.227 40.2723 162.135 39.9246 163.214 39.9246C164.306 39.9246 165.215 40.2723 165.939 40.9678C166.677 41.6491 167.095 42.5432 167.195 43.6503H159.254C159.353 42.5432 159.765 41.6491 160.488 40.9678Z"
        fill="#7A8AA0" />
</svg>