<svg width="200" height="84" viewBox="0 0 200 84" fill="none" xmlns="http://www.w3.org/2000/svg">
    <path fill-rule="evenodd" clip-rule="evenodd"
        d="M86.8723 38.2297C87.9774 38.2297 88.6048 38.8625 88.8529 39.8292H91.1791C90.7826 37.5326 89.1167 36.2659 86.856 36.2659C85.6024 36.2659 84.546 36.6772 83.6879 37.5005C83.1765 37.9916 82.8629 38.5458 82.7312 39.1953C82.5996 39.8286 82.5329 40.7627 82.5329 41.9984C82.5329 43.2331 82.5996 44.1676 82.7312 44.8015C82.8629 45.4344 83.1765 46.0041 83.6879 46.4952C84.546 47.319 85.6024 47.7299 86.856 47.7299C89.0999 47.7299 90.7826 46.4636 91.1791 44.1676H88.8529C88.6048 45.1332 87.9774 45.7671 86.8723 45.7671C86.2455 45.7671 85.7509 45.5772 85.4042 45.1808C84.9258 44.6897 84.8267 44.1837 84.8267 41.9979C84.8267 39.8126 84.9258 39.306 85.4036 38.8149C85.7503 38.419 86.2455 38.2291 86.8723 38.2291V38.2297ZM100.021 40.9686H100.021V40.8723V40.9686H100.021ZM100.021 36.3627V40.8707H97.7271V43.1255H100.021V42.9169H100.021V47.6368H102.315V36.3606H100.021V36.3632L100.021 36.3627ZM93.7513 47.6357H96.045V36.3611H93.7513V47.6357ZM110.791 45.1653C110.461 45.5291 109.949 45.7671 109.323 45.7671C108.696 45.7671 108.168 45.5296 107.838 45.1653C107.392 44.6897 107.276 44.1676 107.276 41.9984C107.276 39.8281 107.392 39.306 107.838 38.8315C108.168 38.4672 108.696 38.2297 109.322 38.2297C109.949 38.2297 110.461 38.4672 110.791 38.8315C111.237 39.306 111.369 39.8281 111.369 41.9984C111.369 44.1676 111.237 44.6897 110.791 45.1653H110.791ZM109.323 36.2659C107.987 36.2659 106.963 36.7088 106.138 37.5005C104.95 38.641 104.984 40.0506 104.984 41.9984C104.984 43.9456 104.95 45.3547 106.138 46.4952C106.963 47.2869 107.987 47.7299 109.323 47.7299C110.66 47.7299 111.665 47.2869 112.491 46.4952C113.679 45.3547 113.662 43.9461 113.662 41.9984C113.662 40.0506 113.679 38.641 112.491 37.5005C111.665 36.7088 110.66 36.2659 109.323 36.2659ZM120.577 41.3014H118.415V38.3244H120.577C121.583 38.3244 122.243 38.9422 122.243 39.8131C122.243 40.684 121.583 41.3014 120.577 41.3014ZM124.537 39.8131C124.537 37.9285 123.117 36.3611 120.725 36.3611H116.122V47.6357H118.415V43.1384H120.065L122.358 47.6357H125.015L122.391 42.7746C123.53 42.3787 124.536 41.396 124.536 39.8131H124.537ZM133.379 43.6926C133.379 44.9909 132.57 45.7671 131.332 45.7671C130.095 45.7671 129.303 44.9909 129.303 43.6926V36.3606H127.009V43.7723C127.009 46.163 128.924 47.7304 131.332 47.7304C133.742 47.7304 135.655 46.163 135.655 43.7718V36.3611H133.379V43.6931V43.6926ZM145.093 41.9187C144.597 41.4757 143.921 41.1901 142.848 41.0483L141.462 40.8579C140.984 40.7948 140.604 40.6204 140.373 40.4144C140.127 40.1929 140.027 39.8923 140.027 39.6066C140.027 38.831 140.621 38.1815 141.842 38.1815C142.617 38.1815 143.509 38.2767 144.251 38.9577L145.703 37.5802C144.697 36.6457 143.525 36.2653 141.908 36.2653C139.367 36.2653 137.816 37.6749 137.816 39.6858C137.816 40.6359 138.097 41.365 138.658 41.9032C139.185 42.3943 139.928 42.6949 140.935 42.8372L142.354 43.0271C142.898 43.1068 143.162 43.2175 143.393 43.423C143.64 43.645 143.756 43.9772 143.756 44.3736C143.756 45.2755 143.03 45.7666 141.677 45.7666C140.589 45.7666 139.582 45.5291 138.839 44.8165L137.354 46.2416C138.509 47.3661 139.863 47.7304 141.644 47.7304C144.103 47.7304 146 46.4952 146 44.3099C146 43.3122 145.719 42.4889 145.093 41.9187ZM54.0054 50.1633L56.3793 52.4963L58.7521 50.1633L56.3793 47.8304L54.006 50.1628L54.0054 50.1633ZM75.3652 33.8329L72.9923 31.5L70.6184 33.8329L72.9918 36.1658L75.3652 33.8329ZM67.0587 44.3308L64.6858 46.6637L62.3119 44.3313L59.9391 41.9979L62.3119 39.6655L64.6853 37.332L67.0587 39.6649L69.4315 41.9979L67.0587 44.3308ZM74.1782 41.9984L71.8054 39.6649L69.432 37.3326L67.0587 34.9991L64.6858 32.6667L62.3119 34.9991L59.9391 37.332L57.5657 39.6649L55.1918 41.9979L57.5647 44.3308L59.938 46.6637L62.3114 48.9966L64.6847 51.3295L67.0576 48.9971L69.4315 46.6637L71.8043 44.3313L74.1777 41.9979L74.1782 41.9984ZM70.6157 50.1676L72.9891 52.5L75.3625 50.1676L72.9896 47.8347L70.6157 50.1671V50.1676ZM58.7462 33.8345L56.3734 31.5016L54 33.8345L56.3728 36.1674L58.7462 33.8345Z"
        fill="#7A8AA0" />
</svg>