<svg width="200" height="84" viewBox="0 0 200 84" fill="none" xmlns="http://www.w3.org/2000/svg">
    <path
        d="M100.528 46.662H97.8547C97.8127 46.6624 97.7722 46.6779 97.7404 46.7057C97.7085 46.7334 97.6874 46.7716 97.6807 46.8136C97.3891 48.4876 96.2296 49.307 94.5845 49.307C92.34 49.307 91.0462 47.6468 91.0462 44.7885V44.633C91.0462 41.7747 92.4165 40.0756 94.5652 40.0756C96.2246 40.0756 97.1329 40.9094 97.3953 42.472C97.4096 42.5601 97.4823 42.6249 97.57 42.6249H100.376C100.401 42.6247 100.426 42.6191 100.45 42.6085C100.473 42.5978 100.493 42.5823 100.51 42.563C100.527 42.5437 100.54 42.5211 100.548 42.4965C100.555 42.4719 100.558 42.446 100.555 42.4204C100.154 39.1605 97.7522 37.6042 94.5472 37.6042C90.685 37.6042 87.794 40.4626 87.794 44.6526V44.8074C87.794 49.0565 90.1721 51.8381 94.623 51.8381C97.9039 51.8381 100.289 50.1502 100.706 46.8677C100.709 46.8421 100.707 46.8161 100.699 46.7915C100.691 46.7668 100.679 46.7441 100.662 46.7247C100.645 46.7053 100.624 46.6897 100.601 46.6789C100.578 46.6681 100.553 46.6623 100.528 46.662ZM106.472 41.2939C103.485 41.2939 101.221 43.3599 101.221 46.5273V46.6821C101.221 49.8293 103.484 51.8393 106.452 51.8393C109.439 51.8393 111.702 49.811 111.702 46.6242V46.4694C111.702 43.3209 109.458 41.2939 106.472 41.2939ZM108.906 46.6431C108.906 48.5549 108.012 49.7141 106.472 49.7141C104.911 49.7141 104.037 48.5549 104.037 46.6242V46.4694C104.037 44.5386 104.95 43.4172 106.472 43.4172C108.012 43.4172 108.906 44.5764 108.906 46.5071V46.6424V46.6431ZM122.262 38.0127H119.88C119.857 38.0127 119.833 38.0173 119.812 38.0264C119.79 38.0355 119.77 38.0488 119.754 38.0656C119.737 38.0823 119.724 38.1023 119.715 38.1242C119.706 38.1461 119.702 38.1696 119.702 38.1933V42.2838C119.128 41.8137 118.392 41.4739 117.443 41.3996C114.419 41.1636 112.192 43.4663 112.192 46.633V46.7878C112.192 49.9356 114.452 52.1514 117.424 51.945C118.298 51.884 119.066 51.4668 119.702 50.8689V51.6285C119.702 51.7285 119.782 51.8091 119.88 51.8091H122.262C122.361 51.8091 122.44 51.7273 122.44 51.6285V38.1933C122.44 38.1696 122.436 38.1461 122.427 38.1241C122.418 38.1022 122.405 38.0822 122.389 38.0654C122.372 38.0486 122.352 38.0353 122.331 38.0263C122.309 38.0172 122.286 38.0126 122.262 38.0127ZM119.7 46.813C119.7 48.7255 118.983 49.8211 117.442 49.8211C115.882 49.8211 115.007 48.6625 115.007 46.7312V46.5764C115.007 44.6456 115.92 43.5242 117.442 43.5242C118.983 43.5242 119.7 44.7457 119.7 46.6771V46.813ZM128.157 41.2939C125.266 41.2939 123.04 43.3599 123.04 46.5468V46.7016C123.04 49.9268 125.227 51.8393 128.233 51.8393C130.864 51.8393 132.551 50.7015 132.953 48.6544C132.958 48.6282 132.957 48.6012 132.95 48.5754C132.944 48.5496 132.931 48.5257 132.915 48.5052C132.898 48.4848 132.876 48.4683 132.853 48.4571C132.829 48.4459 132.803 48.4402 132.776 48.4404H130.523C130.483 48.4408 130.444 48.4547 130.413 48.4798C130.382 48.5048 130.36 48.5397 130.351 48.5788C130.14 49.351 129.514 49.85 128.309 49.85C126.807 49.85 125.913 48.8841 125.836 47.2044H132.83C132.929 47.2044 133.008 47.1226 133.008 47.0238V46.4323C133.009 42.8194 130.726 41.2939 128.157 41.2939ZM125.875 45.4839C126.084 44.0541 126.921 43.2246 128.158 43.2246C129.471 43.2246 130.232 43.9584 130.327 45.4839H125.875ZM139.063 37.1493C138.723 37.0586 138.366 37.0127 137.842 37.0127C135.635 37.0127 134.303 38.1914 134.303 40.5475V41.7067H133.169C133.121 41.7069 133.076 41.726 133.043 41.7599C133.01 41.7937 132.991 41.8396 132.991 41.8874V43.5148C132.991 43.6154 133.071 43.6954 133.169 43.6954H134.303V51.6253C134.303 51.726 134.384 51.806 134.481 51.806H136.864C136.962 51.806 137.042 51.7241 137.042 51.6253V43.6954H139.013C139.112 43.6954 139.191 43.6136 139.191 43.5148V41.8874C139.191 41.8396 139.172 41.7937 139.139 41.7599C139.105 41.726 139.06 41.7069 139.013 41.7067H137.042V40.4701C137.042 39.6986 137.404 39.1379 138.26 39.1379C138.545 39.1379 138.771 39.1668 138.967 39.2197C138.994 39.227 139.022 39.228 139.048 39.2226C139.075 39.2173 139.1 39.2058 139.122 39.189C139.144 39.1722 139.161 39.1506 139.174 39.1258C139.186 39.101 139.192 39.0737 139.192 39.046V37.3255C139.193 37.2857 139.181 37.2468 139.157 37.2149C139.134 37.183 139.1 37.1599 139.063 37.1493ZM141.42 40.153C142.315 40.153 143 39.4966 143 38.6281C143 37.7591 142.315 37.1027 141.42 37.1027C140.545 37.1027 139.861 37.7591 139.861 38.6281C139.861 39.4966 140.545 40.153 141.42 40.153ZM142.631 41.7067H140.248C140.201 41.7069 140.156 41.726 140.122 41.7599C140.089 41.7937 140.07 41.8396 140.07 41.8874V51.6253C140.07 51.726 140.151 51.806 140.248 51.806H142.631C142.73 51.806 142.809 51.7241 142.809 51.6253V41.888C142.809 41.8642 142.805 41.8407 142.796 41.8188C142.787 41.7968 142.774 41.7769 142.757 41.7601C142.74 41.7433 142.721 41.73 142.699 41.7209C142.677 41.7119 142.654 41.7073 142.631 41.7074V41.7067ZM88.1453 33.9259V33.8856C88.1453 32.7988 88.882 32.0405 89.8737 32.0405C90.6894 32.0405 91.3223 32.4558 91.4019 33.3048H90.7304C90.6552 32.8246 90.3916 32.5773 89.8786 32.5773C89.2507 32.5773 88.8422 33.0726 88.8422 33.8819V33.9221C88.8422 34.7365 89.2258 35.216 89.8836 35.216C90.3766 35.216 90.7248 34.963 90.7944 34.4527H91.4417C91.3372 35.3224 90.7292 35.7616 89.8836 35.7616C88.767 35.761 88.1453 35.0385 88.1453 33.9259ZM92.1075 33.9259V33.8856C92.1075 32.8284 92.8548 32.0455 93.9099 32.0455C94.9699 32.0455 95.703 32.8089 95.703 33.8705V33.9102C95.703 34.9674 94.9905 35.7604 93.9099 35.7604C92.8188 35.7604 92.1075 34.9674 92.1075 33.9259ZM95.0147 33.9152V33.8749C95.0147 33.1324 94.6062 32.5811 93.9087 32.5811C93.2117 32.5811 92.7989 33.1015 92.7989 33.8806V33.9209C92.7989 34.7094 93.2714 35.2198 93.9192 35.2198C94.5919 35.2198 95.0147 34.6987 95.0147 33.9152ZM96.5131 32.0959H97.3051L98.8047 34.7094V32.0965H99.4066V35.7106H98.7189L97.1161 32.9404V35.7106H96.5131V32.0959ZM100.252 34.588H100.889C100.934 34.9523 101.078 35.255 101.681 35.255C102.074 35.255 102.352 35.0335 102.352 34.6993C102.352 34.3658 102.188 34.2393 101.611 34.143C100.759 34.0266 100.357 33.7642 100.357 33.0858C100.357 32.4949 100.854 32.0499 101.596 32.0499C102.363 32.0499 102.821 32.4042 102.891 33.0965H102.284C102.219 32.7176 102.004 32.5553 101.596 32.5553C101.193 32.5553 100.984 32.7529 100.984 33.0317C100.984 33.3249 101.103 33.4709 101.722 33.5622C102.558 33.6786 102.991 33.9209 102.991 34.6433C102.991 35.2708 102.469 35.761 101.682 35.761C100.709 35.761 100.302 35.2708 100.252 34.588ZM103.857 32.0959H106.083V32.6264H104.52V33.6176H105.775V34.1229H104.519V35.1801H106.167V35.71H103.857V32.0959ZM107.01 32.0959H107.802L109.302 34.7094V32.0965H109.904V35.7106H109.217L107.613 32.9404V35.7106H107.01V32.0959ZM110.752 34.588H111.39C111.434 34.9517 111.579 35.255 112.182 35.255C112.575 35.255 112.853 35.0335 112.853 34.6987C112.853 34.3652 112.689 34.2387 112.111 34.143C111.26 34.026 110.857 33.7642 110.857 33.0858C110.857 32.4942 111.355 32.0499 112.097 32.0499C112.864 32.0499 113.322 32.4036 113.391 33.0965H112.784C112.72 32.7176 112.506 32.5553 112.097 32.5553C111.693 32.5553 111.485 32.7529 111.485 33.031C111.485 33.3243 111.604 33.4709 112.222 33.5615C113.059 33.6786 113.492 33.9203 113.492 34.6433C113.492 35.2708 112.969 35.761 112.182 35.761C111.211 35.761 110.802 35.2701 110.752 34.5873V34.588ZM115.039 34.1437L113.859 32.0965H114.591L115.393 33.593L116.174 32.0959H116.822L115.707 34.1481V35.7106H115.04V34.1437H115.039ZM117.193 34.588H117.831C117.875 34.9523 118.02 35.255 118.622 35.255C119.016 35.255 119.294 35.0335 119.294 34.6993C119.294 34.3658 119.13 34.2393 118.552 34.143C117.7 34.0266 117.298 33.7642 117.298 33.0858C117.298 32.4949 117.796 32.0499 118.538 32.0499C119.304 32.0499 119.763 32.4042 119.832 33.0965H119.225C119.16 32.7176 118.947 32.5553 118.538 32.5553C118.134 32.5553 117.926 32.7529 117.926 33.0317C117.926 33.3249 118.045 33.4709 118.663 33.5622C119.499 33.6786 119.933 33.9209 119.933 34.6433C119.933 35.2708 119.411 35.761 118.623 35.761C117.65 35.761 117.243 35.2708 117.193 34.588H117.193ZM71.2822 27.5C63.3938 27.5 57 33.9914 57 41.9994C57 50.0086 63.3938 56.5 71.2822 56.5C79.1707 56.5 85.5645 50.0086 85.5645 42C85.5645 33.992 79.1694 27.5 71.2822 27.5ZM80.0666 46.2768C78.4905 49.5769 75.1593 51.8525 71.3046 51.8538C65.9224 51.8538 61.5572 47.4096 61.5722 41.9453C61.5751 39.4711 62.4967 37.0885 64.1542 35.2701C64.2275 35.1896 64.3556 35.2827 64.3028 35.3784C63.65 36.5539 63.2676 37.9711 63.2676 39.496C63.2676 43.5645 65.9783 46.864 69.3201 46.864C71.4259 46.864 73.2798 45.5544 74.3635 43.5689C74.3745 43.5483 74.3929 43.5327 74.4148 43.5253C74.4368 43.518 74.4607 43.5194 74.4816 43.5292L80.0212 46.1528C80.0324 46.1577 80.0426 46.1649 80.051 46.1738C80.0594 46.1828 80.0659 46.1934 80.0702 46.205C80.0744 46.2166 80.0763 46.2289 80.0757 46.2413C80.075 46.2536 80.072 46.2657 80.0666 46.2768ZM80.0218 37.7937L74.3828 40.4632C74.3613 40.4733 74.3368 40.4746 74.3144 40.4667C74.292 40.4588 74.2735 40.4425 74.2628 40.4211C73.9645 39.8331 73.502 39.3471 72.9327 39.0233C72.3635 38.6996 71.7127 38.5525 71.0615 38.6005C69.4177 38.7181 68.0916 40.0712 67.9803 41.7401C67.9298 42.4739 68.1173 43.2043 68.5141 43.8204C68.911 44.4366 69.4956 44.9048 70.1793 45.1541C70.2085 45.1642 70.198 45.1875 70.1619 45.1881C70.1308 45.1894 70.0979 45.1894 70.0655 45.1894C67.09 45.1894 64.6771 42.253 64.6771 38.6307C64.6771 38.5533 64.6777 38.4771 64.6802 38.4003C64.7771 34.9706 67.5376 32.2331 70.9136 32.099C71.0423 32.094 71.1716 32.0915 71.3015 32.0915C75.1575 32.0915 78.4887 34.3671 80.0641 37.6691C80.0696 37.6799 80.073 37.6918 80.0738 37.704C80.0747 37.7162 80.0731 37.7284 80.0691 37.7399C80.0652 37.7515 80.059 37.7621 80.0508 37.7711C80.0427 37.7801 80.0328 37.7874 80.0218 37.7924V37.7937Z"
        fill="#7A8AA0" />
</svg>