<svg width="200" height="84" viewBox="0 0 200 84" fill="none" xmlns="http://www.w3.org/2000/svg">
    <path fill-rule="evenodd" clip-rule="evenodd"
        d="M96.4166 42.3128C96.4166 40.6431 97.7733 39.4953 99.4089 39.4953C101.009 39.4953 102.366 40.6431 102.366 42.3128C102.366 44.0177 101.009 45.1661 99.4089 45.1661C97.7733 45.1661 96.4166 44.0177 96.4166 42.3128ZM98.0869 42.3133C98.0869 43.1482 98.7129 43.7047 99.4089 43.7047C100.07 43.7047 100.696 43.1829 100.696 42.3128C100.696 41.4779 100.07 40.9214 99.4089 40.9214C98.7129 40.9214 98.0869 41.4779 98.0869 42.3133Z"
        fill="#7A8AA0" />
    <path
        d="M95.5471 43.4265L95.9295 44.7831C95.5124 44.992 95.06 45.1661 94.5034 45.2003C93.1461 45.2003 92.346 44.4701 92.346 43.0435V40.9908H91.3723V39.6341H92.346V38.0339H94.051V39.6341H95.6512V40.9908H94.051V42.8699C94.051 43.4265 94.3293 43.6353 94.7817 43.6353C94.9905 43.6353 95.3382 43.5653 95.5471 43.4265Z"
        fill="#7A8AA0" />
    <path fill-rule="evenodd" clip-rule="evenodd"
        d="M86.4316 40.0518C86.8493 39.6688 87.4058 39.46 88.1018 39.46C89.528 39.46 90.7111 40.6431 90.7111 42.3128C90.7111 44.0177 89.528 45.1661 88.1018 45.1661C87.4058 45.1661 86.8493 44.9573 86.4316 44.5743V46.8358H84.7272V39.6341H86.4316V40.0518ZM86.4316 42.3133C86.4316 43.1482 87.0581 43.7047 87.7536 43.7047C88.4837 43.7047 89.0408 43.1482 89.0408 42.3128C89.0408 41.4779 88.519 40.9214 87.7536 40.9214C87.0576 40.9214 86.4316 41.4779 86.4316 42.3133Z"
        fill="#7A8AA0" />
    <path
        d="M83.6829 39.6341L80.5872 46.8358V46.8705H78.7081L79.5782 44.8526L77.3514 39.6341H79.1952L80.4824 42.7652L81.8391 39.6341H83.6829Z"
        fill="#7A8AA0" />
    <path
        d="M74.638 40.6778C75.0204 40.0171 75.6117 39.5647 76.4818 39.5647C76.6207 39.5647 76.7248 39.5647 76.8642 39.6341L76.7942 41.3391H76.4812C75.2987 41.3391 74.6374 41.9651 74.6374 43.357V45.0267H72.933V39.6341H74.638V40.6778Z"
        fill="#7A8AA0" />
    <path
        d="M69.8367 41.9651L71.5764 42.3133C71.2626 44.1227 69.8012 45.1661 67.9576 45.1661C65.8008 45.1661 64.1311 43.5312 64.1311 41.4085C64.1311 39.2864 65.8355 37.6509 67.9576 37.6509C69.732 37.6509 71.2286 38.6951 71.5758 40.3995L69.8367 40.8167C69.5931 39.7735 68.8971 39.2858 67.9576 39.2858C66.8097 39.2858 65.9049 40.1907 65.9049 41.4085C65.9049 42.6263 66.8097 43.5653 67.9576 43.5653C68.8624 43.5653 69.5931 43.0435 69.8367 41.9651Z"
        fill="#7A8AA0" />
    <path
        d="M31.9838 47.3577L37.7594 42.5563C37.8432 42.4887 37.9471 42.4518 38.0548 42.4518C38.1624 42.4518 38.2669 42.4887 38.3507 42.5563L44.4045 47.5665C44.4589 47.6067 44.5029 47.6591 44.5331 47.7195C44.5632 47.78 44.5787 47.8467 44.5781 47.9142V57.4816C44.5781 57.864 44.1263 58.0734 43.8133 57.8298L31.9838 48.0884C31.7755 47.8795 31.7755 47.5318 31.9838 47.3577Z"
        fill="#7A8AA0" />
    <path
        d="M44.5781 26.518V36.1553C44.5781 36.2942 44.5093 36.3989 44.4051 36.503L38.3865 41.4779C38.3027 41.5456 38.1983 41.5824 38.0906 41.5824C37.9829 41.5824 37.8785 41.5456 37.7947 41.4779L31.9497 36.6772C31.7061 36.4683 31.7061 36.1553 31.9497 35.9465L43.8127 26.1703C44.1263 25.9261 44.5781 26.1356 44.5781 26.518Z"
        fill="#7A8AA0" />
    <path
        d="M166.416 40.6778C166.799 40.0165 167.39 39.5641 168.26 39.5641C168.399 39.5641 168.504 39.5641 168.642 39.6341L168.573 41.3385H168.26C167.077 41.3385 166.416 41.965 166.416 43.3564V45.0267H164.711V39.6341H166.416V40.6778Z"
        fill="#7A8AA0" />
    <path
        d="M163.111 39.6341V45.0261H161.406V44.5043C161.024 44.922 160.432 45.1655 159.771 45.1655C158.519 45.1655 157.684 44.296 157.684 42.9387V39.6341H159.388V42.591C159.388 43.2176 159.736 43.6353 160.293 43.6353C160.954 43.6353 161.406 43.1823 161.406 42.1386V39.6341H163.111Z"
        fill="#7A8AA0" />
    <path
        d="M156.501 43.4259L156.883 44.7831C156.466 44.9914 156.013 45.1661 155.457 45.2003C154.1 45.2003 153.3 44.4696 153.3 43.0434V40.9908H152.326V39.6341H153.3V38.0333H155.004V39.6341H156.605V40.9908H155.004V42.8693C155.004 43.4259 155.283 43.6347 155.735 43.6347C155.944 43.6347 156.292 43.5653 156.501 43.4259Z"
        fill="#7A8AA0" />
    <path
        d="M152.048 45.0267H149.855L148.116 43.0782H147.803V45.0267H146.098V37.3031H147.803V41.4779H148.046L149.751 39.6341H151.804L149.438 42.2086L152.048 45.0267Z"
        fill="#7A8AA0" />
    <path fill-rule="evenodd" clip-rule="evenodd"
        d="M144.498 39.6341V44.9914H142.793V44.5737C142.375 44.9567 141.819 45.1655 141.123 45.1655C139.732 45.1655 138.514 44.0177 138.514 42.3127C138.514 40.6078 139.697 39.4594 141.123 39.4594C141.819 39.4594 142.375 39.6688 142.793 40.0512V39.6341H144.498ZM140.183 42.3127C140.183 43.1476 140.705 43.7041 141.471 43.7041C142.167 43.7041 142.793 43.1476 142.793 42.3127C142.793 41.4779 142.167 40.9213 141.471 40.9213C140.74 40.9213 140.183 41.4779 140.183 42.3127Z"
        fill="#7A8AA0" />
    <path
        d="M136.496 39.6341H137.992V40.9908H136.496V45.0261H134.791V40.9908H134.026V39.6341H134.791V39.2164C134.791 37.9638 135.661 37.1637 136.948 37.1637C137.306 37.1658 137.661 37.2367 137.992 37.3726L137.644 38.6945C137.505 38.6593 137.331 38.6251 137.192 38.6251C136.774 38.6251 136.496 38.8687 136.496 39.2858V39.6341Z"
        fill="#7A8AA0" />
    <path
        d="M132.912 39.6341V45.0261H131.208V44.5043C130.825 44.922 130.234 45.1655 129.572 45.1655C128.32 45.1655 127.485 44.296 127.485 42.9387V39.6341H129.19V42.591C129.19 43.2176 129.538 43.6353 130.094 43.6353C130.755 43.6353 131.208 43.1823 131.208 42.1386V39.6341H132.912Z"
        fill="#7A8AA0" />
    <path
        d="M122.371 40.1212C122.754 39.7035 123.345 39.46 124.006 39.46C125.258 39.46 126.094 40.3642 126.094 41.7215V44.9914H124.389V42.0692C124.389 41.4432 124.041 41.0255 123.484 41.0255C122.823 41.0255 122.371 41.4779 122.371 42.5216V45.0267H120.666V39.6341H122.371V40.1212Z"
        fill="#7A8AA0" />
    <path fill-rule="evenodd" clip-rule="evenodd"
        d="M119.065 39.6341V44.9914H117.361V44.5737C116.943 44.9567 116.387 45.1655 115.691 45.1655C114.299 45.1655 113.082 44.0177 113.082 42.3127C113.082 40.6078 114.265 39.4594 115.691 39.4594C116.387 39.4594 116.943 39.6688 117.361 40.0512V39.6341H119.065ZM114.752 42.3127C114.752 43.1476 115.274 43.7041 116.039 43.7041C116.734 43.7041 117.361 43.1476 117.361 42.3127C117.361 41.4779 116.734 40.9213 116.039 40.9213C115.308 40.9213 114.752 41.4779 114.752 42.3127Z"
        fill="#7A8AA0" />
    <path
        d="M111.864 37.8256V45.0273H110.124V41.4438L108.246 45.0273H107.167L105.289 41.4091V44.992H103.584V37.825H105.323L107.724 42.2786L110.124 37.8256H111.864Z"
        fill="#7A8AA0" />
    <path
        d="M38.8725 42.3822L44.5087 47.0447C44.5925 47.1123 44.6969 47.1492 44.8046 47.1492C44.9123 47.1492 45.0167 47.1123 45.1005 47.0447L50.7361 42.3822C50.945 42.2086 50.945 41.8604 50.7361 41.6521L45.1 37.0249C45.0162 36.9574 44.9119 36.9206 44.8043 36.9206C44.6968 36.9206 44.5924 36.9574 44.5087 37.0249L38.8725 41.6515C38.629 41.8604 38.629 42.2086 38.8725 42.3822Z"
        fill="#7A8AA0" />
    <path
        d="M57.6942 36.6772L51.8498 41.478C51.766 41.5456 51.6616 41.5825 51.5539 41.5825C51.4462 41.5825 51.3418 41.5456 51.258 41.478L45.2047 36.5031C45.1502 36.4631 45.106 36.4107 45.0757 36.3502C45.0454 36.2898 45.0299 36.223 45.0305 36.1554V26.518C45.0305 26.1356 45.483 25.9268 45.7959 26.1698L57.6942 35.9465C57.9031 36.1554 57.9031 36.5031 57.6942 36.6772Z"
        fill="#7A8AA0" />
    <path
        d="M31.3578 46.2793V37.7904C31.3547 37.7003 31.3775 37.6111 31.4236 37.5336C31.4696 37.4561 31.537 37.3935 31.6176 37.3531C31.6982 37.3128 31.7887 37.2964 31.8784 37.3061C31.968 37.3157 32.053 37.3508 32.1233 37.4074L37.2723 41.6521C37.4811 41.861 37.4811 42.2087 37.2723 42.3828L32.1233 46.627C31.8103 46.8711 31.3578 46.6617 31.3578 46.2793Z"
        fill="#7A8AA0" />
    <path
        d="M45.0305 57.4816V47.9143C45.0305 47.7754 45.1005 47.636 45.2052 47.5318L51.2585 42.5564C51.3423 42.4888 51.4468 42.4519 51.5545 42.4519C51.6621 42.4519 51.7666 42.4888 51.8504 42.5564L57.6248 47.3577C57.8337 47.5666 57.8337 47.9143 57.6248 48.0884L45.7959 57.8299C45.483 58.0735 45.0305 57.8646 45.0305 57.4816Z"
        fill="#7A8AA0" />
</svg>