<svg width="200" height="84" viewBox="0 0 200 84" fill="none" xmlns="http://www.w3.org/2000/svg">
    <path
        d="M56.144 28.2029L56.0375 28.3843C55.4897 29.4234 55.1549 30.5614 55.0484 31.683C54.7136 34.9157 56.1288 38.2309 58.9136 39.9627L62.5656 42.2553L74.4655 49.6938C78.209 52.0359 82.9873 50.6503 85.1329 46.5929L85.2395 46.4115C85.5438 45.8508 85.7721 45.2571 85.9395 44.6633C85.9395 44.7457 85.9395 44.8117 85.9242 44.8777C86.0916 44.284 86.183 43.6737 86.2437 43.047C86.2437 42.9974 86.259 42.9646 86.2742 42.9151C86.2894 42.7172 86.3047 42.5192 86.3047 42.3213V42.1893C86.3047 42.0078 86.3047 41.8264 86.2894 41.645C86.259 41.1997 86.1525 40.7543 86.0611 40.3255C86.0459 40.2429 86.0459 40.1606 86.0156 40.078C85.7416 38.9235 85.2243 37.8516 84.5091 36.8949C84.2046 36.4825 83.8547 36.1032 83.4742 35.7569C83.2156 35.526 82.9569 35.3117 82.6829 35.1138C82.5764 35.0478 82.5003 34.9487 82.3938 34.8829L66.8265 25.1353C63.0832 22.7931 58.3048 24.195 56.1592 28.2359L56.144 28.2029Z"
        fill="#7A8AA0" />
    <path
        d="M58.7937 44.7443C55.163 46.9472 53.9233 51.8181 56.019 55.6187L56.1224 55.7894C58.2181 59.6055 62.8524 60.9085 66.4683 58.7058L77.3605 52.0973C76.0912 52.0973 74.7924 51.7405 73.6118 51.0269L61.0224 43.3792L58.8085 44.7132L58.7937 44.7443Z"
        fill="#7A8AA0" />
    <path
        d="M99.7637 47.5531H95.9368V36.061H99.8411C100.962 36.061 101.925 36.2912 102.731 36.7512C103.54 37.2077 104.161 37.8642 104.595 38.7207C105.028 39.5776 105.245 40.6026 105.245 41.7958C105.245 42.9928 105.027 44.0217 104.589 44.8821C104.155 45.7425 103.528 46.4026 102.709 46.8629C101.892 47.323 100.911 47.5531 99.7637 47.5531ZM97.9826 45.7518H99.6647C100.451 45.7518 101.108 45.606 101.633 45.3141C102.159 45.0187 102.554 44.5789 102.819 43.9954C103.084 43.4081 103.216 42.675 103.216 41.7958C103.216 40.9168 103.084 40.1873 102.819 39.6074C102.554 39.024 102.163 38.5881 101.644 38.3001C101.13 38.0082 100.49 37.8624 99.7253 37.8624H97.9826V45.7518Z"
        fill="#7A8AA0" />
    <path
        d="M110.851 47.7212C110.002 47.7212 109.268 47.5418 108.651 47.1825C108.037 46.8197 107.564 46.3072 107.233 45.645C106.902 44.9793 106.737 44.1955 106.737 43.2939C106.737 42.4075 106.902 41.6294 107.233 40.9597C107.568 40.2862 108.035 39.7627 108.634 39.3885C109.233 39.0108 109.937 38.8218 110.746 38.8218C111.268 38.8218 111.761 38.9079 112.224 39.08C112.691 39.2481 113.103 39.5102 113.459 39.8656C113.819 40.2209 114.103 40.6735 114.308 41.2233C114.514 41.7695 114.617 42.4206 114.617 43.1761V43.7989H107.674V42.4299H112.704C112.7 42.0408 112.617 41.6947 112.456 41.3917C112.294 41.085 112.068 40.8438 111.777 40.6679C111.49 40.492 111.156 40.4043 110.774 40.4043C110.366 40.4043 110.007 40.5051 109.698 40.7072C109.39 40.9055 109.149 41.1672 108.976 41.4928C108.807 41.8145 108.72 42.1681 108.717 42.5533V43.7485C108.717 44.2497 108.807 44.6799 108.987 45.0392C109.167 45.3946 109.419 45.6677 109.742 45.8585C110.066 46.0454 110.445 46.139 110.878 46.139C111.169 46.139 111.432 46.0979 111.667 46.0156C111.902 45.9294 112.106 45.8042 112.279 45.6396C112.452 45.4751 112.582 45.2711 112.671 45.0279L114.535 45.241C114.417 45.7425 114.193 46.1802 113.862 46.554C113.535 46.9246 113.115 47.2126 112.604 47.4183C112.093 47.6202 111.509 47.7212 110.851 47.7212Z"
        fill="#7A8AA0" />
    <path
        d="M123.629 38.9338L120.613 47.5531H118.407L115.391 38.9338H117.519L119.466 45.3364H119.554L121.506 38.9338H123.629Z"
        fill="#7A8AA0" />
    <path
        d="M128.473 47.7212C127.623 47.7212 126.89 47.5418 126.272 47.1825C125.658 46.8197 125.186 46.3072 124.855 45.645C124.524 44.9793 124.359 44.1955 124.359 43.2939C124.359 42.4075 124.524 41.6294 124.855 40.9597C125.19 40.2862 125.656 39.7627 126.256 39.3885C126.855 39.0108 127.559 38.8218 128.368 38.8218C128.89 38.8218 129.382 38.9079 129.846 39.08C130.313 39.2481 130.724 39.5102 131.081 39.8656C131.441 40.2209 131.724 40.6735 131.93 41.2233C132.136 41.7695 132.239 42.4206 132.239 43.1761V43.7989H125.296V42.4299H130.326C130.322 42.0408 130.239 41.6947 130.077 41.3917C129.916 41.085 129.69 40.8438 129.399 40.6679C129.112 40.492 128.778 40.4043 128.395 40.4043C127.987 40.4043 127.629 40.5051 127.32 40.7072C127.011 40.9055 126.77 41.1672 126.598 41.4928C126.428 41.8145 126.342 42.1681 126.338 42.5533V43.7485C126.338 44.2497 126.428 44.6799 126.609 45.0392C126.789 45.3946 127.041 45.6677 127.364 45.8585C127.688 46.0454 128.066 46.139 128.5 46.139C128.791 46.139 129.053 46.0979 129.289 46.0156C129.524 45.9294 129.728 45.8042 129.901 45.6396C130.074 45.4751 130.204 45.2711 130.293 45.0279L132.156 45.241C132.039 45.7425 131.814 46.1802 131.484 46.554C131.156 46.9246 130.737 47.2126 130.226 47.4183C129.715 47.6202 129.131 47.7212 128.473 47.7212Z"
        fill="#7A8AA0" />
    <path d="M135.924 36.061V47.5531H133.928V36.061H135.924Z" fill="#7A8AA0" />
    <path
        d="M137.977 50.7849V38.9339H139.94V40.3593H140.056C140.159 40.1497 140.304 39.9273 140.492 39.6914C140.679 39.452 140.933 39.2481 141.252 39.08C141.572 38.9079 141.981 38.8218 142.477 38.8218C143.131 38.8218 143.721 38.992 144.247 39.3325C144.776 39.6691 145.195 40.1685 145.504 40.8306C145.817 41.4889 145.973 42.2972 145.973 43.2548C145.973 44.2011 145.82 45.0055 145.515 45.6677C145.21 46.3298 144.795 46.8346 144.269 47.1825C143.743 47.5304 143.148 47.7046 142.482 47.7046C141.997 47.7046 141.594 47.6223 141.275 47.4577C140.955 47.2931 140.698 47.0949 140.503 46.8629C140.311 46.6271 140.162 46.4047 140.056 46.1951H139.973V50.7849H137.977ZM139.935 43.2435C139.935 43.801 140.012 44.2891 140.166 44.708C140.324 45.1271 140.55 45.4542 140.845 45.69C141.142 45.922 141.503 46.038 141.925 46.038C142.366 46.038 142.736 45.9181 143.034 45.6787C143.332 45.4357 143.556 45.1045 143.707 44.6856C143.861 44.2628 143.938 43.7822 143.938 43.2435C143.938 42.7086 143.863 42.2334 143.712 41.8181C143.561 41.4031 143.337 41.0775 143.039 40.842C142.741 40.6061 142.37 40.4884 141.925 40.4884C141.499 40.4884 141.137 40.6026 140.839 40.8306C140.541 41.0587 140.315 41.3786 140.161 41.7901C140.01 42.2018 139.935 42.686 139.935 43.2435Z"
        fill="#7A8AA0" />
</svg>