<svg width="200" height="84" viewBox="0 0 200 84" fill="none" xmlns="http://www.w3.org/2000/svg">
    <path
        d="M136.631 50.8513C136.436 50.8323 136.255 50.738 136.129 50.5883C136.002 50.4387 135.938 50.2455 135.952 50.0498C135.946 49.8527 136.019 49.6615 136.154 49.5177C136.288 49.3739 136.475 49.2893 136.672 49.2822C136.821 49.2749 136.968 49.3168 137.091 49.4015C137.213 49.4862 137.305 49.609 137.351 49.7509H138.071C138.015 49.4567 137.853 49.1932 137.616 49.0104C137.357 48.785 137.022 48.666 136.678 48.6776C136.318 48.6776 135.973 48.8207 135.718 49.0755C135.463 49.3303 135.32 49.6759 135.32 50.0362C135.312 50.2278 135.345 50.4188 135.416 50.5968C135.488 50.7748 135.596 50.9356 135.734 51.0687C135.997 51.3273 136.35 51.4735 136.719 51.4763C137.033 51.484 137.34 51.3826 137.588 51.1894C137.836 50.9961 138.009 50.7231 138.078 50.4166H137.358C137.299 50.5572 137.197 50.6753 137.066 50.7535C136.935 50.8318 136.783 50.866 136.631 50.8513ZM139.185 48.9629C139.042 48.6304 138.837 48.3283 138.58 48.073C138.322 47.8121 138.014 47.6055 137.675 47.4655C137.335 47.3256 136.971 47.2549 136.604 47.2579C136.231 47.2584 135.861 47.3323 135.517 47.4752C134.846 47.7576 134.312 48.2916 134.029 48.9629C133.886 49.3098 133.812 49.6813 133.812 50.0566C133.812 50.4296 133.886 50.7989 134.029 51.1434C134.172 51.4743 134.375 51.776 134.627 52.0333C134.881 52.2897 135.183 52.4929 135.517 52.6311C135.86 52.7798 136.23 52.8561 136.604 52.8552C136.978 52.8561 137.348 52.7798 137.691 52.6311C138.022 52.4931 138.322 52.2898 138.574 52.0333C138.832 51.7792 139.037 51.4769 139.178 51.1434C139.321 50.7989 139.395 50.4296 139.396 50.0566C139.397 49.6818 139.326 49.3103 139.185 48.9629ZM138.621 50.9057C138.458 51.3112 138.176 51.658 137.813 51.9005C137.449 52.143 137.02 52.2698 136.583 52.2643C136.292 52.2657 136.003 52.208 135.734 52.0944C135.481 51.9804 135.251 51.8216 135.055 51.6257C134.861 51.4277 134.703 51.1979 134.586 50.9464C134.476 50.6768 134.418 50.3886 134.416 50.0973C134.418 49.8038 134.476 49.5134 134.586 49.2414C134.807 48.7133 135.227 48.2935 135.755 48.073C136.024 47.9621 136.312 47.9044 136.604 47.9032C136.891 47.9008 137.177 47.956 137.443 48.0657C137.709 48.1754 137.95 48.3372 138.153 48.5417C138.575 48.9507 138.819 49.5096 138.832 50.0973C138.815 50.3779 138.743 50.6525 138.621 50.9057ZM74.2785 32.5172C72.3141 31.5554 70.1395 31.1022 67.9543 31.1994H66.718V36.0427H68.62C71.7991 36.0427 73.7555 38.1757 73.7555 42.0273C73.7555 45.8789 71.772 47.9575 68.5929 47.9575H66.718V52.8009H68.3008C75.0394 52.8009 79.2374 49.1191 79.2374 42.0001C79.2646 37.5847 77.3354 34.263 74.2785 32.5172ZM60.6044 52.8009H66.1202V47.9575V36.0427V31.1994H60.6044V52.8009ZM90.6631 39.9894L90.4254 39.8807L89.1347 44.2486C90.2419 44.8056 91.1046 45.4917 91.1046 46.5242C91.1092 46.7947 91.0598 47.0634 90.9594 47.3145C90.859 47.5657 90.7096 47.7944 90.5199 47.9872C90.3302 48.1801 90.104 48.3332 89.8546 48.4378C89.6051 48.5423 89.3373 48.5961 89.0668 48.5961C87.7082 48.5961 86.8183 47.4277 86.7911 45.6479H81.3024V46.1167C81.3024 50.7562 84.3796 53.2085 89.0871 53.2085C93.7946 53.2085 96.6069 50.7562 96.6069 46.5854C96.6069 43.7527 95.4114 42.0273 90.6631 39.9894ZM86.7843 43.2568C87.3685 43.4878 87.9867 43.7255 88.5709 43.9769L89.814 39.6226C88.0003 38.8007 87.0968 38.2165 87.0968 37.0888C87.1248 36.6136 87.34 36.1688 87.6952 35.8518C88.0504 35.5348 88.5167 35.3714 88.992 35.3974C90.0721 35.3974 90.7174 35.9476 90.9484 37.4964H96.3828C96.3828 34.6094 95.2483 32.884 92.9455 31.6885C91.7792 31.0909 90.486 30.7833 89.1755 30.7918C85.2084 30.7918 81.6625 33.509 81.6625 37.1568C81.6625 39.9555 83.2588 41.8235 86.7843 43.2568ZM110.077 38.9433C110.136 39.6029 109.954 40.2615 109.566 40.798C109.178 41.3346 108.609 41.7132 107.965 41.8643L110.682 45.2607C113.596 44.432 115.362 41.7896 115.362 38.6173C115.41 37.2439 115.061 35.886 114.357 34.7056C113.654 33.5252 112.625 32.5721 111.395 31.9602C109.759 31.3749 108.023 31.1164 106.287 31.1994H105.03V36.0427H106.606C108.678 36.0427 110.077 37.0956 110.077 38.9433ZM112.951 49.1327L111.837 47.7741L109.989 45.4442L107.272 42.0137C107.033 42.0415 106.792 42.0551 106.552 42.0545H104.514H104.412V31.1994H98.8893V52.8009H104.405V45.8246H104.568L109.554 52.8009H115.851L112.951 49.1327ZM130.959 31.1994L127.032 44.6766L126.55 46.3476L124.662 52.8009H129.376L136.604 31.1994H130.959ZM122.128 31.1994H116.49L123.69 52.8009H124.01L126.19 45.3287L122.128 31.1994Z"
        fill="#7A8AA0" />
</svg>