<svg width="200" height="84" viewBox="0 0 200 84" fill="none" xmlns="http://www.w3.org/2000/svg">
    <g clip-path="url(#clip0_14515_3275)">
        <path
            d="M59.7275 48.4414V35.4468H70.7472C71.5741 35.4468 72.2372 35.5142 72.7436 35.6465C73.2476 35.7789 73.6366 35.9738 73.9082 36.2313C74.1798 36.4888 74.3633 36.8088 74.4538 37.1914C74.5468 37.5741 74.5908 38.0144 74.5908 38.5101C74.5908 38.8711 74.559 39.1912 74.4954 39.4655C74.4318 39.7422 74.3486 39.9805 74.2458 40.185C74.1431 40.3896 74.0257 40.558 73.8935 40.6976C73.7614 40.8372 73.6269 40.9503 73.4898 41.0393C73.1693 41.2535 72.8023 41.3738 72.3889 41.4027C72.9051 41.4315 73.3626 41.5543 73.7639 41.7757C73.9351 41.8719 74.1039 41.9922 74.2679 42.1342C74.4318 42.2762 74.5786 42.4567 74.7058 42.666C74.833 42.8754 74.9407 43.1257 75.019 43.4096C75.0997 43.6936 75.1389 44.0232 75.1389 44.3962C75.1389 44.8486 75.1168 45.2601 75.0753 45.6355C75.0312 46.0109 74.9456 46.3478 74.8135 46.6462C74.6814 46.9446 74.493 47.2069 74.2458 47.4331C73.9987 47.6593 73.6709 47.847 73.2599 47.9962C72.8488 48.1454 72.3473 48.2561 71.7552 48.3307C71.1606 48.4029 70.4511 48.4414 69.6266 48.4414H59.7275ZM69.0761 40.8612C69.6388 40.8612 70.1233 40.8492 70.5294 40.8275C70.9356 40.8059 71.283 40.7626 71.5692 40.7C71.8555 40.6374 72.0879 40.5508 72.2665 40.4425C72.4451 40.3342 72.5821 40.1898 72.6849 40.0142C72.7852 39.8385 72.8537 39.6291 72.888 39.3837C72.9222 39.1382 72.9393 38.847 72.9393 38.5077C72.9393 38.1468 72.9002 37.8532 72.8195 37.627C72.7387 37.4008 72.5968 37.2275 72.3889 37.1072C72.1833 36.9869 71.902 36.9051 71.5497 36.8618C71.1973 36.8184 70.7447 36.7992 70.1942 36.7992H61.3766V40.8612H69.0737H69.0761ZM69.0761 47.089C69.7171 47.089 70.275 47.0794 70.7447 47.0601C71.2145 47.0409 71.6133 46.9976 71.9411 46.9326C72.269 46.8676 72.5308 46.7738 72.7314 46.6535C72.932 46.5331 73.0886 46.3719 73.2011 46.1722C73.3137 45.9724 73.3895 45.727 73.4287 45.4406C73.4678 45.1543 73.4898 44.8053 73.4898 44.4011C73.4898 44.0858 73.4703 43.8091 73.4287 43.5757C73.3895 43.3422 73.3137 43.1449 73.2011 42.9837C73.0886 42.8224 72.932 42.6925 72.7314 42.5938C72.5308 42.4952 72.2665 42.4182 71.9411 42.3604C71.6133 42.3051 71.2169 42.2666 70.7447 42.2473C70.275 42.2281 69.7171 42.2184 69.0761 42.2184H61.379V47.0914H69.0761V47.089Z"
            fill="#7A8AA0" />
        <path
            d="M82.5179 38.6955V44.057C82.5179 44.6538 82.5644 45.1592 82.6549 45.5682C82.7479 45.9797 82.9314 46.3094 83.2054 46.5597C83.4819 46.81 83.8709 46.9928 84.3774 47.1035C84.8814 47.2142 85.5493 47.272 86.3763 47.272C87.2717 47.272 88.0057 47.207 88.5758 47.0795C89.1458 46.9519 89.596 46.7691 89.9239 46.5356C90.2517 46.3022 90.4768 46.0182 90.5991 45.6886C90.7215 45.3589 90.7851 44.9931 90.7851 44.5912V38.6931H92.4366V48.4391H90.7851V46.7354C90.7044 46.9182 90.5698 47.1204 90.3814 47.3394C90.193 47.5584 89.9067 47.7653 89.53 47.953C89.1507 48.1407 88.6614 48.2995 88.062 48.4295C87.4626 48.5594 86.7163 48.6244 85.8282 48.6244C85.0893 48.6244 84.4556 48.5811 83.9247 48.4945C83.3938 48.4078 82.9461 48.2779 82.5766 48.1046C82.2072 47.9338 81.9111 47.7196 81.6885 47.4669C81.4659 47.2142 81.2922 46.9182 81.1723 46.5838C81.0524 46.2493 80.9716 45.8739 80.9325 45.4624C80.8933 45.0509 80.8713 44.5985 80.8713 44.11L80.8811 38.6955H82.5228H82.5179Z"
            fill="#7A8AA0" />
        <path
            d="M108.068 48.4415V43.0271C108.068 42.4231 108.022 41.9153 107.931 41.499C107.838 41.0851 107.657 40.7506 107.381 40.4955C107.104 40.2405 106.715 40.0576 106.211 39.9445C105.707 39.8314 105.042 39.776 104.215 39.776C103.319 39.776 102.588 39.841 102.018 39.9709C101.448 40.1009 100.997 40.2838 100.672 40.522C100.347 40.7602 100.119 41.0442 99.9967 41.3763C99.8743 41.7084 99.8107 42.079 99.8107 42.4857V48.4415H98.1592V38.6955H99.8107V40.3199C99.9306 40.0431 100.104 39.8049 100.327 39.6052C100.55 39.4054 100.804 39.2346 101.083 39.0926C101.364 38.953 101.668 38.8375 101.996 38.7509C102.323 38.6643 102.649 38.5969 102.977 38.5488C103.305 38.5006 103.62 38.4693 103.926 38.4525C104.232 38.4357 104.513 38.426 104.765 38.426C105.499 38.426 106.13 38.4717 106.661 38.5608C107.192 38.6522 107.642 38.7846 108.012 38.9578C108.381 39.1335 108.677 39.3501 108.902 39.61C109.125 39.8699 109.299 40.1707 109.424 40.51C109.546 40.8517 109.629 41.2319 109.668 41.653C109.707 42.0742 109.729 42.5314 109.729 43.0271L109.72 48.4415H108.068Z"
            fill="#7A8AA0" />
        <path
            d="M115.454 35.4468H117.106V42.5529H117.647L123.712 38.6954H126.188L119.168 43.2291L126.462 48.4414H123.986L117.654 43.7706H117.104V48.4414H115.452V35.4468H115.454Z"
            fill="#7A8AA0" />
        <path
            d="M136.043 48.6268C134.942 48.6268 134.007 48.5522 133.239 48.403C132.471 48.2538 131.844 47.9963 131.365 47.6281C130.883 47.2623 130.533 46.7714 130.315 46.1554C130.098 45.5417 129.988 44.7669 129.988 43.838C129.988 42.7719 130.098 41.8912 130.315 41.1933C130.533 40.4979 130.883 39.942 131.365 39.5305C131.847 39.119 132.471 38.8302 133.239 38.6666C134.007 38.503 134.942 38.4211 136.043 38.4211C136.828 38.4211 137.508 38.4765 138.086 38.5896C138.663 38.7027 139.155 38.8663 139.566 39.0805C139.977 39.2947 140.31 39.5546 140.564 39.8578C140.819 40.161 141.019 40.4834 141.166 40.8179C141.313 41.1524 141.413 41.5471 141.467 41.9971C141.521 42.4495 141.548 42.926 141.548 43.4265L141.411 43.9679H131.639C131.639 44.6947 131.712 45.2891 131.862 45.7535C132.011 46.2179 132.258 46.5572 132.601 46.7714C132.945 46.9856 133.398 47.1227 133.958 47.1805C134.521 47.2383 135.214 47.2671 136.04 47.2671C136.796 47.2671 137.423 47.2479 137.919 47.207C138.416 47.1661 138.81 47.0915 139.101 46.9784C139.392 46.8653 139.598 46.7088 139.715 46.5091C139.833 46.3094 139.891 46.0471 139.891 45.727H141.543C141.543 46.2516 141.45 46.6992 141.264 47.0674C141.078 47.438 140.77 47.7364 140.339 47.965C139.909 48.1936 139.343 48.3596 138.641 48.4631C137.939 48.5666 137.071 48.6195 136.04 48.6195L136.043 48.6268ZM136.043 39.7784C135.492 39.7784 135.001 39.7904 134.568 39.8121C134.135 39.8337 133.755 39.8842 133.432 39.9612C133.109 40.0383 132.83 40.1465 132.603 40.2909C132.375 40.4353 132.189 40.6038 132.048 40.7987C131.906 40.9936 131.803 41.2679 131.737 41.6193C131.671 41.9706 131.639 42.3965 131.639 42.8923H139.896C139.896 42.2329 139.825 41.7155 139.681 41.3401C139.537 40.9647 139.312 40.6567 139.001 40.4137C138.69 40.1706 138.294 40.0046 137.805 39.9155C137.318 39.8265 136.73 39.7808 136.04 39.7808L136.043 39.7784Z"
            fill="#7A8AA0" />
        <path
            d="M155.804 41.8672C155.804 41.4605 155.775 41.1236 155.714 40.8565C155.653 40.5894 155.511 40.3752 155.288 40.214C155.066 40.0527 154.733 39.9396 154.295 39.8747C153.857 39.8097 153.257 39.7784 152.501 39.7784C151.745 39.7784 151.161 39.841 150.696 39.9685C150.231 40.096 149.866 40.2741 149.605 40.5051C149.34 40.7362 149.162 41.0129 149.066 41.3354C148.971 41.6578 148.924 42.0164 148.924 42.4086V48.4415H147.273V38.6955H148.924V40.2428C148.981 40.0672 149.088 39.8747 149.243 39.6629C149.397 39.4511 149.632 39.2538 149.947 39.0709C150.263 38.888 150.671 38.734 151.173 38.6089C151.674 38.4862 152.301 38.4236 153.052 38.4236C153.913 38.4236 154.613 38.4982 155.151 38.6474C155.689 38.7966 156.11 39.018 156.411 39.3067C156.712 39.5979 156.915 39.9565 157.023 40.3848C157.128 40.8132 157.182 41.3065 157.182 41.8648H155.807L155.804 41.8672Z"
            fill="#7A8AA0" />
        <path d="M53.1363 35.6416H38.9458V37.3261H53.1363V35.6416Z" fill="#7A8AA0" />
        <path d="M49.711 40.9358H39.1905V42.6203H49.711V40.9358Z" fill="#7A8AA0" />
        <path d="M53.1363 46.7112H38.9458V48.3957H53.1363V46.7112Z" fill="#7A8AA0" />
    </g>
    <defs>
        <clipPath id="clip0_14515_3275">
            <rect width="149" height="45" fill="white" transform="translate(25 20)" />
        </clipPath>
    </defs>
</svg>