<svg width="200" height="84" viewBox="0 0 200 84" fill="none" xmlns="http://www.w3.org/2000/svg">
    <path fill-rule="evenodd" clip-rule="evenodd"
        d="M54.318 32.9316L58.7468 40.5947C58.9928 41.0225 59.1215 41.5077 59.1199 42.0012C59.1183 42.4947 58.9865 42.979 58.7378 43.4053L54.309 51.0683C54.1115 51.4103 53.8277 51.6944 53.486 51.8922C53.1442 52.09 52.7565 52.1945 52.3616 52.1953H43.5153C43.0243 52.1944 42.5421 52.0646 42.1169 51.819C41.6918 51.5734 41.3385 51.2205 41.0924 50.7956L36.6636 43.1213C36.4658 42.7786 36.3616 42.39 36.3616 41.9943C36.3616 41.5987 36.4658 41.2101 36.6636 40.8674L41.0924 33.2043C41.3383 32.7798 41.6912 32.4271 42.116 32.1815C42.5407 31.9359 43.0224 31.806 43.513 31.8047H52.3616C52.758 31.8039 53.1476 31.9077 53.4911 32.1055C53.8346 32.3034 54.1198 32.5883 54.318 32.9316ZM38.4216 41.1672L37.9212 42.0259C38.0749 41.7629 38.2952 41.545 38.5599 41.3943C38.8247 41.2435 39.1244 41.1652 39.4291 41.1672H46.8149C46.9629 41.167 47.1082 41.128 47.2364 41.054C47.3645 40.9801 47.471 40.8737 47.5452 40.7457L51.7441 33.4725H42.8143C43.1101 33.4851 43.3988 33.5668 43.6571 33.7113C43.9155 33.8557 44.1363 34.0588 44.3019 34.3042L46.2988 37.7706C46.3978 37.9611 46.4195 38.1825 46.3595 38.3886C46.2994 38.5947 46.1621 38.7697 45.9762 38.8772C45.7904 38.9847 45.5702 39.0163 45.3616 38.9655C45.153 38.9147 44.972 38.7854 44.8563 38.6046L42.3771 34.3042L38.4216 41.1672ZM43.8218 50.5297H52.7493C52.4569 50.5186 52.1712 50.439 51.9151 50.2973C51.6591 50.1556 51.4399 49.9557 51.2753 49.7138L47.5452 43.2543C47.4708 43.1264 47.3643 43.0202 47.2362 42.9463C47.1081 42.8723 46.9628 42.8332 46.8149 42.8328H38.4171L41.9601 48.979C42.0734 49.2291 42.1258 49.5026 42.1128 49.7768C42.0999 50.0511 42.0221 50.3184 41.8858 50.5567L42.3793 49.6958L44.8586 45.3909C44.9105 45.2909 44.9822 45.2025 45.0693 45.131C45.1563 45.0595 45.257 45.0064 45.3652 44.9749C45.4733 44.9434 45.5867 44.9341 45.6986 44.9476C45.8104 44.9611 45.9184 44.9972 46.0159 45.0535C46.1134 45.1099 46.1985 45.1855 46.2661 45.2757C46.3336 45.3659 46.3821 45.4688 46.4088 45.5783C46.4354 45.6877 46.4396 45.8014 46.4211 45.9126C46.4026 46.0237 46.3617 46.1299 46.301 46.2248L43.8218 50.5297ZM53.1888 49.6958L57.1488 42.835L57.1466 42.8373L57.6492 41.9741C57.4955 42.2371 57.2752 42.4549 57.0105 42.6057C56.7458 42.7565 56.446 42.8348 56.1414 42.8328H52.1746C51.9534 42.8328 51.7413 42.7449 51.5849 42.5885C51.4285 42.4321 51.3407 42.22 51.3407 41.9989C51.3407 41.7777 51.4285 41.5656 51.5849 41.4092C51.7413 41.2528 51.9534 41.1649 52.1746 41.1649H57.1578C57.1578 41.1649 53.9191 35.5213 53.7771 35.323C53.5837 35.0517 53.472 34.7308 53.4552 34.3981C53.4384 34.0654 53.5173 33.7348 53.6824 33.4455L53.1888 34.3042L48.9809 41.5796C48.9073 41.7079 48.8686 41.8532 48.8686 42.0011C48.8686 42.149 48.9073 42.2943 48.9809 42.4226L53.1888 49.6958Z"
        fill="#7A8AA0" />
    <path
        d="M105.56 37.8612C106.003 37.5997 106.511 37.467 107.025 37.478C107.336 37.464 107.645 37.5253 107.927 37.6568C108.209 37.7883 108.454 37.986 108.643 38.2331C109.02 38.7222 109.229 39.5493 109.245 40.692H107.395C107.403 40.378 107.329 40.0672 107.181 39.7905C107.101 39.6676 106.99 39.5682 106.859 39.5024C106.729 39.4366 106.583 39.4069 106.437 39.4164C105.975 39.3958 105.522 39.5378 105.154 39.8175C104.846 40.0688 104.579 40.3661 104.361 40.6988L104.336 40.7371V44.8481H108.325L107.807 46.2297C107.77 46.3299 107.703 46.4162 107.615 46.477C107.527 46.5379 107.423 46.5704 107.316 46.5701H99.9659L100.484 45.1885C100.522 45.0891 100.589 45.0035 100.676 44.9432C100.764 44.8828 100.867 44.8504 100.973 44.8504H102.247V40.2435C102.247 39.4006 103.286 39.4006 103.286 39.4006H99.9682L100.487 38.019C100.524 37.9196 100.591 37.834 100.678 37.7737C100.766 37.7133 100.869 37.6809 100.976 37.6809H103.843L104.118 38.8935H104.381L104.426 38.8394C104.75 38.4552 105.133 38.125 105.56 37.8612Z"
        fill="#7A8AA0" />
    <path
        d="M118.284 41.9465C117.828 41.7281 117.35 41.5559 116.86 41.4327L115.406 41.0563C115.021 40.958 114.644 40.8291 114.279 40.6709C113.921 40.5108 113.738 40.2855 113.738 39.9947C113.742 39.8261 113.798 39.6628 113.899 39.5278C114 39.3927 114.141 39.2928 114.302 39.2419C114.72 39.0856 115.165 39.0129 115.611 39.0278C115.909 39.0285 116.206 39.0602 116.497 39.1225C116.786 39.1836 117.07 39.2658 117.347 39.3681C117.612 39.4673 117.872 39.5777 118.113 39.695C118.302 39.7874 118.476 39.8775 118.629 39.9654L119.488 38.5748C119.337 38.4741 119.173 38.3644 118.994 38.2457C118.731 38.0829 118.452 37.9491 118.16 37.8468C117.781 37.7142 117.392 37.6117 116.997 37.5403C116.484 37.4508 115.965 37.4085 115.444 37.4141C114.927 37.4107 114.412 37.4713 113.909 37.5944C113.482 37.6962 113.075 37.8724 112.708 38.115C112.39 38.3288 112.123 38.6106 111.926 38.9399C111.732 39.283 111.634 39.6726 111.644 40.0668C111.625 40.5212 111.772 40.9669 112.059 41.32C112.357 41.6621 112.72 41.943 113.125 42.1471C113.576 42.3758 114.053 42.5506 114.545 42.6678C115.068 42.7962 115.557 42.9225 116.001 43.0464C116.392 43.1501 116.773 43.2889 117.139 43.4611C117.291 43.5145 117.423 43.6119 117.518 43.7408C117.614 43.8697 117.669 44.0243 117.676 44.1846C117.683 44.3561 117.638 44.5257 117.547 44.6713C117.456 44.8169 117.323 44.9316 117.166 45.0005C116.589 45.2755 115.746 45.2732 114.942 45.0749C114.575 44.9856 114.215 44.8696 113.864 44.7278C113.547 44.6005 113.24 44.4459 112.949 44.2658C112.744 44.1373 112.573 44.0201 112.431 43.9119L111.489 45.3882C112.004 45.8014 112.579 46.1329 113.195 46.3709C114.049 46.6916 114.956 46.8446 115.868 46.8216C117.164 46.8216 118.149 46.5624 118.798 46.0531C119.112 45.8086 119.363 45.4922 119.529 45.1305C119.694 44.7688 119.771 44.3725 119.751 43.975C119.77 43.5301 119.623 43.0942 119.339 42.7512C119.045 42.4153 118.686 42.1417 118.284 41.9465Z"
        fill="#7A8AA0" />
    <path
        d="M129.41 44.5731C129.625 44.4511 129.829 44.3109 130.021 44.1539L130.379 43.8496L131.323 45.2673C131.122 45.4805 130.895 45.6675 130.647 45.824C130.334 46.0258 130.003 46.2 129.66 46.3446C129.303 46.495 128.934 46.612 128.556 46.694C128.186 46.7763 127.808 46.8186 127.429 46.8202C126.106 46.8202 125.107 46.4528 124.442 45.7203C123.777 44.9878 123.442 43.7933 123.442 42.1728V40.2931C123.442 39.4073 124.569 39.4073 124.569 39.4073H121.627L122.146 38.0257C122.183 37.9263 122.25 37.8408 122.337 37.7804C122.425 37.72 122.529 37.6876 122.635 37.6876H123.448V35.9499C123.448 35.8364 123.485 35.7259 123.554 35.6353C123.622 35.5446 123.718 35.4786 123.827 35.4473L125.535 34.9604V37.6808H130.345L129.705 39.4005H125.533V42.1818C125.533 43.1577 125.725 43.8789 126.101 44.3297C126.299 44.5586 126.546 44.7394 126.824 44.8585C127.102 44.9776 127.404 45.0319 127.706 45.0171C128.025 45.0205 128.343 44.978 128.65 44.8909C128.915 44.8145 129.17 44.7079 129.41 44.5731Z"
        fill="#7A8AA0" />
    <path fill-rule="evenodd" clip-rule="evenodd"
        d="M140.796 44.7099C140.784 44.5597 140.766 44.3974 140.742 44.2231C140.717 43.8955 140.704 43.6003 140.704 43.3373C140.704 42.9902 140.726 42.5891 140.769 42.145C140.812 41.701 140.832 41.1804 140.832 40.5673C140.838 40.1348 140.778 39.704 140.654 39.2894C140.545 38.933 140.353 38.6077 140.093 38.3405C139.804 38.0582 139.453 37.8474 139.068 37.7252C138.557 37.5651 138.025 37.4889 137.49 37.4999C136.732 37.4851 135.976 37.5608 135.236 37.7252C134.706 37.8526 134.186 38.0222 133.683 38.2324L134.161 39.8101C134.529 39.6535 134.905 39.5159 135.288 39.3976C135.847 39.2277 136.428 39.1448 137.012 39.1519C137.463 39.1228 137.911 39.2398 138.29 39.4855C138.597 39.7109 138.741 40.094 138.741 40.6124V40.955C138.741 41.0904 138.728 41.2255 138.702 41.3584L138.684 41.4959H138.551C138.195 41.4719 137.895 41.4471 137.65 41.4216C137.411 41.3968 137.183 41.3855 136.974 41.3855C136.417 41.3803 135.861 41.4377 135.317 41.5568C134.874 41.6511 134.452 41.8244 134.071 42.0684C133.743 42.2831 133.477 42.5799 133.3 42.9294C133.114 43.3242 133.022 43.7573 133.034 44.1938C133.018 44.5365 133.077 44.8786 133.208 45.196C133.338 45.5133 133.537 45.7982 133.789 46.0307C134.294 46.4815 134.99 46.7271 135.863 46.7271C136.47 46.7574 137.075 46.6218 137.612 46.335C138.009 46.1025 138.349 45.7826 138.606 45.3996L138.651 45.3297H138.95L139.192 46.5806H141.245C141.367 46.5806 141.485 46.5381 141.579 46.4603C141.672 46.3825 141.736 46.2744 141.759 46.1546L142.002 44.8609H140.819L140.796 44.7099ZM138.727 43.9278L138.709 43.9616C138.54 44.2544 138.31 44.5067 138.033 44.7009C137.615 44.962 137.125 45.085 136.633 45.0525C136.129 45.0525 135.77 44.9466 135.538 44.7257C135.421 44.6076 135.33 44.4665 135.27 44.3114C135.21 44.1562 135.183 43.9903 135.191 43.8242C135.186 43.6012 135.254 43.3827 135.385 43.2021C135.514 43.0312 135.682 42.8931 135.874 42.7987C136.081 42.6928 136.303 42.6169 136.532 42.5733C137.034 42.4897 137.547 42.4828 138.051 42.553C138.299 42.5845 138.482 42.6116 138.608 42.6364L138.73 42.6612V43.9256L138.727 43.9278Z"
        fill="#7A8AA0" />
    <path
        d="M152.819 37.6847L149.242 41.7214L151.771 44.8475H153.402L152.884 46.2291C152.847 46.3292 152.78 46.4155 152.692 46.4764C152.604 46.5372 152.5 46.5697 152.393 46.5694H150.644L147.488 42.7627H146.623V46.5694H144.536V36.4609C144.536 35.7216 145.548 35.7216 145.548 35.7216H143.028L143.546 34.34C143.584 34.2407 143.651 34.1551 143.738 34.0947C143.826 34.0343 143.929 34.002 144.035 34.002H146.623V41.3382H147.398L150.405 37.6847H152.819Z"
        fill="#7A8AA0" />
    <path
        d="M85.7873 37.6815C85.6765 37.6814 85.5686 37.7165 85.4791 37.7817C85.3895 37.8469 85.3231 37.9389 85.2892 38.0443L83.3937 43.3228H83.0511L80.5223 37.6882H78.6831C78.5769 37.6882 78.4732 37.7206 78.3859 37.781C78.2985 37.8414 78.2316 37.9269 78.194 38.0263L77.6757 39.4079H80.2428C80.2428 39.4079 79.0167 39.4079 79.4832 40.5348L82.0774 46.5706H84.2501L87.6467 37.6792L85.7873 37.6815Z"
        fill="#7A8AA0" />
    <path fill-rule="evenodd" clip-rule="evenodd"
        d="M73.7492 37.6034C74.2238 37.7204 74.6715 37.9278 75.0677 38.2142C75.4754 38.5205 75.8057 38.918 76.0323 39.3749C76.3039 39.9496 76.4338 40.5811 76.411 41.2163C76.4064 41.7392 76.3536 42.2605 76.2532 42.7737H69.6179V42.9292C69.6191 43.3004 69.7112 43.6656 69.8861 43.9931C70.0462 44.2776 70.2699 44.5213 70.5397 44.7053C70.8174 44.8921 71.1267 45.0273 71.4525 45.1042C71.8042 45.1853 72.1644 45.2239 72.5253 45.2191C73.8159 45.2136 75.0789 44.8449 76.1698 44.1553L76.4605 45.6248C74.8851 46.7518 72.8296 46.8284 72.3788 46.8284C71.681 46.8388 70.9866 46.7298 70.3256 46.5061C69.7624 46.315 69.2493 45.9999 68.8241 45.5841C68.3989 45.1683 68.0725 44.6623 67.8689 44.1035C67.64 43.4701 67.5285 42.8003 67.5398 42.1269C67.5252 41.4206 67.6525 40.7186 67.914 40.0623C68.139 39.5064 68.4828 39.0064 68.9214 38.5973C69.3617 38.2026 69.8789 37.9033 70.4405 37.7183C71.5105 37.3689 72.6575 37.329 73.7492 37.6034ZM69.6607 41.3222H74.4997L74.502 41.1735C74.5301 40.6034 74.3334 40.045 73.9543 39.6183C73.5891 39.2329 73.0347 39.0368 72.309 39.0368C71.9883 39.035 71.6692 39.0813 71.3623 39.1743C71.0714 39.2633 70.7978 39.4013 70.5532 39.5823C70.309 39.7646 70.1042 39.9947 69.9514 40.2584C69.7916 40.5339 69.6968 40.8423 69.6742 41.16L69.6607 41.3222Z"
        fill="#7A8AA0" />
    <path fill-rule="evenodd" clip-rule="evenodd"
        d="M96.4672 38.2142C96.071 37.9278 95.6233 37.7204 95.1487 37.6034C94.057 37.329 92.91 37.3689 91.84 37.7183C91.2784 37.9033 90.7612 38.2026 90.3209 38.5973C89.8785 39.0046 89.5308 39.5039 89.3022 40.0601C89.0407 40.7163 88.9135 41.4183 88.9281 42.1246C88.9168 42.798 89.0283 43.4678 89.2571 44.1012C89.4616 44.661 89.7894 45.1675 90.2163 45.5834C90.6431 45.9993 91.158 46.3139 91.7228 46.5038C92.3839 46.7276 93.0783 46.8366 93.7761 46.8261C94.2269 46.8261 96.2824 46.7495 97.8578 45.6226L97.5738 44.1576C96.4829 44.8472 95.2199 45.2158 93.9293 45.2214C93.5673 45.2234 93.2063 45.1818 92.8543 45.0974C92.5285 45.0205 92.2192 44.8854 91.9415 44.6985C91.6698 44.5123 91.4452 44.2654 91.2856 43.9773C91.1107 43.6499 91.0186 43.2846 91.0174 42.9135V42.7579H97.664C97.7643 42.2448 97.8172 41.7234 97.8218 41.2005C97.8421 40.5672 97.7107 39.9382 97.4386 39.3659C97.2089 38.9116 96.8763 38.5172 96.4672 38.2142ZM95.8992 41.3222H91.0602L91.0737 41.16C91.0963 40.8423 91.1911 40.5339 91.3509 40.2584C91.5038 39.9947 91.7085 39.7646 91.9527 39.5823C92.1973 39.4013 92.4709 39.2633 92.7619 39.1743C93.0687 39.0813 93.3878 39.035 93.7085 39.0368C94.4342 39.0368 94.9887 39.2329 95.3538 39.6183C95.7329 40.045 95.9296 40.6034 95.9015 41.1735L95.8992 41.3222Z"
        fill="#7A8AA0" />
    <path fill-rule="evenodd" clip-rule="evenodd"
        d="M160.927 37.6034C161.402 37.7204 161.849 37.9278 162.245 38.2142C162.657 38.5164 162.992 38.9108 163.224 39.3659C163.495 39.9406 163.625 40.572 163.602 41.2073C163.598 41.7302 163.545 42.2515 163.445 42.7647H156.793V42.9202C156.795 43.2914 156.887 43.6566 157.062 43.984C157.222 44.2686 157.445 44.5123 157.715 44.6963C157.993 44.8831 158.302 45.0183 158.628 45.0952C158.98 45.1795 159.341 45.2211 159.703 45.2191C160.994 45.2136 162.257 44.8449 163.348 44.1553L163.638 45.6248C162.063 46.7518 160.007 46.8284 159.557 46.8284C158.859 46.8388 158.164 46.7298 157.503 46.5061C156.938 46.3162 156.422 46.0014 155.995 45.5851C155.568 45.1688 155.24 44.6616 155.035 44.1012C154.807 43.4678 154.695 42.798 154.706 42.1246C154.692 41.4183 154.819 40.7163 155.081 40.0601C155.309 39.5039 155.657 39.0046 156.099 38.5973C156.539 38.2026 157.057 37.9033 157.618 37.7183C158.688 37.3689 159.835 37.329 160.927 37.6034ZM156.839 41.3222H161.673L161.68 41.1735C161.708 40.6034 161.511 40.045 161.132 39.6183C160.767 39.2329 160.213 39.0368 159.487 39.0368C159.166 39.035 158.847 39.0813 158.54 39.1743C158.249 39.2633 157.976 39.4013 157.731 39.5823C157.487 39.7646 157.282 39.9947 157.129 40.2584C156.969 40.5339 156.875 40.8423 156.852 41.16L156.839 41.3222Z"
        fill="#7A8AA0" />
</svg>