<svg width="200" height="84" viewBox="0 0 200 84" fill="none" xmlns="http://www.w3.org/2000/svg">
    <path d="M64.907 38.4681V34.4938H72.3827V32.0487H62.2335V46.8707H64.907V40.9133H71.5766V38.4681H64.907Z"
        fill="#7A8AA0" />
    <path d="M74.3514 36.0009V46.871H76.9824V36.0009H74.3514Z" fill="#7A8AA0" />
    <path fill-rule="evenodd" clip-rule="evenodd"
        d="M89.3029 48.3143C89.3029 49.0257 89.145 49.6166 88.827 50.0909C88.509 50.5652 88.1019 50.9373 87.6056 51.2092C87.1094 51.4811 86.5484 51.6733 85.9286 51.7837C85.3068 51.8961 84.6992 51.9513 84.1058 51.9513C83.4435 51.9513 82.7832 51.9023 82.129 51.8041C81.4728 51.706 80.8631 51.4566 80.296 51.0517C79.8829 50.7594 79.5608 50.418 79.334 50.0275C79.1071 49.637 78.9917 49.1853 78.9917 48.668C78.9917 48.1937 79.1031 47.7582 79.3239 47.3616C79.5446 46.965 79.8626 46.6624 80.2758 46.4519C79.9315 46.2576 79.6641 45.9877 79.4778 45.6463C79.2915 45.3049 79.1983 44.9533 79.1983 44.5894C79.1983 43.6551 79.6256 42.9252 80.4824 42.3937C80.1502 42.0584 79.8889 41.67 79.6965 41.2222C79.502 40.7765 79.4069 40.2757 79.4069 39.7176C79.4069 39.0756 79.5244 38.5052 79.7593 38.0023C79.9942 37.4993 80.3122 37.0823 80.7133 36.747C81.1143 36.4117 81.5801 36.1582 82.1108 35.9844C82.6415 35.8107 83.2106 35.7228 83.8182 35.7228C84.2597 35.7228 84.6891 35.7821 85.1023 35.9006C85.5154 36.0192 85.9023 36.1828 86.2628 36.3913C86.4977 35.917 86.8076 35.5735 87.1945 35.3568C87.5813 35.1401 88.0027 35.0338 88.4583 35.0338H88.8108C88.9627 35.0338 89.0801 35.0481 89.1632 35.0747V37.1027L88.9566 37.0823C88.6528 37.0823 88.3793 37.1313 88.1383 37.2295C87.8973 37.3276 87.7332 37.5096 87.6523 37.7733C88.0249 38.3866 88.2113 39.0408 88.2113 39.738C88.2113 40.3656 88.0897 40.9237 87.8487 41.4103C87.6077 41.8989 87.2857 42.3099 86.8867 42.6431C86.4856 42.9784 86.0198 43.236 85.4891 43.4159C84.9564 43.5979 84.4015 43.6878 83.8222 43.6878C83.2146 43.6878 82.6354 43.5897 82.0824 43.3954C81.9589 43.4649 81.8373 43.5672 81.7199 43.698C81.6024 43.8309 81.5437 43.9883 81.5437 44.1682C81.5437 44.4892 81.6713 44.7018 81.9265 44.8061C82.1817 44.9104 82.447 44.9635 82.7245 44.9635H84.5048C84.7661 44.9635 85.0496 44.9676 85.3534 44.9737C85.6572 44.9819 85.9651 45.0085 86.275 45.0575C86.5849 45.1066 86.8886 45.1802 87.1864 45.2763C87.4841 45.3744 87.7555 45.5134 88.0047 45.6934C88.4745 46.0143 88.8087 46.3987 89.0092 46.8423C89.2037 47.2962 89.3029 47.7848 89.3029 48.3143ZM86.8603 48.3777C86.8603 48.0424 86.7712 47.7848 86.5909 47.6049C86.4107 47.4229 86.194 47.2921 85.9387 47.2083C85.6836 47.1245 85.4061 47.0754 85.1104 47.0631C84.8126 47.0488 84.5413 47.0427 84.2921 47.0427H82.2627C81.9852 47.1265 81.7543 47.2839 81.568 47.5129C81.3817 47.7439 81.2885 48.0322 81.2885 48.3797C81.2885 48.7273 81.3817 48.9992 81.568 49.1955C81.7543 49.3897 81.9852 49.541 82.2627 49.6452C82.5381 49.7495 82.8359 49.8149 83.1538 49.8435C83.4718 49.8721 83.7554 49.8844 84.0025 49.8844C84.2637 49.8844 84.5615 49.8742 84.8937 49.8538C85.2258 49.8333 85.5357 49.774 85.8253 49.6759C86.115 49.5777 86.3601 49.4285 86.5606 49.2261C86.7591 49.0217 86.8603 48.7396 86.8603 48.3777ZM85.72 39.7216C85.72 39.1369 85.5499 38.6524 85.2116 38.268C84.8734 37.8837 84.4076 37.6936 83.8141 37.6936C83.2207 37.6936 82.7548 37.8858 82.4166 38.268C82.0783 38.6504 81.9083 39.1349 81.9083 39.7216C81.9083 40.3063 82.0763 40.7888 82.4166 41.165C82.7548 41.5411 83.2207 41.7292 83.8141 41.7292C84.4076 41.7292 84.8734 41.5411 85.2116 41.165C85.5519 40.7888 85.72 40.3084 85.72 39.7216Z"
        fill="#7A8AA0" />
    <path
        d="M103.511 40.1179V46.8747H106.083V39.5373C106.083 38.4067 105.789 37.4929 105.202 36.7876C104.615 36.0823 103.742 35.7306 102.581 35.7306C101.85 35.7306 101.204 35.8839 100.645 36.1906C100.086 36.4972 99.6484 36.9368 99.3304 37.5072C99.055 36.9511 98.6601 36.5136 98.1497 36.2008C97.6392 35.888 97.0033 35.7306 96.2437 35.7306C95.5267 35.7306 94.911 35.89 94.4007 36.211C93.8903 36.532 93.4832 36.9429 93.1793 37.4438L92.9728 36.0004H90.8198V46.8686H93.388V40.9316C93.388 40.5963 93.4285 40.257 93.5115 39.9073C93.5945 39.5598 93.7242 39.2429 93.9044 38.9567C94.0827 38.6725 94.3055 38.4415 94.5667 38.2677C94.828 38.0939 95.146 38.006 95.5186 38.006C96.1668 38.006 96.6063 38.1921 96.8332 38.5601C97.062 38.9301 97.1755 39.4494 97.1755 40.1179V46.8686H99.7437V40.9316C99.7437 40.5963 99.7842 40.257 99.8672 39.9073C99.9502 39.5598 100.078 39.2429 100.25 38.9567C100.422 38.6725 100.641 38.4415 100.902 38.2677C101.163 38.0939 101.481 38.006 101.854 38.006C102.502 38.006 102.942 38.1921 103.169 38.5601C103.397 38.9301 103.511 39.4494 103.511 40.1179Z"
        fill="#7A8AA0" />
    <path fill-rule="evenodd" clip-rule="evenodd"
        d="M117.843 41.5205C117.828 41.6186 117.822 41.7085 117.822 41.7924V42.2523H110.616C110.616 42.6715 110.681 43.0681 110.813 43.4442C110.944 43.8204 111.143 44.1332 111.402 44.3847C111.596 44.5666 111.821 44.722 112.076 44.8549C112.332 44.9878 112.637 45.0532 112.998 45.0532C113.371 45.0532 113.678 45.0143 113.919 44.9387C114.16 44.863 114.379 44.7261 114.572 44.5319C114.819 44.2804 114.993 43.9737 115.09 43.6119H117.575C117.547 43.9328 117.44 44.2845 117.253 44.6688C117.067 45.0532 116.87 45.368 116.664 45.6195C116.208 46.1633 115.663 46.5538 115.027 46.791C114.391 47.0281 113.729 47.1467 113.04 47.1467C112.293 47.1467 111.649 47.024 111.104 46.7808C110.557 46.5374 110.071 46.2124 109.644 45.8096C109.105 45.2801 108.694 44.6463 108.41 43.9084C108.127 43.1703 107.985 42.3546 107.985 41.4632C107.985 40.5862 108.113 39.7725 108.368 39.0283C108.623 38.2821 109.014 37.6463 109.537 37.1147C109.938 36.6976 110.424 36.3624 110.997 36.111C111.57 35.8595 112.228 35.7347 112.976 35.7347C113.778 35.7347 114.521 35.8983 115.214 36.2254C115.902 36.5525 116.469 37.0575 116.913 37.7403C117.312 38.3393 117.567 38.9506 117.679 39.5701C117.786 40.1855 117.843 40.8376 117.843 41.5205ZM115.254 40.349C115.238 39.5558 115.017 38.9199 114.59 38.4477C114.412 38.2535 114.187 38.1001 113.917 37.9877C113.648 37.8773 113.328 37.8201 112.953 37.8201C112.554 37.8201 112.202 37.8978 111.896 38.0511C111.594 38.2044 111.343 38.4068 111.151 38.6583C110.956 38.8954 110.819 39.1469 110.736 39.4106C110.655 39.6743 110.604 39.9892 110.592 40.3511H115.254V40.349Z"
        fill="#7A8AA0" />
    <path
        d="M126.439 40.2021V46.869H129.029V39.6154C129.029 39.0573 128.946 38.538 128.78 38.0576C128.614 37.5771 128.375 37.1662 128.065 36.8248C127.753 36.4833 127.372 36.2155 126.925 36.0193C126.477 35.8251 125.963 35.7269 125.382 35.7269C124.762 35.7269 124.158 35.8639 123.571 36.1358C122.984 36.4077 122.532 36.8309 122.214 37.4013L122.027 36.0009H119.852V46.871H122.441V42.4387C122.441 41.9787 122.454 41.4819 122.483 40.9443C122.51 40.4086 122.613 39.9384 122.793 39.5336C122.973 39.1288 123.214 38.7976 123.518 38.54C123.822 38.2824 124.203 38.1536 124.658 38.1536C125.349 38.1536 125.817 38.3356 126.066 38.6975C126.313 39.0593 126.439 39.5622 126.439 40.2021Z"
        fill="#7A8AA0" />
    <path
        d="M137.767 46.7257C137.021 46.9199 136.281 47.018 135.55 47.018C134.459 47.018 133.645 46.7216 133.106 46.1287C132.567 45.5359 132.298 44.7181 132.298 43.6734V38.1535H130.329V36.0007H132.298V33.2408L134.887 32.5927V36.0007H137.6V38.1535H134.887V43.4424C134.887 43.8615 134.981 44.164 135.176 44.3521C135.37 44.5402 135.674 44.6343 136.087 44.6343C136.363 44.6343 136.622 44.6282 136.863 44.6138C137.104 44.5995 137.404 44.5729 137.764 44.53V46.7257H137.767Z"
        fill="#7A8AA0" />
    <path
        d="M75.6623 32.0614C76.5454 32.0614 77.1975 32.7769 77.1975 33.5906C77.1975 34.4431 76.5454 35.081 75.6623 35.081C74.761 35.081 74.127 34.4431 74.127 33.5906C74.127 32.7769 74.761 32.0614 75.6623 32.0614Z"
        fill="#7A8AA0" />
</svg>