<svg width="200" height="84" viewBox="0 0 200 84" fill="none" xmlns="http://www.w3.org/2000/svg">
    <path
        d="M72.9607 43.2406V47.1701C72.9607 48.1694 72.6662 49.1468 72.1137 49.9812C71.5611 50.8156 70.7748 51.4704 69.8521 51.8644C68.9294 52.2585 67.9109 52.3745 66.9226 52.198C65.9343 52.0216 65.0197 51.5606 64.2921 50.872L66.1845 48.8899C66.4829 49.172 66.8494 49.3726 67.2485 49.4723C67.6477 49.572 68.0659 49.5673 68.4627 49.4588C68.8595 49.3503 69.2214 49.1416 69.5134 48.853C69.8053 48.5643 70.0174 48.2055 70.1291 47.8113C69.1296 48.3112 67.9935 48.4729 66.8933 48.2719C65.7931 48.0708 64.7888 47.518 64.033 46.6973C63.2771 45.8766 62.8109 44.8328 62.7051 43.7245C62.5993 42.6161 62.8597 41.5037 63.4468 40.556C64.0339 39.6083 64.9157 38.8772 65.9581 38.4736C67.0006 38.0699 68.147 38.0158 69.2232 38.3195C70.2994 38.6232 71.2466 39.2681 71.9212 40.1562C72.5957 41.0443 72.9607 42.1273 72.9607 43.2406ZM70.2186 43.2406C70.219 42.7704 70.0793 42.3105 69.817 41.9193C69.5548 41.5281 69.1819 41.2231 68.7455 41.0429C68.3091 40.8626 67.8287 40.8153 67.3653 40.9068C66.9018 40.9983 66.476 41.2246 66.1418 41.557C65.8075 41.8894 65.5799 42.313 65.4875 42.7742C65.3952 43.2354 65.4424 43.7135 65.6231 44.148C65.8039 44.5825 66.11 44.954 66.5028 45.2153C66.8957 45.4766 67.3576 45.6161 67.8301 45.6161C68.4631 45.6156 69.0701 45.3652 69.5179 44.9199C69.9656 44.4746 70.2177 43.8707 70.2186 43.2406ZM84.7526 38.1487V48.4053H82.007L82.0216 47.9826C81.3447 48.3229 80.6016 48.5127 79.8437 48.5388C79.0858 48.5649 78.3313 48.4267 77.6323 48.1338C77.0123 47.8742 76.4491 47.4967 75.9742 47.0225C75.4991 46.5487 75.12 45.9884 74.8576 45.372C74.4533 44.4199 74.3436 43.3695 74.5425 42.355C74.7414 41.3405 75.2399 40.4082 75.9742 39.6773C76.4502 39.2044 77.0131 38.8271 77.6323 38.5659C78.3316 38.2728 79.0866 38.1346 79.8448 38.1611C80.6031 38.1875 81.3465 38.3778 82.0235 38.7189L82.007 38.1487H84.7526ZM81.802 44.5813C82.0192 44.2075 82.1338 43.7834 82.1342 43.3516C82.1345 42.9198 82.0206 42.4955 81.8039 42.1214C81.5872 41.7473 81.2754 41.4366 80.8998 41.2205C80.5241 41.0045 80.098 40.8907 79.6641 40.8905C79.2302 40.8901 78.8038 41.0034 78.4278 41.2191C78.0518 41.4347 77.7395 41.745 77.5223 42.1189C77.305 42.4928 77.1905 42.917 77.1902 43.3489C77.1899 43.7808 77.3038 44.2051 77.5205 44.5793C77.7373 44.9535 78.0491 45.2642 78.4248 45.4804C78.8005 45.6965 79.2267 45.8104 79.6607 45.8106C80.0946 45.8108 80.5209 45.6973 80.8968 45.4815C81.2727 45.2657 81.5849 44.9552 81.802 44.5813ZM88.83 40.8086V42.9673C88.8307 43.7353 89.1376 44.4716 89.6832 45.0147C90.2288 45.5577 90.9686 45.8631 91.7403 45.8638V48.5965C90.9974 48.597 90.2617 48.4518 89.5753 48.1691C88.8888 47.8864 88.2651 47.4717 87.7398 46.9489C87.2145 46.4261 86.7979 45.8053 86.5139 45.1221C86.2298 44.4389 86.0839 43.7067 86.0844 42.9673V35.9061L88.83 34.9953V38.2581H91.7403V40.8086L88.83 40.8086ZM93.4959 46.9623C92.8963 46.3655 92.4538 45.6308 92.2076 44.8232C91.9615 44.0155 91.9192 43.1599 92.0846 42.3321C92.2501 41.5044 92.618 40.73 93.156 40.0776C93.6939 39.4251 94.3852 38.9149 95.1687 38.5919C95.9521 38.2689 96.8034 38.1432 97.6473 38.2259C98.4912 38.3087 99.3016 38.5973 100.007 39.0662C100.712 39.5351 101.29 40.1698 101.689 40.9142C102.089 41.6585 102.298 42.4895 102.298 43.3335V44.6542H95.0223C95.2252 44.9768 95.4996 45.2488 95.8245 45.4494C96.1494 45.6501 96.5161 45.774 96.8966 45.8116C97.2771 45.8492 97.6612 45.7997 98.0194 45.6666C98.3776 45.5336 98.7005 45.3206 98.9632 45.0441L100.892 46.8586C100.419 47.3572 99.8491 47.7563 99.2177 48.0321C98.5862 48.308 97.9057 48.4551 97.2162 48.4648C96.5266 48.4745 95.8422 48.3465 95.2032 48.0884C94.5642 47.8304 93.9837 47.4475 93.4959 46.9623ZM99.2633 42.0126C99.0385 41.6547 98.7259 41.3597 98.3549 41.1551C97.984 40.9505 97.5669 40.8432 97.1428 40.8432C96.7187 40.8432 96.3016 40.9505 95.9307 41.1551C95.5597 41.3597 95.2472 41.6547 95.0223 42.0126H99.2633ZM109.45 43.3644L107.861 48.4053H105.579L102.063 38.2581H104.942L106.723 43.5339L108.344 38.2581H110.572L112.225 43.5412L113.995 38.2581H116.874L113.358 48.4053H111.039L109.45 43.3644ZM127.059 38.1487V48.4053H124.313L124.328 47.9825C123.651 48.3229 122.908 48.5127 122.15 48.5388C121.392 48.5649 120.638 48.4267 119.939 48.1338C119.319 47.8742 118.756 47.4967 118.281 47.0225C117.806 46.5487 117.426 45.9884 117.164 45.372C116.76 44.4199 116.65 43.3694 116.849 42.355C117.048 41.3405 117.546 40.4082 118.281 39.6773C118.757 39.2044 119.32 38.8271 119.939 38.5659C120.638 38.2728 121.393 38.1346 122.151 38.161C122.91 38.1875 123.653 38.3778 124.33 38.7189L124.313 38.1487H127.059ZM124.108 44.5813C124.326 44.2075 124.44 43.7834 124.441 43.3516C124.441 42.9198 124.327 42.4955 124.11 42.1214C123.894 41.7473 123.582 41.4366 123.206 41.2205C122.831 41.0045 122.404 40.8907 121.971 40.8905C121.537 40.8901 121.11 41.0034 120.734 41.2191C120.358 41.4347 120.046 41.745 119.829 42.1189C119.611 42.4928 119.497 42.917 119.497 43.3489C119.496 43.7808 119.61 44.2051 119.827 44.5793C120.044 44.9535 120.356 45.2642 120.731 45.4804C121.107 45.6965 121.533 45.8104 121.967 45.8106C122.401 45.8108 122.827 45.6973 123.203 45.4815C123.579 45.2657 123.891 44.9552 124.108 44.5813ZM131.883 47.4342L127.805 38.2581H130.823L133.29 44.0076L135.584 38.2581H138.523L132.955 52.0123H130.039L131.883 47.4342ZM137.661 46.7446C137.662 46.5249 137.707 46.3077 137.793 46.1054C137.879 45.903 138.004 45.7196 138.161 45.5656C138.318 45.4116 138.505 45.29 138.71 45.208C138.914 45.1259 139.133 45.0849 139.354 45.0874C139.795 45.0879 140.218 45.2626 140.53 45.5734C140.842 45.8841 141.017 46.3053 141.017 46.7444C141.017 47.1836 140.842 47.6048 140.53 47.9155C140.218 48.2262 139.795 48.401 139.354 48.4015C139.133 48.404 138.914 48.363 138.71 48.281C138.505 48.199 138.319 48.0775 138.161 47.9235C138.004 47.7695 137.879 47.5861 137.793 47.3837C137.707 47.1814 137.662 46.9642 137.661 46.7446ZM149.125 38.2836V40.834H146.215V48.4053H143.47V38.2745C143.469 37.5351 143.615 36.8028 143.899 36.1196C144.183 35.4364 144.6 34.8156 145.125 34.2928C145.65 33.7699 146.274 33.3553 146.96 33.0726C147.647 32.7899 148.383 32.6447 149.125 32.6452V35.3779C148.354 35.3786 147.614 35.684 147.068 36.227C146.523 36.7701 146.216 37.5065 146.215 38.2745V38.2836L149.125 38.2836ZM164.977 42.6849V48.4053H162.231V42.6849C162.231 42.2477 162.057 41.8283 161.746 41.5191C161.435 41.2099 161.014 41.0362 160.575 41.0362C160.135 41.0362 159.714 41.2099 159.403 41.5191C159.093 41.8283 158.918 42.2477 158.918 42.6849V48.4053H156.173V42.6849C156.173 42.4683 156.13 42.2537 156.047 42.0535C155.964 41.8533 155.842 41.6713 155.688 41.518C155.534 41.3648 155.351 41.2432 155.15 41.1602C154.949 41.0772 154.734 41.0345 154.516 41.0345C154.298 41.0345 154.083 41.0772 153.882 41.1602C153.681 41.2432 153.498 41.3648 153.344 41.518C153.19 41.6713 153.068 41.8533 152.985 42.0535C152.902 42.2537 152.859 42.4683 152.86 42.6849V48.4053H150.114V38.1487H152.86V38.6242C153.643 38.3084 154.502 38.2236 155.333 38.3799C156.163 38.5363 156.932 38.9271 157.545 39.506C158.17 38.9161 158.954 38.5214 159.802 38.3708C160.649 38.2201 161.522 38.3202 162.313 38.6585C163.104 38.9969 163.778 39.5586 164.251 40.2743C164.725 40.99 164.977 41.8281 164.977 42.6849ZM36 44.4603L56.8872 32.4577L56.9175 36.2938L36 48.3138V44.4603ZM51.0731 32.9354L51.0428 29L36 37.6442V41.597L51.0731 32.9354ZM51.2392 42.4201L47.8862 44.3468L59.2675 50.8869V47.0334L51.2392 42.4201ZM59.2675 44.1701V37.8067L53.7307 40.9884L59.2675 44.1701ZM56.8872 52.3824L45.3948 45.7785L42.0418 47.7053L50.1798 52.3816L47.6884 53.8133L39.5504 49.1369L36.1414 51.0958L47.6337 57.6998L56.8872 52.3824Z"
        fill="#7A8AA0" />
</svg>