<svg width="200" height="84" viewBox="0 0 200 84" fill="none" xmlns="http://www.w3.org/2000/svg">
    <g clip-path="url(#clip0_14748_3237)">
        <mask id="mask0_14748_3237" style="mask-type:luminance" maskUnits="userSpaceOnUse" x="39" y="24" width="122"
            height="37">
            <path d="M161 24H39V61H161V24Z" fill="white" />
        </mask>
        <g mask="url(#mask0_14748_3237)">
            <path
                d="M44.1235 25.1045L39.1621 24.0033C39.079 23.9848 39 24.0467 39 24.1302V43.3193C39 43.4017 39.0772 43.4633 39.1595 43.4467L44.121 42.4456C44.1827 42.4332 44.227 42.3799 44.227 42.3181V25.2314C44.227 25.1706 44.184 25.1179 44.1235 25.1045Z"
                fill="#7A8AA0" />
            <path
                d="M52.6064 25.1045L57.5678 24.0033C57.6509 23.9848 57.7299 24.0467 57.7299 24.1302V43.3193C57.7299 43.4017 57.6527 43.4633 57.5703 43.4467L52.6089 42.4456C52.5472 42.4332 52.5029 42.3799 52.5029 42.3181V25.2314C52.5029 25.1706 52.5459 25.1179 52.6064 25.1045Z"
                fill="#7A8AA0" />
            <mask id="mask1_14748_3237" style="mask-type:alpha" maskUnits="userSpaceOnUse" x="45" y="31" width="6"
                height="6">
                <path
                    d="M50.9789 36.1129C50.9789 36.1748 50.9277 36.225 50.8645 36.225H45.8663C45.8031 36.225 45.7519 36.1748 45.7519 36.1129V31.2132C45.7519 31.1513 45.8031 31.1011 45.8663 31.1011H50.8645C50.9277 31.1011 50.9789 31.1513 50.9789 31.2132V36.1129Z"
                    fill="#0072E5" />
            </mask>
            <g mask="url(#mask1_14748_3237)">
                <path d="M45.7523 31.1011H50.9792L45.7523 36.225V31.1011Z" fill="#7A8AA0" />
                <path d="M50.9789 36.225H45.7519L50.9789 31.1011V36.225Z" fill="#7A8AA0" />
            </g>
            <path
                d="M109.087 24.4556C109.014 24.4556 108.954 24.5138 108.954 24.5857V31.6367C108.954 31.7086 108.895 31.7669 108.821 31.7669H101.44C101.366 31.7669 101.307 31.7086 101.307 31.6367V24.5857C101.307 24.5138 101.247 24.4556 101.174 24.4556H97.2927C97.2195 24.4556 97.1601 24.5138 97.1601 24.5857V42.8023C97.1601 42.8742 97.2195 42.9324 97.2927 42.9324H101.174C101.247 42.9324 101.307 42.8742 101.307 42.8023V35.6456C101.307 35.5737 101.366 35.5155 101.44 35.5155H108.821C108.895 35.5155 108.954 35.5737 108.954 35.6456V42.8023C108.954 42.8742 109.014 42.9324 109.087 42.9324H112.967C113.041 42.9324 113.1 42.8742 113.1 42.8023V24.5857C113.1 24.5138 113.041 24.4556 112.967 24.4556H109.087Z"
                fill="#7A8AA0" />
            <path
                d="M69.445 29.3837C69.4721 29.319 69.5654 29.319 69.5925 29.3837L71.9774 35.0912C71.9989 35.1425 71.9603 35.1989 71.9037 35.1989H67.1335C67.0768 35.1989 67.0383 35.1425 67.0597 35.0912L69.445 29.3837ZM67.7486 24.3245C67.6954 24.3245 67.6473 24.3556 67.6265 24.4036L59.6618 42.7514C59.6245 42.8373 59.6888 42.9325 59.7839 42.9325H63.7213C63.7753 42.9325 63.8239 42.9005 63.8442 42.8515L65.4999 38.8698C65.5203 38.8208 65.5689 38.7887 65.6229 38.7887H73.4143C73.4682 38.7887 73.5169 38.8208 73.5372 38.8698L75.1932 42.8515C75.2136 42.9005 75.2622 42.9325 75.3162 42.9325H79.3618C79.4567 42.9325 79.5212 42.8373 79.4838 42.7514L71.5185 24.4036C71.4976 24.3556 71.4496 24.3245 71.3963 24.3245H67.7486Z"
                fill="#7A8AA0" />
            <path
                d="M79.928 40.3237C79.8742 40.2776 79.8681 40.1975 79.9142 40.1437L82.1979 37.462C82.2444 37.407 82.3279 37.3996 82.3847 37.4447C84.0496 38.77 85.7988 39.6069 87.9098 39.6069C89.606 39.6069 90.6293 38.9474 90.6293 37.8648V37.8121C90.6293 36.7826 89.983 36.2549 86.8324 35.4632C83.0359 34.5127 80.5856 33.4832 80.5856 29.8148V29.7615C80.5856 26.4087 83.3321 24.1919 87.1824 24.1919C89.8824 24.1919 92.1931 25.0088 94.0868 26.4659C94.1413 26.5081 94.1528 26.5847 94.1131 26.6408L92.1051 29.4954C92.0631 29.5546 91.9804 29.5693 91.9198 29.5288C90.2873 28.4381 88.6822 27.7815 87.1286 27.7815C85.54 27.7815 84.7058 28.4937 84.7058 29.3921V29.4444C84.7058 30.6588 85.5133 31.0547 88.7718 31.8726C92.5946 32.8498 94.749 34.1957 94.749 37.4156V37.468C94.749 41.1373 91.895 43.1965 87.829 43.1965C85.0157 43.1968 82.1747 42.2474 79.928 40.3237Z"
                fill="#7A8AA0" />
            <path
                d="M127.585 24.4556C127.512 24.4556 127.452 24.5138 127.452 24.5857V42.8023C127.452 42.8742 127.512 42.9324 127.585 42.9324H141.671C141.744 42.9324 141.804 42.8742 141.804 42.8023V39.4462C141.804 39.3743 141.744 39.316 141.671 39.316H131.704C131.63 39.316 131.571 39.2578 131.571 39.1859V35.5661C131.571 35.4942 131.63 35.4359 131.704 35.4359H140.325C140.398 35.4359 140.458 35.3777 140.458 35.3058V31.95C140.458 31.8782 140.398 31.8199 140.325 31.8199H131.704C131.63 31.8199 131.571 31.7616 131.571 31.6897V28.2021C131.571 28.1302 131.63 28.072 131.704 28.072H141.537C141.61 28.072 141.669 28.0137 141.669 27.9418V24.5857C141.669 24.5138 141.61 24.4556 141.537 24.4556H127.585Z"
                fill="#7A8AA0" />
            <path
                d="M156.472 24.4556C156.426 24.4556 156.383 24.4794 156.359 24.5183L151.935 31.6869C151.883 31.7709 151.758 31.7705 151.707 31.686L147.362 24.5192C147.338 24.4798 147.294 24.4556 147.248 24.4556H142.718C142.613 24.4556 142.55 24.5688 142.606 24.6554L149.698 35.6154C149.712 35.6362 149.719 35.6604 149.719 35.6851V42.8023C149.719 42.8742 149.778 42.9324 149.851 42.9324H153.733C153.807 42.9324 153.866 42.8742 153.866 42.8023V35.6065C153.866 35.5817 153.873 35.5573 153.887 35.5364L160.979 24.6558C161.035 24.5691 160.972 24.4556 160.867 24.4556H156.472Z"
                fill="#7A8AA0" />
            <path
                d="M120.088 24.4563C120.053 24.4563 120.019 24.47 119.994 24.4944L117.102 27.3283L114.266 30.1089C114.214 30.1598 114.214 30.2422 114.266 30.293L117.009 32.9813C117.061 33.0321 117.145 33.0321 117.197 32.9813L120.033 30.2009L122.963 27.3283L125.758 24.5896C125.808 24.5404 125.772 24.4563 125.701 24.4563H120.088Z"
                fill="#7A8AA0" />
            <mask id="mask2_14748_3237" style="mask-type:alpha" maskUnits="userSpaceOnUse" x="114" y="34" width="12"
                height="9">
                <path
                    d="M117.233 34.5164C117.181 34.4656 117.098 34.4656 117.046 34.5164L114.341 37.1684C114.289 37.2192 114.289 37.3016 114.341 37.3524L119.994 42.8945C120.019 42.9189 120.053 42.9326 120.088 42.9326L125.626 42.933C125.697 42.933 125.733 42.8489 125.683 42.7997L117.233 34.5164Z"
                    fill="#66B3FF" />
            </mask>
            <g mask="url(#mask2_14748_3237)">
                <path d="M120.033 37.2601L117.139 34.4243L114.247 37.2601H120.033Z" fill="#7A8AA0" />
                <path d="M114.247 37.2605L117.139 40.0966L120.033 37.2605H114.247Z" fill="#7A8AA0" />
                <path d="M122.926 40.0966L120.033 37.2605L117.139 40.0966H122.926Z" fill="#7A8AA0" />
                <path d="M117.139 40.0967L120.033 42.9328L122.926 40.0967H117.139Z" fill="#7A8AA0" />
                <path d="M120.032 42.9331H125.818L122.925 40.0967L120.032 42.9331Z" fill="#7A8AA0" />
            </g>
            <path
                d="M96.95 51.2398C96.95 51.1401 97.0728 51.09 97.1448 51.1602L101.711 55.607C101.756 55.6506 101.756 55.7216 101.712 55.7655L97.1456 60.272C97.0735 60.343 96.95 60.293 96.95 60.193V51.2398Z"
                fill="#7A8AA0" />
            <path
                d="M145.545 60.5995C145.436 60.5995 145.369 60.5333 145.369 60.4273V51.0515C145.369 50.9456 145.436 50.8794 145.545 50.8794H148.84C152.137 50.8794 153.852 52.6804 153.852 55.7394C153.852 58.7852 152.137 60.5995 148.84 60.5995H145.545ZM148.638 52.5612H147.192V58.9177H148.638C150.84 58.9177 151.961 57.7788 151.961 55.7394C151.961 53.7001 150.84 52.5612 148.638 52.5612Z"
                fill="#7A8AA0" />
            <path
                d="M139.087 60.7849C137.142 60.7849 135.075 59.7255 135.075 56.64V51.0515C135.075 50.9456 135.142 50.8794 135.251 50.8794H136.723C136.831 50.8794 136.899 50.9456 136.899 51.0515V56.3221C136.899 58.2291 137.844 59.0369 139.087 59.0369C140.316 59.0369 141.289 58.2291 141.289 56.3221V51.0515C141.289 50.9456 141.356 50.8794 141.465 50.8794H142.937C143.045 50.8794 143.113 50.9456 143.113 51.0515V56.64C143.113 59.7255 141.032 60.7849 139.087 60.7849Z"
                fill="#7A8AA0" />
            <path
                d="M127.873 60.7848C124.983 60.7848 122.875 58.7851 122.875 55.7393C122.875 52.6935 124.983 50.6938 127.873 50.6938C130.764 50.6938 132.871 52.6935 132.871 55.7393C132.871 58.7851 130.764 60.7848 127.873 60.7848ZM127.873 59.0367C129.778 59.0367 130.98 57.6595 130.98 55.7393C130.98 53.8191 129.778 52.4419 127.873 52.4419C125.968 52.4419 124.766 53.8191 124.766 55.7393C124.766 57.6595 125.968 59.0367 127.873 59.0367Z"
                fill="#7A8AA0" />
            <path
                d="M115.349 60.5995C115.241 60.5995 115.174 60.5333 115.174 60.4273V51.0515C115.174 50.9456 115.241 50.8794 115.349 50.8794H116.822C116.93 50.8794 116.997 50.9456 116.997 51.0515V58.8912H121.78C121.888 58.8912 121.955 58.9574 121.955 59.0633V60.4273C121.955 60.5333 121.888 60.5995 121.78 60.5995H115.349Z"
                fill="#7A8AA0" />
            <path fill-rule="evenodd" clip-rule="evenodd"
                d="M112.229 53.6446C112.278 53.695 112.362 53.6927 112.405 53.6384L113.43 52.3771C113.466 52.3327 113.462 52.2688 113.421 52.2292C112.403 51.2554 110.979 50.6846 109.556 50.6846C106.53 50.6846 104.194 52.858 104.194 55.7018C104.194 58.5729 106.5 60.7755 109.484 60.7755C110.957 60.7755 112.389 60.1218 113.433 59.1209C113.476 59.0794 113.477 59.012 113.437 58.9679L112.401 57.837C112.357 57.7894 112.283 57.7872 112.235 57.8307C111.52 58.4821 110.572 58.9232 109.585 58.9232C107.707 58.9232 106.241 57.5007 106.241 55.6736C106.241 53.8607 107.706 52.4381 109.585 52.4381C110.597 52.4381 111.544 52.9371 112.229 53.6446Z"
                fill="#7A8AA0" />
        </g>
    </g>
    <defs>
        <clipPath id="clip0_14748_3237">
            <rect width="122" height="37" fill="white" transform="translate(39 24)" />
        </clipPath>
    </defs>
</svg>