<svg width="200" height="84" viewBox="0 0 200 84" fill="none" xmlns="http://www.w3.org/2000/svg">
    <path
        d="M53.332 34.6954C53.332 31.3845 56.0673 28.691 59.4288 28.691C62.6795 28.691 65.3439 31.2098 65.5162 34.3695C64.4857 34.4357 63.5634 34.6695 62.7204 35.082V34.6954C62.7204 32.9081 61.2439 31.4537 59.4288 31.4537C57.6137 31.4537 56.1375 32.9081 56.1375 34.6954C56.1375 35.455 56.3951 36.1656 56.8831 36.7505L57.4231 37.3742L63.6024 44.8573L64.1283 45.4695C65.0384 46.5544 65.5339 47.9118 65.5339 49.3048C65.5339 52.6155 62.799 55.309 59.4371 55.309C56.1785 55.309 53.5091 52.7781 53.3484 49.6075C54.3114 49.5239 55.2736 49.2555 56.1456 48.8384V49.3048C56.1456 51.0922 57.622 52.5463 59.4371 52.5463C61.2522 52.5463 62.7287 51.0922 62.7287 49.3048C62.7287 48.5417 62.4686 47.8284 61.9762 47.2413L61.4345 46.6108L55.2572 39.1299L54.7274 38.5183C53.8275 37.4461 53.332 36.0882 53.332 34.6954Z"
        fill="#7A8AA0" />
    <path
        d="M77.3329 45.6846C77.3329 46.4649 77.2446 46.8984 76.8573 47.0891C77.5265 47.1409 80.3965 47.0545 80.3965 47.0545C80.3965 47.0545 79.8684 46.7769 79.8684 45.407V37.3956C79.8684 36.6153 79.8684 36.1298 80.3437 35.9045C78.8293 35.9045 76.8573 35.887 76.8573 35.887C77.1918 36.1298 77.3329 36.5807 77.3329 37.0662V45.6846Z"
        fill="#7A8AA0" />
    <path
        d="M88.2847 47.0892C88.6192 46.9503 88.7426 46.0487 88.7426 45.6327L88.7603 41.627C88.7603 40.517 88.1616 40.1702 87.0874 40.1702C86.2583 40.1702 86.0633 40.3305 85.4865 40.8049L85.4148 40.8639L85.3971 45.0256C85.3971 45.9272 85.4148 46.8639 85.9783 47.0892C85.8638 47.0892 85.6041 47.0947 85.2795 47.1014C84.3055 47.1217 82.7473 47.1542 82.7736 47.0892C83.2158 46.955 83.2147 46.2066 83.2141 45.8117L83.214 45.7711V40.3091C83.214 39.4247 83.0555 39.2861 82.6859 39.0951C83.5131 38.9564 85.4148 38.7831 85.4148 38.7831L85.3971 40.1184C86.3128 39.4247 87.6335 38.7136 88.8483 38.7136C90.5035 38.7136 90.9436 39.9969 90.9436 41.5404C90.9436 42.019 90.9392 42.4845 90.9347 42.9479L90.9347 42.949V42.9501C90.9303 43.4092 90.9259 43.8664 90.9259 44.3322C90.9259 45.7888 90.9962 46.8462 91.5597 47.0372C91.3313 47.0372 90.8887 47.0564 90.4008 47.0775C89.422 47.1199 88.2613 47.1702 88.2847 47.0892Z"
        fill="#7A8AA0" />
    <path
        d="M96.3671 39.0777C96.3671 36.737 96.4551 35.2801 97.5996 35.2801C98.4096 35.2801 98.7969 35.8351 98.7969 35.8351L98.7618 34.5347C98.6033 34.4998 98.4096 34.4827 98.2159 34.4827C95.8918 34.4827 94.0255 35.6096 94.2366 38.3322L94.2543 38.5575C94.1661 38.8872 93.638 39.6675 93.0744 39.9275C93.4971 39.9449 94.1486 39.9623 94.1486 39.9623L94.1661 45.1644C94.1661 45.1644 94.3072 46.8462 93.6557 47.0893H97.3708C97.2452 47.0144 97.1327 46.9646 97.0327 46.9203C96.5999 46.7287 96.4022 46.6412 96.4022 45.0777L96.3845 39.9449L98.0928 39.9795L98.3213 39.0777H96.3671Z"
        fill="#7A8AA0" />
    <path
        d="M102.195 47.2972C101.174 47.2972 100.153 47.1411 99.1846 46.8809V44.2626C99.5545 45.3203 101.104 46.3087 102.53 46.3087C104.045 46.3087 104.784 45.7363 104.784 44.4013C104.784 43.0307 103.679 42.7085 102.469 42.3555C101.014 41.9313 99.4071 41.4625 99.3783 39.0777C99.3606 36.7368 101.773 35.7483 103.833 35.7483C104.713 35.7483 105.999 35.939 106.809 36.182C106.809 36.182 106.826 37.5691 106.826 38.3148C106.492 37.5691 105.153 36.5981 103.78 36.5981C102.583 36.5981 101.702 37.2395 101.702 38.3148C101.702 39.368 102.66 39.6544 103.777 39.9886C105.327 40.4521 107.183 41.0074 107.214 43.8291C107.231 46.4474 104.696 47.2972 102.195 47.2972Z"
        fill="#7A8AA0" />
    <path
        d="M109.644 44.9737C109.644 46.6382 110.806 47.3321 112.62 47.3321C113.5 47.3321 114.081 46.8463 114.557 46.3262V45.8404C114.363 46.0834 113.975 46.2742 113.518 46.2916C112.056 46.3608 111.81 45.6328 111.81 44.4187L111.827 40.1875H114.275L114.557 39.026H111.792V37.2569H110.912C110.12 38.2454 108.288 40.1703 108.288 40.1703L109.662 40.2395L109.644 44.9737Z"
        fill="#7A8AA0" />
    <path fill-rule="evenodd" clip-rule="evenodd"
        d="M120.121 47.2973C117.022 47.2973 115.561 45.3898 115.561 42.9619C115.561 40.4651 117.462 38.6789 120.526 38.7138C123.748 38.7658 125.209 40.4997 125.209 42.9619C125.209 45.4244 123.167 47.2973 120.121 47.2973ZM120.121 39.4246C118.624 39.39 117.937 40.7425 117.937 42.199C117.937 43.9504 118.906 46.3954 120.754 46.4475C122.11 46.4823 122.92 45.1814 122.92 43.8117C122.92 42.1124 122.11 39.4766 120.121 39.4246Z"
        fill="#7A8AA0" />
    <path
        d="M132.957 45.6327C132.957 46.0487 132.834 46.9503 132.499 47.0892C132.476 47.1702 133.636 47.1199 134.615 47.0775C135.103 47.0564 135.546 47.0372 135.775 47.0372C135.211 46.8462 135.14 45.7888 135.14 44.3322C135.14 43.8664 135.145 43.4093 135.149 42.9501L135.149 42.9488C135.154 42.4851 135.158 42.0193 135.158 41.5404C135.158 39.9969 134.718 38.7136 133.063 38.7136C131.848 38.7136 130.527 39.4247 129.612 40.1184L129.629 38.7831C129.629 38.7831 127.728 38.9564 126.9 39.0951C127.27 39.2861 127.429 39.4247 127.429 40.3091V45.7711L127.429 45.8117C127.429 46.2066 127.43 46.955 126.988 47.0892C126.962 47.1542 128.52 47.1217 129.494 47.1014C129.819 47.0947 130.078 47.0892 130.193 47.0892C129.629 46.8639 129.612 45.9272 129.612 45.0256L129.629 40.8639L129.702 40.8043C130.278 40.3304 130.473 40.1702 131.302 40.1702C132.376 40.1702 132.975 40.517 132.975 41.627L132.957 45.6327Z"
        fill="#7A8AA0" />
    <path fill-rule="evenodd" clip-rule="evenodd"
        d="M140.194 42.3725C140.255 42.4325 140.24 42.4637 140.217 42.5125C140.199 42.5484 140.177 42.5938 140.177 42.6673C140.177 44.7135 140.775 46.257 143.328 46.2393C144.42 46.2224 145.318 45.7709 145.846 45.4764L145.741 46.5864C144.913 46.9504 143.751 47.3321 142.554 47.3321C139.349 47.349 137.694 45.702 137.694 42.9967C137.694 40.7424 139.244 38.5922 142.554 38.6442C145.6 38.6963 146.181 40.413 146.128 42.3725H140.194ZM142.501 39.4246C141.092 39.4246 140.23 40.4997 140.23 41.7135L141.655 41.6789C141.732 41.6758 141.847 41.6775 141.986 41.6796C142.642 41.6893 143.825 41.7068 143.927 41.2628L143.935 41.2254C143.957 41.12 143.998 40.9228 143.998 40.8465C143.998 40.0142 143.522 39.4246 142.501 39.4246Z"
        fill="#7A8AA0" />
    <path
        d="M147.431 47.0369C148.259 47.2279 149.227 47.3491 150.073 47.3491C151.904 47.3491 153.981 46.5863 153.946 44.5052C153.916 42.5528 152.517 42.1846 151.341 41.8747C150.48 41.648 149.738 41.4526 149.738 40.6905C149.738 39.9102 150.337 39.4073 151.147 39.4073C152.08 39.4073 153.136 39.9794 153.453 40.7943C153.506 40.3091 153.453 38.9738 153.453 38.9738C152.89 38.8348 151.745 38.679 151.147 38.679C149.632 38.679 147.625 39.1645 147.625 41.0891C147.625 43.0083 148.972 43.3812 150.128 43.7016C150.999 43.9428 151.763 44.1542 151.763 44.9736C151.763 45.9272 151.006 46.5516 149.985 46.5516C148.998 46.5516 147.766 45.7542 147.431 44.748C147.484 45.2858 147.431 47.0369 147.431 47.0369Z"
        fill="#7A8AA0" />
    <path
        d="M52.7879 48.5478C54.463 48.5271 56.1957 47.8302 57.3269 46.7161C57.8937 46.1581 58.4075 45.5764 58.8908 44.9865L57.0779 42.7908C56.5351 43.4812 55.9735 44.1419 55.3433 44.7626C54.8254 45.2726 53.8109 45.7867 52.7115 45.7867C50.5871 45.7867 48.8586 44.0847 48.8586 41.9925C48.8586 39.9003 50.5871 38.198 52.7115 38.198C52.9481 38.198 53.1791 38.219 53.4037 38.2568C52.8806 37.3972 52.5522 36.4365 52.4421 35.4421C48.8954 35.5821 46.0534 38.4658 46.0534 41.9925C46.0534 45.5821 48.9981 48.5061 52.6332 48.5478H52.7879Z"
        fill="#7A8AA0" />
    <path
        d="M66.4587 35.4524V35.4431C69.9854 35.6044 72.8042 38.4799 72.8042 41.9925C72.8042 45.517 69.966 48.3996 66.4224 48.5429C66.3095 47.5446 65.9767 46.5804 65.4483 45.7199C65.6804 45.7633 65.9153 45.7867 66.1463 45.7867C68.2707 45.7867 69.9989 44.0847 69.9989 41.9925C69.9989 39.9002 68.2707 38.1979 66.1463 38.1979C64.9861 38.1979 64.2729 38.4756 63.5143 39.2224C62.8838 39.8436 62.3219 40.5037 61.7797 41.1936L59.9668 38.9981C60.4498 38.4085 60.9639 37.8271 61.531 37.2689C62.6962 36.1213 63.9741 35.5507 65.6176 35.4524H66.4587Z"
        fill="#7A8AA0" />
</svg>