<svg width="200" height="84" viewBox="0 0 200 84" fill="none" xmlns="http://www.w3.org/2000/svg">
    <path
        d="M122.538 40.5817V55.8868C122.538 56.3194 122.888 56.6692 123.32 56.6692H127.624C128.057 56.6692 128.406 56.3194 128.406 55.8868V42.7452C128.406 42.0072 129.002 41.4115 129.74 41.4115H132.935C133.673 41.4115 134.269 42.0072 134.269 42.7452V55.8868C134.269 56.3194 134.619 56.6692 135.051 56.6692H139.355C139.787 56.6692 140.137 56.3194 140.137 55.8868V40.5817C140.137 37.7987 137.882 35.5432 135.099 35.5432H127.577C124.794 35.5432 122.538 37.7987 122.538 40.5817Z"
        fill="#7A8AA0" />
    <path
        d="M111.193 35.5432H106.889C106.457 35.5432 106.107 35.8929 106.107 36.3256V55.8868C106.107 56.3194 106.457 56.6692 106.889 56.6692H111.193C111.626 56.6692 111.975 56.3194 111.975 55.8868V36.3256C111.975 35.8929 111.626 35.5432 111.193 35.5432Z"
        fill="#7A8AA0" />
    <path
        d="M67.7761 43.6999L70.3457 41.1303C70.5206 40.9554 70.8021 40.9554 70.9741 41.1303L73.5437 43.6999C73.846 44.0022 74.332 44.0022 74.6343 43.6999L76.8868 41.4474C77.1891 41.1451 77.1891 40.659 76.8868 40.3567L72.3374 35.8073C71.4127 34.8826 69.9101 34.8826 68.9853 35.8073L64.4359 40.3567C64.1336 40.659 64.1336 41.1451 64.4359 41.4474L66.6884 43.6999C66.9907 44.0022 67.4768 44.0022 67.7791 43.6999H67.7761Z"
        fill="#7A8AA0" />
    <path
        d="M80.7635 44.2397L79.6432 43.1194C79.3409 42.817 78.8548 42.817 78.5525 43.1194L75.7576 45.9142L70.9741 50.6978C70.7992 50.8726 70.5177 50.8726 70.3458 50.6978L65.5622 45.9142L62.7674 43.1164C62.4651 42.8141 61.979 42.8141 61.6767 43.1164L60.5564 44.2367C59.6317 45.1614 59.6317 46.664 60.5564 47.5887L68.9854 56.0179C69.9101 56.9424 71.4127 56.9424 72.3374 56.0179L80.7665 47.5887C81.6912 46.664 81.6912 45.1614 80.7665 44.2367L80.7635 44.2397Z"
        fill="#7A8AA0" />
    <path
        d="M104.803 55.4508L98.8486 46.5209C98.6798 46.269 98.6736 45.94 98.8307 45.6792L104.293 36.7315C104.613 36.2099 104.237 35.5401 103.626 35.5401H98.9998C98.7271 35.5401 98.4751 35.6823 98.333 35.9135L94.7851 41.7225C94.6339 41.9685 94.3674 42.1404 94.0562 42.1404C93.5818 42.1404 93.1967 41.7551 93.1967 41.2809V30.1667C93.1967 29.734 92.8468 29.3843 92.4141 29.3843H88.1108C87.6782 29.3843 87.3284 29.734 87.3284 30.1667V55.8864C87.3284 56.3191 87.6782 56.6688 88.1108 56.6688H92.4141C92.8468 56.6688 93.1967 56.3191 93.1967 55.8864V50.5724C93.1967 50.0982 93.5818 49.7129 94.0562 49.7129C94.3524 49.7129 94.6104 49.8611 94.7675 50.0893L98.9227 56.3223C99.068 56.5385 99.311 56.672 99.5748 56.672H104.154C104.779 56.672 105.153 55.9755 104.806 55.4567"
        fill="#7A8AA0" />
    <path
        d="M119.408 28.5012H115.105C114.672 28.5012 114.323 28.8509 114.323 29.2837V55.8866C114.323 56.3192 114.672 56.669 115.105 56.669H119.408C119.841 56.669 120.191 56.3192 120.191 55.8866V29.2837C120.191 28.8509 119.841 28.5012 119.408 28.5012Z"
        fill="#7A8AA0" />
    <path
        d="M109.041 27.2888C107.26 27.2888 105.813 28.7351 105.813 30.5164C105.813 32.2976 107.26 33.7439 109.041 33.7439C110.822 33.7439 112.269 32.2976 112.269 30.5164C112.269 28.7351 110.825 27.2888 109.041 27.2888Z"
        fill="#7A8AA0" />
</svg>