<svg width="200" height="84" viewBox="0 0 200 84" fill="none" xmlns="http://www.w3.org/2000/svg">
    <path fill-rule="evenodd" clip-rule="evenodd"
        d="M81.1877 44.1301C80.4027 44.7195 79.5892 45.3125 78.7464 45.9051C78.7464 46.5811 78.7464 47.2603 78.7497 47.9362C78.7497 48.2853 78.7018 48.5352 78.362 48.7596C75.6285 50.5662 72.9037 52.3868 70.1773 54.2084L70.1771 54.2085L70.1769 54.2087L70.1767 54.2088L70.1765 54.2089L70.1763 54.209L70.1761 54.2092L70.1759 54.2093L70.1757 54.2094L70.1756 54.2096L70.1754 54.2097L70.1752 54.2098C69.1891 54.8686 68.2029 55.5276 67.216 56.1861C67.1309 56.242 67.0375 56.2888 66.9457 56.3348L66.9454 56.335L66.9454 56.335L66.9454 56.335L66.9452 56.3351C66.8957 56.3599 66.8466 56.3845 66.7995 56.4102C66.6366 56.2674 66.6498 56.1107 66.6621 55.9656C66.6652 55.9282 66.6683 55.8916 66.6683 55.8562V53.4241C65.8162 53.8984 64.9862 54.347 64.1757 54.773V55.8208C64.1757 55.8637 64.1798 55.9102 64.1839 55.9574C64.1973 56.1112 64.2115 56.2735 64.0891 56.3493C63.9253 56.4455 63.7924 56.3337 63.6642 56.2259C63.622 56.1904 63.5803 56.1553 63.5381 56.1282L63.4141 56.0456L63.4134 56.0452C63.1665 55.8808 62.9198 55.7166 62.6731 55.5547C61.8015 55.997 60.9527 56.4168 60.123 56.8075C61.5324 57.7495 62.9389 58.6945 64.339 59.6458C65.124 60.1812 65.7712 60.1779 66.5305 59.6269C67.1623 59.1634 67.821 58.7342 68.4802 58.3047L68.4802 58.3047L68.4805 58.3045C68.7871 58.1047 69.0938 57.9049 69.3979 57.7016C70.3718 57.0519 71.3451 56.4009 72.3185 55.7498C74.9408 53.9956 77.564 52.2409 80.204 50.5121C80.9186 50.0411 81.2165 49.5188 81.2102 48.6604C81.1973 47.1482 81.191 45.639 81.1877 44.1301ZM80.5375 33.5223C80.5224 33.511 80.5062 33.5009 80.4896 33.4905C80.478 33.4832 80.4661 33.4758 80.4542 33.4677C80.0899 33.2429 79.7147 33.0248 79.3415 32.8077L79.3412 32.8075L79.3411 32.8075L79.3411 32.8075L79.3409 32.8074L79.1215 32.6798C78.5735 32.3562 78.0351 32.0293 77.5419 31.661C77.1131 31.3416 76.6671 31.0418 76.2212 30.7421L76.0297 30.6132C75.6099 30.3346 75.1935 30.0527 74.7928 29.7482C74.7033 29.6811 74.6167 29.6137 74.5301 29.5463C74.0914 29.1972 73.6396 28.8449 73.0886 28.6717C72.9284 28.3928 72.6635 28.2406 72.401 28.0898C72.317 28.0415 72.2332 27.9933 72.1532 27.9412C71.3938 27.436 70.6297 26.9366 69.8657 26.4373C68.8472 25.7717 67.8288 25.1061 66.822 24.427C65.4731 23.517 65.364 23.5008 64.0283 24.3595C63.8493 24.4724 63.6894 24.6135 63.5309 24.7533L63.5309 24.7533C63.3519 24.9113 63.1748 25.0676 62.9742 25.1796C61.9163 25.7727 60.9201 26.4583 59.9242 27.1437C59.2522 27.6061 58.5804 28.0684 57.89 28.5021C56.4412 29.4123 55.0232 30.3661 53.6046 31.3203C52.5915 32.0017 51.5782 32.6833 50.5531 33.3494C49.9313 33.753 49.6464 34.2111 49.6527 34.9641C49.6656 38.203 49.6722 41.4389 49.6593 44.6745C49.6593 45.2226 49.656 45.7739 49.6527 46.3216C49.6464 47.1033 49.6401 47.8847 49.6335 48.6667C49.6272 49.1407 49.7843 49.5413 50.0308 49.8841C50.2744 50.2269 50.6109 50.5151 50.9729 50.7653C50.9985 50.783 51.0249 50.8006 51.0514 50.8182C51.0778 50.8358 51.1042 50.8534 51.1299 50.8711C51.5164 51.124 51.9085 51.3711 52.301 51.6185L52.3011 51.6185C52.8127 51.9409 53.3252 52.2639 53.8274 52.6011C53.9765 52.7012 54.1245 52.8001 54.2727 52.8992L54.5836 53.1071C55.4324 52.7515 56.3232 52.3638 57.249 51.9377C56.8068 51.6462 56.3649 51.3517 55.9226 51.0535C55.6056 50.8381 55.1792 50.5854 54.7254 50.3165L54.7254 50.3165L54.7252 50.3164C54.1061 49.9495 53.4361 49.5525 52.924 49.1791C52.7637 49.064 52.6229 48.952 52.5009 48.8429L52.4851 48.8303C52.2672 48.638 52.1519 48.4201 52.1036 48.1603C52.0811 48.0453 52.0719 47.9237 52.0719 47.7888C52.0782 46.671 52.0811 45.5528 52.0811 44.4346C52.0844 43.906 52.0844 43.3748 52.0844 42.8433V42.8424C52.0844 42.2719 52.0841 41.7017 52.0837 41.1317V41.131V41.1303V41.1296V41.1289V41.1283V41.1276V41.1269V41.1262V41.1255V41.1248V41.1241C52.083 39.9874 52.0822 38.8517 52.0844 37.7161C52.0844 37.6666 52.0779 37.6129 52.0712 37.5582L52.0712 37.5581L52.0712 37.5581V37.5581C52.051 37.3935 52.0298 37.2203 52.1836 37.1268C52.354 37.0236 52.4829 37.1375 52.6068 37.247C52.6485 37.2838 52.6897 37.3202 52.7316 37.3476L53.069 37.5714L53.0695 37.5717L53.07 37.572L53.0705 37.5724L53.0709 37.5727L53.0714 37.573L53.0719 37.5733L53.0723 37.5736L53.0728 37.5739L53.0733 37.5742L53.0737 37.5745C54.1963 38.3192 55.3188 39.0639 56.4386 39.8114C56.6283 39.9368 56.8172 40.0631 57.0062 40.1894L57.007 40.1899C57.2037 40.3214 57.4005 40.4529 57.5981 40.5835C57.965 40.8286 58.332 41.0729 58.6989 41.3172C59.0657 41.5614 59.4326 41.8057 59.7995 42.0507C59.8621 42.0907 59.9316 42.1195 60.0027 42.1489C60.0404 42.1646 60.0786 42.1804 60.1164 42.1982C60.1394 42.2142 60.1615 42.2307 60.1833 42.247C60.2226 42.2762 60.261 42.3049 60.3022 42.3297C60.3101 42.336 60.3188 42.3415 60.3274 42.3469C60.3364 42.3526 60.3454 42.3582 60.3534 42.3647C60.6097 42.5413 60.8645 42.7194 61.1197 42.8977L61.1206 42.8983L61.1215 42.8989C61.2455 42.9856 61.3697 43.0724 61.4941 43.159C62.2371 43.6753 62.9809 44.1877 63.7335 44.6877C64.0442 44.8927 64.1883 45.0913 64.1883 45.4728L64.1875 45.745C64.1847 46.6442 64.182 47.5434 64.182 48.4426C64.9925 47.9971 65.8192 47.5327 66.6584 47.0455C66.6584 46.5777 66.6554 46.11 66.6521 45.639C66.6521 45.165 66.7866 44.8768 67.1935 44.6074C70.0114 42.752 72.8126 40.8794 75.615 39.0061L75.6155 39.0058L76.1642 38.639C76.6209 38.3346 77.0745 38.0253 77.529 37.7153C77.8973 37.4642 78.2661 37.2127 78.6376 36.9632C78.7807 37.1113 78.7659 37.2766 78.7516 37.4368V37.4369V37.4369V37.437V37.437V37.4371V37.4371V37.4372V37.4373V37.4373C78.7473 37.4849 78.7431 37.5321 78.7431 37.5783C78.7431 37.7385 78.7434 37.8987 78.7438 38.0589C78.7445 38.3793 78.7453 38.6997 78.7431 39.0201C79.6051 38.357 80.4222 37.6999 81.191 37.0527C81.1927 36.6762 81.1936 36.3004 81.1944 35.9251V35.924V35.9228V35.9216V35.9204V35.9192V35.918V35.9169V35.9157V35.9145V35.9133V35.9121L81.1944 35.9075C81.1951 35.5672 81.1959 35.2273 81.1973 34.8874C81.1973 34.2944 81.0178 33.8555 80.5375 33.5223ZM88.8641 35.5503C91.0813 32.9265 91.754 30.8954 90.9723 29.2966C90.5558 28.4412 89.8091 27.8997 88.7167 27.6657C86.9612 27.2526 84.273 27.669 80.531 28.9089C79.5506 29.2325 78.5253 29.6106 77.4587 30.0304C77.7436 30.2224 78.0288 30.4244 78.3078 30.6326C78.7623 30.9754 79.2816 31.2861 79.7718 31.5776L79.9896 31.7025C80.0607 31.7441 80.1322 31.7856 80.2037 31.8272L80.2042 31.8275L80.2047 31.8278L80.2051 31.828C80.3652 31.921 80.5258 32.0144 80.6847 32.1094C84.2251 30.8696 86.7143 30.4115 87.9317 30.5526C87.9637 30.5556 87.9958 30.5589 88.0246 30.5652L88.0452 30.5694L88.064 30.5731C88.0771 30.5756 88.0902 30.5782 88.1049 30.5814C88.2457 30.6134 88.3643 30.6551 88.4572 30.7093C88.4189 31.2223 87.9221 32.0903 86.9675 33.2372C86.5702 33.0739 86.1408 33.0002 85.6986 33.0419C84.0647 33.186 82.8699 34.7785 83.0302 36.6014C83.046 36.768 83.0748 36.9313 83.1135 37.0916L83.0296 37.165C82.8475 37.3245 82.6609 37.4879 82.4693 37.6489V37.6522L82.0177 38.0333L81.9338 38.1034L81.9333 38.1037L81.9328 38.1042L81.9322 38.1047C81.7642 38.245 81.5936 38.3874 81.4185 38.5301C81.2198 38.6967 81.0149 38.8629 80.8034 39.0298C80.3932 39.3597 79.9671 39.6959 79.5252 40.0357L78.9963 40.4425C78.8388 40.5637 78.6763 40.6849 78.5123 40.8072C78.4464 40.8563 78.3803 40.9056 78.3141 40.9552L78.315 40.9562C78.3177 40.9592 78.3204 40.9621 78.3204 40.9648L78.33 40.9744C78.1763 41.0897 78.0193 41.2051 77.859 41.3204L77.7919 41.3687C77.7497 41.399 77.7079 41.4294 77.6661 41.4598L77.6658 41.4601C77.5933 41.5127 77.5207 41.5655 77.4458 41.6183C74.7962 43.5377 71.6694 45.5943 68.0523 47.7183C68.041 47.7248 68.0301 47.7314 68.0193 47.7378C67.9929 47.7536 67.9674 47.7688 67.9403 47.7824L67.3027 48.1539C66.4985 48.6216 65.6784 49.0834 64.8005 49.567L64.3136 49.8327C63.836 50.0925 63.365 50.3454 62.9006 50.589C61.8528 51.1403 60.8437 51.6526 59.8666 52.127C59.6521 52.2324 59.434 52.3385 59.2227 52.4373C57.5053 53.261 55.9068 53.9657 54.4425 54.5554C48.5349 56.9485 44.7513 57.5603 43.7997 56.9934C43.8797 56.0226 45.6226 53.7512 49.0601 50.7235L49.0525 50.7139C49.0296 50.6851 49.0067 50.6562 48.9864 50.6276C48.557 50.0317 48.3425 49.362 48.3521 48.6507L48.3617 47.3818C47.7753 47.8756 47.2147 48.3655 46.6862 48.8461C44.2545 51.06 42.614 52.9374 41.7298 54.5455C40.8777 56.1026 40.7369 57.4036 41.278 58.5023C42.377 60.7321 45.6675 60.8508 51.6297 58.8709C54.196 58.0187 56.7302 56.9776 59.2128 55.8177C59.5268 55.6703 59.8408 55.5229 60.1515 55.3721C60.1932 55.3533 60.2348 55.3338 60.2765 55.3117C60.5363 55.1877 60.7927 55.0612 61.0493 54.9346L61.0777 54.9206C61.3523 54.7846 61.6359 54.6417 61.9328 54.4921L61.9339 54.4915L61.9347 54.4911L62.0931 54.4113L62.3879 54.2606C62.5578 54.174 62.7244 54.0877 62.8943 53.9978C63.3267 53.7733 63.759 53.5463 64.1917 53.3156C64.6019 53.0974 65.0117 52.8733 65.4252 52.6459C65.6335 52.5335 65.8384 52.4215 66.0433 52.3031L66.8221 51.8705C67.4114 51.5403 67.9978 51.2041 68.5808 50.8676C68.8436 50.7172 69.1031 50.5665 69.3626 50.4128C72.227 48.7307 74.9565 46.9845 77.465 45.2386L78.0097 44.8575C78.8106 44.2936 79.621 43.7039 80.4189 43.105L80.8067 42.8135C82.3251 41.6632 83.722 40.5225 84.9747 39.4205C85.3816 39.5934 85.8235 39.6767 86.2849 39.6351C87.9191 39.4909 89.114 37.8954 88.9507 36.0759C88.9345 35.8934 88.9024 35.7202 88.8641 35.5503ZM97.0362 47.954C97.9042 47.954 98.8921 48.301 99.5602 48.9552L100.495 47.994C99.5334 47.046 98.2783 46.5786 97.0362 46.5786C93.8446 46.5786 92.1218 48.8752 92.1218 51.5727C92.1218 54.0566 93.6043 56.34 97.0362 56.34C98.6119 56.34 99.7737 55.7391 100.708 54.7111V50.8782H96.7156V52.2136H99.3195V54.1098C98.5719 54.7375 97.8374 54.9382 97.0362 54.9382C94.6058 54.9382 93.5907 53.2819 93.5907 51.5727C93.5775 49.5961 94.8461 47.954 97.0362 47.954ZM153.678 34.3846C151.727 34.1089 151.002 33.7361 151.002 33.0095C151.002 31.9194 152.336 31.5324 153.472 31.5324C154.666 31.5486 155.72 32.0126 156.222 32.7438L156.453 33.0796L158.64 31.6137L158.426 31.2752C157.456 29.7296 155.82 28.9783 153.424 28.9783C151.671 28.9783 150.131 29.5164 149.2 30.4545C148.528 31.1304 148.191 31.9793 148.198 32.9742C148.198 36.3106 151.573 36.7717 153.387 37.0196C155.374 37.2834 156.221 37.7742 156.221 38.6614C156.221 40.1973 154.121 40.317 153.478 40.317C152.565 40.317 150.892 40.077 149.947 38.4703L149.725 38.0942L147.551 39.5436L147.731 39.8741C148.86 41.9551 150.68 42.9249 153.46 42.9249C156.145 42.9249 159.022 41.8054 159.042 38.6614C159.042 35.5487 156.33 34.7524 153.678 34.3846ZM116.556 39.5117C117.141 38.9564 117.451 38.1073 117.451 37.0565V29.3524H120.254V37.0565C120.254 38.8635 119.687 40.3658 118.615 41.4004C117.624 42.356 116.223 42.8752 114.648 42.8752C114.562 42.8752 114.476 42.8739 114.39 42.8706C111.02 42.7847 108.839 40.502 108.839 37.0565V29.3524H111.643V37.0565C111.643 38.9644 112.681 40.1437 114.42 40.2105C115.286 40.2554 116.024 40.0145 116.556 39.5117ZM119.24 54.9782C121.564 54.9782 122.539 53.3354 122.539 51.5459C122.539 49.8231 121.551 48.034 119.267 47.994C117.104 47.994 115.942 49.5028 115.942 51.5459C115.969 53.2019 116.93 54.9782 119.24 54.9782ZM124.021 51.5194C124.021 54.0434 122.485 56.3535 119.24 56.3535C115.996 56.3535 114.46 53.9899 114.46 51.5327C114.46 48.6884 116.449 46.6318 119.267 46.6318C122.458 46.645 124.021 48.9951 124.021 51.5194ZM141.938 52.828L143.914 48.3813L145.891 52.828H141.938ZM141.377 54.1901H146.438L147.333 56.1532H148.922L144.729 46.8053H143.1L138.907 56.1532H140.496L141.377 54.1901ZM154.115 46.8054V54.7644H159.042V56.153H152.619V46.8054H154.115ZM132.485 54.7644H129.681V52.0133H132.498C133.353 52.0133 134.462 52.4675 134.462 53.469C134.462 54.497 133.313 54.7644 132.485 54.7644ZM132.498 50.678H129.681V48.154H132.485C133.607 48.154 134.181 48.8488 134.181 49.5026C134.181 50.2374 133.621 50.678 132.498 50.678ZM135.664 49.4761C135.664 47.6199 134.261 46.8054 132.485 46.8054H128.199V56.153H132.485C134.328 56.153 135.957 55.5256 135.957 53.4822C135.957 52.7742 135.49 51.6659 134.369 51.3324C135.25 50.9718 135.664 50.2641 135.664 49.4761ZM106.515 46.8054V54.7644H111.443V56.153H105.02V46.8054H106.515ZM143.177 42.6394H140.373V29.335H143.177V42.6394ZM135.994 29.9843V29.3348H132.926L128.435 34.0938V29.3348H125.614V42.6392H128.435V37.5506L133.412 42.6392H136.493V41.9335L130.434 35.77L135.994 29.9843ZM104.621 29.3348V29.9843L99.0604 35.77L105.12 41.9335V42.6392H102.038L97.0617 37.5512V42.6392H94.2402V29.3348H97.0617V34.0938L101.553 29.3348H104.621Z"
        fill="#7A8AA0" />
</svg>