<svg width="200" height="84" viewBox="0 0 200 84" fill="none" xmlns="http://www.w3.org/2000/svg">
    <g clip-path="url(#clip0_13956_4)">
        <path
            d="M45.6331 48.2218C45.5747 48.2796 44.2304 49.7227 44.2889 49.6072C43.8213 50.1267 42.8862 50.1844 42.2432 49.6649L42.1848 49.6072C41.6003 49.0877 41.5419 48.1641 42.0679 47.5869C42.0679 47.5869 42.0679 47.5292 42.1264 47.5292H42.2432L43.1199 46.5479L43.4122 46.2015L41.8926 44.8162L38.4442 48.5682C37.2753 50.2999 38.7949 53.3015 38.7949 53.4169C43.5875 54.9755 43.5875 53.3015 47.1528 49.6649L45.6331 48.2218Z"
            fill="#7A8AA0" />
        <path
            d="M43.2952 34.3104C43.3342 34.3104 43.3342 34.3104 43.2952 34.3104C43.3537 34.3682 46.1591 37.3121 45.9838 37.1389L43.7044 40.8332C43.7628 40.8909 50.7179 44.9893 50.6595 44.9315C62.5826 37.947 48.9061 45.9706 57.6146 40.8332L55.3352 37.1389C55.2768 37.0812 54.4001 35.6381 54.4585 35.6958L50.7179 29.4617L46.8605 35.7535C46.802 35.6958 44.4057 33.156 44.5226 33.3291C44.5811 33.2714 44.6395 33.156 44.698 33.0983C45.1655 32.117 45.0486 30.9625 44.2888 30.0966L43.2952 29.0576L42.9446 29.404L41.3665 30.847L39.7885 32.2901L40.7236 33.2714C46.0422 28.4227 40.3729 33.6178 43.8797 30.3853L43.0615 29.5771L43.8797 30.443C44.4642 31.0779 44.5811 31.8861 44.2888 32.6365C44.0551 33.2137 43.529 33.7332 42.8861 33.9064C42.1263 34.1373 41.3081 33.9064 40.7236 33.3291L39.7885 32.2901L39.3793 32.6365L40.3729 33.6755C41.1327 34.4836 42.3017 34.7145 43.2952 34.3104ZM49.7828 32.8674V37.0812C47.6203 38.0625 46.5098 38.5243 46.2176 38.6974C46.9774 37.4275 48.9646 34.195 49.7828 32.8674Z"
            fill="#7A8AA0" />
        <path
            d="M62.7579 48.5682L59.3096 44.8162L57.79 46.2015L58.0822 46.5479L58.9589 47.5292L59.0173 47.5869L59.0758 47.6446C59.6018 48.2796 59.5434 49.1454 58.9589 49.6649L58.9004 49.7227C58.316 50.2422 57.4977 50.2422 56.9133 49.7227L56.8548 49.6649L56.7379 49.4918L55.569 48.2218L54.0494 49.6072L57.4977 53.3015C58.842 54.3405 61.2383 53.6478 62.4072 53.3592C62.4072 53.3592 63.8684 50.2999 62.7579 48.5682Z"
            fill="#7A8AA0" />
        <path
            d="M59.1927 31.8285L60.1278 30.7895L58.5498 29.3464L57.6146 30.3855C57.6731 30.4432 59.3096 31.8863 59.1927 31.8285Z"
            fill="#7A8AA0" />
        <path
            d="M55.4521 37.1967C55.5106 37.139 58.316 34.1374 58.1406 34.3106C59.1927 34.7146 60.3616 34.4837 61.1214 33.6179L62.115 32.5789L61.7059 32.2325L60.1278 30.7894L59.1927 31.8284C59.2511 31.8862 60.8876 33.387 60.7707 33.2715C60.1863 33.8488 59.368 34.0797 58.6082 33.8488C58.316 33.7333 58.0238 33.6179 57.79 33.387C57.5562 33.1561 57.3808 32.8675 57.2639 32.5789C56.9717 31.8284 57.0886 31.0203 57.6731 30.3854L58.6082 29.3463L58.1991 29L57.2055 30.039C56.4457 30.8471 56.3288 32.0593 56.7964 33.0406C56.8548 33.0984 56.9133 33.2138 56.9717 33.2715C56.9133 33.3293 54.4585 35.9268 54.6339 35.7536C54.5754 35.8114 55.5106 37.2544 55.4521 37.1967Z"
            fill="#7A8AA0" />
        <path
            d="M54.7508 46.3171C56.9717 48.6838 57.4393 49.2033 57.3808 49.2033C57.4393 49.261 57.4977 49.261 57.6146 49.3187H57.9069C58.1406 49.3187 58.316 49.2033 58.4329 49.0878C59.1342 48.4529 58.1991 47.6447 58.3744 47.8756C58.316 47.8179 55.569 44.874 55.6274 44.9317C57.3808 42.5074 56.3288 44.0082 57.6146 42.161C56.9717 42.5074 51.244 45.8553 50.6595 46.2017C50.6011 46.1439 43.6459 42.1033 43.7044 42.161C43.7628 42.2187 45.6331 44.874 45.6331 44.8163C44.698 45.7976 42.8277 47.8179 42.7692 47.8756V47.9911L42.7108 48.0488C42.4186 48.3951 42.477 48.8569 42.7692 49.1455C43.2368 49.4919 43.4121 49.3187 43.8213 49.1455L43.9382 49.0301C43.9966 48.9724 46.6267 46.0862 46.5682 46.2017C47.9125 48.1065 49.4906 50.3 50.7179 51.9163C52.296 49.7228 54.0494 47.2407 54.7508 46.3171ZM49.7828 48.9146C49.7244 48.8569 47.0943 45.1626 47.2112 45.3358C47.2696 45.3935 49.9581 46.9521 49.7828 46.8366V48.9146Z"
            fill="#7A8AA0" />
        <path
            d="M79.9412 47.9911H73.5121V37.6008H74.9732V46.8366H79.7074L79.9412 47.9911ZM82.279 45.8553C82.279 46.1439 82.3959 46.4325 82.5713 46.6634C82.8051 46.8943 83.0973 47.0098 83.5064 47.0098C83.9155 47.0098 84.2662 46.8943 84.5584 46.7211C84.9091 46.548 85.2014 46.3171 85.4351 46.0285V44.5276H83.6233C83.1557 44.5276 82.8051 44.6431 82.5713 44.9317C82.3959 45.2203 82.279 45.5089 82.279 45.8553ZM81.4023 41.0642C81.6946 40.8911 82.1037 40.7179 82.6297 40.6025C83.1557 40.487 83.6233 40.4293 83.9155 40.4293C84.7922 40.4293 85.4936 40.6602 86.0781 41.122C86.6625 41.5838 86.9548 42.2187 86.9548 42.9691V47.9911H86.1365C86.0781 47.8756 86.0196 47.7602 85.9612 47.6447C85.9027 47.5293 85.8443 47.4138 85.7858 47.2984C85.552 47.5293 85.2014 47.7024 84.7922 47.9333C84.3831 48.1065 83.974 48.2219 83.5649 48.2219C82.6882 48.2219 82.0452 47.9911 81.5777 47.587C81.1686 47.1252 80.9348 46.6057 80.9348 45.913C80.9348 45.1626 81.1686 44.5854 81.6946 44.239C82.2206 43.835 82.8635 43.6618 83.6818 43.6618H85.4351C85.4351 43.1423 85.3183 42.7382 85.1429 42.3342C84.9091 41.9878 84.5584 41.7569 83.974 41.7569C83.5064 41.7569 83.1557 41.8146 82.7466 41.9301C82.3959 42.0455 82.0452 42.161 81.8115 42.2764L81.4023 41.0642ZM94.2021 47.2406C93.8514 47.5293 93.5008 47.8179 93.0332 47.9911C92.5656 48.1642 92.1565 48.2797 91.7474 48.2797C90.8122 48.2797 90.1693 48.0488 89.7602 47.5293C89.3511 47.0098 89.1173 46.3171 89.1173 45.5667V40.6602H90.6369V45.4512C90.6369 45.913 90.7538 46.3171 90.9876 46.6057C91.2213 46.8943 91.572 47.0675 92.098 47.0675C92.3903 47.0675 92.6825 47.0098 93.0332 46.8366C93.3839 46.6634 93.7345 46.4902 94.0268 46.2016V40.6025H95.4879V47.9911H94.6112L94.2021 47.2406ZM98.9947 41.5838C99.287 41.2374 99.7545 40.9488 100.222 40.7179C100.748 40.487 101.216 40.3716 101.625 40.3716C102.56 40.3716 103.203 40.6602 103.612 41.1797C104.021 41.6992 104.255 42.3342 104.255 43.1423V47.9911H102.794V43.2577C102.794 42.7382 102.677 42.3342 102.443 42.0455C102.209 41.7569 101.859 41.5838 101.391 41.5838C101.099 41.5838 100.748 41.6992 100.281 41.8724C99.8714 42.0455 99.5207 42.3342 99.2285 42.6228V47.9911H97.7673V40.6025H98.5856L98.9947 41.5838ZM109.69 41.6415C108.989 41.6415 108.463 41.8724 108.112 42.3919C107.762 42.9114 107.586 43.4886 107.586 44.239C107.586 44.9894 107.762 45.6821 108.054 46.1439C108.405 46.6634 108.931 46.8943 109.632 46.8943C110.1 46.8943 110.45 46.8366 110.684 46.7789C110.976 46.6634 111.268 46.548 111.561 46.4325L112.028 47.4715C111.678 47.7024 111.268 47.8756 110.801 47.9911C110.333 48.1065 109.924 48.1642 109.632 48.1642C108.463 48.1642 107.586 47.8179 107.002 47.0675C106.417 46.3171 106.067 45.3935 106.067 44.239C106.067 43.0846 106.417 42.161 107.002 41.4106C107.645 40.6602 108.521 40.3138 109.69 40.3138C109.983 40.3138 110.392 40.3716 110.859 40.487C111.327 40.6025 111.736 40.7756 112.087 41.0065L111.678 42.0455C111.385 41.9301 111.093 41.8146 110.801 41.6992C110.509 41.6992 110.1 41.6415 109.69 41.6415ZM115.301 41.4106C115.594 41.122 116.003 40.8334 116.47 40.6602C116.938 40.4293 117.347 40.3716 117.756 40.3716C118.691 40.3716 119.334 40.6602 119.743 41.1797C120.152 41.6992 120.386 42.3342 120.386 43.1423V47.9911H118.925V43.2577C118.925 42.7382 118.808 42.3342 118.574 42.0455C118.341 41.7569 117.99 41.5838 117.464 41.5838C117.172 41.5838 116.821 41.6992 116.412 41.8724C116.003 42.0455 115.652 42.3342 115.36 42.6228V47.9911H113.899V37.3699L115.36 37.1968V41.4106H115.301ZM123.893 41.5838C124.185 41.2374 124.653 40.9488 125.12 40.7179C125.646 40.487 126.114 40.3716 126.523 40.3716C127.458 40.3716 128.101 40.6602 128.51 41.1797C128.919 41.6992 129.153 42.3342 129.153 43.1423V47.9911H127.692V43.2577C127.692 42.7382 127.575 42.3342 127.341 42.0455C127.107 41.7569 126.757 41.5838 126.231 41.5838C125.939 41.5838 125.588 41.6992 125.12 41.8724C124.653 42.0455 124.36 42.3342 124.068 42.6228V47.9911H122.607V40.6025H123.425L123.893 41.5838ZM134.355 48.1642C133.244 48.1642 132.368 47.7602 131.783 47.0675C131.199 46.3171 130.906 45.3935 130.906 44.239C130.906 43.0846 131.257 42.161 131.842 41.4683C132.485 40.7179 133.361 40.3716 134.472 40.3716C135.641 40.3716 136.517 40.7179 137.102 41.4683C137.686 42.2187 138.037 43.1423 138.037 44.2968C138.037 45.4512 137.686 46.3748 137.043 47.0675C136.459 47.8179 135.524 48.1642 134.355 48.1642ZM136.576 44.3545C136.576 43.5464 136.4 42.9114 136.108 42.3919C135.816 41.8724 135.29 41.6415 134.589 41.6415C133.887 41.6415 133.361 41.8724 133.011 42.3342C132.66 42.7959 132.485 43.4309 132.485 44.239C132.485 45.0472 132.66 45.7398 132.952 46.2016C133.244 46.6634 133.77 46.8943 134.472 46.8943C135.173 46.8943 135.699 46.6634 136.05 46.2016C136.4 45.7976 136.576 45.1626 136.576 44.3545ZM143.18 41.5838C142.42 41.5838 141.836 41.8724 141.544 42.3919C141.252 42.9114 141.076 43.5463 141.076 44.239C141.076 44.9894 141.252 45.6244 141.544 46.1439C141.836 46.6634 142.42 46.8943 143.18 46.8943C143.472 46.8943 143.765 46.8366 144.057 46.7211C144.349 46.6057 144.641 46.4325 144.934 46.2016V42.2764C144.641 42.0455 144.349 41.8724 144.057 41.7569C143.706 41.6415 143.472 41.5838 143.18 41.5838ZM146.395 37.2545V47.9911H145.518L145.109 47.2984C144.817 47.587 144.408 47.8179 143.998 47.9333C143.589 48.1065 143.18 48.1642 142.83 48.1642C141.719 48.1642 140.901 47.8179 140.375 47.0675C139.79 46.3171 139.557 45.3935 139.557 44.2968C139.557 43.1423 139.849 42.2187 140.433 41.4683C141.018 40.7179 141.836 40.3138 142.946 40.3138C143.239 40.3138 143.589 40.3716 143.94 40.487C144.291 40.6025 144.641 40.7756 144.934 40.9488V37.3122L146.395 37.2545ZM155.162 44.6431H149.843C149.902 45.3358 150.135 45.913 150.486 46.3171C150.895 46.7789 151.421 46.952 152.181 46.952C152.649 46.952 152.999 46.8943 153.291 46.8366C153.584 46.7211 153.934 46.6057 154.227 46.4902L154.694 47.587C154.344 47.8179 153.934 47.991 153.408 48.0488C152.882 48.1642 152.473 48.2219 152.181 48.2219C150.895 48.2219 149.96 47.8756 149.259 47.1252C148.616 46.3748 148.265 45.4512 148.265 44.2968C148.265 43.1423 148.557 42.2187 149.2 41.4683C149.843 40.7179 150.72 40.3716 151.83 40.3716C153.058 40.3716 153.876 40.7756 154.402 41.6415C154.928 42.5073 155.162 43.4886 155.162 44.6431ZM153.759 43.6041C153.642 42.9691 153.467 42.5073 153.175 42.161C152.882 41.8146 152.415 41.6415 151.889 41.6415C151.304 41.6415 150.837 41.8146 150.544 42.2187C150.194 42.5651 150.018 43.0268 149.96 43.6618H153.759V43.6041ZM161.24 42.161C160.948 42.0455 160.656 41.9301 160.305 41.8146C160.013 41.6992 159.662 41.6415 159.253 41.6415C158.844 41.6415 158.552 41.6992 158.318 41.8724C158.084 42.0455 157.967 42.2187 157.967 42.5073C157.967 42.7382 158.084 42.9114 158.376 43.0846C158.669 43.2577 159.019 43.4309 159.428 43.5464C160.071 43.7772 160.597 44.0659 161.182 44.4699C161.708 44.874 162 45.3358 162 45.9707C162 46.6634 161.766 47.1829 161.24 47.587C160.714 47.9911 159.954 48.1642 158.961 48.1642C158.669 48.1642 158.201 48.1065 157.733 47.9911C157.207 47.8756 156.798 47.7024 156.506 47.4715L156.974 46.3748C157.266 46.548 157.617 46.6634 157.967 46.7211C158.318 46.8366 158.669 46.8366 158.961 46.8366C159.428 46.8366 159.837 46.7789 160.13 46.6057C160.422 46.4325 160.539 46.2593 160.539 45.9707C160.539 45.6821 160.364 45.4512 160.071 45.2203C159.779 44.9894 159.37 44.8163 158.902 44.6431C158.318 44.4699 157.733 44.1813 157.207 43.835C156.681 43.4886 156.448 43.0268 156.448 42.3919C156.448 41.6992 156.681 41.1797 157.207 40.8334C157.733 40.4293 158.435 40.2561 159.311 40.2561C159.604 40.2561 160.013 40.3138 160.539 40.4293C161.006 40.5447 161.416 40.7179 161.766 40.9488L161.24 42.161Z"
            fill="#7A8AA0" />
    </g>
    <defs>
        <clipPath id="clip0_13956_4">
            <rect width="124" height="25" fill="white" transform="translate(38 29)" />
        </clipPath>
    </defs>
</svg>