<svg width="200" height="84" viewBox="0 0 200 84" fill="none" xmlns="http://www.w3.org/2000/svg">
    <path
        d="M61.3969 37.3957C62.499 37.3959 63.5653 37.79 64.4059 38.5077C65.2466 39.2254 65.8072 40.2202 65.9879 41.315L71.3076 40.0729C70.9873 38.3854 70.2456 36.8078 69.1523 35.4889C68.059 34.17 66.6502 33.1532 65.0587 32.5343C63.4672 31.9154 61.7454 31.7149 60.0556 31.9516C58.3659 32.1883 56.7638 32.8544 55.4004 33.8872L58.7208 38.2494C59.5039 37.6933 60.4387 37.3951 61.3969 37.3957Z"
        fill="#7A8AA0" />
    <path
        d="M41.6247 37.3957C42.3762 37.3975 43.1159 37.5842 43.7793 37.9396C44.6278 38.3857 45.3206 39.0824 45.7648 39.9362L50.0166 36.7161C49.1117 35.2325 47.8465 34.0054 46.3402 33.1506L43.7793 37.9396L46.3365 33.1487C44.5959 32.1637 42.6026 31.725 40.6126 31.8889C38.6226 32.0529 36.7266 32.812 35.1681 34.0689C33.5938 35.3212 32.4289 37.0204 31.824 38.9468C31.2192 40.8728 31.2022 42.9371 31.775 44.873C32.2428 46.4759 33.0965 47.9375 34.2612 49.1273C35.4259 50.3171 36.8648 51.1982 38.4496 51.6921C40.0345 52.1861 41.7161 52.2775 43.3445 51.9583C44.973 51.639 46.4977 50.919 47.7829 49.8625L44.6066 45.6913C43.77 46.3948 42.7146 46.7798 41.6246 46.779C40.6423 46.7789 39.6851 46.4662 38.8899 45.8856C38.0946 45.3049 37.5018 44.486 37.1963 43.5458C37.043 43.0751 36.9646 42.5828 36.964 42.0874C36.9647 41.325 37.1501 40.5744 37.504 39.9006C37.858 39.2268 38.3698 38.65 38.995 38.2204L35.1681 34.0689L38.9978 38.2148C39.7714 37.6791 40.6887 37.3934 41.6275 37.3957H41.6247Z"
        fill="#7A8AA0" />
    <path
        d="M57.3748 44.4481L53.1082 47.7178C54.3693 49.5731 56.2049 50.9556 58.3285 51.6494C58.6347 50.7062 58.992 49.6351 59.3184 48.6566C59.5864 47.8531 59.8336 47.1119 60.0146 46.5552C58.9049 46.208 57.9642 45.4564 57.3748 44.4481Z"
        fill="#7A8AA0" />
    <path
        d="M61.3969 46.779C60.9294 46.7774 60.4649 46.7042 60.0193 46.5619C59.8482 47.0864 59.6185 47.7739 59.3681 48.5233L59.3677 48.5245C59.0291 49.5378 58.6527 50.6643 58.3322 51.6541C59.8922 52.1629 61.5524 52.2781 63.167 51.9897C64.7815 51.7013 66.3011 51.0181 67.5922 50.0001L66.776 48.9814L67.5932 49.9999C68.8071 49.0549 69.7901 47.8425 70.4669 46.4557C71.1436 45.0689 71.496 43.5445 71.4973 41.9993C71.4979 41.3532 71.4357 40.7085 71.3113 40.0747L65.9916 41.315C66.0361 41.5701 66.0594 41.8283 66.0613 42.0873H66.0576C66.0584 42.8074 65.8937 43.5178 65.5765 44.1632C65.2598 44.8076 64.7994 45.3697 64.2314 45.8056L64.2291 45.8027C63.4182 46.434 62.4219 46.7761 61.3969 46.7753V46.779Z"
        fill="#7A8AA0" />
    <path
        d="M80.4115 45.9085V37.7346H81.7129L85.1132 43.1255V37.7346H86.737V45.9085H85.4357L82.0456 40.5186V45.9085H80.4115Z"
        fill="#7A8AA0" />
    <path
        d="M91.6432 45.9141C91.8428 45.9453 92.0444 45.9619 92.2464 45.9637C92.6052 45.9631 92.9854 45.9591 93.387 45.9515C93.786 45.9397 94.1808 45.9212 94.5712 45.8963C94.9616 45.8713 95.3183 45.8401 95.6411 45.8027V44.4351H92.5801C92.4659 44.4354 92.3524 44.4149 92.2455 44.3742C92.1384 44.3327 92.0492 44.2544 91.9936 44.1533C91.9244 44.0149 91.8923 43.8606 91.9006 43.7059V42.5826L95.1141 42.489V41.1972L91.9006 41.1036V39.9241C91.9006 39.6967 91.962 39.5263 92.0866 39.4158C92.2359 39.297 92.4236 39.238 92.6136 39.2501H95.6411V37.8788C95.3622 37.8488 95.0555 37.8254 94.719 37.8067C94.3825 37.7886 94.0042 37.7721 93.5841 37.7571C93.1639 37.7421 92.6796 37.7346 92.1311 37.7346C91.9114 37.7354 91.6926 37.7653 91.4805 37.8236C91.262 37.8821 91.0571 37.9833 90.8772 38.1212C90.6857 38.273 90.5349 38.4706 90.4385 38.696C90.3205 38.9825 90.2644 39.2911 90.274 39.6012V44.1636C90.274 44.583 90.3418 44.9125 90.4775 45.1522C90.5967 45.3751 90.7749 45.5605 90.9925 45.6876C91.1935 45.8032 91.4142 45.8801 91.6432 45.9141Z"
        fill="#7A8AA0" />
    <path d="M100.715 45.9085V39.2043H98.4836V37.7346H104.571V39.2043H102.337V45.9085H100.715Z" fill="#7A8AA0" />
    <path
        d="M107.646 37.7346V45.9085H109.27V42.606H112.33V45.9085H113.964V37.7346H112.33V41.1373H109.27V37.7346H107.646Z"
        fill="#7A8AA0" />
    <path
        d="M119.526 45.9637C119.323 45.9619 119.122 45.9454 118.923 45.9141C118.694 45.8797 118.473 45.8029 118.272 45.6876C118.054 45.5605 117.876 45.3751 117.757 45.1522C117.621 44.9125 117.554 44.583 117.554 44.1636V39.6012C117.543 39.2917 117.596 38.9832 117.711 38.696C117.808 38.4705 117.959 38.2729 118.151 38.1212C118.33 37.9831 118.536 37.882 118.754 37.8236C118.966 37.7652 119.185 37.7353 119.405 37.7346C119.953 37.7346 120.437 37.7421 120.858 37.7571C121.278 37.7721 121.657 37.7886 121.994 37.8067C122.329 37.8254 122.637 37.8488 122.915 37.8788V39.2501H119.887C119.697 39.2379 119.51 39.2969 119.361 39.4158C119.237 39.5263 119.175 39.6957 119.175 39.9241V41.1036L122.389 41.1972V42.489L119.175 42.5826V43.7059C119.167 43.8606 119.199 44.0149 119.268 44.1533C119.324 44.2547 119.414 44.333 119.521 44.3742C119.628 44.4149 119.741 44.4354 119.855 44.4351H122.917V45.8027C122.594 45.8401 122.237 45.8713 121.847 45.8963C121.456 45.9212 121.062 45.9397 120.662 45.9515C120.263 45.9591 119.884 45.9631 119.526 45.9637Z"
        fill="#7A8AA0" />
    <path fill-rule="evenodd" clip-rule="evenodd"
        d="M126.293 37.7346V45.9085L127.921 45.9076V42.8587C128.017 42.87 128.123 42.87 128.24 42.87H128.59C128.707 42.87 128.823 42.8718 128.936 42.8756C129.05 42.8794 129.15 42.8812 129.237 42.8812L130.539 45.9076H132.193L130.68 42.6313C130.845 42.5623 131.003 42.4771 131.151 42.3767C131.312 42.2671 131.451 42.1287 131.563 41.9685C131.698 41.769 131.796 41.5471 131.854 41.3133C131.933 40.9994 131.97 40.6764 131.964 40.3529C131.977 39.911 131.916 39.4701 131.782 39.0489C131.685 38.7462 131.513 38.4731 131.283 38.2542C131.073 38.0635 130.821 37.9253 130.548 37.8507C130.255 37.7711 129.953 37.7321 129.649 37.7346H126.293ZM129.364 41.5679H127.915V39.2043H129.364C129.497 39.2023 129.63 39.219 129.759 39.2539C129.875 39.2857 129.98 39.3466 130.065 39.4308C130.162 39.5292 130.232 39.6506 130.268 39.7837C130.321 39.9686 130.345 40.1606 130.34 40.3529C130.346 40.5541 130.321 40.755 130.268 40.9491C130.231 41.0867 130.161 41.2134 130.065 41.3189C129.982 41.4093 129.876 41.4761 129.759 41.5127C129.63 41.5509 129.498 41.5695 129.364 41.5679Z"
        fill="#7A8AA0" />
    <path
        d="M135.145 45.9085L136.087 37.7346H137.646L139.51 43.9979L141.363 37.7346H142.91L143.865 45.9085H142.295L141.673 40.5635L140.256 45.9085H138.731L137.314 40.6381L136.718 45.9085H135.145Z"
        fill="#7A8AA0" />
    <path d="M147.243 37.7346V45.9085H148.866V37.7346H147.243Z" fill="#7A8AA0" />
    <path
        d="M152.518 45.9085V37.7346H153.82L157.22 43.1255V37.7346H158.843V45.9085H157.542L154.149 40.5186V45.9085H152.518Z"
        fill="#7A8AA0" />
    <path fill-rule="evenodd" clip-rule="evenodd"
        d="M162.379 37.7346V45.9085L165.811 45.9113C166.449 45.9113 166.975 45.7621 167.391 45.4638C167.808 45.1656 168.12 44.7147 168.329 44.1112C168.538 43.5077 168.642 42.7455 168.642 41.8244C168.646 41.2692 168.602 40.7149 168.51 40.1675C168.438 39.7108 168.284 39.2712 168.055 38.8701C167.848 38.5126 167.547 38.2206 167.183 38.0276C166.818 37.8323 166.36 37.7346 165.812 37.7346H162.379ZM165.648 44.4398H164.003V39.2024H165.648C165.852 39.198 166.055 39.2357 166.245 39.3129C166.427 39.395 166.577 39.5343 166.673 39.7097C166.805 39.9592 166.893 40.2306 166.931 40.511C166.996 40.9447 167.026 41.383 167.019 41.8216C167.028 42.3076 166.982 42.7931 166.882 43.2687C166.791 43.6594 166.646 43.9521 166.448 44.1468C166.341 44.2472 166.215 44.3249 166.077 44.3752C165.94 44.4255 165.793 44.4475 165.648 44.4398Z"
        fill="#7A8AA0" />
</svg>