<svg width="200" height="84" viewBox="0 0 200 84" fill="none" xmlns="http://www.w3.org/2000/svg">
    <path fill-rule="evenodd" clip-rule="evenodd"
        d="M122.847 28.6494C123.594 28.5482 124.223 28.7649 124.732 29.2997C125.117 29.8994 125.186 30.5361 124.939 31.2098C124.627 31.9225 124.074 32.2748 123.282 32.2665C122.095 32.2262 121.467 31.6234 121.398 30.458C121.463 29.5215 121.946 28.9187 122.847 28.6494Z"
        fill="#7A8AA0" />
    <path fill-rule="evenodd" clip-rule="evenodd"
        d="M60.3408 29.259C60.8379 29.259 61.3349 29.259 61.832 29.259C61.832 29.5842 61.832 29.9093 61.832 30.2344C60.6373 30.1865 59.4637 30.3152 58.3111 30.6205C57.6938 30.8333 57.2865 31.2465 57.0891 31.8601C56.9883 32.1924 56.9192 32.5311 56.882 32.8762C56.8682 34.8541 56.8544 36.832 56.8406 38.8099C56.8246 40.0953 56.2516 41.0503 55.1215 41.6751C54.8314 41.7904 54.5553 41.9259 54.2931 42.0816C54.2991 42.1129 54.3129 42.14 54.3345 42.1628C54.9194 42.4022 55.4579 42.7138 55.95 43.0976C56.3105 43.411 56.5522 43.7971 56.6749 44.2559C56.7705 44.6158 56.8258 44.9816 56.8406 45.3532C56.8544 47.3312 56.8682 49.309 56.882 51.2869C56.9191 51.8025 57.0572 52.2902 57.2962 52.7501C57.5637 53.2033 57.9573 53.4945 58.4768 53.6239C59.5809 53.8666 60.6993 53.9817 61.832 53.9693C61.832 54.2809 61.832 54.5925 61.832 54.9041C60.4748 54.9274 59.1216 54.8665 57.7726 54.7212C55.7066 54.5637 54.5675 53.4732 54.3552 51.4495C54.3026 49.2419 54.275 47.0337 54.2724 44.8249C54.2503 44.1219 53.9811 43.5326 53.4646 43.057C52.9329 42.7679 52.3667 42.5715 51.7663 42.4677C51.7535 42.2133 51.7673 41.9627 51.8077 41.7158C52.4358 41.5971 53.0158 41.3668 53.5475 41.0249C54.0367 40.6022 54.2783 40.0671 54.2724 39.4195C54.2748 37.2242 54.3024 35.0295 54.3552 32.8355C54.4205 32.0201 54.6828 31.275 55.1423 30.6002C55.54 30.1292 56.0439 29.8244 56.6542 29.6858C57.8747 29.4252 59.1036 29.283 60.3408 29.259Z"
        fill="#7A8AA0" />
    <path opacity="0.987" fill-rule="evenodd" clip-rule="evenodd"
        d="M139.417 29.3403C140.648 29.324 141.877 29.3714 143.103 29.4825C143.889 29.5282 144.634 29.7179 145.34 30.0515C145.866 30.3917 146.26 30.8456 146.52 31.413C146.683 31.8339 146.793 32.2674 146.852 32.7136C146.905 34.9075 146.933 37.1021 146.935 39.2976C146.957 39.8173 147.095 40.305 147.349 40.7607C147.6 41.0908 147.924 41.3279 148.322 41.4719C148.685 41.611 149.058 41.7126 149.441 41.7767C149.448 42.0209 149.441 42.2648 149.42 42.5083C148.824 42.6446 148.264 42.8681 147.742 43.1789C147.402 43.4183 147.174 43.7366 147.059 44.134C146.995 44.4153 146.954 44.6998 146.935 44.9874C146.921 47.0195 146.907 49.0516 146.893 51.0837C146.872 51.9992 146.61 52.8391 146.106 53.6035C145.572 54.2218 144.889 54.5808 144.056 54.6805C142.519 54.9127 140.972 55.0143 139.417 54.9853C139.417 54.6602 139.417 54.3351 139.417 54.0099C140.507 54.0418 141.584 53.9402 142.647 53.7051C143.552 53.4675 144.084 52.8918 144.242 51.9778C144.313 51.6153 144.355 51.2495 144.367 50.8805C144.38 48.9297 144.394 46.9789 144.408 45.0281C144.525 44.0178 145.016 43.2389 145.878 42.6912C146.233 42.5242 146.578 42.3481 146.914 42.1628C146.908 42.1314 146.894 42.1043 146.873 42.0815C146.246 41.8352 145.68 41.4965 145.174 41.0655C144.71 40.5674 144.455 39.9781 144.408 39.2976C144.394 37.3332 144.38 35.3688 144.367 33.4045C144.364 32.7001 144.198 32.0362 143.869 31.413C143.726 31.2315 143.567 31.0622 143.393 30.905C142.754 30.5958 142.078 30.4197 141.363 30.3767C140.715 30.3324 140.066 30.2985 139.417 30.2751C139.417 29.9635 139.417 29.6519 139.417 29.3403Z"
        fill="#7A8AA0" />
    <path fill-rule="evenodd" clip-rule="evenodd"
        d="M70.5722 34.9081C72.4301 34.7404 73.9006 35.3906 74.9837 36.8589C75.5707 37.835 75.8607 38.8917 75.8536 40.029C75.8743 42.7926 75.8812 45.5563 75.8743 48.32C76.5664 48.3034 77.2568 48.3237 77.9454 48.3809C78.118 48.4419 78.2354 48.557 78.2975 48.7264C78.3454 48.8856 78.3661 49.0482 78.3596 49.2141C75.8466 49.2141 73.3337 49.2141 70.8207 49.2141C70.8207 48.9161 70.8207 48.618 70.8207 48.32C71.3986 48.3546 71.9648 48.2937 72.519 48.1371C72.823 47.9826 73.0371 47.7455 73.1611 47.4258C73.2156 47.2389 73.2571 47.0492 73.2854 46.8569C73.313 44.3642 73.313 41.8714 73.2854 39.3787C73.2048 38.3876 72.7975 37.5545 72.0634 36.8793C70.9022 36.1655 69.7286 36.1519 68.5425 36.8386C67.5015 37.4914 66.818 38.4058 66.4921 39.5819C66.3918 39.942 66.3227 40.3078 66.2849 40.6793C66.2642 43.2261 66.2573 45.773 66.2642 48.32C66.9012 48.3037 67.5363 48.3241 68.1697 48.3809C68.3423 48.4419 68.4596 48.557 68.5218 48.7264C68.5696 48.8856 68.5904 49.0482 68.5839 49.2141C66.1262 49.2141 63.6684 49.2141 61.2107 49.2141C61.2107 48.9161 61.2107 48.618 61.2107 48.32C61.6128 48.3299 62.0132 48.3096 62.4119 48.259C62.8185 48.2324 63.143 48.063 63.3854 47.751C63.5009 47.5464 63.5837 47.3296 63.6339 47.1007C63.6953 43.4305 63.716 39.7591 63.696 36.0867C62.8676 36.0867 62.0391 36.0867 61.2107 36.0867C61.2107 35.8023 61.2107 35.5178 61.2107 35.2333C62.8399 35.2333 64.4693 35.2333 66.0985 35.2333C66.1068 36.2695 66.1551 37.2991 66.2435 38.3221C66.913 36.7438 68.066 35.6668 69.7023 35.091C69.996 35.0207 70.2859 34.9597 70.5722 34.9081Z"
        fill="#7A8AA0" />
    <path fill-rule="evenodd" clip-rule="evenodd"
        d="M103.752 34.9081C105.574 34.7553 106.92 35.4598 107.79 37.0215C108.005 37.4646 108.171 37.9252 108.287 38.4033C108.736 37.3274 109.419 36.4265 110.338 35.7006C111.701 34.8298 113.151 34.6673 114.687 35.2129C115.906 35.7584 116.714 36.6593 117.11 37.9156C117.328 38.6034 117.439 39.3079 117.442 40.029C117.463 42.7926 117.47 45.5563 117.463 48.32C118.113 48.3076 118.762 48.3212 119.409 48.3606C119.95 48.3396 120.489 48.2922 121.025 48.2184C121.508 48.0968 121.832 47.8055 121.998 47.3445C122.059 47.1729 122.101 46.9968 122.123 46.8162C122.143 43.2398 122.15 39.6633 122.143 36.0867C121.26 36.0867 120.376 36.0867 119.492 36.0867C119.492 35.8022 119.492 35.5178 119.492 35.2333C121.232 35.2333 122.972 35.2333 124.712 35.2333C124.712 39.5955 124.712 43.9577 124.712 48.32C125.404 48.3041 126.094 48.3244 126.783 48.3809C126.955 48.4419 127.073 48.557 127.135 48.7264C127.183 48.8856 127.203 49.0482 127.197 49.2141C122.323 49.2141 117.449 49.2141 112.575 49.2141C112.575 48.916 112.575 48.618 112.575 48.32C113.107 48.3451 113.631 48.2977 114.149 48.1777C114.503 48.0059 114.717 47.7282 114.791 47.3445C114.83 47.1977 114.857 47.0486 114.874 46.8975C114.901 44.3912 114.901 41.885 114.874 39.3787C114.807 38.3465 114.399 37.4727 113.652 36.7573C112.82 36.2663 111.95 36.1985 111.042 36.5541C109.828 37.1494 109.034 38.0909 108.66 39.3787C108.619 39.5278 108.577 39.6768 108.536 39.8258C108.515 42.6572 108.508 45.4886 108.515 48.32C109.152 48.3037 109.787 48.3241 110.421 48.3809C110.593 48.4419 110.711 48.557 110.773 48.7264C110.821 48.8856 110.842 49.0482 110.835 49.2141C108.432 49.2141 106.03 49.2141 103.627 49.2141C103.627 48.916 103.627 48.618 103.627 48.32C104.159 48.3451 104.684 48.2977 105.201 48.1777C105.487 48.0328 105.687 47.8092 105.802 47.5071C105.863 47.3077 105.905 47.1045 105.926 46.8975C105.954 44.3642 105.954 41.8308 105.926 39.2975C105.871 38.4698 105.595 37.7247 105.098 37.0621C104.31 36.3226 103.406 36.1532 102.385 36.5541C101.128 37.1713 100.292 38.1399 99.8787 39.46C99.7585 39.8729 99.6757 40.2929 99.6301 40.7199C99.6094 43.2532 99.6024 45.7866 99.6094 48.32C100.148 48.3132 100.686 48.32 101.225 48.3403C101.486 48.3348 101.686 48.4364 101.826 48.6451C101.9 48.828 101.934 49.0177 101.929 49.2141C98.0217 49.2141 94.1139 49.2141 90.2065 49.2141C90.1296 48.1306 90.0537 47.0468 89.9787 45.9627C88.6697 48.8436 86.4397 49.9612 83.2889 49.3157C81.8431 48.8861 80.9111 47.958 80.4929 46.5317C80.3154 45.9339 80.205 45.3243 80.1615 44.7028C80.1408 41.8308 80.1339 38.9588 80.1408 36.0867C79.2847 36.0867 78.4287 36.0867 77.5726 36.0867C77.5726 35.8022 77.5726 35.5178 77.5726 35.2333C79.2709 35.2333 80.9692 35.2333 82.6676 35.2333C82.6607 38.444 82.6676 41.6547 82.6883 44.8654C82.8916 47.2735 84.2102 48.3098 86.6441 47.9745C88.4417 47.3683 89.498 46.1423 89.813 44.2964C89.8497 44.0264 89.8773 43.7554 89.8958 43.4836C89.9165 41.018 89.9234 38.5524 89.9165 36.0867C89.0052 36.0867 88.0939 36.0867 87.1826 36.0867C87.1826 35.8022 87.1826 35.5178 87.1826 35.2333C88.9362 35.2333 90.6898 35.2333 92.4433 35.2333C92.4433 39.5955 92.4433 43.9577 92.4433 48.32C93.051 48.3132 93.6586 48.32 94.2659 48.3403C94.3595 48.3499 94.4494 48.3702 94.5351 48.4012C95.0177 48.3362 95.5077 48.2752 96.0056 48.2184C96.4108 48.1183 96.6937 47.8812 96.8548 47.5071C96.9426 47.2843 96.9977 47.054 97.0205 46.8162C97.0412 43.2398 97.0483 39.6633 97.0412 36.0867C96.2128 36.0867 95.3843 36.0867 94.5559 36.0867C94.5559 35.8022 94.5559 35.5178 94.5559 35.2333C96.185 35.2333 97.8146 35.2333 99.4437 35.2333C99.452 36.2695 99.5005 37.2991 99.5887 38.322C100.246 36.7019 101.413 35.6114 103.089 35.0504C103.315 34.9994 103.536 34.9519 103.752 34.9081Z"
        fill="#7A8AA0" />
    <path fill-rule="evenodd" clip-rule="evenodd"
        d="M133.493 34.9082C135.345 34.7416 137.043 35.1548 138.588 36.1478C139.091 36.5051 139.47 36.9589 139.727 37.5093C139.957 38.1395 139.915 38.7491 139.603 39.3382C139.208 39.7283 138.731 39.8705 138.174 39.7649C137.679 39.7154 137.34 39.4648 137.159 39.0131C137.091 38.8549 137.036 38.6923 136.993 38.5254C136.907 38.0491 136.811 37.5749 136.703 37.1029C136.443 36.3061 135.884 35.8658 135.026 35.782C132.952 35.6768 131.523 36.5641 130.738 38.4441C130.27 39.774 130.077 41.1423 130.159 42.5489C130.201 44.2337 130.725 45.751 131.733 47.1008C132.896 48.3979 134.339 48.8382 136.061 48.4217C137.629 48.049 138.747 47.1413 139.417 45.6987C139.731 45.763 140.034 45.8646 140.328 46.0035C139.429 47.9829 137.883 49.1276 135.688 49.4377C133.008 49.8121 130.737 49.0467 128.874 47.1414C127.914 45.9869 127.389 44.6593 127.3 43.1585C127.141 41.4023 127.458 39.736 128.253 38.1596C129.414 36.1752 131.161 35.0914 133.493 34.9082Z"
        fill="#7A8AA0" />
</svg>