<svg width="200" height="84" viewBox="0 0 200 84" fill="none" xmlns="http://www.w3.org/2000/svg">
    <path fill-rule="evenodd" clip-rule="evenodd"
        d="M51.4815 32C51.2769 32 51.1111 32.1658 51.1111 32.3704V43.4815C51.1111 43.686 51.2769 43.8519 51.4815 43.8519H80.3704C80.5749 43.8519 80.7407 43.686 80.7407 43.4815V32.3704C80.7407 32.1658 80.5749 32 80.3704 32H51.4815ZM76.8519 40.1481C76.9541 40.1481 77.037 40.0652 77.037 39.963V35.8889C77.037 35.7866 76.9541 35.7037 76.8519 35.7037H55C54.8977 35.7037 54.8148 35.7866 54.8148 35.8889V39.963C54.8148 40.0652 54.8977 40.1481 55 40.1481H76.8519Z"
        fill="#7A8AA0" />
    <path
        d="M54.8148 48.6667C54.8148 48.4621 54.649 48.2963 54.4444 48.2963H51.4815C51.2769 48.2963 51.1111 48.4621 51.1111 48.6667V51.6296C51.1111 51.8342 51.2769 52 51.4815 52H54.4444C54.649 52 54.8148 51.8342 54.8148 51.6296V48.6667Z"
        fill="#7A8AA0" />
    <path
        d="M122.963 48.6667C122.963 48.4621 122.797 48.2963 122.593 48.2963H119.63C119.425 48.2963 119.259 48.4621 119.259 48.6667V51.6296C119.259 51.8342 119.425 52 119.63 52H122.593C122.797 52 122.963 51.8342 122.963 51.6296V48.6667Z"
        fill="#7A8AA0" />
    <path
        d="M85.1852 48.6667C85.1852 48.4621 85.351 48.2963 85.5556 48.2963H114.444C114.649 48.2963 114.815 48.4621 114.815 48.6667V51.6296C114.815 51.8342 114.649 52 114.444 52H85.5556C85.351 52 85.1852 51.8342 85.1852 51.6296V48.6667Z"
        fill="#7A8AA0" />
    <path fill-rule="evenodd" clip-rule="evenodd"
        d="M119.259 32.3704C119.259 32.1658 119.425 32 119.63 32H148.519C148.723 32 148.889 32.1658 148.889 32.3704V43.4815C148.889 43.686 148.723 43.8519 148.519 43.8519H119.63C119.425 43.8519 119.259 43.686 119.259 43.4815V32.3704ZM145 35.7037C145.102 35.7037 145.185 35.7866 145.185 35.8889V39.963C145.185 40.0652 145.102 40.1481 145 40.1481H123.148C123.046 40.1481 122.963 40.0652 122.963 39.963V35.8889C122.963 35.7866 123.046 35.7037 123.148 35.7037H145Z"
        fill="#7A8AA0" />
    <path
        d="M85.5556 32C85.351 32 85.1852 32.1658 85.1852 32.3704V35.3333C85.1852 35.5379 85.351 35.7037 85.5556 35.7037H110.926C111.028 35.7037 111.111 35.7866 111.111 35.8889V39.963C111.111 40.0652 111.028 40.1481 110.926 40.1481H85.5556C85.351 40.1481 85.1852 40.314 85.1852 40.5185V43.4815C85.1852 43.686 85.351 43.8519 85.5556 43.8519H114.444C114.649 43.8519 114.815 43.686 114.815 43.4815V32.3704C114.815 32.1658 114.649 32 114.444 32H85.5556Z"
        fill="#7A8AA0" />
</svg>