<svg width="200" height="84" viewBox="0 0 200 84" fill="none" xmlns="http://www.w3.org/2000/svg">
    <g clip-path="url(#clip0_14515_3347)">
        <path fill-rule="evenodd" clip-rule="evenodd"
            d="M67.81 38.809C68.9141 36.3194 70.0233 33.832 71.1147 31.3371C71.2352 31.0616 71.373 30.9604 71.6801 30.964C73.0671 30.9807 74.4546 30.9764 75.8417 30.9668C76.1018 30.965 76.2698 31.0028 76.3872 31.2759C78.3081 35.7448 80.2414 40.2085 82.1698 44.6742C82.1913 44.7241 82.1851 44.7855 82.198 44.8923C81.3771 44.8923 80.5718 44.875 79.7677 44.9C79.3918 44.9116 79.3686 44.6342 79.2766 44.4209C77.7588 40.9009 76.2359 37.383 74.7499 33.8501C74.5554 33.3879 74.326 33.2242 73.8405 33.2667C73.3483 33.3099 72.8874 33.1706 72.6288 33.8605C72.0016 35.5337 71.2514 37.1623 70.5507 38.8088C69.6372 38.8089 68.7236 38.809 67.81 38.809Z"
            fill="#7A8AA0" />
        <path fill-rule="evenodd" clip-rule="evenodd"
            d="M110.776 38.809C111.88 36.3194 112.989 33.832 114.081 31.3371C114.201 31.0616 114.339 30.9604 114.646 30.964C116.033 30.9807 117.421 30.9764 118.808 30.9668C119.068 30.965 119.236 31.0028 119.353 31.2759C121.274 35.7448 123.207 40.2085 125.136 44.6742C125.157 44.7241 125.151 44.7855 125.164 44.8923C124.343 44.8923 123.538 44.875 122.734 44.9C122.358 44.9116 122.335 44.6342 122.243 44.4209C120.725 40.9009 119.202 37.383 117.716 33.8501C117.521 33.3879 117.292 33.2242 116.807 33.2667C116.314 33.3099 115.853 33.1706 115.595 33.8605C114.968 35.5337 114.217 37.1623 113.517 38.8088C112.603 38.8089 111.69 38.809 110.776 38.809Z"
            fill="#7A8AA0" />
        <path fill-rule="evenodd" clip-rule="evenodd"
            d="M55.6509 38.4527C56.4028 38.4527 56.9233 38.3855 57.2126 38.251C57.5013 38.1166 57.6461 37.8702 57.6461 37.5119V33.6367C57.6461 33.2782 57.5013 33.0319 57.2126 32.8975C56.9233 32.7631 56.4028 32.6959 55.6509 32.6959H51.4295V38.4527H55.6509ZM51.4295 44.8367H48.538V30.8367H55.6222C56.9134 30.8367 57.9207 30.9861 58.6435 31.2847C59.3663 31.5836 59.8869 32.0726 60.2052 32.7518C60.5231 33.4316 60.682 34.3684 60.682 35.5631C60.682 37.2358 60.325 38.4303 59.6122 39.1471C58.899 39.864 57.7135 40.2223 56.0558 40.2223H51.4295V44.8367Z"
            fill="#7A8AA0" />
        <path fill-rule="evenodd" clip-rule="evenodd"
            d="M91.0905 38.1166H95.4494C96.1998 38.1166 96.7195 38.0494 97.0083 37.915C97.2967 37.7805 97.4411 37.5343 97.4411 37.1758V33.6367C97.4411 33.2782 97.2967 33.0319 97.0083 32.8975C96.7195 32.7631 96.1998 32.6959 95.4494 32.6959H91.0905V38.1166ZM98.1917 44.8367L95.1896 39.8862H91.0905V44.8367H88.204V30.8367H95.4205C96.7095 30.8367 97.7153 30.9861 98.437 31.2847C99.1586 31.5836 99.6783 32.0726 99.9959 32.7518C100.313 33.4316 100.472 34.3684 100.472 35.5631C100.472 36.7133 100.284 37.6126 99.9093 38.2622C99.5339 38.9119 98.9229 39.3637 98.0763 39.6174L101.338 44.8367H98.1917Z"
            fill="#7A8AA0" />
        <path fill-rule="evenodd" clip-rule="evenodd"
            d="M140.969 39.0127H135.184V44.8367H132.292V30.8367H142.126L141.808 32.6959H135.184V37.2431H140.969V39.0127Z"
            fill="#7A8AA0" />
        <mask id="mask0_14515_3347" style="mask-type:luminance" maskUnits="userSpaceOnUse" x="73" y="24" width="122"
            height="42">
            <path d="M194.38 66V24H73.006V66H194.38Z" fill="#23496E" />
        </mask>
        <g mask="url(#mask0_14515_3347)">
            <path fill-rule="evenodd" clip-rule="evenodd" d="M149.782 44.8367H152.62V30.8367H149.782V44.8367Z"
                fill="#7A8AA0" />
        </g>
        <mask id="mask1_14515_3347" style="mask-type:luminance" maskUnits="userSpaceOnUse" x="73" y="24" width="122"
            height="42">
            <path d="M194.38 66V24H73.006V66H194.38Z" fill="#23496E" />
        </mask>
        <g mask="url(#mask1_14515_3347)">
            <path fill-rule="evenodd" clip-rule="evenodd"
                d="M111.515 41.1461C110.856 41.1462 110.236 41.1464 109.707 41.1464C109.168 42.3577 108.63 43.5694 108.07 44.8291C108.969 44.8291 109.765 44.8162 110.561 44.8363C110.825 44.843 110.953 44.7539 111.048 44.5287C111.524 43.3988 112.01 42.2729 112.492 41.1458C112.164 41.1459 111.837 41.1459 111.515 41.1461Z"
                fill="#7A8AA0" />
        </g>
        <path fill-rule="evenodd" clip-rule="evenodd"
            d="M53.3142 58.6757C53.2561 58.6757 53.2077 58.657 53.169 58.6197C53.1302 58.5824 53.1109 58.5357 53.1109 58.4797V53.141H50.9909C50.9329 53.141 50.8845 53.1224 50.8457 53.085C50.807 53.0477 50.7877 53.001 50.7877 52.945C50.7877 52.889 50.807 52.8424 50.8457 52.805C50.8845 52.7677 50.9329 52.749 50.9909 52.749H55.6374C55.6954 52.749 55.7438 52.7677 55.7826 52.805C55.8213 52.8424 55.8406 52.889 55.8406 52.945C55.8406 53.001 55.8213 53.0477 55.7826 53.085C55.7438 53.1224 55.6954 53.141 55.6374 53.141H53.5174V58.4797C53.5174 58.5357 53.4981 58.5824 53.4594 58.6197C53.4206 58.657 53.3722 58.6757 53.3142 58.6757ZM60.0303 58.6664C59.8948 58.6664 59.827 58.601 59.827 58.4704V52.9544C59.827 52.8237 59.8948 52.7584 60.0303 52.7584H63.7087C63.8443 52.7584 63.912 52.8237 63.912 52.9544C63.912 53.085 63.8443 53.1504 63.7087 53.1504H60.2336V55.4744H62.5665C62.702 55.4744 62.7698 55.5397 62.7698 55.6704C62.7698 55.801 62.702 55.8664 62.5665 55.8664H60.2336V58.2744H63.7087C63.8443 58.2744 63.912 58.3397 63.912 58.4704C63.912 58.601 63.8443 58.6664 63.7087 58.6664H60.0303ZM69.7667 58.6664C69.0794 58.6664 68.5792 58.517 68.2663 58.2184C67.9565 57.9166 67.8016 57.4344 67.8016 56.7717V54.653C67.8016 53.9841 67.9565 53.5019 68.2663 53.2064C68.5792 52.9077 69.0761 52.7584 69.757 52.7584H70.9283C71.5187 52.7584 71.9543 52.8766 72.2351 53.113C72.5158 53.3495 72.6674 53.7321 72.69 54.261C72.6965 54.3264 72.682 54.3777 72.6465 54.415C72.6142 54.4492 72.5642 54.4664 72.4964 54.4664C72.3641 54.4664 72.2931 54.401 72.2835 54.2704C72.2641 53.8504 72.1512 53.5595 71.9447 53.3977C71.7414 53.2328 71.4026 53.1504 70.9283 53.1504H69.757C69.3762 53.1504 69.0729 53.1986 68.8471 53.295C68.6212 53.3915 68.4582 53.5501 68.3582 53.771C68.2582 53.9888 68.2082 54.2828 68.2082 54.653V56.7717C68.2082 57.1388 68.2582 57.4328 68.3582 57.6537C68.4615 57.8715 68.626 58.0301 68.8519 58.1297C69.081 58.2261 69.3859 58.2744 69.7667 58.2744H70.9283C71.4026 58.2744 71.7414 58.1935 71.9447 58.0317C72.1512 57.8668 72.2641 57.5744 72.2835 57.1544C72.2931 57.0237 72.3641 56.9584 72.4964 56.9584C72.5642 56.9584 72.6142 56.977 72.6465 57.0144C72.682 57.0486 72.6965 57.0984 72.69 57.1637C72.6674 57.6895 72.5158 58.0721 72.2351 58.3117C71.9543 58.5481 71.5187 58.6664 70.9283 58.6664H69.7667ZM77.4121 58.6664C77.3444 58.6664 77.2927 58.6508 77.2572 58.6197C77.225 58.5855 77.2088 58.5357 77.2088 58.4704V52.9544C77.2088 52.889 77.225 52.8408 77.2572 52.8097C77.2927 52.7755 77.3444 52.7584 77.4121 52.7584C77.4799 52.7584 77.5299 52.7755 77.5622 52.8097C77.5977 52.8408 77.6154 52.889 77.6154 52.9544V55.4744H81.71V52.9544C81.71 52.889 81.7262 52.8408 81.7584 52.8097C81.7939 52.7755 81.8456 52.7584 81.9133 52.7584C81.9811 52.7584 82.0311 52.7755 82.0634 52.8097C82.0989 52.8408 82.1166 52.889 82.1166 52.9544V58.4704C82.1166 58.5357 82.0989 58.5855 82.0634 58.6197C82.0311 58.6508 81.9811 58.6664 81.9133 58.6664C81.8456 58.6664 81.7939 58.6508 81.7584 58.6197C81.7262 58.5855 81.71 58.5357 81.71 58.4704V55.8664H77.6154V58.4704C77.6154 58.5357 77.5977 58.5855 77.5622 58.6197C77.5299 58.6508 77.4799 58.6664 77.4121 58.6664ZM87.0323 58.6664C86.8968 58.6664 86.829 58.601 86.829 58.4704V52.9544C86.829 52.8237 86.8968 52.7584 87.0323 52.7584C87.1065 52.7584 87.1775 52.7957 87.2453 52.8704L91.4174 58.0317H91.3302V52.9544C91.3302 52.8237 91.398 52.7584 91.5335 52.7584C91.669 52.7584 91.7368 52.8237 91.7368 52.9544V58.4704C91.7368 58.601 91.669 58.6664 91.5335 58.6664C91.4593 58.6664 91.3883 58.629 91.3205 58.5544L87.1485 53.393H87.2356V58.4704C87.2356 58.601 87.1678 58.6664 87.0323 58.6664ZM98.3174 58.6664C97.6302 58.6664 97.13 58.517 96.817 58.2184C96.5073 57.9166 96.3524 57.4344 96.3524 56.7717V54.653C96.3524 53.9841 96.5073 53.5004 96.817 53.2017C97.13 52.8999 97.6269 52.7521 98.3078 52.7584H99.479C100.166 52.7584 100.665 52.9092 100.975 53.211C101.288 53.5097 101.444 53.9904 101.444 54.653V56.7717C101.444 57.4344 101.288 57.9166 100.975 58.2184C100.665 58.517 100.166 58.6664 99.479 58.6664H98.3174ZM98.3174 58.2744H99.479C99.8598 58.2744 100.163 58.2261 100.389 58.1297C100.618 58.0301 100.783 57.8715 100.883 57.6537C100.986 57.4328 101.038 57.1388 101.038 56.7717V54.653C101.038 54.2859 100.986 53.9935 100.883 53.7757C100.783 53.5548 100.618 53.3961 100.389 53.2997C100.163 53.2001 99.8598 53.1504 99.479 53.1504H98.3078C97.927 53.1472 97.6237 53.1939 97.3978 53.2904C97.172 53.3868 97.009 53.5455 96.909 53.7664C96.809 53.9872 96.759 54.2828 96.759 54.653V56.7717C96.759 57.1388 96.809 57.4328 96.909 57.6537C97.0122 57.8715 97.1768 58.0301 97.4027 58.1297C97.6318 58.2261 97.9367 58.2744 98.3174 58.2744ZM106.263 58.6664C106.127 58.6664 106.06 58.601 106.06 58.4704V52.9544C106.06 52.8237 106.127 52.7584 106.263 52.7584C106.398 52.7584 106.466 52.8237 106.466 52.9544V58.2744H109.496C109.632 58.2744 109.699 58.3397 109.699 58.4704C109.699 58.601 109.632 58.6664 109.496 58.6664H106.263ZM115.409 58.6664C114.722 58.6664 114.221 58.517 113.908 58.2184C113.599 57.9166 113.444 57.4344 113.444 56.7717V54.653C113.444 53.9841 113.599 53.5004 113.908 53.2017C114.221 52.8999 114.718 52.7521 115.399 52.7584H116.57C117.258 52.7584 117.756 52.9092 118.066 53.211C118.379 53.5097 118.535 53.9904 118.535 54.653V56.7717C118.535 57.4344 118.379 57.9166 118.066 58.2184C117.756 58.517 117.258 58.6664 116.57 58.6664H115.409ZM115.409 58.2744H116.57C116.951 58.2744 117.254 58.2261 117.48 58.1297C117.709 58.0301 117.874 57.8715 117.974 57.6537C118.077 57.4328 118.129 57.1388 118.129 56.7717V54.653C118.129 54.2859 118.077 53.9935 117.974 53.7757C117.874 53.5548 117.709 53.3961 117.48 53.2997C117.254 53.2001 116.951 53.1504 116.57 53.1504H115.399C115.018 53.1472 114.715 53.1939 114.489 53.2904C114.263 53.3868 114.1 53.5455 114 53.7664C113.9 53.9872 113.85 54.2828 113.85 54.653V56.7717C113.85 57.1388 113.9 57.4328 114 57.6537C114.104 57.8715 114.268 58.0301 114.494 58.1297C114.723 58.2261 115.028 58.2744 115.409 58.2744ZM125.019 58.6664C124.332 58.6664 123.832 58.517 123.519 58.2184C123.209 57.9166 123.054 57.4344 123.054 56.7717V54.653C123.054 53.9841 123.209 53.5019 123.519 53.2064C123.832 52.9077 124.329 52.7584 125.01 52.7584H126.181C126.771 52.7584 127.207 52.8766 127.488 53.113C127.768 53.3495 127.92 53.7321 127.943 54.261C127.949 54.3264 127.935 54.3777 127.899 54.415C127.867 54.4492 127.817 54.4664 127.749 54.4664C127.617 54.4664 127.546 54.401 127.536 54.2704C127.517 53.8504 127.404 53.5595 127.197 53.3977C126.994 53.2328 126.655 53.1504 126.181 53.1504H125.01C124.629 53.1504 124.326 53.1986 124.1 53.295C123.874 53.3915 123.711 53.5501 123.611 53.771C123.511 53.9888 123.461 54.2828 123.461 54.653V56.7717C123.461 57.1388 123.511 57.4328 123.611 57.6537C123.714 57.8715 123.879 58.0301 124.105 58.1297C124.334 58.2261 124.639 58.2744 125.019 58.2744H126.181C126.523 58.2744 126.792 58.2339 126.989 58.153C127.189 58.069 127.331 57.9321 127.415 57.7424C127.502 57.5495 127.546 57.2881 127.546 56.9584V56.3237L126.384 56.3144C126.249 56.3144 126.181 56.249 126.181 56.1184C126.181 55.9877 126.249 55.9224 126.384 55.9224L127.749 55.9317C127.885 55.9317 127.952 55.997 127.952 56.1277V56.9584C127.952 57.5588 127.814 57.9944 127.536 58.265C127.259 58.5326 126.807 58.6664 126.181 58.6664H125.019ZM132.674 58.6664C132.616 58.6664 132.568 58.6477 132.529 58.6104C132.491 58.573 132.471 58.5264 132.471 58.4704V52.945C132.471 52.889 132.491 52.8424 132.529 52.805C132.568 52.7677 132.616 52.749 132.674 52.749C132.733 52.749 132.781 52.7677 132.82 52.805C132.858 52.8424 132.878 52.889 132.878 52.945V58.4704C132.878 58.5264 132.858 58.573 132.82 58.6104C132.781 58.6477 132.733 58.6664 132.674 58.6664ZM137.793 58.6664C137.658 58.6664 137.59 58.601 137.59 58.4704V52.9544C137.59 52.8237 137.658 52.7584 137.793 52.7584H141.472C141.607 52.7584 141.675 52.8237 141.675 52.9544C141.675 53.085 141.607 53.1504 141.472 53.1504H137.997V55.4744H140.33C140.465 55.4744 140.533 55.5397 140.533 55.6704C140.533 55.801 140.465 55.8664 140.33 55.8664H137.997V58.2744H141.472C141.607 58.2744 141.675 58.3397 141.675 58.4704C141.675 58.601 141.607 58.6664 141.472 58.6664H137.793ZM147.443 58.657C146.859 58.657 146.431 58.5279 146.16 58.2697C145.892 58.0115 145.758 57.6024 145.758 57.0424C145.758 56.9864 145.778 56.9397 145.816 56.9024C145.855 56.865 145.904 56.8464 145.962 56.8464C146.02 56.8464 146.068 56.865 146.107 56.9024C146.146 56.9397 146.165 56.9864 146.165 57.0424C146.165 57.4935 146.258 57.8108 146.446 57.9944C146.636 58.1748 146.968 58.265 147.443 58.265H148.837C149.311 58.265 149.642 58.1748 149.829 57.9944C150.019 57.8108 150.114 57.4935 150.114 57.0424C150.114 56.5881 150.019 56.2708 149.829 56.0904C149.642 55.9099 149.311 55.8197 148.837 55.8197H147.472C146.917 55.8197 146.512 55.6984 146.257 55.4557C146.002 55.2099 145.874 54.821 145.874 54.289C145.874 53.757 146 53.3697 146.252 53.127C146.507 52.8812 146.91 52.7584 147.462 52.7584H148.885C149.437 52.7584 149.838 52.8797 150.09 53.1224C150.345 53.365 150.473 53.7508 150.473 54.2797C150.473 54.3357 150.453 54.3824 150.414 54.4197C150.376 54.457 150.327 54.4757 150.269 54.4757C150.211 54.4757 150.163 54.457 150.124 54.4197C150.085 54.3824 150.066 54.3357 150.066 54.2797C150.066 53.8628 149.977 53.5704 149.8 53.4024C149.626 53.2344 149.321 53.1504 148.885 53.1504H147.462C147.026 53.1504 146.72 53.2359 146.542 53.407C146.368 53.575 146.281 53.869 146.281 54.289C146.281 54.709 146.37 55.0046 146.547 55.1757C146.725 55.3437 147.033 55.4277 147.472 55.4277H148.837C149.424 55.4277 149.851 55.5568 150.119 55.815C150.387 56.0733 150.521 56.4824 150.521 57.0424C150.521 57.6024 150.387 58.0115 150.119 58.2697C149.851 58.5279 149.424 58.657 148.837 58.657H147.443Z"
            fill="#7A8AA0" />
    </g>
    <defs>
        <clipPath id="clip0_14515_3347">
            <rect width="132" height="42" fill="white" transform="translate(34 24)" />
        </clipPath>
    </defs>
</svg>