<svg width="200" height="84" viewBox="0 0 200 84" fill="none" xmlns="http://www.w3.org/2000/svg">
    <path fill-rule="evenodd" clip-rule="evenodd"
        d="M50.4808 44.2347L41.9587 29.76L36.2078 39.5279L36.2067 39.526L33.4291 44.1487L33.468 44.1494L31.1089 47.8529L31.1863 47.8247L41.8623 54.2399V54.0774L41.8623 54.0773V54.2399L52.571 47.8051L52.4598 47.7382L52.5785 47.7814L50.4486 44.2566V44.2347H50.4808ZM123.59 36.3102H121.812V34.6794H123.59V36.3102ZM123.59 45.4898H121.812V37.5204H123.59V45.4898ZM62.185 45.4898V34.8639H66.5756C66.9002 34.8639 67.1831 34.8836 67.4241 34.9229C68.3195 35.0607 68.9934 35.4346 69.446 36.0446C69.9035 36.6496 70.1323 37.4097 70.1323 38.3247C70.1323 38.9199 70.0314 39.4562 69.8297 39.9333C69.6329 40.4105 69.3304 40.8041 68.9221 41.114C68.5187 41.4239 68.0194 41.6256 67.4241 41.7191C67.1831 41.7584 66.9002 41.7781 66.5756 41.7781H63.9634V45.4898H62.185ZM66.5018 40.1178C66.7773 40.1178 67.0011 40.0932 67.1733 40.044C67.5816 39.9407 67.8767 39.7267 68.0588 39.402C68.2457 39.0774 68.3392 38.7182 68.3392 38.3247C68.3392 37.9311 68.2457 37.572 68.0588 37.2473C67.8767 36.9178 67.5816 36.7013 67.1733 36.598C66.9962 36.5537 66.7723 36.5316 66.5018 36.5316H63.9634V40.1178H66.5018ZM73.9793 37.941C74.2007 37.7885 74.4516 37.6753 74.732 37.6015C75.0124 37.5228 75.3001 37.4835 75.5953 37.4835C75.7478 37.4835 75.9151 37.4958 76.0971 37.5204V39.1807C75.9101 39.1315 75.7183 39.1069 75.5215 39.1069C75.1132 39.1069 74.7566 39.1954 74.4516 39.3725C74.0974 39.5644 73.8317 39.8374 73.6546 40.1916C73.4824 40.5458 73.3964 40.9615 73.3964 41.4387V45.4898H71.6106V37.5204H73.1824V38.797C73.3988 38.4231 73.6645 38.1378 73.9793 37.941ZM82.6395 37.5204L80.4775 43.2244L78.249 37.5204H76.3969L79.6215 45.4307L78.308 49.0317H79.9757L84.4179 37.5204H82.6395ZM88.5955 45.7111C87.6116 45.7111 86.8122 45.4898 86.1973 45.047C85.5824 44.6043 85.2085 43.982 85.0757 43.1801L86.8909 42.8997C86.9795 43.2982 87.1836 43.6106 87.5034 43.8369C87.8281 44.0582 88.2339 44.1689 88.7209 44.1689C89.144 44.1689 89.4736 44.0853 89.7097 43.918C89.9459 43.7458 90.0639 43.5122 90.0639 43.217C90.0639 43.0252 90.0172 42.8776 89.9237 42.7743C89.8352 42.671 89.6556 42.5701 89.3851 42.4717C89.1145 42.3684 88.6644 42.2331 88.0347 42.0659C87.3607 41.8888 86.827 41.6994 86.4334 41.4977C86.0448 41.2911 85.7644 41.05 85.5922 40.7745C85.42 40.4941 85.3339 40.1522 85.3339 39.7489C85.3339 39.2569 85.4618 38.8265 85.7177 38.4575C85.9784 38.0886 86.3449 37.8032 86.8171 37.6015C87.2943 37.3999 87.8453 37.299 88.47 37.299C89.085 37.299 89.6335 37.3949 90.1156 37.5868C90.5977 37.7786 90.9863 38.0541 91.2815 38.4132C91.5816 38.7674 91.7636 39.1807 91.8275 39.6529L90.0123 39.9776C89.9631 39.6382 89.8057 39.3701 89.54 39.1733C89.2793 38.9765 88.9325 38.8658 88.4996 38.8412C88.0814 38.8216 87.7444 38.888 87.4886 39.0405C87.2328 39.188 87.1049 39.3947 87.1049 39.6603C87.1049 39.8226 87.1566 39.9555 87.2599 40.0588C87.3681 40.1621 87.5723 40.2678 87.8723 40.3761C88.1724 40.4794 88.6422 40.6122 89.2817 40.7745C89.9262 40.9418 90.4353 41.1287 90.8092 41.3354C91.188 41.542 91.461 41.7904 91.6283 42.0806C91.8005 42.366 91.8866 42.7177 91.8866 43.1358C91.8866 43.6671 91.7537 44.1271 91.4881 44.5157C91.2274 44.8994 90.8486 45.1946 90.3517 45.4012C89.8598 45.6078 89.2744 45.7111 88.5955 45.7111ZM103.597 37.6827C103.189 37.4417 102.697 37.3211 102.122 37.3211C101.605 37.3211 101.133 37.4343 100.705 37.6606C100.277 37.8819 99.9398 38.1919 99.6938 38.5903C99.4774 38.1919 99.1724 37.8819 98.7788 37.6606C98.3853 37.4343 97.9155 37.3211 97.3694 37.3211C96.8972 37.3211 96.4594 37.4146 96.056 37.6015C95.6575 37.7885 95.3254 38.0492 95.0598 38.3837V37.5204H93.488V45.4898H95.2812V40.5827C95.2812 40.2531 95.3427 39.9628 95.4656 39.712C95.5886 39.4562 95.7633 39.2594 95.9895 39.1216C96.2158 38.979 96.479 38.9076 96.7791 38.9076C97.2464 38.9076 97.6154 39.0651 97.886 39.3799C98.1565 39.6898 98.2918 40.1203 98.2918 40.6712V45.4898H100.063V40.5827C100.063 40.2383 100.127 39.9407 100.255 39.6898C100.387 39.434 100.567 39.2397 100.793 39.1069C101.025 38.9741 101.283 38.9076 101.568 38.9076C102.031 38.9076 102.397 39.0626 102.668 39.3725C102.938 39.6824 103.073 40.108 103.073 40.6491V45.4898H104.852V40.199C104.852 39.6185 104.746 39.1143 104.535 38.6863C104.323 38.2534 104.011 37.9188 103.597 37.6827ZM113.3 39.5791C113.339 39.8497 113.359 40.1891 113.359 40.5974V45.4898H111.802V44.4198C111.462 44.8675 111.069 45.1946 110.621 45.4012C110.173 45.6078 109.635 45.7111 109.005 45.7111C108.444 45.7111 107.962 45.6054 107.559 45.3938C107.16 45.1774 106.855 44.8871 106.644 44.5231C106.437 44.1591 106.334 43.7532 106.334 43.3056C106.334 42.7202 106.479 42.2307 106.769 41.8371C107.064 41.4436 107.524 41.1386 108.149 40.9221C108.498 40.809 108.899 40.7131 109.352 40.6343C109.809 40.5507 110.461 40.4449 111.307 40.317L111.617 40.2728C111.583 39.8103 111.435 39.4709 111.174 39.2545C110.919 39.038 110.523 38.9298 109.986 38.9298C109.593 38.9298 109.234 39.0208 108.909 39.2028C108.589 39.3848 108.368 39.6652 108.245 40.044L106.622 39.5349C106.823 38.8363 107.207 38.2903 107.773 37.8967C108.338 37.4982 109.076 37.299 109.986 37.299C110.724 37.299 111.356 37.4195 111.883 37.6606C112.414 37.9016 112.805 38.2755 113.056 38.7822C113.184 39.038 113.265 39.3036 113.3 39.5791ZM111.418 42.9735C111.526 42.7128 111.585 42.2996 111.595 41.7338C110.823 41.8568 110.267 41.9503 109.927 42.0142C109.593 42.0733 109.298 42.147 109.042 42.2356C108.722 42.3537 108.481 42.4963 108.319 42.6636C108.156 42.8308 108.075 43.0375 108.075 43.2834C108.075 43.5835 108.186 43.827 108.407 44.014C108.634 44.2009 108.951 44.2944 109.359 44.2944C109.738 44.2944 110.07 44.2279 110.355 44.0951C110.646 43.9574 110.879 43.7877 111.056 43.586C111.233 43.3843 111.354 43.1801 111.418 42.9735ZM117.611 42.1323V38.915H119.951V37.5204H117.611V35.3067H115.84V37.5204H114.394V38.915H115.84V42.2356L115.833 42.9145C115.833 43.2539 115.853 43.5466 115.892 43.7926C115.932 44.0385 116.015 44.2771 116.143 44.5083C116.355 44.897 116.674 45.1823 117.102 45.3643C117.53 45.5414 118.03 45.63 118.6 45.63C119.018 45.63 119.469 45.5832 119.951 45.4898V43.9992C119.596 44.0533 119.282 44.0804 119.006 44.0804C118.706 44.0804 118.453 44.041 118.246 43.9623C118.044 43.8836 117.887 43.7508 117.774 43.5638C117.705 43.4605 117.661 43.3302 117.641 43.1727C117.621 43.0153 117.611 42.8087 117.611 42.5529V42.1323ZM127.173 45.1725C127.763 45.5316 128.46 45.7111 129.261 45.7111C130.152 45.7111 130.904 45.4947 131.519 45.0618C132.134 44.624 132.565 43.9992 132.811 43.1875L130.995 42.7816C130.853 43.2047 130.644 43.522 130.368 43.7335C130.093 43.9402 129.724 44.0435 129.261 44.0435C128.607 44.0435 128.108 43.8172 127.763 43.3646C127.419 42.9071 127.244 42.2873 127.24 41.5051C127.244 40.7376 127.414 40.1227 127.749 39.6603C128.088 39.1979 128.592 38.9667 129.261 38.9667C129.67 38.9667 130.034 39.0872 130.354 39.3282C130.678 39.5693 130.907 39.9014 131.04 40.3244L132.811 39.8448C132.688 39.3233 132.461 38.8732 132.132 38.4944C131.807 38.1107 131.401 37.8155 130.914 37.6089C130.427 37.4023 129.884 37.299 129.284 37.299C128.492 37.299 127.798 37.4786 127.203 37.8377C126.612 38.1968 126.157 38.6961 125.838 39.3356C125.518 39.9702 125.358 40.6934 125.358 41.5051C125.363 42.3118 125.52 43.035 125.83 43.6745C126.14 44.3091 126.588 44.8084 127.173 45.1725ZM143.863 45.4898H137.392V34.8639H139.17V43.8221H143.863V45.4898ZM151.695 40.5974C151.695 40.1891 151.675 39.8497 151.636 39.5791C151.602 39.3036 151.52 39.038 151.393 38.7822C151.142 38.2755 150.751 37.9016 150.219 37.6606C149.693 37.4195 149.061 37.299 148.323 37.299C147.413 37.299 146.675 37.4982 146.109 37.8967C145.543 38.2903 145.16 38.8363 144.958 39.5349L146.581 40.044C146.704 39.6652 146.926 39.3848 147.246 39.2028C147.57 39.0208 147.929 38.9298 148.323 38.9298C148.859 38.9298 149.255 39.038 149.511 39.2545C149.772 39.4709 149.919 39.8103 149.954 40.2728L149.644 40.317C148.798 40.4449 148.146 40.5507 147.688 40.6343C147.236 40.7131 146.835 40.809 146.486 40.9221C145.861 41.1386 145.401 41.4436 145.106 41.8371C144.815 42.2307 144.67 42.7202 144.67 43.3056C144.67 43.7532 144.774 44.1591 144.98 44.5231C145.192 44.8871 145.497 45.1774 145.895 45.3938C146.299 45.6054 146.781 45.7111 147.341 45.7111C147.971 45.7111 148.51 45.6078 148.958 45.4012C149.405 45.1946 149.799 44.8675 150.138 44.4198V45.4898H151.695V40.5974ZM149.932 41.7338C149.922 42.2996 149.863 42.7128 149.754 42.9735C149.69 43.1801 149.57 43.3843 149.393 43.586C149.216 43.7877 148.982 43.9574 148.692 44.0951C148.407 44.2279 148.074 44.2944 147.696 44.2944C147.287 44.2944 146.97 44.2009 146.744 44.014C146.522 43.827 146.412 43.5835 146.412 43.2834C146.412 43.0375 146.493 42.8308 146.655 42.6636C146.818 42.4963 147.059 42.3537 147.378 42.2356C147.634 42.147 147.929 42.0733 148.264 42.0142C148.603 41.9503 149.159 41.8568 149.932 41.7338ZM157.38 37.299C158.117 37.299 158.767 37.481 159.328 37.8451C159.888 38.2042 160.321 38.7035 160.626 39.343C160.931 39.9776 161.084 40.6983 161.084 41.5051C161.084 42.302 160.934 43.0202 160.634 43.6598C160.334 44.2944 159.906 44.7961 159.35 45.1651C158.799 45.5291 158.164 45.7111 157.446 45.7111C156.526 45.7111 155.768 45.4406 155.173 44.8994V45.4898H153.601V34.8639H155.395V37.9115C155.95 37.5032 156.612 37.299 157.38 37.299ZM157.173 44.1173C157.621 44.1173 157.994 44.0041 158.295 43.7778C158.6 43.5515 158.826 43.2416 158.973 42.8481C159.126 42.4545 159.202 42.0068 159.202 41.5051C159.202 41.0082 159.126 40.563 158.973 40.1695C158.821 39.7759 158.587 39.466 158.272 39.2397C157.963 39.0085 157.576 38.8929 157.114 38.8929C156.46 38.8929 155.973 39.1266 155.653 39.5939C155.333 40.0563 155.173 40.6934 155.173 41.5051C155.173 42.3168 155.336 42.9563 155.66 43.4236C155.985 43.886 156.489 44.1173 157.173 44.1173ZM163.202 45.047C163.817 45.4898 164.616 45.7111 165.6 45.7111C166.279 45.7111 166.864 45.6078 167.356 45.4012C167.853 45.1946 168.232 44.8994 168.493 44.5157C168.758 44.1271 168.891 43.6671 168.891 43.1358C168.891 42.7177 168.805 42.366 168.633 42.0806C168.466 41.7904 168.193 41.542 167.814 41.3354C167.44 41.1287 166.931 40.9418 166.286 40.7745C165.647 40.6122 165.177 40.4794 164.877 40.3761C164.577 40.2678 164.373 40.1621 164.264 40.0588C164.161 39.9555 164.109 39.8226 164.109 39.6603C164.109 39.3947 164.237 39.188 164.493 39.0405C164.749 38.888 165.086 38.8216 165.504 38.8412C165.937 38.8658 166.284 38.9765 166.545 39.1733C166.81 39.3701 166.968 39.6382 167.017 39.9776L168.832 39.6529C168.768 39.1807 168.586 38.7674 168.286 38.4132C167.991 38.0541 167.602 37.7786 167.12 37.5868C166.638 37.3949 166.09 37.299 165.475 37.299C164.85 37.299 164.299 37.3999 163.822 37.6015C163.349 37.8032 162.983 38.0886 162.722 38.4575C162.466 38.8265 162.339 39.2569 162.339 39.7489C162.339 40.1522 162.425 40.4941 162.597 40.7745C162.769 41.05 163.049 41.2911 163.438 41.4977C163.832 41.6994 164.365 41.8888 165.039 42.0659C165.669 42.2331 166.119 42.3684 166.39 42.4717C166.66 42.5701 166.84 42.671 166.928 42.7743C167.022 42.8776 167.068 43.0252 167.068 43.217C167.068 43.5122 166.95 43.7458 166.714 43.918C166.478 44.0853 166.149 44.1689 165.725 44.1689C165.238 44.1689 164.833 44.0582 164.508 43.8369C164.188 43.6106 163.984 43.2982 163.895 42.8997L162.08 43.1801C162.213 43.982 162.587 44.6043 163.202 45.047Z"
        fill="#7A8AA0" />
</svg>