<svg width="200" height="84" viewBox="0 0 200 84" fill="none" xmlns="http://www.w3.org/2000/svg">
    <path
        d="M67.1511 36.2113H70.6431C71.3736 36.2113 72.0007 36.3213 72.5244 36.5414C73.048 36.7614 73.4507 37.0871 73.7324 37.5183C74.014 37.9496 74.1548 38.4799 74.1548 39.1092C74.1548 39.6064 74.0668 40.0377 73.8908 40.403C73.7148 40.7682 73.4661 41.0741 73.1449 41.3205C72.828 41.5669 72.454 41.7606 72.0227 41.9014L71.455 42.1918H68.3723L68.3591 40.7594H70.6629C71.0369 40.7594 71.3472 40.6934 71.5936 40.5614C71.8401 40.4294 72.0249 40.2467 72.1481 40.0135C72.2757 39.7803 72.3395 39.514 72.3395 39.2148C72.3395 38.8935 72.2779 38.6163 72.1547 38.3831C72.0315 38.1454 71.8445 37.9628 71.5936 37.8352C71.3428 37.7075 71.0259 37.6437 70.6431 37.6437H68.9664V45.8224H67.1511V36.2113ZM72.5772 45.8224L70.3526 41.5185L72.2735 41.5119L74.5245 45.73V45.8224H72.5772Z"
        fill="#7A8AA0" />
    <path
        d="M80.5365 42.3239V42.1852C80.5365 41.6616 80.6113 41.1797 80.7609 40.7396C80.9106 40.2951 81.1284 39.9101 81.4144 39.5844C81.7005 39.2588 82.0503 39.0057 82.464 38.8253C82.8777 38.6405 83.3485 38.5481 83.8766 38.5481C84.4135 38.5481 84.8888 38.6405 85.3024 38.8253C85.7205 39.0057 86.0726 39.2588 86.3586 39.5844C86.6446 39.9101 86.8625 40.2951 87.0121 40.7396C87.1617 41.1797 87.2365 41.6616 87.2365 42.1852V42.3239C87.2365 42.8431 87.1617 43.325 87.0121 43.7695C86.8625 44.2095 86.6446 44.5946 86.3586 44.9247C86.0726 45.2503 85.7227 45.5033 85.309 45.6838C84.8954 45.8642 84.4223 45.9544 83.8898 45.9544C83.3617 45.9544 82.8887 45.8642 82.4706 45.6838C82.0525 45.5033 81.7005 45.2503 81.4144 44.9247C81.1284 44.5946 80.9106 44.2095 80.7609 43.7695C80.6113 43.325 80.5365 42.8431 80.5365 42.3239ZM82.2792 42.1852V42.3239C82.2792 42.6363 82.31 42.9289 82.3716 43.2018C82.4332 43.4746 82.5278 43.7145 82.6554 43.9213C82.7831 44.1281 82.9481 44.291 83.1505 44.4098C83.3573 44.5242 83.6038 44.5814 83.8898 44.5814C84.1715 44.5814 84.4135 44.5242 84.6159 44.4098C84.8184 44.291 84.9834 44.1281 85.111 43.9213C85.243 43.7145 85.3398 43.4746 85.4015 43.2018C85.4631 42.9289 85.4939 42.6363 85.4939 42.3239V42.1852C85.4939 41.8772 85.4631 41.5889 85.4015 41.3205C85.3398 41.0477 85.243 40.8078 85.111 40.601C84.9834 40.3898 84.8162 40.2247 84.6093 40.1059C84.4069 39.9827 84.1627 39.9211 83.8766 39.9211C83.595 39.9211 83.3529 39.9827 83.1505 40.1059C82.9481 40.2247 82.7831 40.3898 82.6554 40.601C82.5278 40.8078 82.4332 41.0477 82.3716 41.3205C82.31 41.5889 82.2792 41.8772 82.2792 42.1852Z"
        fill="#7A8AA0" />
    <path
        d="M96.6679 44.5814C96.9143 44.5814 97.1344 44.533 97.328 44.4362C97.5216 44.3394 97.6756 44.2029 97.7901 44.0269C97.9089 43.8509 97.9727 43.6463 97.9815 43.413H99.6251C99.6163 43.8971 99.4799 44.3306 99.2159 44.7134C98.9518 45.0963 98.5998 45.3999 98.1597 45.6244C97.724 45.8444 97.2356 45.9544 96.6943 45.9544C96.1442 45.9544 95.6645 45.862 95.2553 45.6772C94.846 45.4923 94.505 45.2349 94.2321 44.9048C93.9637 44.5748 93.7612 44.1919 93.6248 43.7563C93.4928 43.3206 93.4268 42.8541 93.4268 42.3569V42.1456C93.4268 41.6484 93.4928 41.1819 93.6248 40.7462C93.7612 40.3105 93.9637 39.9277 94.2321 39.5976C94.505 39.2676 94.846 39.0101 95.2553 38.8253C95.6645 38.6405 96.142 38.5481 96.6877 38.5481C97.2642 38.5481 97.7703 38.6603 98.2059 38.8847C98.646 39.1092 98.9892 39.426 99.2357 39.8353C99.4865 40.2445 99.6163 40.7264 99.6251 41.2809H97.9815C97.9727 41.0257 97.9155 40.7968 97.8099 40.5944C97.7042 40.392 97.5546 40.2291 97.361 40.1059C97.1674 39.9827 96.9319 39.9211 96.6547 39.9211C96.3598 39.9211 96.1134 39.9827 95.9154 40.1059C95.7217 40.2291 95.5699 40.3986 95.4599 40.6142C95.3543 40.8254 95.2795 41.0631 95.2355 41.3271C95.1959 41.5867 95.1761 41.8596 95.1761 42.1456V42.3569C95.1761 42.6473 95.1959 42.9245 95.2355 43.1886C95.2795 43.4526 95.3543 43.6903 95.4599 43.9015C95.5699 44.1083 95.7217 44.2734 95.9154 44.3966C96.1134 44.5198 96.3642 44.5814 96.6679 44.5814Z"
        fill="#7A8AA0" />
    <path
        d="M107.763 35.6766V45.8224H106.02V35.6766H107.763ZM112.238 38.6801L109.129 42.172L107.446 43.8817L106.891 42.5285L108.192 40.8914L110.132 38.6801H112.238ZM110.456 45.8224L108.245 42.4955L109.406 41.3667L112.476 45.8224H110.456Z"
        fill="#7A8AA0" />
    <path d="M124.554 44.786V45.8224H119.749V44.786H124.554ZM119.999 36.2113V45.8224H118.725V36.2113H119.999Z"
        fill="#7A8AA0" />
    <path
        d="M130.738 42.3305V42.1786C130.738 41.6638 130.813 41.1863 130.962 40.7462C131.112 40.3017 131.328 39.9167 131.609 39.591C131.891 39.261 132.232 39.0057 132.632 38.8253C133.033 38.6405 133.482 38.5481 133.979 38.5481C134.481 38.5481 134.932 38.6405 135.332 38.8253C135.737 39.0057 136.08 39.261 136.362 39.591C136.648 39.9167 136.866 40.3017 137.015 40.7462C137.165 41.1863 137.24 41.6638 137.24 42.1786V42.3305C137.24 42.8453 137.165 43.3228 137.015 43.7629C136.866 44.2029 136.648 44.588 136.362 44.9181C136.08 45.2437 135.739 45.4989 135.339 45.6838C134.943 45.8642 134.494 45.9544 133.992 45.9544C133.49 45.9544 133.039 45.8642 132.639 45.6838C132.238 45.4989 131.895 45.2437 131.609 44.9181C131.328 44.588 131.112 44.2029 130.962 43.7629C130.813 43.3228 130.738 42.8453 130.738 42.3305ZM131.959 42.1786V42.3305C131.959 42.6869 132.001 43.0236 132.084 43.3404C132.168 43.6529 132.293 43.9301 132.461 44.1721C132.632 44.4142 132.846 44.6056 133.101 44.7464C133.356 44.8828 133.653 44.9511 133.992 44.9511C134.327 44.9511 134.619 44.8828 134.87 44.7464C135.125 44.6056 135.337 44.4142 135.504 44.1721C135.671 43.9301 135.796 43.6529 135.88 43.3404C135.968 43.0236 136.012 42.6869 136.012 42.3305V42.1786C136.012 41.8266 135.968 41.4943 135.88 41.1819C135.796 40.865 135.669 40.5856 135.497 40.3436C135.33 40.0971 135.119 39.9035 134.863 39.7627C134.613 39.6218 134.318 39.5514 133.979 39.5514C133.644 39.5514 133.35 39.6218 133.094 39.7627C132.844 39.9035 132.632 40.0971 132.461 40.3436C132.293 40.5856 132.168 40.865 132.084 41.1819C132.001 41.4943 131.959 41.8266 131.959 42.1786Z"
        fill="#7A8AA0" />
    <path
        d="M148.632 38.6801H149.741V45.6706C149.741 46.2999 149.613 46.8367 149.358 47.2812C149.103 47.7257 148.746 48.0623 148.288 48.2912C147.835 48.5244 147.311 48.641 146.717 48.641C146.471 48.641 146.181 48.6014 145.846 48.5222C145.516 48.4474 145.19 48.3176 144.869 48.1327C144.552 47.9523 144.286 47.7081 144.07 47.4L144.711 46.6739C145.01 47.0348 145.322 47.2856 145.648 47.4264C145.978 47.5673 146.304 47.6377 146.625 47.6377C147.012 47.6377 147.347 47.5651 147.628 47.4198C147.91 47.2746 148.128 47.059 148.282 46.7729C148.44 46.4913 148.519 46.1436 148.519 45.73V40.2511L148.632 38.6801ZM143.714 42.3305V42.1918C143.714 41.6461 143.778 41.1511 143.905 40.7066C144.037 40.2577 144.224 39.8727 144.466 39.5514C144.713 39.2302 145.01 38.9837 145.358 38.8121C145.705 38.6361 146.097 38.5481 146.533 38.5481C146.981 38.5481 147.373 38.6273 147.708 38.7857C148.046 38.9397 148.332 39.1664 148.566 39.4656C148.803 39.7605 148.99 40.1169 149.127 40.535C149.263 40.953 149.358 41.4261 149.411 41.9542V42.5615C149.362 43.0852 149.268 43.556 149.127 43.9741C148.99 44.3922 148.803 44.7486 148.566 45.0435C148.332 45.3383 148.046 45.5649 147.708 45.7234C147.369 45.8774 146.973 45.9544 146.519 45.9544C146.092 45.9544 145.705 45.8642 145.358 45.6838C145.014 45.5033 144.719 45.2503 144.473 44.9247C144.227 44.599 144.037 44.2161 143.905 43.7761C143.778 43.3316 143.714 42.8497 143.714 42.3305ZM144.935 42.1918V42.3305C144.935 42.6869 144.97 43.0214 145.041 43.3338C145.116 43.6463 145.228 43.9213 145.377 44.1589C145.531 44.3966 145.727 44.5836 145.965 44.72C146.203 44.852 146.486 44.9181 146.816 44.9181C147.221 44.9181 147.556 44.8322 147.82 44.6606C148.084 44.489 148.293 44.2624 148.447 43.9807C148.605 43.6991 148.729 43.3932 148.817 43.0632V41.4723C148.768 41.2303 148.693 40.9971 148.592 40.7726C148.495 40.5438 148.368 40.3414 148.209 40.1653C148.055 39.9849 147.864 39.8419 147.635 39.7363C147.406 39.6306 147.138 39.5778 146.83 39.5778C146.495 39.5778 146.207 39.6482 145.965 39.7891C145.727 39.9255 145.531 40.1147 145.377 40.3568C145.228 40.5944 145.116 40.8716 145.041 41.1885C144.97 41.5009 144.935 41.8354 144.935 42.1918Z"
        fill="#7A8AA0" />
    <path
        d="M158.155 38.6801V45.8224H156.928V38.6801H158.155ZM156.835 36.7856C156.835 36.5876 156.895 36.4203 157.013 36.2839C157.137 36.1475 157.317 36.0793 157.555 36.0793C157.788 36.0793 157.966 36.1475 158.089 36.2839C158.217 36.4203 158.281 36.5876 158.281 36.7856C158.281 36.9748 158.217 37.1377 158.089 37.2741C157.966 37.4061 157.788 37.4721 157.555 37.4721C157.317 37.4721 157.137 37.4061 157.013 37.2741C156.895 37.1377 156.835 36.9748 156.835 36.7856Z"
        fill="#7A8AA0" />
    <path
        d="M168.207 44.9511C168.498 44.9511 168.766 44.8916 169.013 44.7728C169.259 44.654 169.461 44.4912 169.62 44.2844C169.778 44.0731 169.869 43.8333 169.891 43.5648H171.052C171.03 43.9873 170.887 44.3812 170.623 44.7464C170.364 45.1073 170.023 45.3999 169.6 45.6244C169.178 45.8444 168.713 45.9544 168.207 45.9544C167.67 45.9544 167.202 45.8598 166.801 45.6706C166.405 45.4813 166.075 45.2217 165.811 44.8916C165.551 44.5616 165.356 44.1831 165.224 43.7563C165.096 43.325 165.032 42.8695 165.032 42.3899V42.1126C165.032 41.6329 165.096 41.1797 165.224 40.7528C165.356 40.3215 165.551 39.9409 165.811 39.6108C166.075 39.2808 166.405 39.0211 166.801 38.8319C167.202 38.6427 167.67 38.5481 168.207 38.5481C168.766 38.5481 169.255 38.6625 169.673 38.8913C170.091 39.1158 170.419 39.4238 170.656 39.8155C170.898 40.2027 171.03 40.6428 171.052 41.1357H169.891C169.869 40.8408 169.785 40.5746 169.64 40.3369C169.499 40.0993 169.305 39.9101 169.059 39.7693C168.817 39.624 168.533 39.5514 168.207 39.5514C167.833 39.5514 167.519 39.6262 167.263 39.7759C167.013 39.9211 166.812 40.1191 166.663 40.37C166.517 40.6164 166.412 40.8914 166.346 41.1951C166.284 41.4943 166.253 41.8002 166.253 42.1126V42.3899C166.253 42.7023 166.284 43.0104 166.346 43.314C166.407 43.6177 166.511 43.8927 166.656 44.1391C166.806 44.3856 167.006 44.5836 167.257 44.7332C167.512 44.8784 167.829 44.9511 168.207 44.9511Z"
        fill="#7A8AA0" />
    <g opacity="0.8">
        <path
            d="M28.9477 28.9172H46.8275C51.524 28.9172 55.3313 32.7245 55.3313 37.421C55.3313 42.1176 51.524 45.9248 46.8275 45.9248H28.9477V28.9172Z"
            fill="#7A8AA0" />
    </g>
    <path opacity="0.8" d="M28.9477 28.9172L55.3313 55.0828H28.9477V28.9172Z" fill="#7A8AA0" />
    <path d="M28.9477 45.9248H46.097L28.9477 28.9172V45.9248Z" fill="#7A8AA0" />
</svg>