<svg width="200" height="84" viewBox="0 0 200 84" fill="none" xmlns="http://www.w3.org/2000/svg">
    <g clip-path="url(#clip0_14515_3466)">
        <path
            d="M107.926 38.7711C108.419 38.7711 108.879 38.7671 109.338 38.7711C109.779 38.7764 110.299 38.6491 110.635 38.8467C110.957 39.0363 111.09 39.5667 111.302 39.9499C112.379 41.9085 113.454 43.8696 114.531 45.8282C114.588 45.9329 114.65 46.0337 114.729 46.1716C114.79 46.0761 114.837 46.0112 114.876 45.9409C115.396 45.014 115.913 44.0858 116.441 43.1642C116.536 42.9984 116.531 42.8804 116.437 42.7173C115.739 41.5014 115.052 40.2801 114.362 39.0602C114.319 38.9859 114.283 38.9077 114.222 38.7883C114.355 38.7804 114.457 38.7698 114.558 38.7698C115.151 38.7684 115.747 38.8016 116.338 38.7592C116.791 38.726 117.072 38.848 117.251 39.3015C117.415 39.7152 117.666 40.0918 117.905 40.5334C118.208 40.0016 118.498 39.5176 118.762 39.0191C118.864 38.8255 118.985 38.7618 119.194 38.7658C119.958 38.7777 120.722 38.7711 121.55 38.7711C120.752 40.1687 119.979 41.5226 119.203 42.8804C119.807 43.9771 120.408 45.071 121.028 46.1981C121.615 45.1532 122.187 44.1348 122.759 43.1178C123.517 41.7706 124.28 40.4273 125.024 39.0734C125.155 38.8361 125.303 38.7605 125.559 38.7658C126.299 38.7817 127.039 38.7711 127.838 38.7711C127.695 39.031 127.581 39.2379 127.464 39.4434C125.699 42.5343 123.933 45.624 122.175 48.7202C122.055 48.9311 121.928 49.008 121.694 48.996C121.264 48.9761 120.83 48.9722 120.4 48.996C120.118 49.012 119.958 48.9231 119.817 48.6619C119.257 47.6316 118.669 46.6172 118.091 45.5974C118.028 45.4847 117.96 45.3747 117.871 45.2248C117.503 45.8666 117.155 46.47 116.81 47.0746C116.489 47.6355 116.167 48.1951 115.855 48.7627C115.767 48.9218 115.671 49 115.479 48.9947C114.962 48.9801 114.443 48.9987 113.926 48.9815C113.823 48.9775 113.677 48.9019 113.626 48.813C111.75 45.5338 109.881 42.2492 108.014 38.9647C107.988 38.9196 107.972 38.8692 107.928 38.7698L107.926 38.7711Z"
            fill="#7A8AA0" />
        <path d="M61.4168 48.9762H48.9877V38.7964H61.4168V48.9762ZM59.1221 46.608V41.1355H51.2992V46.608H59.1221Z"
            fill="#7A8AA0" />
        <path
            d="M35.2519 48.9734H33V38.7922H45.3916V45.1651H43.9969C44.375 46.8544 45.4356 47.9709 46.7772 48.992C46.5596 48.992 46.4275 48.992 46.2941 48.992C45.4964 48.992 44.6987 49.0013 43.901 48.984C43.7586 48.9814 43.5877 48.9071 43.4828 48.8077C42.4584 47.8357 41.8679 46.6237 41.6361 45.1996H35.2519V48.9734ZM43.1228 43.0925V41.134H35.274V43.0925H43.1241H43.1228Z"
            fill="#7A8AA0" />
        <path d="M76.5303 46.6145V48.9416H64.9365V38.7949H76.5239V41.1062H67.226V46.6145H76.5303Z" fill="#7A8AA0" />
        <path
            d="M141.28 48.9907C140.412 48.9907 139.586 49 138.759 48.9788C138.659 48.9761 138.537 48.8329 138.469 48.7255C137.047 46.4779 135.633 44.225 134.216 41.9748C134.059 41.7268 133.903 41.4802 133.725 41.2004C133.021 42.3182 132.34 43.3989 131.658 44.4809C130.766 45.8985 129.871 47.3133 128.988 48.7361C128.869 48.9271 128.743 49 128.523 48.996C127.752 48.9828 126.978 48.9907 126.152 48.9907C126.234 48.8422 126.286 48.7388 126.346 48.642C128.316 45.445 130.29 42.2506 132.253 39.0496C132.386 38.8321 132.529 38.7592 132.772 38.7658C133.44 38.7817 134.109 38.7618 134.777 38.7804C134.9 38.7844 135.071 38.8679 135.134 38.97C137.167 42.2559 139.19 45.5497 141.214 48.8409C141.231 48.8687 141.241 48.9006 141.28 48.9894V48.9907Z"
            fill="#7A8AA0" />
        <path
            d="M109.573 48.9908C108.708 48.9908 107.889 48.9988 107.072 48.9802C106.969 48.9775 106.838 48.8502 106.772 48.7468C105.262 46.36 103.76 43.9678 102.255 41.577C102.185 41.467 102.112 41.3582 102.019 41.215C101.935 41.3397 101.863 41.4404 101.796 41.5452C100.292 43.936 98.7844 46.3255 97.2874 48.7203C97.1631 48.9192 97.0336 49.0027 96.7979 48.9974C96.0352 48.9815 95.2711 48.9921 94.4592 48.9921C94.5291 48.8622 94.5744 48.768 94.6275 48.6792C96.5998 45.4702 98.5746 42.2613 100.542 39.0496C100.665 38.8494 100.79 38.7606 101.029 38.7672C101.707 38.7844 102.387 38.7632 103.067 38.7818C103.19 38.7858 103.359 38.8719 103.423 38.9741C105.451 42.252 107.468 45.5365 109.487 48.8198C109.509 48.8556 109.525 48.8967 109.571 48.9908H109.573Z"
            fill="#7A8AA0" />
        <path
            d="M92.5193 48.9668C92.395 48.9204 92.3044 48.8926 92.2189 48.8541C89.177 47.5108 86.1364 46.1636 83.0907 44.8257C82.877 44.7315 82.8019 44.6161 82.8135 44.3841C82.8317 43.9996 82.8058 43.6124 82.8265 43.2278C82.8317 43.1257 82.9145 42.9759 83 42.9387C86.1325 41.5597 89.2702 40.1925 92.408 38.8241C92.4261 38.8161 92.4494 38.8241 92.5193 38.8241C92.5193 39.3306 92.5193 39.8412 92.5193 40.3517C92.5193 40.9307 92.2573 41.3272 91.7333 41.5411C89.9151 42.281 88.0957 43.0183 86.2763 43.7582C86.1973 43.79 86.1183 43.8232 85.994 43.8749C87.0779 44.3165 88.1229 44.7408 89.1666 45.1664C90.1949 45.5855 91.2218 46.0124 92.2539 46.4209C92.4572 46.5018 92.5297 46.6012 92.5245 46.8266C92.509 47.5294 92.518 48.2322 92.518 48.9681L92.5193 48.9668Z"
            fill="#7A8AA0" />
        <path
            d="M162.866 32.8199C162.74 32.7284 162.639 32.6515 162.536 32.5812C161.29 31.7312 160.047 30.8786 158.796 30.0379C158.6 29.9066 158.529 29.7648 158.533 29.5287C158.546 28.7026 158.538 27.8778 158.538 27C158.642 27.0517 158.717 27.0782 158.78 27.122C161.01 28.6814 163.239 30.2448 165.473 31.8002C165.64 31.9169 165.75 32.0336 165.712 32.251C165.703 32.3041 165.712 32.3611 165.711 32.4155C165.706 32.8451 165.829 33.341 165.657 33.6845C165.487 34.0226 165.025 34.2149 164.68 34.4549C162.704 35.8353 160.724 37.2104 158.745 38.5854C158.695 38.6199 158.635 38.6425 158.541 38.6902C158.541 37.7461 158.533 36.8351 158.551 35.9254C158.552 35.8313 158.688 35.7186 158.787 35.651C160.093 34.744 161.404 33.8436 162.713 32.9419C162.755 32.9127 162.793 32.8782 162.866 32.8212V32.8199Z"
            fill="#7A8AA0" />
        <path
            d="M173.966 38.6914C173.697 38.5071 173.468 38.352 173.24 38.1928C171.177 36.7528 169.117 35.3101 167.05 33.8766C166.875 33.7546 166.812 33.6234 166.818 33.4139C166.831 33.0293 166.832 32.6421 166.818 32.2576C166.81 32.06 166.875 31.9353 167.036 31.8253C168.696 30.673 170.353 29.5167 172.01 28.3577C172.595 27.9493 173.175 27.533 173.759 27.1219C173.817 27.0808 173.885 27.0556 173.991 27.0012C173.991 27.944 173.997 28.8431 173.982 29.7421C173.981 29.8323 173.867 29.9423 173.777 30.0033C172.507 30.8812 171.231 31.751 169.958 32.6235C169.872 32.6832 169.787 32.7469 169.67 32.8331C170.282 33.2587 170.866 33.6684 171.453 34.0716C172.213 34.594 172.972 35.1165 173.738 35.627C173.918 35.7463 174.003 35.8723 173.999 36.1017C173.984 36.8509 173.994 37.6001 173.992 38.3493C173.992 38.4434 173.978 38.5389 173.966 38.6901V38.6914Z"
            fill="#7A8AA0" />
        <path
            d="M140.484 38.2937C140.749 38.4859 140.956 38.6398 141.167 38.7883C142.536 39.7496 143.936 40.6513 145.452 41.3647C146.798 41.9986 148.071 41.9018 149.361 41.2335C150.876 40.4498 152.295 39.5136 153.652 38.4753C153.727 38.4183 153.808 38.3653 153.94 38.2725V40.0573C153.94 40.9391 153.958 40.9669 153.224 41.4509C152.238 42.102 151.24 42.7358 150.215 43.318C148.348 44.3801 146.446 44.4106 144.521 43.432C143.166 42.7425 141.873 41.9548 140.66 41.0319C140.578 40.9696 140.494 40.8449 140.493 40.7481C140.48 39.9552 140.485 39.1622 140.485 38.2924L140.484 38.2937Z"
            fill="#7A8AA0" />
        <path d="M79.5334 38.7937H81.7853V48.9736H79.5334V38.7937Z" fill="#7A8AA0" />
        <path d="M148.321 48.9748H146.07V45.2434H148.321V48.9748Z" fill="#7A8AA0" />
    </g>
    <defs>
        <clipPath id="clip0_14515_3466">
            <rect width="141" height="22" fill="white" transform="translate(33 27)" />
        </clipPath>
    </defs>
</svg>