<svg width="200" height="84" viewBox="0 0 200 84" fill="none" xmlns="http://www.w3.org/2000/svg">
    <path fill-rule="evenodd" clip-rule="evenodd"
        d="M71.8881 34.5165L68.1613 38.2434L62.6967 32.7782C61.659 31.7406 59.9772 31.7406 58.9395 32.7782C57.9027 33.815 57.9027 35.4977 58.9395 36.5345L64.4027 42.0021L60.6879 45.7168C59.6512 46.7536 59.6512 48.4355 60.6879 49.4731C61.7256 50.5108 63.4074 50.5108 64.4451 49.4731L68.1578 45.7603L73.6262 51.2218C74.6639 52.2594 76.3457 52.2594 77.3834 51.2218C78.4201 50.1841 78.4201 48.5023 77.3834 47.4655L71.9184 41.9997L75.6453 38.2728C76.6821 37.236 76.6821 35.5533 75.6453 34.5165C74.6076 33.4789 72.9258 33.4789 71.8881 34.5165ZM68.1613 38.2434L66.5958 39.8083C65.3853 41.0185 65.3852 42.981 66.5956 44.1913L68.1611 45.7568L69.7266 44.1913C70.937 42.981 70.9368 41.0185 69.7263 39.8083L68.1613 38.2434ZM117.267 49.2664V33.9922H120.366V42.4041L123.465 38.8622H127.007L123.022 43.7322L127.534 48.8589L132.541 42.1827L127.228 34.6563H131.213L134.312 39.3049L137.411 34.6563H141.395L136.304 42.1827L141.838 49.2664H137.632L134.312 44.3963L130.77 49.2664H124.129L120.366 45.0604V49.2664H117.267ZM98.8933 49.2664C101.827 49.2664 104.206 46.8878 104.206 43.9536C104.206 41.0195 101.827 38.6408 98.8933 38.6408C95.9591 38.6408 93.5805 41.0195 93.5805 43.9536C93.5805 46.8878 95.9591 49.2664 98.8933 49.2664ZM98.8933 46.61C100.36 46.61 101.55 45.4207 101.55 43.9536C101.55 42.4865 100.36 41.2972 98.8933 41.2972C97.4262 41.2972 96.2369 42.4865 96.2369 43.9536C96.2369 45.4207 97.4262 46.61 98.8933 46.61ZM115.55 45.2818C114.96 47.5732 112.88 49.2664 110.404 49.2664C107.47 49.2664 105.092 46.8878 105.092 43.9536C105.092 41.0195 107.47 38.6408 110.404 38.6408C113.037 38.6408 115.222 40.5555 115.644 43.0681H112.909C112.545 42.0364 111.561 41.2972 110.404 41.2972C108.937 41.2972 107.748 42.4865 107.748 43.9536C107.748 45.4207 108.937 46.61 110.404 46.61C111.388 46.61 112.246 46.0758 112.705 45.2818H115.55ZM81.8482 34.8776V49.2664H85.1687V43.0681L90.4814 49.2664H94.466L89.1532 42.8468C90.1863 42.6992 92.2523 41.6957 92.2523 38.8622C92.2523 36.0287 90.1863 35.0252 89.1532 34.8776H81.8482ZM87.6037 37.3127H85.1687V40.4118H87.6037C88.4595 40.4118 89.1532 39.718 89.1532 38.8622C89.1532 38.0064 88.4595 37.3127 87.6037 37.3127Z"
        fill="#7A8AA0" />
</svg>