<svg width="200" height="84" viewBox="0 0 200 84" fill="none" xmlns="http://www.w3.org/2000/svg">
    <path
        d="M42.3851 36.8566C42.3595 36.8092 42.3227 36.7691 42.278 36.7398C42.2332 36.7105 42.182 36.6931 42.1288 36.689C42.0757 36.6848 42.0225 36.6942 41.9738 36.7162C41.9252 36.7383 41.8827 36.7723 41.8504 36.8152C41.4334 37.191 41.0164 37.5564 40.5713 37.9244C40.2055 38.2432 40.2029 38.3054 40.5124 38.6734L46.665 46.1375C46.9361 46.4589 46.9207 46.5211 46.6266 46.788C45.443 47.8247 44.256 48.8613 43.0656 49.898C42.7764 50.1572 42.6639 50.1365 42.4132 49.8332C41.5588 48.8121 40.7094 47.7858 39.855 46.7647C39.0006 45.7436 38.1819 44.7872 37.3428 43.8024L35.9358 42.1437C35.9099 42.1124 35.8751 42.0899 35.8362 42.0792C35.7973 42.0686 35.7561 42.0703 35.7181 42.0841C35.6802 42.098 35.6474 42.1233 35.6241 42.1567C35.6008 42.19 35.5882 42.2298 35.5879 42.2707L35.5418 45.5414C35.5409 45.5901 35.5582 45.6374 35.5904 45.6736L35.6442 45.741C37.8161 48.286 39.9292 50.8362 42.1062 53.3916C42.4132 53.7441 42.5002 53.7519 42.8507 53.4487C45.3185 51.3131 47.7914 49.1818 50.2695 47.0549C50.4946 46.8554 50.5074 46.6947 50.3155 46.4692C48.1717 43.9061 44.5416 39.412 42.3851 36.8566Z"
        fill="#7A8AA0" />
    <path
        d="M42.4617 47.4232C42.4887 47.4729 42.5275 47.515 42.5746 47.5457C42.6216 47.5763 42.6755 47.5947 42.7313 47.599C42.7872 47.6034 42.8432 47.5937 42.8944 47.5707C42.9455 47.5476 42.9903 47.5122 43.0245 47.4673C43.4414 47.0863 43.8866 46.7157 44.3036 46.3269C44.6029 46.0678 44.608 45.9667 44.3548 45.6635L38.2483 38.4352C37.9925 38.1294 37.9925 38.0024 38.302 37.7406L41.7914 34.7109C42.1367 34.4155 42.2263 34.4232 42.5154 34.7679L46.7825 39.8633L47.399 40.5967C47.4069 40.6203 47.419 40.6424 47.4348 40.6615L48.8956 42.3798C48.9217 42.4101 48.9563 42.4317 48.9947 42.4418C49.0332 42.4519 49.0738 42.4499 49.1112 42.4362C49.1485 42.4224 49.1809 42.3976 49.2041 42.3648C49.2273 42.3321 49.24 42.293 49.2409 42.2528L49.2869 38.9821C49.2885 38.9329 49.2721 38.885 49.2409 38.8473L48.9851 38.5415C46.8746 36.0431 44.9099 33.6432 42.7763 31.1448C42.4975 30.8208 42.4873 30.8312 42.1752 31.0981L34.7563 37.4789C34.4315 37.7588 34.4212 37.8339 34.6872 38.1553L39.1334 43.4709L42.4617 47.4232Z"
        fill="#7A8AA0" />
    <path
        d="M60.1309 38.62C61.9735 38.62 62.9575 39.443 63.0862 40.858H65.1698C64.9453 38.5397 63.1324 36.8972 60.1607 36.8972C57.1889 36.8972 55.4388 38.0714 55.4388 40.1823C55.4388 42.099 56.6969 42.922 59.5102 43.4505C61.7522 43.9523 62.5777 44.2567 62.657 45.5446C62.657 46.6887 61.6862 47.2373 60.1144 47.2373C58.0804 47.2373 57.1889 46.4144 57.0468 44.6113H54.9633C55.1383 47.4949 56.8718 48.9601 60.0649 48.9601C62.7527 48.9601 64.7405 47.6221 64.7405 45.4477C64.6613 43.0658 63.4032 42.4537 60.0814 41.7679C58.2851 41.4334 57.5224 41.0754 57.5224 40.1254C57.5224 39.1184 58.3974 38.62 60.1309 38.62Z"
        fill="#7A8AA0" />
    <path
        d="M67.313 48.7325H75.9741V47.0097H69.347V43.5474H75.3732V41.8246H69.347V38.8607H75.9741V37.1379H67.313V48.7325Z"
        fill="#7A8AA0" />
    <path
        d="M86.1809 45.899L81.1255 37.1379H78.6754V48.7325H80.6335L80.6632 39.9245L85.7351 48.7325H88.1654V37.1379H86.2106L86.1809 45.899Z"
        fill="#7A8AA0" />
    <path
        d="M95.4789 38.62C97.3217 38.62 98.3087 39.443 98.4345 40.858H100.518C100.293 38.5397 98.4837 36.8972 95.5083 36.8972C92.5335 36.8972 90.7899 38.0714 90.7899 40.1823C90.7899 42.099 92.0447 42.922 94.8583 43.4505C97.1002 43.9523 97.9259 44.2567 98.0052 45.5446C98.0052 46.6887 97.0374 47.2373 95.4625 47.2373C93.4284 47.2373 92.5367 46.4144 92.3948 44.6113H90.3112C90.4862 47.4949 92.2197 48.9601 95.4161 48.9601C98.1009 48.9601 100.089 47.6221 100.089 45.4477C100.009 43.0658 98.7673 42.4537 95.429 41.7679C93.6328 41.4334 92.8702 41.0754 92.8702 40.1254C92.8702 39.1184 93.7455 38.62 95.4789 38.62Z"
        fill="#7A8AA0" />
    <path
        d="M102.661 48.7325H111.326V47.0097H104.695V43.5474H110.721V41.8246H104.695V38.8607H111.326V37.1379H102.661V48.7325Z"
        fill="#7A8AA0" />
    <path d="M116.061 37.1379H114.027V48.7325H116.061V37.1379Z" fill="#7A8AA0" />
    <path
        d="M130.748 47.5717L124.66 37.1379H123.213V48.7325H124.197L124.23 38.282L130.319 48.7325H131.765V37.1379H130.781L130.748 47.5717Z"
        fill="#7A8AA0" />
    <path
        d="M139.426 36.8976C136.296 36.8508 134.037 39.4734 134.07 42.9692C134.02 46.4148 136.279 48.9906 139.426 48.9906C142.556 49.0207 144.848 46.4784 144.798 42.9692C144.864 39.5036 142.553 36.8508 139.426 36.8976ZM139.426 48.074C136.85 48.074 135.133 45.9498 135.133 42.9692C135.133 39.9886 136.85 37.8008 139.426 37.8008C142.002 37.8008 143.735 39.925 143.735 42.9692C143.735 46.0134 142.018 48.074 139.426 48.074Z"
        fill="#7A8AA0" />
    <path
        d="M150.758 37.1379H147.103V48.7325H150.645C153.971 48.7325 155.814 46.4778 155.814 42.9687C155.814 41.1823 155.384 39.7472 154.526 38.7001C153.667 37.6531 152.396 37.1379 150.758 37.1379ZM150.616 47.8426H148.103V38.0411H150.745C153.429 38.0411 154.766 39.8275 154.766 42.9687C154.75 46.0429 153.367 47.8326 150.616 47.8326V47.8426Z"
        fill="#7A8AA0" />
    <path d="M158.115 48.7325H166V47.8293H159.119V43.1125H165.334V42.2093H159.119V38.0378H166V37.1379H158.115V48.7325Z"
        fill="#7A8AA0" />
</svg>