<svg width="200" height="84" viewBox="0 0 200 84" fill="none" xmlns="http://www.w3.org/2000/svg">
    <path fill-rule="evenodd" clip-rule="evenodd"
        d="M58.395 26.5736H61.4558V35.2459H58.395V26.5736ZM41.5602 33.2055H41.5604V38.3068H41.5602C38.7428 38.3068 36.4589 40.5907 36.4589 43.4081C36.4589 46.2255 38.7428 48.5094 41.5602 48.5094C44.0282 48.5094 46.0868 46.7569 46.5595 44.4284H46.6619V38.3075H51.7632V44.4291H51.7124C51.2002 49.5845 46.8504 53.6108 41.5602 53.6108C35.9254 53.6108 31.3576 49.0429 31.3576 43.4081C31.3576 37.7733 35.9254 33.2055 41.5602 33.2055ZM47.6815 33.2059H41.5604V38.3072H47.6815H47.682H56.3538V33.2059H47.682H47.6815ZM78.7776 43.2854H76.1963V53.6105H78.7776V43.2854ZM76.5106 41.6244C76.8098 41.9087 77.154 42.0509 77.5431 42.0509C77.9321 42.0509 78.2688 41.9087 78.5531 41.6244C78.8524 41.3251 79.0021 40.9809 79.0021 40.5919C79.0021 40.2028 78.8524 39.8661 78.5531 39.5818C78.2688 39.2825 77.9321 39.1329 77.5431 39.1329C77.154 39.1329 76.8098 39.2825 76.5106 39.5818C76.2262 39.8661 76.0841 40.2028 76.0841 40.5919C76.0841 40.9809 76.2262 41.3251 76.5106 41.6244ZM67.3993 52.8024C68.1026 53.4159 69.1276 53.7227 70.4744 53.7227C71.058 53.7227 71.5817 53.6404 72.0456 53.4758C72.5244 53.2962 72.9285 53.0643 73.2577 52.78C73.5869 52.4957 73.8413 52.1665 74.0208 51.7924C74.2004 51.4033 74.2902 50.9993 74.2902 50.5803C74.2902 49.9668 74.1555 49.473 73.8862 49.0989C73.6318 48.7098 73.3101 48.3956 72.921 48.1561C72.5319 47.9167 72.1055 47.7371 71.6416 47.6174C71.1927 47.4828 70.7737 47.363 70.3846 47.2583C69.9955 47.1386 69.6663 47.0114 69.397 46.8767C69.1426 46.742 69.0154 46.555 69.0154 46.3156C69.0154 46.0313 69.1202 45.7918 69.3297 45.5973C69.5541 45.4028 69.8609 45.3055 70.2499 45.3055C70.639 45.3055 70.9607 45.4177 71.2151 45.6422C71.4845 45.8667 71.6491 46.0911 71.7089 46.3156H74.178C74.0582 45.4177 73.6617 44.6695 72.9883 44.071C72.3299 43.4724 71.3797 43.1732 70.1377 43.1732C69.5691 43.1732 69.0603 43.2629 68.6114 43.4425C68.1625 43.6071 67.7734 43.8316 67.4442 44.1159C67.115 44.4002 66.8606 44.7369 66.681 45.1259C66.5164 45.5 66.4341 45.8966 66.4341 46.3156C66.4341 46.9141 66.5613 47.4005 66.8157 47.7746C67.0851 48.1337 67.4143 48.433 67.8033 48.6724C68.1924 48.8968 68.6114 49.0689 69.0603 49.1886C69.5242 49.3084 69.9507 49.4281 70.3397 49.5478C70.7288 49.6525 71.0505 49.7722 71.3049 49.9069C71.5742 50.0416 71.7089 50.2286 71.7089 50.4681C71.7089 50.7524 71.5742 51.0142 71.3049 51.2537C71.0505 51.4781 70.6989 51.5903 70.2499 51.5903C69.801 51.5903 69.4419 51.4706 69.1725 51.2312C68.9032 50.9918 68.7386 50.7 68.6787 50.3558H66.2097C66.3144 51.3734 66.711 52.1889 67.3993 52.8024ZM85.727 57.4263C84.7693 57.4263 83.9912 57.2542 83.3927 56.91C82.8091 56.5658 82.3452 56.1768 82.001 55.7428C81.612 55.249 81.3202 54.6879 81.1256 54.0594H83.7069C83.8117 54.2539 83.9538 54.426 84.1334 54.5756C84.298 54.6953 84.5075 54.8076 84.7619 54.9123C85.0162 55.0171 85.338 55.0694 85.727 55.0694C86.4603 55.0694 87.0364 54.8674 87.4554 54.4634C87.8744 54.0743 88.0838 53.5656 88.0838 52.9371V52.1515C87.8744 52.361 87.6349 52.548 87.3656 52.7126C87.1262 52.8623 86.8418 52.9969 86.5126 53.1167C86.1834 53.2214 85.8093 53.2738 85.3903 53.2738C84.7469 53.2738 84.1334 53.1466 83.5498 52.8922C82.9812 52.6378 82.4799 52.2862 82.0459 51.8372C81.6269 51.3883 81.2902 50.8571 81.0359 50.2436C80.7964 49.6301 80.6767 48.9567 80.6767 48.2235C80.6767 47.4902 80.7964 46.8169 81.0359 46.2033C81.2902 45.5898 81.6269 45.0586 82.0459 44.6097C82.4799 44.1608 82.9812 43.8091 83.5498 43.5547C84.1334 43.3004 84.7469 43.1732 85.3903 43.1732C85.8393 43.1732 86.2433 43.233 86.6024 43.3527C86.9616 43.4724 87.2683 43.5996 87.5227 43.7343C87.807 43.8989 88.0689 44.086 88.3083 44.2955L88.7572 43.2854H90.6651V52.9371C90.6651 54.2838 90.2312 55.3687 89.3633 56.1917C88.5103 57.0148 87.2982 57.4263 85.727 57.4263ZM85.727 50.8047C86.0562 50.8047 86.3705 50.7374 86.6698 50.6027C86.969 50.4681 87.2309 50.2885 87.4554 50.064C87.6798 49.8246 87.8594 49.5478 87.9941 49.2335C88.1287 48.9193 88.1961 48.5826 88.1961 48.2235C88.1961 47.8643 88.1287 47.5276 87.9941 47.2134C87.8594 46.8992 87.6798 46.6298 87.4554 46.4054C87.2309 46.1659 86.969 45.9789 86.6698 45.8442C86.3705 45.7095 86.0562 45.6422 85.727 45.6422C85.3829 45.6422 85.0611 45.7095 84.7619 45.8442C84.4626 45.9789 84.2007 46.1659 83.9763 46.4054C83.7518 46.6298 83.5722 46.8992 83.4376 47.2134C83.3178 47.5276 83.258 47.8643 83.258 48.2235C83.258 48.5826 83.3178 48.9193 83.4376 49.2335C83.5722 49.5478 83.7518 49.8246 83.9763 50.064C84.2007 50.2885 84.4626 50.4681 84.7619 50.6027C85.0611 50.7374 85.3829 50.8047 85.727 50.8047ZM95.0482 43.2854H93.1403V53.6105H95.7216V47.6623C95.7216 47.0338 95.8862 46.54 96.2154 46.1809C96.5595 45.8218 96.9561 45.6422 97.405 45.6422C97.8539 45.6422 98.243 45.8218 98.5722 46.1809C98.9164 46.54 99.0884 47.0338 99.0884 47.6623V53.6105H101.67V47.6623C101.67 47.0338 101.834 46.54 102.164 46.1809C102.508 45.8218 102.904 45.6422 103.353 45.6422C103.802 45.6422 104.191 45.8218 104.52 46.1809C104.865 46.54 105.037 47.0338 105.037 47.6623V53.6105H107.618V47.4379C107.618 46.0313 107.281 44.9688 106.608 44.2506C105.934 43.5323 105.037 43.1732 103.914 43.1732C103.465 43.1732 103.054 43.248 102.68 43.3976C102.306 43.5323 101.984 43.6819 101.715 43.8465C101.4 44.0411 101.124 44.2655 100.884 44.5199C100.719 44.2655 100.503 44.0411 100.233 43.8465C99.9937 43.6819 99.687 43.5323 99.3129 43.3976C98.9388 43.248 98.4899 43.1732 97.9661 43.1732C97.592 43.1732 97.2554 43.233 96.9561 43.3527C96.6568 43.4724 96.4024 43.5996 96.1929 43.7343C95.9385 43.8989 95.7066 44.086 95.4971 44.2955L95.0482 43.2854ZM113.005 53.7227C111.883 53.7227 111.022 53.4533 110.424 52.9146C109.825 52.361 109.526 51.6577 109.526 50.8047C109.526 50.296 109.623 49.8321 109.818 49.4131C110.027 48.9791 110.371 48.6125 110.85 48.3133C111.329 47.999 111.957 47.7596 112.735 47.595C113.529 47.4154 114.516 47.3256 115.698 47.3256C115.698 46.757 115.541 46.3156 115.227 46.0013C114.928 45.6871 114.524 45.53 114.015 45.53C113.671 45.53 113.394 45.5898 113.184 45.7095C112.99 45.8292 112.833 45.9564 112.713 46.0911C112.578 46.2557 112.489 46.4428 112.444 46.6523H109.862C109.922 46.1734 110.057 45.7245 110.266 45.3055C110.491 44.8865 110.79 44.5199 111.164 44.2057C111.538 43.8914 111.98 43.6445 112.489 43.465C113.012 43.2704 113.596 43.1732 114.239 43.1732C114.823 43.1732 115.362 43.2779 115.855 43.4874C116.349 43.6819 116.776 43.9588 117.135 44.3179C117.494 44.677 117.771 45.1035 117.965 45.5973C118.175 46.0911 118.28 46.6298 118.28 47.2134V53.6105H116.372L115.923 52.6004C115.683 52.8099 115.422 52.9969 115.137 53.1616C114.883 53.3112 114.576 53.4459 114.217 53.5656C113.858 53.6703 113.454 53.7227 113.005 53.7227ZM113.454 51.7026C114.127 51.7026 114.666 51.508 115.07 51.119C115.489 50.715 115.698 50.1987 115.698 49.5702V49.1213C114.935 49.1213 114.322 49.1587 113.858 49.2335C113.394 49.2934 113.027 49.3907 112.758 49.5253C112.504 49.645 112.331 49.7947 112.242 49.9742C112.152 50.1538 112.107 50.3558 112.107 50.5803C112.107 50.8646 112.234 51.1265 112.489 51.3659C112.743 51.5903 113.065 51.7026 113.454 51.7026ZM122.087 43.5098H120.852V57.2018H122.536V52.3759C122.745 52.6303 122.999 52.8548 123.299 53.0493C123.553 53.2139 123.867 53.371 124.241 53.5207C124.616 53.6554 125.057 53.7227 125.566 53.7227C126.209 53.7227 126.815 53.5955 127.384 53.3411C127.967 53.0867 128.469 52.7351 128.888 52.2862C129.322 51.8223 129.658 51.2761 129.898 50.6476C130.152 50.0191 130.279 49.3233 130.279 48.5602C130.279 47.797 130.152 47.1012 129.898 46.4727C129.658 45.8442 129.322 45.3055 128.888 44.8566C128.469 44.3927 127.967 44.0336 127.384 43.7792C126.815 43.5248 126.209 43.3976 125.566 43.3976C125.057 43.3976 124.616 43.465 124.241 43.5996C123.867 43.7193 123.553 43.8615 123.299 44.0261C122.999 44.2057 122.745 44.4077 122.536 44.6321L122.087 43.5098ZM126.643 51.9046C126.269 52.0692 125.872 52.1515 125.454 52.1515C125.035 52.1515 124.63 52.0692 124.241 51.9046C123.867 51.725 123.538 51.4781 123.254 51.1639C122.97 50.8496 122.738 50.4755 122.558 50.0416C122.393 49.5927 122.311 49.0989 122.311 48.5602C122.311 48.0215 122.393 47.5351 122.558 47.1012C122.738 46.6523 122.97 46.2707 123.254 45.9564C123.538 45.6422 123.867 45.4028 124.241 45.2382C124.63 45.0586 125.035 44.9688 125.454 44.9688C125.872 44.9688 126.269 45.0586 126.643 45.2382C127.032 45.4028 127.369 45.6422 127.653 45.9564C127.938 46.2707 128.162 46.6523 128.327 47.1012C128.506 47.5351 128.596 48.0215 128.596 48.5602C128.596 49.0989 128.506 49.5927 128.327 50.0416C128.162 50.4755 127.938 50.8496 127.653 51.1639C127.369 51.4781 127.032 51.725 126.643 51.9046ZM132.513 43.5098H133.748L134.197 44.6321C134.406 44.4077 134.653 44.2057 134.938 44.0261C135.192 43.8615 135.499 43.7193 135.858 43.5996C136.217 43.465 136.636 43.3976 137.115 43.3976H137.339V45.0811H136.89C136.097 45.0811 135.446 45.3354 134.938 45.8442C134.444 46.353 134.197 47.0338 134.197 47.8868V53.6105H132.513V43.5098ZM140.926 43.5098H139.243V53.6105H140.926V43.5098ZM139.31 41.4224C139.52 41.6169 139.774 41.7142 140.073 41.7142C140.388 41.7142 140.642 41.6169 140.836 41.4224C141.046 41.2129 141.151 40.9585 141.151 40.6592C141.151 40.345 141.046 40.0906 140.836 39.8961C140.642 39.6866 140.388 39.5818 140.073 39.5818C139.774 39.5818 139.52 39.6866 139.31 39.8961C139.116 40.0906 139.018 40.345 139.018 40.6592C139.018 40.9585 139.116 41.2129 139.31 41.4224ZM143.846 43.5098H145.08L145.529 44.6321C145.694 44.4077 145.896 44.2057 146.135 44.0261C146.345 43.8615 146.599 43.7193 146.899 43.5996C147.198 43.465 147.564 43.3976 147.998 43.3976C148.507 43.3976 148.934 43.4949 149.278 43.6894C149.637 43.869 149.929 44.071 150.153 44.2955C150.423 44.5648 150.64 44.8641 150.804 45.1933C150.999 44.8641 151.238 44.5648 151.522 44.2955C151.777 44.071 152.091 43.869 152.465 43.6894C152.839 43.4949 153.296 43.3976 153.834 43.3976C154.283 43.3976 154.71 43.4949 155.114 43.6894C155.518 43.869 155.877 44.1383 156.191 44.4975C156.505 44.8566 156.752 45.298 156.932 45.8218C157.111 46.3305 157.201 46.9066 157.201 47.5501V53.6105H155.518V47.5501C155.518 46.6972 155.323 46.0537 154.934 45.6198C154.545 45.1858 154.066 44.9688 153.498 44.9688C152.929 44.9688 152.428 45.2008 151.994 45.6646C151.575 46.1285 151.365 46.757 151.365 47.5501V53.6105H149.682V47.5501C149.682 46.6972 149.487 46.0537 149.098 45.6198C148.709 45.1858 148.23 44.9688 147.662 44.9688C147.392 44.9688 147.123 45.0362 146.854 45.1708C146.599 45.2905 146.375 45.4701 146.18 45.7095C145.986 45.934 145.829 46.2033 145.709 46.5176C145.589 46.8318 145.529 47.176 145.529 47.5501V53.6105H143.846V43.5098ZM162.268 53.3411C162.851 53.5955 163.48 53.7227 164.153 53.7227C164.707 53.7227 165.208 53.6479 165.657 53.4982C166.121 53.3336 166.525 53.1241 166.869 52.8698C167.228 52.6154 167.535 52.3161 167.789 51.9719C168.044 51.6278 168.253 51.2761 168.418 50.917H166.622C166.533 51.0367 166.413 51.1714 166.263 51.321C166.128 51.4557 165.956 51.5829 165.747 51.7026C165.552 51.8223 165.32 51.927 165.051 52.0168C164.782 52.1066 164.482 52.1515 164.153 52.1515C163.764 52.1515 163.39 52.0767 163.031 51.927C162.672 51.7624 162.358 51.5529 162.088 51.2985C161.819 51.0442 161.594 50.7449 161.415 50.4007C161.25 50.0565 161.153 49.7049 161.123 49.3458H168.53C168.545 49.2709 168.56 49.1886 168.575 49.0989C168.59 49.024 168.605 48.9343 168.62 48.8295C168.635 48.7248 168.642 48.5976 168.642 48.4479C168.642 47.6848 168.515 46.9964 168.261 46.3829C168.021 45.7544 167.692 45.2232 167.273 44.7893C166.854 44.3403 166.36 43.9962 165.792 43.7568C165.238 43.5173 164.655 43.3976 164.041 43.3976C163.428 43.3976 162.836 43.5248 162.268 43.7792C161.699 44.0336 161.198 44.3927 160.764 44.8566C160.33 45.3055 159.978 45.8442 159.709 46.4727C159.455 47.1012 159.327 47.797 159.327 48.5602C159.327 49.3233 159.447 50.0191 159.687 50.6476C159.941 51.2761 160.285 51.8223 160.719 52.2862C161.168 52.7351 161.684 53.0867 162.268 53.3411ZM166.6 46.7196C166.779 47.0787 166.899 47.4678 166.959 47.8868H161.123C161.183 47.4678 161.295 47.0787 161.46 46.7196C161.639 46.3605 161.856 46.0537 162.111 45.7993C162.38 45.5449 162.679 45.3429 163.009 45.1933C163.338 45.0436 163.682 44.9688 164.041 44.9688C164.4 44.9688 164.744 45.0436 165.074 45.1933C165.403 45.3429 165.695 45.5449 165.949 45.7993C166.218 46.0537 166.435 46.3605 166.6 46.7196Z"
        fill="#7A8AA0" />
</svg>