<svg width="200" height="84" viewBox="0 0 200 84" fill="none" xmlns="http://www.w3.org/2000/svg">
    <path
        d="M47.5332 52.1165C47.5332 52.4452 47.7085 52.7488 47.9931 52.913L64.9144 62.6824C65.1989 62.8467 65.5495 62.8467 65.8341 62.6824L82.7562 52.9125C83.0408 52.7483 83.2161 52.4446 83.2161 52.1159V42.1489C83.2161 41.8203 83.0408 41.5167 82.7562 41.3525L78.0995 38.6635L83.2159 35.7096V31.1223C83.2159 30.7936 83.0406 30.49 82.756 30.3256L65.8349 20.5563C65.5504 20.392 65.1998 20.392 64.9152 20.5563L47.9931 30.3262C47.7085 30.4904 47.5332 30.7942 47.5332 31.1227V41.0897C47.5332 41.4183 47.7085 41.7218 47.9931 41.8861L52.6498 44.575L47.5332 47.5292V52.1165ZM64.9138 51.6573C65.1983 51.8217 65.5491 51.8217 65.8337 51.6573L69.8064 49.3632V43.4516L65.8337 45.7453C65.5491 45.9095 65.1985 45.9095 64.9139 45.7453L53.1113 38.9312C52.8267 38.7669 52.6514 38.4631 52.6514 38.1344V34.0782C52.6514 33.7496 52.8267 33.446 53.1113 33.2816L64.9152 26.4666C65.1998 26.3024 65.5506 26.3024 65.8351 26.4666L77.6365 33.2816C77.9211 33.4458 78.0964 33.7496 78.0964 34.0781V38.6612L65.836 31.5813C65.5514 31.4168 65.2006 31.4168 64.9161 31.5813L60.9434 33.8754V39.7869L64.9161 37.4932C65.2006 37.329 65.5512 37.329 65.8358 37.4932L77.6384 44.3074C77.9229 44.4716 78.0982 44.7754 78.0982 45.1041V49.1603C78.0982 49.4889 77.9229 49.7925 77.6384 49.957L65.8345 56.7719C65.55 56.9361 65.1991 56.9361 64.9145 56.7719L53.1132 49.957C52.8286 49.7925 52.6533 49.4889 52.6533 49.1605V44.5773L64.9138 51.6573Z"
        fill="#7A8AA0" />
    <path
        d="M89.1134 34.788H91.3216C91.339 35.7066 92.0278 36.325 93.406 36.325C94.7841 36.325 95.4902 35.7066 95.4902 34.788C95.4902 33.7812 94.4128 33.5869 93.1583 33.3573C91.4098 33.0393 89.3433 32.6683 89.3433 29.9832C89.3433 27.8461 90.9681 26.3445 93.4237 26.3445C95.8793 26.3445 97.416 27.7753 97.5039 29.8948H95.3668C95.3495 29.0117 94.6957 28.3757 93.4413 28.3757C92.1868 28.3757 91.5337 29.0645 91.5337 29.9124C91.5337 30.9192 92.6114 31.1136 93.8656 31.3432C95.6142 31.6612 97.6984 32.032 97.6984 34.7171C97.6984 36.9603 95.985 38.356 93.4061 38.356C90.8273 38.356 89.1664 36.9961 89.1134 34.788Z"
        fill="#7A8AA0" />
    <path
        d="M99.1297 26.8744C99.1297 26.0619 99.7123 25.4612 100.524 25.4612C101.337 25.4612 101.921 26.0619 101.921 26.8744C101.921 27.687 101.337 28.2701 100.524 28.2701C99.7123 28.2701 99.1297 27.6871 99.1297 26.8744ZM99.465 29.4004H101.567V38.1265H99.465V29.4004Z"
        fill="#7A8AA0" />
    <path
        d="M103.599 33.1452C103.599 30.4074 105.189 29.1709 107.255 29.1709C108.562 29.1709 109.64 29.7185 110.276 30.7428C110.894 29.7185 111.971 29.1709 113.297 29.1709C115.363 29.1709 116.953 30.4074 116.953 33.1452V38.1266H114.851V33.1452C114.851 31.7144 114.109 31.1315 113.085 31.1315C112.061 31.1315 111.336 31.732 111.336 33.1452V38.1266H109.234V33.1452C109.234 31.732 108.475 31.1315 107.467 31.1315C106.461 31.1315 105.701 31.7144 105.701 33.1452V38.1266H103.599V33.1452Z"
        fill="#7A8AA0" />
    <path
        d="M118.684 33.8343C118.684 31.0081 120.593 29.1709 123.33 29.1709C126.068 29.1709 128.046 31.0786 128.046 33.8518C128.046 36.8371 125.821 38.3562 123.701 38.3562C122.447 38.3562 121.405 37.8262 120.786 36.8548V41.8537H118.684V33.8343ZM125.927 33.7636C125.927 32.2269 124.885 31.1317 123.348 31.1317C121.812 31.1317 120.786 32.2269 120.786 33.7636C120.786 35.3004 121.812 36.3956 123.348 36.3956C124.885 36.3956 125.927 35.3005 125.927 33.7636Z"
        fill="#7A8AA0" />
    <path d="M129.725 25.5852H131.827V38.1269H129.725V25.5852Z" fill="#7A8AA0" />
    <path
        d="M133.929 39.0807H136.031C136.385 39.8933 137.073 40.2644 138.133 40.2644C139.564 40.2644 140.377 39.5755 140.377 37.8798V36.7845C139.847 37.7386 138.928 38.2506 137.78 38.2506C135.766 38.2506 133.859 36.9435 133.859 33.8346V29.4009H135.961V33.8346C135.961 35.495 136.844 36.2901 138.169 36.2901C139.494 36.2901 140.377 35.4599 140.377 33.8346V29.4009H142.479V37.8265C142.479 40.8648 140.553 42.0838 138.133 42.0838C136.102 42.0838 134.423 41.1475 133.929 39.0807Z"
        fill="#7A8AA0" />
    <path
        d="M89.113 53.3267H91.3212C91.3386 54.2452 92.0274 54.8634 93.4055 54.8634C94.7837 54.8634 95.4899 54.245 95.4899 53.3267C95.4899 52.3199 94.4124 52.1254 93.158 51.8959C91.4094 51.5779 89.3428 51.2071 89.3428 48.5221C89.3428 46.3847 90.9677 44.8831 93.4233 44.8831C95.8789 44.8831 97.416 46.3139 97.5039 48.4337H95.3664C95.3491 47.5504 94.6953 46.9145 93.4408 46.9145C92.1864 46.9145 91.5333 47.6034 91.5333 48.4512C91.5333 49.4582 92.6109 49.6526 93.8652 49.882C95.6137 50.2 97.6984 50.5709 97.6984 53.2559C97.6984 55.4992 95.9846 56.8947 93.4057 56.8947C90.8268 56.8947 89.166 55.5347 89.113 53.3267Z"
        fill="#7A8AA0" />
    <path
        d="M99.1647 53.3088V44.8474H101.267V47.939H105.771V49.8465H101.267V53.309C101.267 54.4749 101.867 54.9339 102.733 54.9339C103.598 54.9339 104.198 54.4922 104.198 53.309V53.0792H106.301V53.309C106.301 55.7291 104.853 56.8947 102.733 56.8947C100.613 56.8947 99.1647 55.7288 99.1647 53.3088Z"
        fill="#7A8AA0" />
    <path
        d="M107.291 52.3899C107.291 49.6167 109.234 47.7087 112.007 47.7087C114.78 47.7087 116.653 49.5635 116.653 52.3721V56.6647H114.727V54.9512C114.198 56.2407 113.014 56.8943 111.636 56.8943C109.516 56.8943 107.291 55.3752 107.291 52.3899ZM114.551 52.3018C114.551 50.765 113.526 49.6698 111.989 49.6698C110.453 49.6698 109.41 50.7649 109.41 52.3018C109.41 53.8386 110.453 54.9337 111.989 54.9337C113.526 54.9337 114.551 53.8386 114.551 52.3018Z"
        fill="#7A8AA0" />
    <path
        d="M118.684 44.123H120.786V51.7538L124.248 47.9384H126.933L122.835 52.2131L127.093 56.6644H124.354L120.786 52.7254V56.6644H118.684V44.123Z"
        fill="#7A8AA0" />
    <path
        d="M128.171 45.413C128.171 44.6002 128.753 43.9995 129.566 43.9995C130.379 43.9995 130.962 44.6002 130.962 45.413C130.962 46.2256 130.378 46.8084 129.566 46.8084C128.754 46.8084 128.171 46.2255 128.171 45.413ZM128.506 47.9389H130.609V56.665H128.506V47.9389Z"
        fill="#7A8AA0" />
    <path
        d="M132.64 52.125C132.64 49.2106 134.371 47.7087 136.95 47.7087C139.529 47.7087 141.26 49.1926 141.26 52.125V56.6647H139.158V52.125C139.158 50.4646 138.275 49.6698 136.95 49.6698C135.625 49.6698 134.742 50.4646 134.742 52.125V56.6647H132.64V52.125Z"
        fill="#7A8AA0" />
    <path
        d="M142.938 57.6185H145.058C145.411 58.4312 146.259 58.8021 147.372 58.8021C148.927 58.8021 149.898 58.0777 149.898 56.0463V55.2867C149.297 56.2583 148.255 56.7881 146.948 56.7881C144.864 56.7881 142.638 55.3927 142.638 52.3015C142.638 49.652 144.581 47.7087 147.337 47.7087C150.093 47.7087 152 49.5459 152 52.3721V55.9758C152 59.3142 149.933 60.6214 147.372 60.6214C145.199 60.6214 143.486 59.6854 142.938 57.6185ZM149.898 52.3015C149.898 50.7649 148.874 49.6696 147.337 49.6696C145.8 49.6696 144.758 50.7646 144.758 52.3015C144.758 53.8385 145.8 54.8275 147.337 54.8275C148.874 54.8275 149.898 53.8382 149.898 52.3015Z"
        fill="#7A8AA0" />
</svg>