<svg width="200" height="84" viewBox="0 0 200 84" fill="none" xmlns="http://www.w3.org/2000/svg">
    <path
        d="M88.9694 33.5123C89.5209 33.4163 90.0796 33.3261 90.2112 33.3118C90.3428 33.2974 90.5003 33.2837 90.5614 33.2812L90.6725 33.2765L90.6739 41.1526L90.8355 40.9799C90.9245 40.8848 91.1125 40.6788 91.2533 40.5219C91.3944 40.3649 91.6096 40.1258 91.7318 39.9903C92.2253 39.4436 92.392 39.2537 92.4783 39.1401C92.5281 39.0747 92.6347 38.9472 92.7151 38.8568C93.0451 38.4855 93.2622 38.234 93.4402 38.0169L93.6282 37.7876L95.2767 37.7872C96.1835 37.787 96.9255 37.7956 96.9255 37.8063C96.9255 37.8266 96.6071 38.1993 96.4299 38.3861C96.3736 38.4455 96.2506 38.5849 96.1567 38.6959C96.0626 38.8066 95.9586 38.9204 95.9254 38.9486C95.892 38.9767 95.7997 39.0801 95.7204 39.1779C95.4559 39.5038 94.5623 40.4598 93.8068 41.2251L93.0603 41.981L93.2717 42.1817C93.5195 42.4173 94.1789 43.1545 94.5083 43.5646C94.6352 43.7226 94.8407 43.9773 94.9647 44.1304C95.0887 44.2836 95.2078 44.439 95.2294 44.4754C95.2507 44.5121 95.3606 44.6657 95.4733 44.817C95.7405 45.1756 96.1737 45.8048 96.1737 45.8343C96.1737 45.8468 96.2565 45.9827 96.3576 46.1359C96.4588 46.2892 96.6069 46.5375 96.6868 46.688C96.7668 46.8383 96.8588 46.9998 96.8912 47.0468C97.0251 47.2401 97.0712 47.3614 97.0226 47.3924C96.9546 47.4355 93.9632 47.4305 93.8822 47.3871C93.8457 47.3678 93.816 47.3354 93.816 47.3153C93.816 47.2952 93.7162 47.1283 93.594 46.9442C93.4718 46.7601 93.3719 46.5937 93.3719 46.5742C93.3719 46.5549 93.3516 46.5186 93.327 46.4938C93.2717 46.4381 92.9279 45.9331 92.866 45.8167C92.8409 45.7697 92.7292 45.6133 92.6177 45.4692C92.5064 45.325 92.4151 45.1987 92.4151 45.1883C92.4151 45.0964 91.3199 43.8221 90.9288 43.459L90.6895 43.2367L90.6807 45.3023C90.6739 46.9024 90.6625 47.3737 90.6294 47.3945C90.5802 47.4258 88.0395 47.4328 87.9589 47.4018C87.8966 47.3779 87.8736 33.6865 87.9357 33.6865C87.9528 33.6865 88.4179 33.608 88.9694 33.5123Z"
        fill="#7A8AA0" />
    <path
        d="M109.437 33.5123C109.988 33.4163 110.547 33.3261 110.679 33.3118C110.81 33.2974 110.967 33.2837 111.028 33.2812L111.138 33.2765L111.149 38.718C111.159 44.0183 111.153 44.3439 111.291 44.5878C111.307 44.6159 111.325 44.6428 111.345 44.6762C111.555 45.0276 112.029 45.2674 112.515 45.2695C112.561 45.2697 112.594 45.2639 112.612 45.2772C112.657 45.3085 112.627 45.4461 112.527 46.0196C112.463 46.3872 112.384 46.8647 112.351 47.0808C112.318 47.2969 112.284 47.4951 112.274 47.5212C112.237 47.6202 110.992 47.5162 110.405 47.3649C110.213 47.3153 109.734 47.1009 109.466 46.9438C108.88 46.6017 108.495 45.7986 108.407 44.7387C108.363 44.2134 108.36 33.6865 108.403 33.6865C108.42 33.6865 108.885 33.608 109.437 33.5123Z"
        fill="#7A8AA0" />
    <path
        d="M71.5378 35.1725C71.6598 35.1598 71.9444 35.114 72.1699 35.0712C72.3954 35.0281 72.6375 34.9912 72.708 34.989L72.8362 34.9849V37.7868H76.1172L76.0994 40.0932L72.8331 40.1111L72.8536 44.0568L72.9422 44.3166C73.1964 45.0622 73.5242 45.2568 74.4761 45.2266C74.9796 45.2108 75.6402 45.1061 75.9284 44.9966C76.0887 44.9357 76.1072 44.9507 76.1301 45.1588C76.142 45.2668 76.2228 45.7344 76.3097 46.198C76.4247 46.8112 76.4761 47.015 76.3968 47.1168C76.3471 47.1807 76.2459 47.2045 76.0766 47.2641C74.8113 47.71 72.8384 47.7061 71.8945 47.2559C70.8203 46.7433 70.3104 45.9532 70.1212 44.5078C70.0676 44.099 70.0367 35.3949 70.0888 35.3949C70.1 35.3949 70.3807 35.3502 70.7124 35.2955C71.0441 35.2405 71.4156 35.1854 71.5378 35.1725Z"
        fill="#7A8AA0" />
    <path fill-rule="evenodd" clip-rule="evenodd"
        d="M78.1053 38.0447C78.1208 37.9355 78.9684 37.7227 79.875 37.6007C80.415 37.5279 82.4266 37.5486 82.7794 37.6306C83.1974 37.7276 83.5275 37.8498 83.9937 38.0802C84.5399 38.35 85.0647 39.0452 85.2742 39.7767C85.3165 39.9241 85.3504 40.0405 85.3777 40.1584C85.4896 40.6425 85.4901 41.1524 85.5026 43.9414L85.5172 47.1064L84.7035 47.2612C83.497 47.4906 82.9196 47.5421 81.5493 47.5421C79.5758 47.5421 78.7275 47.3125 77.9888 46.5785C77.5177 46.1102 77.2766 45.544 77.2128 44.7559C77.0671 42.9538 78.0434 41.823 80.063 41.4543C80.6778 41.3422 82.2326 41.3682 82.7708 41.4999C82.844 41.5177 82.8477 41.5089 82.8477 41.3172C82.8477 40.7759 82.5613 40.2618 82.1404 40.0473C81.5823 39.763 79.9365 39.797 78.8405 40.1154C78.6379 40.1742 78.4657 40.2156 78.4575 40.2076C78.4312 40.1814 78.095 38.1167 78.1053 38.0447ZM82.788 43.3434C82.755 43.3337 82.6078 43.3095 82.4608 43.2898C81.3031 43.1342 80.2903 43.3813 80.0498 43.8778C79.7694 44.4572 80.065 45.0989 80.7096 45.3103C80.9613 45.3927 82.5051 45.4327 82.7538 45.3632L82.8477 45.3369V44.349C82.8477 43.4375 82.8432 43.3596 82.788 43.3434Z"
        fill="#7A8AA0" />
    <path fill-rule="evenodd" clip-rule="evenodd"
        d="M98.0537 39.7002C98.6285 38.6768 99.7393 37.8772 100.973 37.5986C101.375 37.5078 102.85 37.5488 103.264 37.6624C105.519 38.2811 106.614 40.3259 106.3 43.3308L106.279 43.5273H103.225C100.339 43.5273 100.172 43.5305 100.172 43.5871C100.177 44.0154 100.686 44.6694 101.229 44.9443C102.074 45.3726 104.075 45.3097 105.305 44.8162C105.338 44.8027 105.361 44.7884 105.38 44.7927C105.431 44.8043 105.451 44.9508 105.563 45.6116C105.776 46.8667 105.791 47.0105 105.717 47.0656C105.637 47.1253 104.99 47.3381 104.75 47.3838C103.806 47.5634 103.194 47.6276 102.422 47.6276C101.592 47.6276 101.1 47.564 100.411 47.3676C99.613 47.1402 98.5406 46.36 98.1379 45.7142C97.9534 45.4179 97.6814 44.8758 97.6459 44.7336C97.6283 44.662 97.5754 44.4697 97.5286 44.3063C97.2402 43.2983 97.2391 41.9538 97.5262 40.9812C97.576 40.8122 97.6278 40.6277 97.6416 40.5711C97.6686 40.4584 97.887 39.9971 98.0537 39.7002ZM103.004 40.1617C102.936 40.0992 102.798 40.0055 102.696 39.9538C102.379 39.7917 101.501 39.8011 101.169 39.9702C100.736 40.1908 100.461 40.5633 100.26 41.2001C100.21 41.36 100.152 41.4589 100.179 41.5198C100.231 41.6365 100.596 41.6138 101.926 41.6138H103.679L103.654 41.4291C103.599 41.0183 103.378 40.4719 103.216 40.3452C103.167 40.3069 103.072 40.2245 103.004 40.1617Z"
        fill="#7A8AA0" />
    <path
        d="M112.918 38.0665C112.901 37.9785 112.877 37.8795 112.864 37.8467C112.842 37.7903 112.925 37.7868 114.305 37.7872L115.77 37.7876L115.985 38.5474C116.103 38.9655 116.278 39.5534 116.373 39.854C116.468 40.1548 116.577 40.5084 116.615 40.64C116.653 40.7714 116.79 41.1944 116.92 41.5796C117.051 41.9648 117.182 42.357 117.212 42.4509C117.242 42.5448 117.348 42.8347 117.449 43.0949C117.55 43.3552 117.632 43.5857 117.632 43.6072C117.632 43.665 117.748 43.9371 117.773 43.9371C117.798 43.9373 118.091 43.1115 118.24 42.6217C118.297 42.4339 118.405 42.0803 118.48 41.8359C118.742 40.9865 119.103 39.7513 119.102 39.7082C119.102 39.6844 119.208 39.2923 119.338 38.8369C119.469 38.3816 119.58 37.9627 119.586 37.9063L119.597 37.8038L122.459 37.786L122.437 37.9316C122.399 38.1923 121.469 41.0759 121.084 42.1264C121.033 42.2672 120.964 42.4671 120.93 42.5704C120.898 42.6738 120.788 42.968 120.687 43.224C120.585 43.4801 120.502 43.7036 120.502 43.721C120.502 43.7382 120.417 43.9592 120.312 44.2122C120.207 44.465 120.078 44.7912 120.024 44.9369C119.937 45.1707 119.823 45.4376 119.613 45.9019C119.58 45.9772 119.541 46.0772 119.527 46.1242C119.502 46.2132 119.365 46.518 119.204 46.8448C119.153 46.9498 119.091 47.0957 119.067 47.1693C119.043 47.2427 118.924 47.5029 118.801 47.7471C118.679 47.9915 118.56 48.2299 118.537 48.2768C118.515 48.3238 118.428 48.4749 118.346 48.6125C118.263 48.75 118.157 48.929 118.11 49.0104C118.063 49.0916 117.964 49.231 117.889 49.3202C117.814 49.4096 117.715 49.5313 117.667 49.591C117.546 49.7431 117.085 50.1531 116.983 50.2001C116.936 50.2216 116.839 50.2749 116.768 50.3186C116.003 50.7875 114.321 50.8609 113.129 50.4777C112.819 50.378 112.747 50.3428 112.76 50.2977C112.812 50.1175 112.917 49.6263 112.917 49.5596C112.917 49.4752 113.215 48.1719 113.24 48.1469C113.249 48.1385 113.398 48.1721 113.573 48.2213C114.998 48.6235 115.844 48.3014 116.312 47.1794L116.406 46.9535L116.312 46.7523C116.26 46.6416 116.114 46.336 115.988 46.0729C115.576 45.2147 115.274 44.5618 115.274 44.5259C115.274 44.5066 115.212 44.357 115.136 44.1933C114.889 43.665 114.823 43.5121 114.795 43.4077C114.78 43.3514 114.695 43.1437 114.607 42.9464C114.518 42.749 114.397 42.4493 114.337 42.2801C114.277 42.111 114.15 41.7649 114.055 41.5113C113.96 41.2575 113.848 40.95 113.807 40.8278C113.347 39.488 112.959 38.2836 112.918 38.0665Z"
        fill="#7A8AA0" />
    <path
        d="M63.9424 40.8598C64.4654 40.3042 64.6403 40.147 64.7973 40.091C65.0312 40.0073 65.2285 40.0449 65.7098 40.2642C65.854 40.33 65.9852 40.3838 66.0012 40.3838C66.0409 40.3838 66.5098 40.6525 66.6232 40.7401C66.6732 40.779 66.7778 40.8489 66.8553 40.8955C67.1847 41.0933 67.6132 41.6093 67.8635 42.1092C68.3818 43.1443 68.2576 45.2853 67.6409 45.947C67.6042 45.9864 67.574 46.0362 67.574 46.0578C67.574 46.2127 66.8171 46.8171 66.3118 47.0654C65.2924 47.5663 63.1769 47.7899 61.7483 47.548C61.5792 47.5195 61.3254 47.4777 61.1845 47.4551C60.6187 47.3649 59.7291 47.0732 59.1918 46.802L58.9896 46.7001L59.0114 46.565C59.0233 46.4908 59.111 46.2189 59.2065 45.961C59.3021 45.7031 59.4384 45.3152 59.5094 45.0991C59.5805 44.8828 59.6613 44.6522 59.6889 44.5866C59.7166 44.5208 59.7488 44.4396 59.7607 44.4064C59.78 44.3514 59.804 44.3567 60.0178 44.4644C60.2632 44.588 60.5225 44.6868 61.099 44.8765C61.5464 45.0235 61.5642 45.0271 62.1053 45.0841C64.1735 45.3025 65.1696 44.949 65.2112 43.982C65.242 43.2661 64.8252 42.861 63.491 42.3111C62.9807 42.1008 62.9388 41.9698 63.2562 41.5769C63.362 41.4459 63.4692 41.3272 63.4942 41.3133C63.5192 41.2991 63.721 41.0952 63.9424 40.8598Z"
        fill="#7A8AA0" />
    <path
        d="M127.187 36.1484C126.355 35.2763 126.746 33.8254 127.909 33.4678C128.679 33.2308 129.588 33.6167 129.94 34.3297C130.069 34.5936 130.058 35.4632 129.92 35.7607C129.472 36.7311 127.948 36.9471 127.187 36.1484Z"
        fill="#7A8AA0" />
    <path
        d="M61.0215 35.0934C61.4008 34.8601 62.2754 34.5921 62.9271 34.5093C64.2222 34.3449 66.0243 34.5969 67.0787 35.0897C67.1915 35.1424 67.322 35.1951 67.369 35.2066C67.657 35.2775 67.6533 35.3281 67.297 36.2273C67.1863 36.5064 67.0957 36.7557 67.0957 36.7809C67.0957 36.8414 66.8226 37.555 66.7831 37.5981C66.7632 37.6196 66.7291 37.6169 66.6869 37.5907C66.651 37.5681 66.5399 37.5198 66.4401 37.4831C66.3402 37.4466 66.1436 37.3682 66.003 37.3094C65.3797 37.0486 64.9154 36.9672 64.0547 36.9676C62.6828 36.9687 62.1948 37.2504 62.1932 38.0432C62.1917 38.6523 62.6028 39.0594 63.593 39.4299C64.1429 39.6355 63.9977 39.8998 62.5854 41.2633C61.9654 41.862 61.1316 41.6375 60.101 40.5946C58.6442 39.1205 59.0122 36.1874 60.7734 35.2359C60.8485 35.1953 60.96 35.1313 61.0215 35.0934Z"
        fill="#7A8AA0" />
    <path fill-rule="evenodd" clip-rule="evenodd"
        d="M132.045 40.1612C132.558 38.9422 133.803 37.9423 135.212 37.6167C136.119 37.407 137.447 37.5468 138.35 37.9472C138.665 38.0872 138.775 38.152 139.205 38.4516C139.405 38.5906 139.965 39.1644 140.037 39.3042C140.065 39.3587 140.114 39.4313 140.146 39.4654C140.216 39.541 140.525 40.0911 140.525 40.1409C140.525 40.1606 140.562 40.2579 140.607 40.3572C141.092 41.4269 141.147 43.2206 140.732 44.4845C140.417 45.4422 139.956 46.1316 139.257 46.6911C138.908 46.9701 138.171 47.3615 137.881 47.4214C137.804 47.4374 137.595 47.486 137.416 47.5296C136.933 47.6475 135.678 47.6475 135.195 47.5296C135.016 47.486 134.802 47.4366 134.72 47.4193C134.582 47.391 134.113 47.1737 133.722 46.9568C133.384 46.7692 132.461 45.8832 132.461 45.7458C132.461 45.7288 132.396 45.6185 132.316 45.5006C131.416 44.1727 131.302 41.9268 132.045 40.1612ZM137.978 41.1783C137.737 40.5376 137.33 40.1265 136.769 39.9605C136.367 39.8411 135.784 39.9102 135.427 40.1202C133.923 41.0011 134.056 44.5216 135.615 45.1182C136.37 45.4073 137.396 45.1156 137.699 44.5259L137.868 44.1936C138.239 43.4668 138.291 42.0159 137.978 41.1783Z"
        fill="#7A8AA0" />
    <path
        d="M127.083 47.4019C127.034 47.383 127.028 46.9269 127.028 42.584V37.7869H129.796V42.584C129.796 46.9269 129.791 47.383 129.742 47.4019C129.672 47.429 127.153 47.429 127.083 47.4019Z"
        fill="#7A8AA0" />
    <path
        d="M123.236 44.2961C123.339 44.2641 123.439 44.2332 123.458 44.227C124.056 44.0343 125.052 44.4669 125.345 45.0465C126.085 46.5121 124.778 48.0252 123.219 47.5071C121.704 47.0038 121.716 44.7642 123.236 44.2961Z"
        fill="#7A8AA0" />
</svg>