<svg width="200" height="84" viewBox="0 0 200 84" fill="none" xmlns="http://www.w3.org/2000/svg">
    <g clip-path="url(#clip0_13611_3554)">
        <path
            d="M83.8715 51.9409C81.6235 51.8881 79.4826 51.4662 77.7699 49.9367C76.9671 49.251 76.4318 48.3016 75.7896 47.405C75.522 46.9831 75.4149 46.4556 75.8431 46.0337C76.2713 45.559 76.86 45.4535 77.4488 45.7172C77.8769 45.9282 78.3586 46.1919 78.6263 46.5611C80.1784 48.8818 82.4799 49.3565 85.1025 49.0928C85.5842 49.04 86.0659 48.9345 86.5476 48.7763C87.5645 48.4071 88.0997 47.616 88.2603 46.6139C88.3673 45.8227 87.9927 45.0843 87.1898 44.8206C85.7447 44.3459 84.2996 44.0822 82.8545 43.6075C81.4629 43.1856 80.0178 42.7637 78.6798 42.1307C77.3952 41.5506 76.5924 40.4957 76.2713 39.1244C75.8431 37.3312 76.6995 35.4324 78.4122 34.3776C80.4995 33.059 82.801 33.0063 85.2095 33.27C87.2969 33.5337 89.0096 34.3776 90.0265 36.2236C90.2406 36.54 90.3477 36.962 90.4547 37.3312C90.6688 37.9113 90.5618 38.386 90.0801 38.7552C89.5448 39.1244 88.9561 39.2299 88.4209 38.808C88.0462 38.5443 87.7251 38.1751 87.511 37.8059C86.8152 36.6455 85.7983 36.0653 84.4602 35.9071C83.2292 35.8016 82.0517 35.8016 80.8742 36.1708C79.9108 36.4873 79.4291 37.1729 79.3756 38.1223C79.322 38.9662 79.8038 39.5991 80.4995 39.9156C81.6235 40.3902 82.801 40.7594 83.9785 41.0759C85.3166 41.4451 86.7081 41.6561 88.0462 42.1307C91.2576 43.2911 92.3815 46.4029 90.5618 49.251C89.5984 50.7278 88.0997 51.308 86.387 51.6244C85.5307 51.8354 84.6743 51.8881 83.8715 51.9409Z"
            fill="#7A8AA0" />
        <path
            d="M116.199 41.8143C116.253 41.1814 116.253 40.6012 116.306 39.9683C116.36 39.0717 116.895 38.5442 117.698 38.4915C118.5 38.4915 119.089 39.0189 119.143 39.9155C119.196 41.2341 119.196 42.4999 119.196 43.8185C119.196 45.8227 119.196 47.8797 119.143 49.8839C119.089 51.2025 118.233 51.8354 116.948 51.5717C116.467 51.4662 116.36 51.097 116.36 50.7278C116.306 49.7257 116.199 48.7236 116.145 47.616C116.038 47.8269 115.931 47.9852 115.878 48.1434C114.968 50.9915 112.506 52.1518 109.776 51.7826C105.762 51.2552 103.354 47.5632 104.263 43.502C105.12 39.7046 108.92 37.4366 112.667 38.4915C114.379 38.9662 115.503 40.1793 116.199 41.8143ZM107.047 44.9261C107.047 47.7215 108.813 49.5147 111.543 49.5147C114.486 49.5147 116.199 47.8797 116.145 44.9788C116.092 42.5527 114.647 40.5485 111.382 40.6539C108.599 40.7067 107.047 42.1835 107.047 44.9261Z"
            fill="#7A8AA0" />
        <path
            d="M147.349 41.9199C147.51 41.6034 147.67 41.287 147.831 41.0233C149.758 37.7532 154.842 37.2785 157.09 40.2321C157.572 40.865 157.946 41.7617 158 42.5001C158.107 44.979 158.107 47.4051 158.054 49.884C158.054 50.9389 157.465 51.519 156.608 51.519C155.752 51.519 155.217 50.8861 155.163 49.7785C155.11 47.8271 155.11 45.8228 155.11 43.8714C155.056 40.865 152.648 40.3903 150.507 40.8123C149.115 41.076 148.098 41.9726 147.349 43.0802C147.188 43.2912 147.135 43.6604 147.135 43.9241C147.135 45.8756 147.135 47.8798 147.135 49.8313C147.135 50.5169 146.707 51.1498 146.118 51.3081C145.529 51.519 144.941 51.3608 144.566 50.8334C144.352 50.5697 144.245 50.1477 144.245 49.7785C144.245 46.5085 144.191 43.2384 144.245 39.9684C144.245 38.9663 144.887 38.3861 145.743 38.3861C146.546 38.4389 147.135 39.0718 147.135 40.0211C147.135 40.6013 147.135 41.1287 147.135 41.7089C147.242 41.8671 147.296 41.9199 147.349 41.9199Z"
            fill="#7A8AA0" />
        <path
            d="M96.3957 38.5444C96.3957 37.9115 96.3957 37.3313 96.3957 36.8039C96.3957 35.8018 96.9844 35.1161 97.8408 35.0634C98.5901 35.0106 99.2324 35.6435 99.3394 36.5929C99.393 37.0148 99.393 37.4895 99.3394 37.9115C99.2859 38.3862 99.4465 38.5444 99.9282 38.5444C100.41 38.5444 100.838 38.5444 101.32 38.5971C102.016 38.6499 102.444 39.0718 102.497 39.652C102.551 40.2321 102.123 40.7068 101.48 40.8651C100.999 40.9705 100.517 40.9705 100.035 40.9705C99.5 40.9178 99.2859 41.076 99.2859 41.6562C99.3394 44.1351 99.3394 46.5613 99.3394 49.0402C99.3394 49.5148 99.3394 49.9895 99.2859 50.4115C99.1789 51.0444 98.5901 51.5718 97.9478 51.6245C97.3591 51.6773 96.7168 51.2554 96.5027 50.6224C96.3957 50.2532 96.3422 49.884 96.3422 49.5148C96.3422 46.9305 96.3422 44.3461 96.3422 41.7617C96.3422 41.5507 96.3422 41.287 96.3422 40.9705C95.7534 40.9705 95.1647 40.9705 94.6295 40.9705C93.8801 40.9705 93.1844 40.3904 93.1844 39.7575C93.1844 39.1245 93.8266 38.5971 94.6295 38.5971C95.1647 38.5444 95.6999 38.5444 96.3957 38.5444Z"
            fill="#7A8AA0" />
        <path
            d="M125.672 42.5527C125.672 45.0316 125.672 47.5105 125.672 49.9894C125.672 50.9388 125.137 51.5189 124.174 51.5717C123.478 51.6244 122.943 51.097 122.836 50.2004C122.782 49.9367 122.782 49.6202 122.782 49.3565C122.782 44.6624 122.782 39.9683 122.782 35.2742C122.782 34.7995 122.889 34.1666 123.21 33.8502C123.478 33.5337 124.067 33.3755 124.495 33.3755C125.03 33.3755 125.458 33.7974 125.565 34.3776C125.619 34.6413 125.619 34.9578 125.619 35.2215C125.619 37.7004 125.619 40.1265 125.672 42.5527Z"
            fill="#7A8AA0" />
        <path
            d="M126.636 44.2404C126.903 43.7657 127.011 43.2383 127.385 42.9218C128.777 41.5505 130.168 40.2847 131.613 38.9661C132.256 38.386 132.951 38.386 133.433 38.9134C134.022 39.4936 133.968 40.2319 133.326 40.8121C132.202 41.867 131.078 42.8691 129.901 43.8712C129.473 44.2404 129.58 44.4514 129.901 44.7678C131.346 46.2446 132.791 47.7741 134.236 49.2509C134.611 49.6729 134.878 50.1476 134.611 50.675C134.397 51.0442 133.968 51.3606 133.594 51.4661C133.273 51.5716 132.791 51.3606 132.523 51.1497C130.757 49.3564 128.991 47.5104 127.278 45.6644C127.011 45.2952 126.85 44.7678 126.636 44.2404Z"
            fill="#7A8AA0" />
        <path
            d="M137.769 44.9261C137.769 43.3438 137.769 41.7088 137.769 40.1265C137.769 39.4408 138.09 39.0189 138.678 38.7024C139.16 38.4387 139.642 38.5442 140.07 38.8607C140.338 39.1244 140.552 39.4936 140.659 39.81C140.766 40.232 140.766 40.7067 140.766 41.1813C140.766 43.8185 140.766 46.4556 140.766 49.0927C140.766 49.5147 140.712 49.9894 140.659 50.4113C140.552 51.1497 139.963 51.5716 139.214 51.5716C138.571 51.5716 137.983 51.1497 137.876 50.4113C137.822 50.0948 137.769 49.7256 137.769 49.3565C137.769 47.8797 137.769 46.4029 137.769 44.9261Z"
            fill="#7A8AA0" />
        <path
            d="M139.16 33.0063C140.231 33.0063 140.926 33.5338 140.926 34.3777C140.926 35.2215 140.177 35.8017 139.107 35.749C138.197 35.749 137.501 35.1688 137.554 34.3249C137.501 33.481 138.143 33.0063 139.16 33.0063Z"
            fill="#7A8AA0" />
        <path fill-rule="evenodd" clip-rule="evenodd"
            d="M50.872 30.926C46.4537 30.926 42.872 34.5078 42.872 38.926V46.0742C42.872 50.4925 46.4537 54.0742 50.872 54.0742H58.272C62.6903 54.0742 66.272 50.4924 66.272 46.0742V38.926C66.272 34.5077 62.6903 30.926 58.272 30.926H50.872ZM55.7514 36.0013C55.3239 36.0013 54.9048 35.9876 54.4922 35.9741C53.6048 35.9451 52.7477 35.9171 51.9034 36.0285C50.1717 36.246 48.9349 37.8502 48.9349 39.5904C48.9349 41.3849 50.1443 42.8532 51.9583 43.2067C52.0181 43.2151 52.0805 43.2262 52.144 43.2375L52.144 43.2375C52.2847 43.2624 52.4304 43.2883 52.563 43.2883C52.6213 43.2915 52.6808 43.2932 52.7404 43.2948C53.1862 43.3075 53.6382 43.3204 53.6625 43.968C53.6899 44.4574 53.2502 44.6749 52.4531 44.6206C49.9519 44.4846 47.8354 42.5813 47.5881 40.3517C47.2582 37.2792 49.2372 35.24 51.601 34.6962C51.7934 34.6418 52.0133 34.6418 52.2057 34.6418C52.7747 34.6418 53.3407 34.6388 53.9057 34.6358H53.9057H53.9057H53.9057H53.9058C55.0327 34.6297 56.1555 34.6237 57.2906 34.6418C59.5444 34.6418 61.8807 36.953 61.8533 39.1554C61.8533 39.4273 61.7433 39.7807 61.5509 39.8895C61.386 39.9983 60.9737 39.8895 60.7813 39.7535C59.5994 38.965 58.3076 38.5844 56.9058 38.53C56.0812 38.5028 55.7514 38.1493 55.7239 37.3336C55.7514 36.9258 55.7514 36.4907 55.7514 36.0013ZM57.6479 48.7807C56.8102 48.9096 55.9472 48.8763 55.0419 48.8415C54.6106 48.8248 54.1697 48.8079 53.7174 48.8079V47.4755C53.6625 46.687 53.3326 46.3607 52.563 46.3336C51.1613 46.2792 49.8694 45.8713 48.6875 45.11C48.4676 44.9741 48.0553 44.8653 47.8904 44.9741C47.698 45.0828 47.6156 45.4635 47.5881 45.7354C47.5606 45.9801 47.6156 46.2792 47.698 46.5239C48.3852 48.8079 50.1992 50.2217 52.6455 50.2489C54.0748 50.2761 55.5315 50.2761 56.9608 50.2489C59.1596 50.2217 61.0562 48.8079 61.7158 46.7686C62.348 44.7837 61.6334 42.5269 59.9018 41.249C58.9672 40.5693 57.8678 40.243 56.6859 40.243C56.2187 40.243 55.8339 40.3789 55.8064 40.8955C55.7789 41.4665 56.1912 41.6025 56.6859 41.6025C56.8783 41.6025 57.0432 41.6025 57.2356 41.6297C59.0497 41.82 60.4515 43.2339 60.5339 44.9741C60.6164 46.8774 59.517 48.4816 57.6479 48.7807Z"
            fill="#7A8AA0" />
    </g>
    <defs>
        <clipPath id="clip0_13611_3554">
            <rect width="117" height="25" fill="white" transform="translate(41 30)" />
        </clipPath>
    </defs>
</svg>