<svg width="200" height="84" viewBox="0 0 200 84" fill="none" xmlns="http://www.w3.org/2000/svg">
    <path
        d="M63.6182 34.1763C65.7949 31.6916 68.9895 30.1218 72.551 30.1218C79.1087 30.1218 84.425 35.4401 84.425 41.9998C84.425 48.5604 79.1092 53.8782 72.5515 53.8782C68.9915 53.8782 65.7979 52.3104 63.6217 49.8277C66.0451 49.4018 68.3087 48.3299 70.1739 46.7252C71.4777 45.6567 72.6316 44.4174 73.6044 43.0406L74.1538 42.2147C74.1958 42.1513 74.2182 42.0769 74.2182 42.0008C74.2182 41.9247 74.1958 41.8503 74.1538 41.7868L73.6009 40.9609C72.626 39.5854 71.472 38.3462 70.1694 37.2759C68.3027 35.6745 66.0401 34.604 63.6182 34.1763Z"
        fill="#7A8AA0" />
    <path fill-rule="evenodd" clip-rule="evenodd"
        d="M62.2166 36.4888C66.727 36.8022 69.8976 40.0743 71.2649 41.7946C71.3117 41.8546 71.3372 41.9286 71.3372 42.0048C71.3372 42.081 71.3117 42.1549 71.2649 42.215C69.8951 43.9353 66.7265 47.1994 62.2211 47.5053C62.1593 47.5098 62.097 47.5133 62.0347 47.5168C62.4708 48.3468 63.0036 49.1228 63.6217 49.8277C63.2052 49.9013 62.7853 49.9551 62.3638 49.9898C62.0868 50.0123 61.8059 50.0198 61.5299 50.0198C58.1498 49.9473 54.9014 48.6952 52.3471 46.4802C51.5096 45.781 50.7363 45.0084 50.0364 44.1715C50.026 44.1612 50.0134 44.1533 49.9996 44.1484C49.9857 44.1435 49.971 44.1417 49.9564 44.1432C49.9418 44.1446 49.9277 44.1492 49.9151 44.1567C49.9025 44.1642 49.8917 44.1744 49.8834 44.1865C49.0889 45.5847 48.4658 47.0736 48.0277 48.6209L48.0187 48.6439L48.0042 48.6669C47.8955 48.8322 47.7483 48.9687 47.5753 49.0645C47.4023 49.1604 47.2086 49.2128 47.0108 49.2174C46.8593 49.2129 46.7103 49.1789 46.5719 49.1179C46.3453 49.0138 46.1534 48.8468 46.0191 48.6367C45.8848 48.4266 45.8138 48.1824 45.8144 47.933V47.91L45.8194 47.887C46.3864 45.8642 47.2354 43.9313 48.3416 42.1453C48.3704 42.0995 48.3856 42.0466 48.3856 41.9926C48.3856 41.9385 48.3704 41.8856 48.3416 41.8398C47.2347 40.0603 46.3872 38.132 45.8249 36.1131L45.8199 36.0981C45.7632 35.8229 45.7966 35.5369 45.9151 35.2822C46.0336 35.0274 46.2309 34.8176 46.4779 34.6838C46.6085 34.6211 46.751 34.5867 46.8959 34.5827C47.0407 34.5787 47.1848 34.6053 47.3188 34.6608C47.4786 34.7228 47.6238 34.8173 47.7451 34.9384C47.8665 35.0595 47.9613 35.2045 48.0237 35.3642L48.0287 35.3872C48.4654 36.9295 49.0868 38.4133 49.8794 39.8066C49.8877 39.8187 49.8985 39.8289 49.9111 39.8364C49.9237 39.8439 49.9378 39.8485 49.9524 39.85C49.967 39.8514 49.9817 39.8496 49.9956 39.8447C50.0094 39.8398 50.022 39.8319 50.0324 39.8216C50.7308 38.9872 51.5027 38.217 52.3386 37.5204C55.1017 35.1025 58.6919 33.8452 62.3598 34.0109C62.7817 34.0461 63.2018 34.1008 63.6186 34.1748C63.0028 34.8776 62.4719 35.6505 62.0368 36.4775C58.1248 36.2836 54.2823 38.3458 51.4907 41.8243C51.4503 41.874 51.4283 41.936 51.4283 42.0001C51.4283 42.0641 51.4503 42.1261 51.4907 42.1758C54.2802 45.6527 58.1195 47.7144 62.0337 47.5161C61.1681 45.8675 60.6778 43.9915 60.6778 42C60.675 40.0763 61.1416 38.1803 62.0368 36.4775L62.2166 36.4888ZM67.8801 42.6112C67.9577 42.4668 68.0058 42.3083 68.0213 42.145C68.0519 41.8246 67.9558 41.505 67.7536 41.2545C67.5514 41.0041 67.2592 40.8428 66.9396 40.8052C66.6199 40.7675 66.2982 40.8565 66.0434 41.0531C65.7886 41.2497 65.6208 41.5383 65.5762 41.8571C65.5534 42.0195 65.5633 42.1848 65.6053 42.3433C65.6473 42.5018 65.7205 42.6504 65.8207 42.7802C65.9208 42.91 66.0459 43.0186 66.1886 43.0994C66.3313 43.1802 66.4887 43.2317 66.6515 43.2509C66.8144 43.2701 66.9795 43.2566 67.137 43.2111C67.2946 43.1656 67.4415 43.0891 67.5691 42.9861C67.6967 42.8831 67.8024 42.7556 67.8801 42.6112Z"
        fill="#7A8AA0" />
    <path
        d="M137.536 37.1549C137.882 37.1549 138.168 37.0549 138.386 36.8585C138.606 36.6595 138.718 36.396 138.718 36.0751C138.718 35.7546 138.606 35.4932 138.384 35.2982C138.167 35.1072 137.881 35.0102 137.536 35.0102C137.181 35.0102 136.893 35.1077 136.68 35.2992C136.464 35.4932 136.355 35.7541 136.355 36.0751C136.355 36.3955 136.464 36.659 136.679 36.858C136.892 37.055 137.18 37.1549 137.536 37.1549Z"
        fill="#7A8AA0" />
    <path
        d="M133.463 38.4145H137.624C138.383 38.4145 138.542 38.8415 138.542 39.2004V44.8912C138.542 45.2022 138.445 45.4461 138.253 45.6161C138.064 45.7831 137.823 45.8681 137.536 45.8681C137.25 45.8681 137.006 45.7836 136.813 45.6171C136.615 45.4471 136.515 45.2027 136.515 44.8907V39.9873H133.463V44.8907C133.463 45.2027 133.365 45.4446 133.173 45.6101C132.984 45.7716 132.743 45.8536 132.457 45.8536C132.172 45.8536 131.929 45.7716 131.736 45.6106C131.537 45.4456 131.437 45.2032 131.437 44.8907V39.9873H130.801C130.042 39.9873 129.883 39.5594 129.883 39.2009C129.883 38.842 130.042 38.4145 130.801 38.4145H131.437C131.441 37.4957 131.694 36.7543 132.188 36.2098C132.686 35.6614 133.395 35.342 134.296 35.2615L134.633 35.2325C134.709 35.2205 134.785 35.2155 134.861 35.2175C135.584 35.2175 135.736 35.6294 135.736 35.9744C135.736 36.2153 135.667 36.4058 135.531 36.5418C135.398 36.6748 135.215 36.7533 134.988 36.7753L134.665 36.8043C134.243 36.8413 133.935 36.9707 133.748 37.1887C133.559 37.4097 133.463 37.7406 133.463 38.1746V38.4145Z"
        fill="#7A8AA0" />
    <path
        d="M144.981 41.8406C145.368 42.0241 145.651 42.2585 145.821 42.5375C145.991 42.816 146.077 43.1734 146.077 43.6004C146.077 44.2948 145.785 44.8592 145.209 45.2777C144.642 45.6891 143.881 45.8976 142.946 45.8976C141.867 45.8976 140.981 45.6801 140.314 45.2527C139.973 45.0487 139.8 44.7547 139.8 44.3778C139.8 44.1583 139.862 43.9768 139.985 43.8368C140.111 43.6934 140.269 43.6204 140.453 43.6204C140.637 43.6204 140.877 43.7009 141.188 43.8668C141.46 43.9967 141.74 44.1069 142.028 44.1968C142.276 44.2718 142.6 44.3098 142.99 44.3098C143.38 44.3098 143.687 44.2453 143.9 44.1183C144.1 43.9988 144.197 43.8393 144.197 43.6299C144.197 43.4879 144.16 43.3804 144.085 43.3004C144.003 43.2144 143.848 43.1314 143.625 43.0544C143.389 42.9725 143.025 42.8775 142.544 42.771C141.663 42.593 141.019 42.334 140.632 42.0021C140.235 41.6621 140.034 41.1882 140.034 40.5938C140.031 40.1536 140.171 39.7244 140.433 39.3709C140.697 39.011 141.063 38.7285 141.522 38.532C141.976 38.3371 142.5 38.2386 143.078 38.2386C143.487 38.2375 143.895 38.2903 144.29 38.3956C144.679 38.5005 145.033 38.6555 145.343 38.8555C145.684 39.068 145.857 39.3574 145.857 39.7139C145.857 39.9319 145.795 40.1178 145.674 40.2668C145.548 40.4218 145.389 40.5003 145.203 40.5003C145.083 40.5003 144.964 40.4758 144.849 40.4268C144.744 40.3813 144.61 40.3128 144.452 40.2238C144.175 40.0808 143.933 39.9718 143.734 39.9009C143.54 39.8314 143.295 39.7964 143.004 39.7964C142.665 39.7964 142.395 39.8644 142.202 39.9988C142.018 40.1273 141.928 40.2978 141.928 40.5208C141.928 40.7302 142.018 40.8852 142.203 40.9942C142.408 41.1157 142.818 41.2402 143.42 41.3642C144.079 41.5021 144.604 41.6626 144.981 41.8406Z"
        fill="#7A8AA0" />
    <path
        d="M151.588 38.2377C151.058 38.2377 150.577 38.3427 150.16 38.5487C149.838 38.7063 149.553 38.9316 149.325 39.2091V36.091C149.325 35.809 149.23 35.582 149.043 35.4171C148.859 35.2551 148.615 35.1731 148.319 35.1731C148.022 35.1731 147.775 35.2601 147.587 35.4331C147.395 35.608 147.298 35.839 147.298 36.1205V44.8903C147.298 45.1903 147.39 45.4303 147.57 45.6052C147.749 45.7792 147.996 45.8672 148.305 45.8672C148.612 45.8672 148.861 45.7797 149.046 45.6062C149.231 45.4313 149.326 45.1908 149.326 44.8903V41.6198C149.326 41.0913 149.477 40.6649 149.775 40.3524C150.072 40.0415 150.474 39.884 150.972 39.884C151.391 39.884 151.699 39.994 151.889 40.2099C152.082 40.4304 152.18 40.7914 152.18 41.2828V44.8903C152.18 45.1908 152.274 45.4318 152.46 45.6062C152.644 45.7797 152.893 45.8672 153.201 45.8672C153.509 45.8672 153.756 45.7792 153.936 45.6052C154.115 45.4303 154.207 45.1903 154.207 44.8903V41.2828C154.207 39.2626 153.326 38.2377 151.588 38.2377Z"
        fill="#7A8AA0" />
    <path
        d="M92.7959 41.8402C93.1828 42.0237 93.4658 42.2582 93.6363 42.5371C93.8057 42.8156 93.8922 43.173 93.8922 43.6C93.8922 44.2944 93.5998 44.8588 93.0238 45.2773C92.4574 45.6887 91.6955 45.8972 90.7606 45.8972C89.6818 45.8972 88.7969 45.6797 88.1295 45.2523C87.7875 45.0483 87.6145 44.7543 87.6145 44.3774C87.6145 44.1579 87.6765 43.9764 87.7995 43.8365C87.926 43.693 88.0835 43.62 88.2685 43.62C88.4524 43.62 88.6924 43.7005 89.0034 43.8665C89.2751 43.9963 89.5558 44.1066 89.8433 44.1964C90.0912 44.2714 90.4147 44.3094 90.8046 44.3094C91.1951 44.3094 91.502 44.2449 91.715 44.1179C91.915 43.9984 92.012 43.839 92.012 43.6295C92.012 43.4875 91.9755 43.38 91.8995 43.3C91.8175 43.214 91.6625 43.1311 91.4395 43.0541C91.2041 42.9721 90.8406 42.8771 90.3587 42.7706C89.4778 42.5926 88.8339 42.3337 88.4469 42.0017C88.05 41.6617 87.849 41.1878 87.849 40.5934C87.849 40.1444 87.9835 39.7325 88.249 39.3705C88.5124 39.0106 88.8784 38.7281 89.3368 38.5317C89.7918 38.3367 90.3147 38.2382 90.8926 38.2382C91.3019 38.2371 91.7095 38.2899 92.105 38.3952C92.478 38.4929 92.8335 38.6481 93.1588 38.8551C93.4988 39.0676 93.6723 39.357 93.6723 39.7135C93.6723 39.9315 93.6108 40.1174 93.4893 40.2664C93.3628 40.4214 93.2043 40.4999 93.0183 40.4999C92.8979 40.4999 92.7789 40.4754 92.6649 40.4264C92.5589 40.3809 92.4249 40.3124 92.2669 40.2234C91.991 40.0805 91.748 39.9715 91.549 39.9005C91.3551 39.831 91.1101 39.796 90.8191 39.796C90.4797 39.796 90.2097 39.864 90.0172 39.9985C89.8333 40.1269 89.7433 40.2974 89.7433 40.5204C89.7433 40.7299 89.8333 40.8848 90.0182 40.9938C90.2232 41.1153 90.6327 41.2398 91.2346 41.3638C91.8945 41.5018 92.4194 41.6622 92.7959 41.8402Z"
        fill="#7A8AA0" />
    <path
        d="M98.7336 44.2804L99.1295 44.3094C99.8095 44.3504 99.9519 44.7433 99.9519 45.0658C99.9519 45.3348 99.8409 45.5427 99.622 45.6832C99.442 45.7982 99.1975 45.8562 98.8936 45.8562C98.8471 45.8562 98.7996 45.8547 98.7506 45.8527L98.3526 45.8227C96.6589 45.7017 95.8 44.7808 95.8 43.0861V39.9865H95.1641C94.8781 39.9865 94.6526 39.9195 94.4941 39.788C94.3297 39.652 94.2462 39.454 94.2462 39.2001C94.2462 38.9461 94.3292 38.7481 94.4941 38.6116C94.6531 38.4802 94.8786 38.4137 95.1641 38.4137H95.8V37.1613C95.8 36.8709 95.8945 36.6349 96.0799 36.4599C96.2639 36.287 96.5134 36.199 96.8208 36.199C97.1183 36.199 97.3628 36.287 97.5467 36.4599C97.7327 36.6349 97.8267 36.8714 97.8267 37.1613V38.4142H98.9761C99.261 38.4142 99.487 38.4807 99.646 38.6121C99.8105 38.7486 99.8939 38.9466 99.8939 39.2006C99.8939 39.4545 99.8105 39.6525 99.646 39.7885C99.487 39.92 99.2615 39.987 98.9756 39.987H97.8267V43.2185C97.8267 43.8885 98.1237 44.2354 98.7336 44.2804Z"
        fill="#7A8AA0" />
    <path fill-rule="evenodd" clip-rule="evenodd"
        d="M104.112 38.2377C105.131 38.2377 105.902 38.4972 106.402 39.0076C106.902 39.518 107.156 40.2984 107.156 41.3268V44.9053C107.156 45.1953 107.067 45.4283 106.892 45.5977C106.718 45.7672 106.478 45.8527 106.179 45.8527C105.9 45.8527 105.668 45.7647 105.488 45.5912C105.32 45.4278 105.229 45.2153 105.218 44.9588C105.052 45.2036 104.834 45.4089 104.58 45.5602C104.209 45.7837 103.775 45.8967 103.292 45.8967C102.8 45.8967 102.346 45.7947 101.943 45.5932C101.538 45.3913 101.215 45.1083 100.982 44.7533C100.748 44.3969 100.629 43.9939 100.629 43.556C100.629 43.0061 100.773 42.5646 101.056 42.2447C101.338 41.9277 101.796 41.6957 102.42 41.5548C103.03 41.4168 103.88 41.3468 104.947 41.3468H105.217V41.1068C105.217 40.6554 105.122 40.3249 104.935 40.1244C104.75 39.926 104.439 39.8255 104.009 39.8255C103.726 39.827 103.444 39.8677 103.171 39.9465C102.883 40.028 102.536 40.1479 102.139 40.3029C101.877 40.4344 101.681 40.4999 101.547 40.4999C101.342 40.4999 101.172 40.4249 101.042 40.2764C100.914 40.1324 100.849 39.943 100.849 39.7135C100.845 39.5406 100.895 39.3707 100.99 39.2266C101.081 39.0916 101.233 38.9661 101.441 38.8516C101.79 38.6621 102.21 38.5107 102.691 38.4017C103.169 38.2927 103.647 38.2377 104.112 38.2377ZM105.217 42.7201V42.5091H105.05C104.404 42.5091 103.896 42.5381 103.541 42.5956C103.201 42.6511 102.957 42.7466 102.815 42.8786C102.678 43.0076 102.612 43.181 102.612 43.4095C102.612 43.6965 102.709 43.9245 102.91 44.1074C103.113 44.2929 103.357 44.3829 103.658 44.3829C104.123 44.3829 104.491 44.2319 104.782 43.922C105.071 43.615 105.217 43.21 105.217 42.7201Z"
        fill="#7A8AA0" />
    <path
        d="M112.89 41.9707L115.362 44.1874C115.578 44.3934 115.687 44.6294 115.687 44.8903C115.687 45.1393 115.597 45.3638 115.42 45.5577C115.24 45.7537 115.026 45.8527 114.784 45.8527C114.545 45.8527 114.32 45.7552 114.116 45.5622L110.85 42.6016V44.8903C110.85 45.2028 110.75 45.4453 110.551 45.6102C110.358 45.7712 110.115 45.8527 109.829 45.8527C109.543 45.8527 109.302 45.7712 109.113 45.6097C108.921 45.4443 108.823 45.2023 108.823 44.8903V36.1355C108.823 35.8235 108.921 35.581 109.114 35.4161C109.302 35.2546 109.543 35.1731 109.829 35.1731C110.115 35.1731 110.358 35.2546 110.551 35.4156C110.75 35.5805 110.85 35.823 110.85 36.1355V41.4223L113.823 38.5727C114.015 38.3802 114.241 38.2822 114.491 38.2822C114.613 38.2816 114.735 38.3059 114.847 38.3537C114.96 38.4015 115.061 38.4717 115.146 38.5602C115.33 38.7441 115.423 38.9651 115.423 39.2151C115.423 39.4655 115.32 39.696 115.116 39.8995L112.89 41.9707Z"
        fill="#7A8AA0" />
    <path fill-rule="evenodd" clip-rule="evenodd"
        d="M121.811 43.8635C122.116 43.7005 122.342 43.62 122.496 43.62C122.588 43.6177 122.679 43.6369 122.762 43.6763C122.846 43.7156 122.918 43.7739 122.975 43.8465C123.091 43.9914 123.15 44.1844 123.15 44.4214C123.15 44.7603 122.951 45.0453 122.558 45.2683C122.195 45.4675 121.808 45.6208 121.407 45.7247C120.98 45.8392 120.566 45.8967 120.18 45.8967C119.005 45.8967 118.06 45.5517 117.37 44.8718C116.68 44.1909 116.33 43.2495 116.33 42.0747C116.33 41.3293 116.481 40.6579 116.78 40.0795C117.067 39.5136 117.509 39.042 118.056 38.7206C118.601 38.4007 119.227 38.2382 119.916 38.2382C120.575 38.2382 121.159 38.3857 121.651 38.6766C122.144 38.9691 122.531 39.387 122.802 39.919C123.072 40.4484 123.208 41.0798 123.208 41.7962C123.208 42.3977 122.853 42.5241 122.554 42.5241H118.337C118.404 43.1186 118.582 43.563 118.869 43.846C119.172 44.1439 119.622 44.2949 120.209 44.2949C120.51 44.2949 120.779 44.2574 121.007 44.1824C121.242 44.1054 121.512 43.9984 121.811 43.8635ZM118.339 41.3473H121.441C121.41 40.8259 121.272 40.4244 121.031 40.1524C120.774 39.8635 120.423 39.7225 119.96 39.7225C119.491 39.7225 119.113 39.8705 118.835 40.1624C118.572 40.4384 118.405 40.8369 118.339 41.3473Z"
        fill="#7A8AA0" />
    <path
        d="M127.81 41.239C127.607 40.9825 127.312 40.8168 126.987 40.7784C126.663 40.7399 126.337 40.8319 126.08 41.034C125.824 41.2361 125.658 41.5319 125.62 41.8562C125.581 42.1805 125.673 42.5068 125.875 42.7634C126.077 43.0199 126.373 43.1856 126.697 43.224C127.022 43.2625 127.348 43.1705 127.605 42.9684C127.861 42.7663 128.027 42.4705 128.065 42.1462C128.104 41.8219 128.012 41.4956 127.81 41.239Z"
        fill="#7A8AA0" />
</svg>