<svg width="200" height="84" viewBox="0 0 200 84" fill="none" xmlns="http://www.w3.org/2000/svg">
    <path d="M50.273 31.0015L72.5872 26.2681L85.0776 32.2545V34.0643L72.5872 29.6093L50.273 32.9505V31.0015Z"
        fill="#7A8AA0" />
    <path d="M50.275 34.0661L71.2705 30.8641L85.0796 35.0406V36.8505L71.2705 34.0661L50.275 36.4328V34.0661Z"
        fill="#7A8AA0" />
    <path d="M69.7205 35.598L50.275 37.547V39.7745L69.7205 38.5216L85.0796 39.7745V37.8255L69.7205 35.598Z"
        fill="#7A8AA0" />
    <path d="M50.275 40.8866L67.6238 40.4689L85.0796 40.8866V42.8356L67.6238 43.5317L50.275 42.8356V40.8866Z"
        fill="#7A8AA0" />
    <path d="M66.2739 45.3425L50.275 43.9503V45.7602L66.2739 48.4053L85.0796 46.0386V43.9503L66.2739 45.3425Z"
        fill="#7A8AA0" />
    <path d="M50.275 46.8732L64.5647 50.0752L85.0796 47.4301V49.6576L64.5647 52.8596L50.275 48.8222V46.8732Z"
        fill="#7A8AA0" />
    <path d="M63.0084 54.3907L50.275 49.6573V51.6064L63.0084 57.732L85.0796 52.8593V50.9103L63.0084 54.3907Z"
        fill="#7A8AA0" />
    <path
        d="M90.8101 38.0965H89.0938C89.1066 38.5546 89.1835 38.9554 89.3115 39.3218C89.4396 39.6883 89.6446 39.9861 89.9007 40.238C90.1569 40.4899 90.4899 40.6846 90.8869 40.822C91.2712 40.9595 91.7451 41.0282 92.283 41.0282C92.7441 41.0282 93.1668 40.9709 93.5382 40.8449C93.9096 40.7304 94.2299 40.5586 94.486 40.3296C94.7422 40.112 94.9343 39.8486 95.0752 39.528C95.2033 39.2188 95.2801 38.8752 95.2801 38.4859C95.2801 38.0507 95.1777 37.6842 94.9727 37.4094C94.7678 37.1345 94.4988 36.9169 94.1914 36.7337C93.884 36.5619 93.551 36.4245 93.1924 36.31C92.8338 36.1955 92.488 36.0809 92.1806 35.9664C91.8732 35.8519 91.617 35.7259 91.4121 35.5771C91.2071 35.4396 91.1047 35.245 91.1047 34.993C91.1047 34.8785 91.1175 34.7754 91.1559 34.6609C91.1815 34.5578 91.2456 34.4662 91.3352 34.3746C91.4249 34.2945 91.5402 34.2257 91.6939 34.1685C91.8475 34.1227 92.0397 34.0883 92.283 34.0883C92.5136 34.0883 92.7057 34.1341 92.8594 34.2257C93.0131 34.3174 93.1284 34.4204 93.218 34.5464C93.3077 34.6838 93.3717 34.8327 93.4101 34.993C93.4392 35.1144 93.461 35.2358 93.481 35.3473C93.4873 35.3829 93.4936 35.4179 93.4998 35.4511H95.2161C95.2161 35.1533 95.152 34.8327 95.0496 34.512C94.9343 34.1914 94.755 33.8936 94.5244 33.6188C94.2939 33.3554 93.9865 33.1378 93.6151 32.966C93.2436 32.7943 92.7953 32.7026 92.283 32.7026C91.7451 32.7026 91.2968 32.7713 90.9126 32.8859C90.5283 33.0004 90.2081 33.1722 89.9648 33.3783C89.7214 33.5844 89.5421 33.8364 89.4268 34.1227C89.3115 34.4204 89.2603 34.7296 89.2603 35.0732C89.2603 35.5542 89.3628 35.9435 89.5677 36.2413C89.7726 36.539 90.0288 36.7795 90.3362 36.9627C90.6436 37.146 90.9766 37.2949 91.3352 37.3979C91.6939 37.5124 92.0269 37.6155 92.3343 37.7071C92.6417 37.7987 92.8978 37.9133 93.1027 38.0392C93.3077 38.1766 93.4101 38.3484 93.4101 38.566C93.4101 38.8638 93.3205 39.1043 93.1412 39.3104C92.9619 39.5165 92.6673 39.6081 92.283 39.6081C91.7963 39.6081 91.4377 39.4822 91.2071 39.2073C90.9766 38.9439 90.8357 38.5775 90.8101 38.0965Z"
        fill="#7A8AA0" />
    <path d="M95.9338 32.8744V34.2715H97.9959V40.8908H99.8531V34.2715H101.877V32.8744H95.9338Z" fill="#7A8AA0" />
    <path fill-rule="evenodd" clip-rule="evenodd"
        d="M108.753 40.8908L107.946 39.1043H104.142L103.373 40.8908H101.516L105.102 32.8744H106.896L110.61 40.8908H108.753ZM107.267 37.5582L106.012 34.7525L104.782 37.5582H107.267Z"
        fill="#7A8AA0" />
    <path
        d="M113.058 37.6728L115.914 40.8908H118.028L114.531 36.8711L118.028 32.8744H115.914L113.058 36.0809V32.8744H111.201V40.8908H113.058V37.6728Z"
        fill="#7A8AA0" />
    <path d="M118.809 40.8908V32.8744H120.666V40.8908H118.809Z" fill="#7A8AA0" />
    <path
        d="M124.081 35.4511L128.167 40.8908H129.947V32.8744H128.09V38.0621L124.171 32.8744H122.224V40.8908H124.081V35.4511Z"
        fill="#7A8AA0" />
    <path
        d="M135.385 37.9591V36.5619H140.176V37.6041C140.099 38.1194 139.958 38.5889 139.74 39.0012C139.522 39.4249 139.241 39.7914 138.882 40.0891C138.523 40.3869 138.088 40.6274 137.576 40.7877C137.063 40.948 136.474 41.0282 135.821 41.0282C135.181 41.0282 134.579 40.9251 134.041 40.7075C133.503 40.4899 133.029 40.1922 132.632 39.8143C132.222 39.4478 131.914 39.0012 131.684 38.4973C131.453 37.9934 131.351 37.4437 131.351 36.8711C131.351 36.2985 131.453 35.7488 131.684 35.245C131.914 34.7411 132.222 34.2945 132.619 33.9165C133.016 33.5501 133.49 33.2523 134.041 33.0347C134.579 32.8172 135.181 32.7026 135.821 32.7026C137.025 32.7026 137.998 32.966 138.754 33.4928C139.497 34.0196 139.984 34.7754 140.188 35.7832H138.485C138.357 35.3022 138.062 34.9358 137.588 34.6724C137.115 34.409 136.525 34.2715 135.834 34.2715C135.462 34.2715 135.116 34.3403 134.796 34.4662C134.476 34.6037 134.194 34.7754 133.964 35.0045C133.72 35.2335 133.528 35.5084 133.4 35.829C133.259 36.1497 133.195 36.5047 133.195 36.8826C133.195 37.2719 133.259 37.6155 133.4 37.9362C133.528 38.2568 133.72 38.5431 133.964 38.7721C134.194 39.0012 134.476 39.1844 134.796 39.3104C135.116 39.4478 135.462 39.5051 135.834 39.5051C136.192 39.5051 136.513 39.4707 136.794 39.3905C137.076 39.3104 137.307 39.1959 137.512 39.0584C137.717 38.921 137.883 38.7492 138.011 38.566C138.139 38.3828 138.242 38.1766 138.319 37.9591H135.385Z"
        fill="#7A8AA0" />
    <path d="M89.4781 43.3272V51.3435H91.3352V48.3202H94.3195V46.9231H91.3352V44.8732H94.5757V43.3272H89.4781Z"
        fill="#7A8AA0" />
    <path fill-rule="evenodd" clip-rule="evenodd"
        d="M102.023 51.3435L101.217 49.5571H97.4126L96.6441 51.3435H94.7869L98.3732 43.3272H100.166L103.881 51.3435H102.023ZM100.538 48.011L99.2825 45.2053L98.053 48.011H100.538Z"
        fill="#7A8AA0" />
    <path
        d="M113.11 48.2172H111.292C111.215 48.4577 111.112 48.6753 110.971 48.8814C110.818 49.0875 110.638 49.2593 110.421 49.4082C110.203 49.5571 109.947 49.6716 109.665 49.7517C109.37 49.8434 109.05 49.8777 108.692 49.8777C108.295 49.8777 107.936 49.8204 107.616 49.683C107.283 49.5571 107.014 49.3738 106.783 49.1448C106.553 48.9157 106.373 48.6524 106.245 48.3431C106.117 48.0339 106.053 47.7018 106.053 47.3354C106.053 46.9804 106.117 46.6483 106.245 46.3391C106.373 46.0299 106.553 45.755 106.783 45.526C107.014 45.2969 107.283 45.1252 107.616 44.9877C107.936 44.8618 108.295 44.7931 108.692 44.7931C109.383 44.7931 109.96 44.9534 110.421 45.2511C110.869 45.5489 111.164 45.9497 111.292 46.4536H113.123C113.046 45.9955 112.88 45.5718 112.636 45.171C112.38 44.7702 112.06 44.4151 111.676 44.1174C111.279 43.8196 110.831 43.5906 110.318 43.4188C109.806 43.2471 109.268 43.1554 108.679 43.1554C108.038 43.1554 107.436 43.27 106.898 43.4875C106.348 43.7051 105.874 44.0029 105.477 44.3693C105.08 44.7473 104.772 45.1939 104.542 45.6978C104.311 46.2016 104.209 46.7513 104.209 47.3239C104.209 47.8965 104.311 48.4462 104.542 48.9501C104.772 49.454 105.08 49.9006 105.49 50.2671C105.887 50.645 106.361 50.9427 106.898 51.1603C107.436 51.3779 108.038 51.481 108.679 51.481C109.268 51.481 109.806 51.4008 110.318 51.229C110.831 51.0687 111.279 50.8397 111.663 50.5419C112.047 50.2442 112.368 49.9006 112.624 49.4998C112.867 49.1104 113.034 48.6753 113.11 48.2172Z"
        fill="#7A8AA0" />
    <path d="M116.389 51.3435H114.531V43.3272H116.389V51.3435Z" fill="#7A8AA0" />
    <path d="M117.946 51.3435H122.659V49.9464H119.803V43.3272H117.946V51.3435Z" fill="#7A8AA0" />
    <path d="M125.657 51.3435H123.8V43.3272H125.657V51.3435Z" fill="#7A8AA0" />
    <path d="M126.753 43.3272V44.7243H128.815V51.3435H130.673V44.7243H132.696V43.3272H126.753Z" fill="#7A8AA0" />
    <path d="M135.663 51.3435H133.806V43.3272H135.663V51.3435Z" fill="#7A8AA0" />
    <path
        d="M137.221 51.3435H142.575V49.8777H139.078V48.0454H142.318V46.6483H139.078V44.7931H142.575V43.3272H137.221V51.3435Z"
        fill="#7A8AA0" />
    <path
        d="M143.541 48.5493H145.257C145.283 49.0303 145.424 49.3967 145.654 49.6601C145.885 49.935 146.243 50.0609 146.73 50.0609C147.114 50.0609 147.409 49.9693 147.588 49.7632C147.767 49.5571 147.857 49.3166 147.857 49.0188C147.857 48.8012 147.755 48.6294 147.55 48.492C147.345 48.3661 147.089 48.2515 146.781 48.1599C146.474 48.0683 146.141 47.9652 145.782 47.8507C145.424 47.7477 145.09 47.5988 144.783 47.4155C144.476 47.2323 144.22 46.9918 144.015 46.6941C143.81 46.3963 143.707 46.007 143.707 45.526C143.707 45.1824 143.758 44.8732 143.874 44.5755C143.989 44.2892 144.168 44.0372 144.412 43.8311C144.655 43.625 144.975 43.4532 145.359 43.3387C145.744 43.2241 146.192 43.1554 146.73 43.1554C147.242 43.1554 147.691 43.2471 148.062 43.4188C148.433 43.5906 148.741 43.8082 148.971 44.0716C149.202 44.3464 149.381 44.6442 149.496 44.9648C149.599 45.2855 149.663 45.6061 149.663 45.9039H147.947L147.939 45.8629L147.928 45.8002C147.908 45.6888 147.886 45.5672 147.857 45.4458C147.819 45.2855 147.755 45.1366 147.665 44.9992C147.575 44.8732 147.46 44.7702 147.306 44.6785C147.153 44.5869 146.96 44.5411 146.73 44.5411C146.487 44.5411 146.294 44.5755 146.141 44.6213C145.987 44.6785 145.872 44.7473 145.782 44.8274C145.692 44.919 145.628 45.0106 145.603 45.1137C145.564 45.2282 145.552 45.3313 145.552 45.4458C145.552 45.6978 145.654 45.8924 145.859 46.0299C146.064 46.1787 146.32 46.3047 146.627 46.4192C146.935 46.5337 147.281 46.6483 147.639 46.7628C147.998 46.8773 148.331 47.0147 148.638 47.1865C148.946 47.3697 149.215 47.5873 149.42 47.8622C149.625 48.137 149.727 48.5035 149.727 48.9386C149.727 49.328 149.65 49.6716 149.522 49.9808C149.381 50.3014 149.189 50.5648 148.933 50.7824C148.677 51.0114 148.357 51.1832 147.985 51.2977C147.614 51.4237 147.191 51.481 146.73 51.481C146.192 51.481 145.718 51.4123 145.334 51.2748C144.937 51.1374 144.604 50.9427 144.348 50.6908C144.091 50.4388 143.887 50.1411 143.758 49.7746C143.63 49.4082 143.554 49.0074 143.541 48.5493Z"
        fill="#7A8AA0" />
</svg>