<svg viewBox="0 0 44 44" fill="none" xmlns="http://www.w3.org/2000/svg" id="blog-transparent">\n
    <path fill-rule="evenodd" clip-rule="evenodd"
        d="M44 22C44 34.1503 34.1503 44 22 44C9.84974 44 0 34.1503 0 22C0 9.84974 9.84974 0 22 0C34.1503 0 44 9.84974 44 22ZM27.9444 19.2973L22.006 10L16.0676 19.2972L22.0056 22.7589L27.9444 19.2973ZM22.006 12.4064L17.8855 18.8575L22.0057 21.2595L26.1265 18.8575L22.006 12.4064ZM15.1084 20.7865L21.9972 24.8024L21.9974 24.8026L28.8876 20.7864L29.0758 21.081C31.1975 24.4028 30.7236 28.7531 27.9365 31.5402C24.6568 34.8199 19.3393 34.8199 16.0596 31.5402C13.2725 28.7531 12.7986 24.4028 14.9203 21.081L15.1084 20.7865Z"
        fill="currentColor" />\n
</svg>