<svg width="160" height="34" viewBox="0 0 160 34" fill="none" xmlns="http://www.w3.org/2000/svg">
    <path fill-rule="evenodd" clip-rule="evenodd"
        d="M36.5854 21.2307V12.255L38.7491 10.1428H44.815L46.9003 12.1793V13.6693H45.0462V12.8207L43.9259 11.7271H39.6381L38.4396 12.8957V20.59L39.6374 21.7585H43.9259L45.0462 20.6657V19.8164H46.9011V21.3064L44.8142 23.3428H38.7484L36.5854 21.2307ZM49.1225 10.1428H58.2015V11.7271H50.9767V15.9321H57.6411V17.4971H50.9767V21.7585H58.2015V23.3428H49.1225V10.1428ZM70.4481 19.1943V23.3428H68.594V19.6471L66.9908 17.9685H62.3737V23.3428H60.5196V10.1428H68.4974L70.3706 11.9714V16.0828L68.8837 17.535L70.4481 19.1943ZM62.3737 16.4228H67.6669L68.5362 15.5928V12.5185L67.6669 11.6893H62.3737V16.4228ZM76.0698 11.7085H71.9942V10.1428H81.9996V11.7078H77.924V23.3428H76.0698V11.7078V11.7085ZM83.4484 21.2307V12.255L85.612 10.1428H91.9867L94.1503 12.255V21.2307L91.9867 23.3428H85.612L83.4484 21.2307ZM91.0984 21.7593L92.2962 20.59V12.8957L91.0984 11.7271H86.5011L85.3033 12.8957V20.59L86.5011 21.7585H91.0984V21.7593ZM106.784 19.1943V23.3428H104.929V19.6471L103.326 17.9685H98.7089V23.3428H96.8547V10.1428H104.833L106.706 11.9714V16.0828L105.219 17.535L106.784 19.1943ZM98.7089 16.4228H104.002L104.871 15.5928V12.5185L104.002 11.6893H98.7089V16.4228ZM113.274 10.1428H115.128L119.996 23.3428H118.084L116.887 19.9857H111.536L110.338 23.3428H108.426L113.274 10.1428ZM116.404 18.4585L114.221 12.2928H114.182L112.038 18.4585H116.404Z"
        fill="#2D505F" />
    <path d="M25.7144 4.05933V25.1L13.4634 32L1.2124 25.1008V4.05933H25.7144Z" fill="#79F2A5" stroke="#2D505F"
        stroke-width="1.44" />
    <path d="M13.4634 4.4043L25.7144 11.3029V25.1007L13.4634 32L1.2124 25.1007V11.3029L13.4634 4.4043Z" fill="#3399D6"
        stroke="#2D505F" stroke-width="1.44" />
    <path d="M13.4634 4.4043L25.7144 25.1L13.4634 32L1.2124 25.1007L13.4634 4.4043Z" fill="#40DCFF" />
    <path
        d="M1.51387 11.433L25.5285 25.0415M25.5285 11.433L1.51387 25.0415M13.5212 4.70226V31.6137M13.4707 4.54012L1.46484 24.9787M13.4253 4.3894L25.5453 24.9787M13.4634 4.4044L25.7144 11.303V25.1008L13.4634 32.0001L1.2124 25.1008V11.303L13.4634 4.4044Z"
        stroke="#2D505F" stroke-width="1.44" />
</svg>