<svg width="160" height="34" viewBox="0 0 160 34" fill="none" xmlns="http://www.w3.org/2000/svg">
    <g clip-path="url(#clip0_84_1478)">
        <path
            d="M37.4297 13.8395C37.4399 13.5235 37.5678 13.2227 37.7883 12.9961C37.9014 12.891 38.0308 12.8048 38.1714 12.7409C38.3183 12.6827 38.4734 12.6482 38.6311 12.6387H43.1019C43.3374 12.6415 43.5669 12.7132 43.7621 12.8449C43.9573 12.9766 44.1097 13.1625 44.2005 13.3798C44.2586 13.5267 44.2931 13.6818 44.3027 13.8395V14.9153H43.1276V13.8395H38.6568V19.7412H43.1276V18.6653H44.3033V19.7412C44.3005 19.9767 44.2288 20.2062 44.0971 20.4014C43.9654 20.5966 43.7794 20.749 43.5621 20.8398C43.4153 20.8979 43.2601 20.9324 43.1025 20.942H38.6317C38.3962 20.9392 38.1667 20.8675 37.9715 20.7358C37.7763 20.6041 37.6239 20.4181 37.5331 20.2008C37.4749 20.054 37.4404 19.8988 37.4309 19.7412V13.8395"
            fill="#191D34" />
        <path
            d="M53.2685 12.6641V20.916H52.0934V17.3895H47.3668V20.916H46.166V12.6641H47.3668V16.215H52.0934V12.6641H53.2685Z"
            fill="#191D34" />
        <path
            d="M59.0424 12.6641L62.236 20.916H61.0609L60.3197 19.0254H56.5895L55.8483 20.916H54.6738L57.8674 12.6641H59.0424ZM57.0497 17.8503H59.8589L58.4537 14.1972L57.0497 17.8503Z"
            fill="#191D34" />
        <path d="M64.8177 12.6641H63.6426V20.916H64.8177V12.6641Z" fill="#191D34" />
        <path
            d="M68.138 20.916H66.9629V12.6641H68.138L73.0941 19.0768V12.6641H74.2692V20.916H73.0941L68.138 14.5032V20.916Z"
            fill="#191D34" />
        <path
            d="M77.5917 17.3904C77.3563 17.3876 77.1268 17.3159 76.9315 17.1842C76.7363 17.0525 76.5839 16.8666 76.4932 16.6493C76.435 16.5024 76.4005 16.3473 76.391 16.1896V13.8395C76.4012 13.5235 76.5291 13.2227 76.7496 12.9961C76.8627 12.891 76.9921 12.8048 77.1327 12.7409C77.2796 12.6827 77.4347 12.6482 77.5923 12.6387H81.6035C81.839 12.6415 82.0685 12.7132 82.2637 12.8449C82.4589 12.9766 82.6113 13.1625 82.7021 13.3798C82.7603 13.5267 82.7948 13.6818 82.8043 13.8395V14.9153H81.6292V13.8395H77.6174V16.1896H81.6286C81.8641 16.1924 82.0936 16.2641 82.2888 16.3958C82.484 16.5275 82.6364 16.7135 82.7272 16.9308C82.7854 17.0776 82.8199 17.2328 82.8294 17.3904V19.7406C82.8266 19.9761 82.7549 20.2056 82.6232 20.4008C82.4915 20.596 82.3056 20.7484 82.0883 20.8392C81.9414 20.8973 81.7863 20.9318 81.6286 20.9414H77.5152C77.2798 20.9386 77.0503 20.8669 76.855 20.7352C76.6598 20.6035 76.5074 20.4175 76.4167 20.2002C76.3585 20.0534 76.324 19.8982 76.3145 19.7406V18.6647H77.4895V19.7406H81.6029V17.3904H77.5917Z"
            fill="#191D34" />
        <path
            d="M84.8984 12.6641H90.9281V13.8391H86.0741V16.215H90.2132V17.3901H86.0741V19.7409H90.9281V20.916H84.8984V12.6641Z"
            fill="#191D34" />
        <path
            d="M92.6895 13.8395C92.6997 13.5235 92.8276 13.2227 93.0481 12.9961C93.1612 12.891 93.2906 12.8048 93.4312 12.7409C93.578 12.6827 93.7332 12.6482 93.8908 12.6387H98.3617C98.5971 12.6415 98.8266 12.7132 99.0218 12.8449C99.2171 12.9766 99.3695 13.1625 99.4602 13.3798C99.5184 13.5267 99.5529 13.6818 99.5624 13.8395V14.9153H98.3874V13.8395H93.9165V19.7412H98.3874V18.6653H99.563V19.7412C99.5602 19.9767 99.4886 20.2062 99.3568 20.4014C99.2251 20.5966 99.0392 20.749 98.8219 20.8398C98.675 20.8979 98.5199 20.9324 98.3623 20.942H93.8914C93.656 20.9392 93.4265 20.8675 93.2312 20.7358C93.036 20.6041 92.8836 20.4181 92.7929 20.2008C92.7347 20.054 92.7002 19.8988 92.6907 19.7412V13.8395"
            fill="#191D34" />
        <path
            d="M101.428 12.6641H102.603V19.7409H107.33V12.6641H108.505V19.7409C108.502 19.9763 108.431 20.2058 108.299 20.4011C108.167 20.5963 107.981 20.7487 107.764 20.8394C107.617 20.8976 107.462 20.9321 107.304 20.9417H102.578C102.342 20.9388 102.113 20.8672 101.918 20.7355C101.722 20.6038 101.57 20.4178 101.479 20.2005C101.421 20.0537 101.387 19.8985 101.377 19.7409V12.6641"
            fill="#191D34" />
        <path
            d="M117.165 15.6024C117.165 16.7518 116.68 17.4164 115.684 17.5694L117.242 20.9166H115.939L114.406 17.6208H111.825V20.9166H110.65V12.6641H115.173C116.501 12.6641 117.165 13.3281 117.165 14.6825V15.6024ZM111.8 16.4457H115.07C115.317 16.4603 115.561 16.388 115.76 16.2413C115.915 16.0464 115.988 15.7992 115.965 15.5516V14.7333C115.979 14.4866 115.907 14.2425 115.76 14.0436C115.565 13.889 115.318 13.8158 115.07 13.8391H111.8V16.4457Z"
            fill="#191D34" />
        <path d="M120.308 12.6641H119.133V20.916H120.308V12.6641Z" fill="#191D34" />
        <path d="M121.713 12.6641H128.33V13.8391H125.622V20.916H124.447V13.8391H121.713V12.6641Z" fill="#191D34" />
        <path
            d="M130.297 12.6641L132.699 16.5216L135.101 12.6641H136.48L133.287 17.6459V20.916H132.112V17.6459L128.918 12.6641H130.297Z"
            fill="#191D34" />
        <path d="M23.8878 23.6906L12.2852 3.59766" stroke="#191D34" stroke-width="0.28" stroke-miterlimit="10" />
        <path d="M0.681641 10.2891L23.8869 23.6914" stroke="#191D34" stroke-width="0.28" stroke-miterlimit="10" />
        <path d="M23.8869 10.2891L0.681641 23.6914" stroke="#191D34" stroke-width="0.28" stroke-miterlimit="10" />
        <path d="M12.2852 30.4023V3.59766" stroke="#191D34" stroke-width="0.28" stroke-miterlimit="10" />
        <path d="M23.8869 23.6914H0.681641" stroke="#191D34" stroke-width="0.28" stroke-miterlimit="10" />
        <path d="M12.2843 3.59766L0.681641 23.6906" stroke="#191D34" stroke-width="0.28" stroke-miterlimit="10" />
        <path d="M23.8869 10.2891H0.681641" stroke="#191D34" stroke-width="0.28" stroke-miterlimit="10" />
        <path d="M12.2852 30.403L23.8878 10.2891" stroke="#191D34" stroke-width="0.28" stroke-miterlimit="10" />
        <path d="M0.681641 10.2891L12.2843 30.403" stroke="#191D34" stroke-width="0.28" stroke-miterlimit="10" />
        <path d="M23.8869 23.6906V10.2884L12.2843 3.59766L0.681641 10.2884V23.6906L12.2843 30.4023L23.8869 23.6906Z"
            stroke="#191D34" stroke-width="0.28" stroke-miterlimit="10" />
        <path d="M0.681641 17H23.8869" stroke="#191D34" stroke-width="0.28" stroke-miterlimit="10" />
        <path d="M6.37891 26.9931L18.1722 7.00586" stroke="#191D34" stroke-width="0.28" stroke-miterlimit="10" />
        <path d="M17.8951 27.1634L6.65234 6.83789" stroke="#191D34" stroke-width="0.28" stroke-miterlimit="10" />
        <path
            d="M18.0011 13.6553L16.1165 10.3733L8.49458 10.2891L6.39844 13.6553L18.0011 20.346L15.9049 23.6932H8.32543L6.39844 20.346"
            stroke="#191D34" stroke-width="3" stroke-miterlimit="10" stroke-linecap="round" stroke-linejoin="round" />
        <path d="M18.0864 7.00456L12.2003 3.59766L0.597656 10.2884V23.6906L12.2003 30.4023L17.8324 27.1627"
            stroke="#191D34" stroke-width="2" stroke-miterlimit="10" stroke-linecap="round" stroke-linejoin="round" />
    </g>
    <defs>
        <clipPath id="clip0_84_1478">
            <rect width="137" height="28" fill="white" transform="translate(0 3)" />
        </clipPath>
    </defs>
</svg>