<svg viewBox="0 0 48 48" fill="none" xmlns="http://www.w3.org/2000/svg" id="contact-us">\n
    <path fill-rule="evenodd" clip-rule="evenodd"
        d="M24 48C37.2548 48 48 37.2548 48 24C48 10.7452 37.2548 0 24 0C10.7452 0 0 10.7452 0 24C0 37.2548 10.7452 48 24 48ZM33.4656 15.6456C32.4111 14.5889 30.9778 14 29.4878 14H18.5111C15.3989 14 12.8889 16.5111 12.8889 19.6111V28.3889C12.8889 31.4889 15.41 34 18.5111 34H29.4878C32.5889 34 35.1111 31.4889 35.1111 28.3889V19.6111C35.1111 18.1222 34.5211 16.7 33.4656 15.6456ZM31.3444 21.1779L31.2555 21.2668L26.2433 25.2779C25.6222 25.7668 24.8544 26.0334 24.0666 26.0334C23.2766 26.0334 22.5222 25.7668 21.8999 25.2779L16.8444 21.3334L16.6988 21.189C16.4444 20.8556 16.4777 20.3779 16.7777 20.0779C17.0655 19.7779 17.5433 19.7445 17.8888 20.0001L22.8888 24.0001C23.5433 24.5345 24.4666 24.5345 25.1111 24.0001L30.1211 20.0001C30.2888 19.8445 30.5111 19.7656 30.7444 19.7779C30.9655 19.8001 31.1777 19.9012 31.3322 20.0668C31.6099 20.389 31.6099 20.8556 31.3444 21.1779Z"
        fill="currentColor" />\n
</svg>