<svg viewBox="0 0 44 44" fill="none" xmlns="http://www.w3.org/2000/svg" id="defi-2">\n<g clip-path="url(#defi-2_clip0)">
        \n
        <path
            d="M14.1635 14.508C13.966 14.5084 13.7767 14.4277 13.6401 14.2847L8.0445 8.44704C7.76737 8.15824 7.77693 7.69919 8.06608 7.42242C8.35524 7.1453 8.81393 7.15486 9.09105 7.44401L14.6866 13.2817C14.8877 13.4912 14.9439 13.8005 14.83 14.0677C14.716 14.3346 14.4537 14.508 14.1635 14.508Z"
            fill="#F7CB15" />\n
        <path
            d="M30.8657 14.6001C30.573 14.6001 30.3093 14.4242 30.1964 14.1542C30.0839 13.8841 30.1447 13.5727 30.3507 13.3649L33.6433 10.0426C33.9257 9.76018 34.383 9.75912 34.6665 10.0401C34.95 10.3208 34.9528 10.7784 34.6732 11.063L31.3807 14.3853C31.2444 14.523 31.0589 14.6001 30.8657 14.6001Z"
            fill="#F7CB15" />\n
        <path
            d="M10.8564 22.6392H7.05101C6.65072 22.6392 6.32617 22.3146 6.32617 21.9143C6.32617 21.514 6.65072 21.1895 7.05101 21.1895H10.8564C11.2567 21.1895 11.5813 21.514 11.5813 21.9143C11.5813 22.3146 11.2567 22.6392 10.8564 22.6392Z"
            fill="#F7CB15" />\n
        <path
            d="M12.8983 35.5874C12.6163 35.5874 12.36 35.4236 12.2411 35.168C12.1225 34.9121 12.1629 34.6106 12.3448 34.395L15.3093 30.8823C15.5676 30.5765 16.0249 30.5376 16.3307 30.796C16.6369 31.054 16.6754 31.5116 16.4174 31.8174L13.4526 35.3301C13.3149 35.4936 13.1121 35.5878 12.8983 35.5874Z"
            fill="#F7CB15" />\n
        <path
            d="M35.272 36.1865C35.0833 36.1868 34.9025 36.1132 34.7673 35.9819L29.6244 30.9929C29.337 30.7144 29.3303 30.2554 29.6088 29.968C29.8877 29.6809 30.3468 29.6738 30.6338 29.9527L35.7767 34.9413C35.9883 35.147 36.0545 35.4602 35.9437 35.7338C35.8326 36.0074 35.5672 36.1865 35.272 36.1865Z"
            fill="#F7CB15" />\n
        <path
            d="M39.0807 33.6582C41.3822 33.6589 43.3759 35.2548 43.8806 37.5004C44.385 39.7461 43.2655 42.0413 41.1851 43.0259C39.1051 44.0109 36.6202 43.4223 35.2027 41.6088C33.7856 39.7956 33.8146 37.2421 35.2728 35.4615C36.2075 34.3197 37.6055 33.6582 39.0807 33.6582Z"
            fill="#00FFD1" />\n
        <path
            d="M37.6915 0.644531C40.7607 0.644885 43.2485 3.13299 43.2481 6.20224C43.2481 9.27148 40.7597 11.7592 37.6904 11.7589C34.6215 11.7589 32.1334 9.27042 32.1338 6.20117C32.1338 3.13193 34.6222 0.644177 37.6915 0.644531Z"
            fill="#FF4E78" />\n
        <path
            d="M22.4396 10.291C27.9389 10.2907 32.6766 14.1654 33.767 19.5557C34.8575 24.9457 31.9985 30.3576 26.9317 32.4949C21.8648 34.6323 15.9936 32.903 12.8942 28.3604C9.7949 23.8177 10.3258 17.7203 14.1638 13.7818C16.3386 11.5499 19.3229 10.291 22.4396 10.291Z"
            fill="#FF4E78" />\n
        <path
            d="M12.898 34.8623C14.5926 36.4713 14.9069 39.0567 13.6466 41.0249C12.3862 42.9927 9.90663 43.7891 7.736 42.9227C5.56572 42.0563 4.31601 39.7713 4.757 37.4768C5.198 35.1819 7.20617 33.5231 9.54279 33.5234C10.7918 33.522 11.9934 34.0016 12.898 34.8623Z"
            fill="#FF4E78" />\n
        <path
            d="M5.46583 0.509766C7.87642 0.509766 9.83045 2.46379 9.83045 4.87403C9.83045 7.28462 7.87642 9.23865 5.46583 9.23865C3.05559 9.23865 1.10156 7.28462 1.10156 4.87403C1.10156 2.46379 3.05559 0.509766 5.46583 0.509766Z"
            fill="#00FFD1" />\n
        <path
            d="M3.50281 18.3418C5.43808 18.3414 7.00703 19.9097 7.00739 21.845C7.00774 23.7802 5.43914 25.3492 3.50387 25.3492C1.56896 25.3496 5.98945e-08 23.781 5.98945e-08 21.8457C-0.000353866 19.9108 1.56789 18.3422 3.50281 18.3418Z"
            fill="#6853BA" />\n
    </g>\n<defs>\n<clipPath id="defi-2_clip0">\n
            <rect width="44" height="44" fill="white" />\n
        </clipPath>\n</defs>\n</svg>