<svg viewBox="0 0 44 44" fill="none" xmlns="http://www.w3.org/2000/svg" id="github-transparent">\n
    <path fill-rule="evenodd" clip-rule="evenodd"
        d="M22.0002 0C9.85141 0 0 10.0986 0 22.5568C0 32.5231 6.30372 40.9785 15.0451 43.9612C16.1446 44.17 16.5482 43.4719 16.5482 42.8761C16.5482 40.7172 14.4445 39.2894 12.3564 38.7414C10.2255 38.1821 9.40231 36.7016 9.17637 36.191C9.12508 36.0751 9.08388 35.9547 9.03631 35.8372C8.70948 35.0301 8.34184 34.4165 7.9953 33.9563C7.26121 32.9814 5.27273 31.5127 6.48391 31.3636C6.9159 31.3104 7.03691 31.3393 7.45782 31.4501C8.94161 31.8406 9.83986 33.1063 10.1043 33.5289C10.1615 33.6203 10.2139 33.7168 10.2693 33.8093C11.9611 36.6283 14.4995 36.3016 15.9651 35.7933C16.3611 35.656 16.6419 35.1348 16.7478 34.7293C17.0144 33.7086 16.3332 32.3096 15.3123 32.044C11.3918 31.0243 7.96208 28.4412 7.96208 21.3787C7.96208 20.2505 8.14243 19.2168 8.4732 18.276C9.17553 16.2783 9.81341 14.9817 9.78503 12.8643C9.76258 11.1887 11.4572 9.1653 13.0245 9.75813C13.2175 9.83114 13.422 9.91528 13.638 10.0121C15.5458 10.8671 17.6541 11.268 19.7319 11.0377C20.4839 10.9543 21.243 10.9111 22.0002 10.9077C22.7589 10.9111 23.5198 10.9545 24.2738 11.0382C26.3511 11.2687 28.4586 10.8664 30.3657 10.0111C30.581 9.9146 30.7847 9.83068 30.9771 9.75784C32.542 9.16531 34.2356 11.1863 34.2147 12.8596C34.1882 14.9793 34.8278 16.2792 35.528 18.2802C35.8568 19.2199 36.0354 20.2522 36.0354 21.3787C36.0354 27.3828 33.5636 30.1422 30.4154 31.4564C28.79 32.135 27.482 34.9245 27.482 36.6858C27.482 39.7037 27.4565 42.1328 27.4565 42.8761C27.4565 43.4764 27.8525 44.1798 28.9677 43.9582C37.7043 40.9722 44 32.5198 44 22.5568C44 10.0986 34.15 0 22.0002 0Z"
        fill="currentColor" />\n
    <path fill-rule="evenodd" clip-rule="evenodd"
        d="M8.33138 32.3866C8.28293 32.499 8.11097 32.5323 7.95432 32.4553C7.79475 32.3817 7.70513 32.2289 7.75686 32.1165C7.80422 32.0011 7.97654 31.9693 8.13574 32.0459C8.29568 32.1199 8.38676 32.2741 8.33138 32.3866Z"
        fill="currentColor" />\n
    <path fill-rule="evenodd" clip-rule="evenodd"
        d="M9.22295 33.4057C9.11803 33.5055 8.91292 33.4592 8.77375 33.3015C8.62985 33.1443 8.60289 32.934 8.70927 32.8327C8.81747 32.733 9.01638 32.7797 9.16065 32.937C9.30455 33.0961 9.33261 33.3049 9.22295 33.4057Z"
        fill="currentColor" />\n
    <path fill-rule="evenodd" clip-rule="evenodd"
        d="M10.0922 34.7052C9.9574 34.8012 9.73699 34.7112 9.60074 34.5106C9.46594 34.31 9.46594 34.0694 9.60365 33.973C9.74027 33.8767 9.9574 33.9633 10.0955 34.1624C10.2299 34.366 10.2299 34.6069 10.0922 34.7052Z"
        fill="currentColor" />\n
    <path fill-rule="evenodd" clip-rule="evenodd"
        d="M11.2783 35.9601C11.1577 36.0964 10.9008 36.0598 10.7128 35.8738C10.5205 35.6919 10.4669 35.4338 10.5879 35.2974C10.7099 35.1607 10.9682 35.1992 11.1577 35.3837C11.3486 35.5652 11.4069 35.8252 11.2783 35.9601Z"
        fill="currentColor" />\n
    <path fill-rule="evenodd" clip-rule="evenodd"
        d="M12.9183 36.689C12.8651 36.8657 12.6178 36.946 12.3686 36.8709C12.1197 36.7936 11.9569 36.5866 12.0072 36.4081C12.0589 36.2303 12.3074 36.1466 12.5584 36.2269C12.8068 36.3039 12.97 36.5093 12.9183 36.689Z"
        fill="currentColor" />\n
    <path fill-rule="evenodd" clip-rule="evenodd"
        d="M14.7208 36.8241C14.727 37.0101 14.5157 37.1644 14.2541 37.1674C13.9911 37.1737 13.7783 37.0232 13.7754 36.8402C13.7754 36.6523 13.982 36.4995 14.245 36.495C14.5066 36.4898 14.7208 36.6392 14.7208 36.8241Z"
        fill="currentColor" />\n
    <path fill-rule="evenodd" clip-rule="evenodd"
        d="M16.395 36.5316C16.4264 36.7131 16.2446 36.8995 15.9848 36.9488C15.7294 36.997 15.493 36.885 15.4606 36.7049C15.4289 36.5189 15.6139 36.3325 15.869 36.2843C16.1291 36.238 16.3619 36.3471 16.395 36.5316Z"
        fill="currentColor" />\n
</svg>