<svg width="160" height="34" viewBox="0 0 160 34" fill="none" xmlns="http://www.w3.org/2000/svg">
    <g clip-path="url(#clip0_84_1479)">
        <path
            d="M53.4964 7.95585V19.0033H67.0705V16.0426H56.4454V12.9935H67.0705V3.97876H57.3561L53.4964 7.95585ZM64.0781 6.98367V9.94439H56.402V9.19316L58.5704 6.98367H64.0781ZM91.5733 6.98367H99.9867V4.02295H90.359L86.4125 7.95585V12.9935H97.0376V16.0426H86.4125V19.0033H99.9867V9.98858H89.4049V9.14897L91.5733 6.98367ZM69.9761 7.95585V19.0033H72.9685V9.19316L75.0502 6.98367H80.5579V19.0033H83.5502V3.97876H73.8359L69.9761 7.95585ZM20.4934 19.9313V30.9788H34.0676V28.018H23.4858V25.0573H34.0676V16.0868H24.3965L20.4934 19.9313ZM31.1186 19.0033V21.964H23.4425V21.1244L25.6108 18.9149H31.1186V19.0033ZM6.91932 16.9706V6.98367H4.01367V31.0229H6.91932V21.2128L9.08771 19.0033H14.5954V31.0229H17.5878V15.9984H7.87341L6.91932 16.9706ZM50.504 25.0131V20.9919L46.1672 17.545L50.504 14.0982V9.98858H47.5983V12.5516L43.7386 15.6007L39.9222 12.5516V9.98858H37.0166V14.054L41.3534 17.5009L37.0166 20.9477V24.9689H39.9222V22.4059L43.7386 19.3568L47.5983 22.4059V24.9689H50.504V25.0131ZM39.9222 3.97876H35.4987L31.0752 8.48612V12.9935H33.9808V9.76763L36.6696 7.02786H39.8355V3.97876H39.9222ZM53.4964 25.2783L50.7642 28.0622H47.5983V31.0229H52.0218L56.4454 26.5156V22.0082H53.5397V25.2783H53.4964Z"
            fill="black" />
    </g>
    <defs>
        <clipPath id="clip0_84_1479">
            <rect width="96" height="27" fill="white" transform="translate(4 4)" />
        </clipPath>
    </defs>
</svg>