<svg viewBox="0 0 86 20" fill="none" xmlns="http://www.w3.org/2000/svg" id="logo-color-new">\n
    <path d="M27.1699 5.66031H29.3299V14.9303H34.6399V17.0003H27.1699V5.66031Z" fill="#273852" />\n
    <path d="M44.082 5.66031H46.242V17.0003H44.082V5.66031Z" fill="#273852" />\n
    <path
        d="M56.582 5.66031H60.182C60.926 5.66031 61.634 5.81631 62.306 6.12831C62.978 6.42831 63.572 6.83631 64.088 7.35231C64.604 7.86831 65.012 8.46831 65.312 9.15231C65.612 9.83631 65.762 10.5623 65.762 11.3303C65.762 12.0983 65.612 12.8243 65.312 13.5083C65.012 14.1923 64.604 14.7923 64.088 15.3083C63.572 15.8243 62.978 16.2383 62.306 16.5503C61.634 16.8503 60.926 17.0003 60.182 17.0003H56.582V5.66031ZM60.182 14.9303C60.626 14.9303 61.052 14.8343 61.46 14.6423C61.88 14.4503 62.246 14.1923 62.558 13.8683C62.882 13.5443 63.134 13.1663 63.314 12.7343C63.506 12.2903 63.602 11.8223 63.602 11.3303C63.602 10.8383 63.506 10.3763 63.314 9.94431C63.134 9.50031 62.882 9.11631 62.558 8.79231C62.246 8.46831 61.88 8.21031 61.46 8.01831C61.052 7.82631 60.626 7.73031 60.182 7.73031H58.742V14.9303H60.182Z"
        fill="#273852" />\n
    <path
        d="M80.3405 17.0903C79.5965 17.0903 78.8885 16.9463 78.2165 16.6583C77.5565 16.3583 76.9745 15.9503 76.4705 15.4343C75.9785 14.9063 75.5825 14.2943 75.2825 13.5983C74.9945 12.9023 74.8505 12.1463 74.8505 11.3303C74.8505 10.5263 74.9945 9.77631 75.2825 9.08031C75.5825 8.37231 75.9785 7.76031 76.4705 7.24431C76.9745 6.71631 77.5565 6.30831 78.2165 6.02031C78.8885 5.72031 79.5965 5.57031 80.3405 5.57031C81.0845 5.57031 81.7865 5.72031 82.4465 6.02031C83.1185 6.30831 83.7005 6.71631 84.1925 7.24431C84.6965 7.76031 85.0925 8.37231 85.3805 9.08031C85.6805 9.77631 85.8305 10.5263 85.8305 11.3303C85.8305 12.1463 85.6805 12.9023 85.3805 13.5983C85.0925 14.2943 84.6965 14.9063 84.1925 15.4343C83.7005 15.9503 83.1185 16.3583 82.4465 16.6583C81.7865 16.9463 81.0845 17.0903 80.3405 17.0903ZM80.3405 15.0203C80.7845 15.0203 81.2105 14.9303 81.6185 14.7503C82.0265 14.5703 82.3805 14.3183 82.6805 13.9943C82.9805 13.6583 83.2205 13.2683 83.4005 12.8243C83.5805 12.3683 83.6705 11.8703 83.6705 11.3303C83.6705 10.7903 83.5805 10.2983 83.4005 9.85431C83.2205 9.39831 82.9805 9.00831 82.6805 8.68431C82.3805 8.34831 82.0265 8.09031 81.6185 7.91031C81.2105 7.73031 80.7845 7.64031 80.3405 7.64031C79.8845 7.64031 79.4525 7.73031 79.0445 7.91031C78.6485 8.09031 78.3005 8.34831 78.0005 8.68431C77.7005 9.00831 77.4605 9.39831 77.2805 9.85431C77.1005 10.2983 77.0105 10.7903 77.0105 11.3303C77.0105 11.8703 77.1005 12.3683 77.2805 12.8243C77.4605 13.2683 77.7005 13.6583 78.0005 13.9943C78.3005 14.3183 78.6485 14.5703 79.0445 14.7503C79.4525 14.9303 79.8845 15.0203 80.3405 15.0203Z"
        fill="#273852" />\n
    <path fill-rule="evenodd" clip-rule="evenodd"
        d="M7.00529 0L11.954 7.74771L7.00502 10.6324L2.05668 7.74763L7.00529 0ZM3.57156 7.38126L7.00529 2.00535L10.439 7.38128L7.00506 9.3829L3.57156 7.38126Z"
        fill="#00A3FF" />\n
    <path
        d="M6.99796 12.3353L1.25737 8.98872L1.1006 9.23415C-0.667488 12.0023 -0.272613 15.6276 2.04997 17.9502C4.78308 20.6833 9.21433 20.6833 11.9474 17.9502C14.27 15.6276 14.6649 12.0023 12.8968 9.23415L12.74 8.98865L6.9982 12.3355L6.99796 12.3353Z"
        fill="#00A3FF" />\n
</svg>