<svg xmlns="http://www.w3.org/2000/svg" width="48" height="49" fill="none"><rect width="48" height="48" y=".004" fill="#233447" rx="24"/><path fill="#E2761B" d="M35.706 11.005 25.56 18.54l1.876-4.446 8.269-3.09Z"/><path fill="#E4761B" d="m12.286 11.004 10.064 7.607-1.785-4.517-8.28-3.09Zm19.77 17.466-2.702 4.14 5.781 1.59 1.662-5.638-4.74-.091Zm-20.841.092 1.652 5.639 5.781-1.59-2.702-4.14-4.73.091Z"/><path fill="#E4761B" d="m18.322 21.476-1.61 2.437 5.74.255L22.248 18l-3.926 3.476Zm11.348 0-3.976-3.548-.133 6.24 5.73-.255-1.62-2.437ZM18.648 32.61l3.447-1.683-2.977-2.324-.47 4.007Zm7.25-1.683 3.456 1.683-.48-4.007-2.976 2.324Z"/><path fill="#D7C1B3" d="m29.354 32.61-3.456-1.681.275 2.253-.03.948 3.211-1.52Zm-10.706.001 3.212 1.52-.02-.949.254-2.253-3.446 1.682Z"/><path fill="#C0AD9E" d="m26.142 34.13.03-.948-.254-.224h-3.844l-.235.224.02.948-3.21-1.52 1.12.919 2.274 1.58h3.906l2.284-1.58 1.121-.918-3.212 1.52Z"/><path fill="#233447" d="m26.08 27.115.847-1.774 2.039.928-2.886.846Zm-4.17 0-2.875-.846 2.03-.928.846 1.774Z"/><path fill="#CD6116" d="m18.648 32.61.489-4.14-3.191.093 2.702 4.048Zm10.216-4.14.49 4.14 2.702-4.047-3.192-.092Zm2.426-4.557-5.73.255.53 2.947.847-1.774 2.04.928 2.314-2.356Zm-12.255 2.356 2.04-.928.835 1.774.54-2.947-5.74-.255 2.325 2.356Z"/><path fill="#E4751F" d="m16.71 23.914 2.406 4.69-.081-2.335-2.325-2.355Zm12.268 2.355-.102 2.335 2.416-4.69-2.314 2.355Zm-6.526-2.101-.54 2.947.672 3.477.153-4.578-.285-1.846Zm3.108 0-.274 1.835.122 4.589.683-3.477-.53-2.947Z"/><path fill="#F6851B" d="m26.091 27.115-.683 3.477.49.336 2.977-2.325.102-2.335-2.886.847Zm-7.056-.847.082 2.335 2.977 2.325.49-.337-.673-3.476-2.876-.847Z"/><path fill="#161616" d="m25.897 30.929-.49-.337h-2.824l-.489.337-.255 2.253.235-.224h3.844l.255.224-.276-2.253Z"/><path fill="#763D16" d="m36.133 19.029.867-4.16-1.295-3.865-9.809 7.28 3.773 3.192 5.333 1.56 1.182-1.377-.51-.367.816-.744-.632-.49.816-.621-.54-.408ZM11 14.869l.867 4.16-.55.408.815.622-.622.49.816.743-.51.367 1.172 1.377 5.333-1.56 3.772-3.191-9.808-7.28L11 14.868Z"/><path fill="#F6851B" d="m35.002 23.036-5.332-1.56 1.62 2.437-2.416 4.69 3.182-.04h4.74l-1.794-5.527Zm-16.68-1.56-5.333 1.56-1.774 5.526h4.73l3.172.041-2.406-4.69 1.61-2.437Zm7.238 2.694.337-5.884 1.55-4.19h-6.883l1.53 4.19.357 5.883.122 1.856.01 4.568h2.824l.02-4.568.133-1.856Z"/></svg>