<svg viewBox="0 0 44 44" fill="none" xmlns="http://www.w3.org/2000/svg" id="mint">\n
    <path
        d="M42.1667 11.917C41.0667 11.917 39.9667 11.7337 39.4167 12.8337C37.95 15.4003 34.4667 16.317 31.9 14.8503C30.9833 14.3003 30.4333 13.7503 29.8833 12.8336C29.15 11.5503 27.1333 11.5503 26.4 12.8336C24.9333 15.4003 21.45 16.3169 18.8833 14.8503C17.9666 14.3003 17.4166 13.7503 16.8666 12.8336C16.3166 11.5503 14.4833 11.7336 13.7499 12.8336C12.2832 15.4003 8.79991 16.3169 6.23322 14.8503C4.76652 14.117 4.21652 12.1003 2.74991 11.917C1.4667 11.7336 0 12.2836 0 13.7503V33.917C0 35.017 0.733305 35.7503 1.8333 35.7503H42.1666C43.2666 35.7503 43.9999 35.017 43.9999 33.917V13.7503C44 12.6503 43.2667 11.917 42.1667 11.917Z"
        fill="#CCF2FE" />\n
    <path
        d="M42.1667 24.7509H41.0667C40.3334 24.7509 39.7834 25.1176 39.4167 25.6676C37.95 28.2342 34.4667 29.1509 31.9 27.6843C30.9833 27.1343 30.4333 26.5843 29.8833 25.6676C29.15 24.3843 27.1333 24.3843 26.4 25.6676C24.9333 28.2342 21.45 29.1509 18.8833 27.6843C17.6 26.9509 16.8667 24.7509 15.2167 24.7509C15.7667 24.7509 14.85 24.7509 14.6667 24.9342C14.3 25.1175 13.9334 25.3009 13.75 25.6675C12.2833 28.2342 8.8 29.1508 6.2333 27.6842C4.76661 26.9509 4.21661 24.9342 2.56661 24.7509C1.2833 24.5676 0 25.1176 0 26.5842V41.2508C0 42.3508 0.733305 43.0842 1.8333 43.0842H42.1666C43.2666 43.0842 43.9999 42.3508 43.9999 41.2508V26.5842C44 25.4842 43.2667 24.7509 42.1667 24.7509Z"
        fill="#34CDFA" />\n
    <path
        d="M22.0003 8.24864C23.0128 8.24864 23.8336 7.42784 23.8336 6.41534C23.8336 5.40283 23.0128 4.58203 22.0003 4.58203C20.9878 4.58203 20.167 5.40283 20.167 6.41534C20.167 7.42784 20.9878 8.24864 22.0003 8.24864Z"
        fill="#67D9FB" />\n
    <path
        d="M34.8333 11.9166C35.8458 11.9166 36.6666 11.0958 36.6666 10.0833C36.6666 9.0708 35.8458 8.25 34.8333 8.25C33.8208 8.25 33 9.0708 33 10.0833C33 11.0958 33.8208 11.9166 34.8333 11.9166Z"
        fill="#67D9FB" />\n
    <path
        d="M33.0003 4.58262C34.0128 4.58262 34.8336 3.76183 34.8336 2.74932C34.8336 1.73681 34.0128 0.916016 33.0003 0.916016C31.9878 0.916016 31.167 1.73681 31.167 2.74932C31.167 3.76183 31.9878 4.58262 33.0003 4.58262Z"
        fill="#67D9FB" />\n
</svg>