<svg width="160" height="34" viewBox="0 0 160 34" fill="none" xmlns="http://www.w3.org/2000/svg">
    <path
        d="M7.93916 15.0188L8.04316 12.7586H7.91881L5.59762 16.5532H5.10022L2.67502 12.7586H2.57102L2.69537 14.7904V22.7492H0V8.24097H2.8819L5.36927 12.2616H5.45179L7.91881 8.24097H10.7796V22.7492H7.93916V15.0188Z"
        fill="#29C278" />
    <path
        d="M12.8298 20.4698H16.4789V14.6653H12.8298V12.3867H19.1724V20.4698H23.0077V22.7491H12.8298V20.4698ZM15.9804 9.56733C15.9804 9.13964 16.1402 8.77338 16.459 8.46929C16.7762 8.16519 17.2186 8.01221 17.7846 8.01221C18.3649 8.01221 18.8288 8.16519 19.1743 8.46929C19.5202 8.77338 19.6932 9.13964 19.6932 9.56733C19.6932 10.0097 19.5202 10.3733 19.1743 10.6567C18.8295 10.9401 18.3657 11.0806 17.7846 11.0806C17.2186 11.0806 16.7762 10.9401 16.459 10.6567C16.1394 10.3733 15.9804 10.0097 15.9804 9.56733Z"
        fill="#29C278" />
    <path
        d="M28.4171 17.402L24.8098 12.3862H28.023L30.3653 15.8477L32.8112 12.3862H35.7334L32.1894 17.3613L35.9391 22.7487H32.8112L30.1791 18.9357L27.5052 22.7487H24.5615L28.4171 17.402Z"
        fill="#29C278" />
    <path
        d="M47.5269 11.6179C47.5269 11.9785 47.4821 12.3361 47.3917 12.6952C47.3027 13.0558 47.1543 13.3817 46.9463 13.6806C46.7401 13.9771 46.4692 14.2413 46.1376 14.4681C45.8053 14.6957 45.4062 14.8664 44.9348 14.9761V15.1004C45.3508 15.169 45.7435 15.2858 46.1169 15.4539C46.4907 15.6189 46.8151 15.8469 47.0921 16.137C47.3675 16.4276 47.5853 16.7795 47.7447 17.1948C47.9034 17.6096 47.9829 18.0995 47.9829 18.6647C47.9829 19.4104 47.8239 20.0563 47.5047 20.6038C47.1878 21.1483 46.7627 21.5956 46.2311 21.9396C45.699 22.2848 45.0927 22.5407 44.4178 22.7065C43.7384 22.8723 43.0413 22.9552 42.3223 22.9552C42.0872 22.9552 41.7873 22.9552 41.4206 22.9552C41.0547 22.9552 40.6594 22.9461 40.2393 22.9258C39.8176 22.9032 39.3884 22.8723 38.9536 22.8308C38.5195 22.7901 38.1216 22.7287 37.7617 22.6439V8.3437C38.0236 8.30187 38.3254 8.26042 38.6631 8.2186C39.0022 8.17903 39.3651 8.14512 39.7532 8.11648C40.1387 8.0886 40.5374 8.06787 40.9439 8.05242C41.3513 8.04074 41.7556 8.0332 42.1577 8.0332C42.8344 8.0332 43.4946 8.08407 44.1363 8.1877C44.7788 8.29132 45.3531 8.47408 45.8557 8.73672C46.3603 9.00087 46.7646 9.366 47.0698 9.83627C47.3747 10.305 47.5269 10.9004 47.5269 11.6179ZM41.3897 14.3336C41.586 14.3336 41.8151 14.326 42.0755 14.3144C42.3367 14.2989 42.5522 14.2782 42.7218 14.2518C43.2561 14.0868 43.7188 13.8418 44.1066 13.5129C44.4928 13.1847 44.6872 12.7547 44.6872 12.2219C44.6872 11.8658 44.6164 11.5704 44.4751 11.3386C44.3334 11.1061 44.1476 10.9223 43.9159 10.7851C43.683 10.6491 43.4192 10.5526 43.1231 10.4987C42.8273 10.4441 42.5179 10.4154 42.1927 10.4154C41.8261 10.4154 41.4888 10.423 41.1779 10.4369C40.8686 10.4501 40.6289 10.4708 40.4609 10.4972V14.3332L41.3897 14.3336ZM42.3039 20.5733C42.6487 20.5733 42.9848 20.5315 43.3092 20.4482C43.6337 20.3664 43.9208 20.2406 44.1687 20.0706C44.4189 19.8992 44.6175 19.6829 44.7705 19.4229C44.9224 19.1636 44.9981 18.8546 44.9981 18.4985C44.9981 18.0475 44.9084 17.691 44.7279 17.4337C44.5474 17.1725 44.3131 16.9721 44.0222 16.8281C43.732 16.6845 43.4083 16.5926 43.0488 16.5515C42.6901 16.5112 42.331 16.4905 41.9719 16.4905H40.4594V20.4501C40.5276 20.478 40.638 20.4979 40.7902 20.5126C40.9421 20.5251 41.1048 20.5364 41.2774 20.5428C41.4504 20.5507 41.6297 20.5567 41.8163 20.565C42.0035 20.5703 42.1656 20.5733 42.3039 20.5733Z"
        fill="#29C278" />
    <path
        d="M55.1543 19.8274H55.9438L57.9545 12.386H60.7312L57.7872 21.7337C57.5253 22.5073 57.2687 23.2168 57.0211 23.857C56.7716 24.5018 56.4811 25.0576 56.1503 25.5263C55.8187 25.9974 55.4272 26.3602 54.9791 26.615C54.5303 26.8705 53.9821 26.9997 53.3305 26.9997C53.0136 26.9997 52.7126 26.9586 52.4292 26.8754C52.1466 26.7913 51.8858 26.693 51.6518 26.5758C51.4163 26.4567 51.2094 26.3324 51.0301 26.202C50.8503 26.0708 50.7053 25.9495 50.5964 25.8399L51.9846 23.9942C52.165 24.1472 52.3791 24.2877 52.627 24.4196C52.8753 24.5508 53.1105 24.616 53.3309 24.616C53.7465 24.616 54.0748 24.4716 54.3163 24.1811C54.5582 23.891 54.7896 23.415 55.0104 22.7503H53.5389L49.2285 12.3879H52.1511L55.1543 19.8274Z"
        fill="#29C278" />
    <path
        d="M63.7544 14.6633H61.7041V12.3847H63.7544V10.021L66.4482 9.25488V12.3851H71.8789V14.6637H66.4482V17.6289C66.4482 18.6919 66.6479 19.4617 67.0492 19.9391C67.4498 20.4173 68.0105 20.6555 68.7287 20.6555C69.1006 20.6555 69.4398 20.6091 69.7431 20.5206C70.0476 20.4316 70.3189 20.3175 70.5631 20.1784C70.8042 20.0405 71.0258 19.8879 71.2259 19.7229C71.4256 19.5563 71.6106 19.4048 71.7749 19.2673L73.0188 21.1322C72.7833 21.4076 72.4912 21.6593 72.1378 21.8888C71.7855 22.116 71.4064 22.3184 70.9983 22.4906C70.5909 22.662 70.1659 22.7969 69.7231 22.8934C69.2815 22.9899 68.8467 23.0388 68.4167 23.0388C66.8703 23.0388 65.7063 22.607 64.9244 21.7433C64.1444 20.8801 63.7536 19.5081 63.7536 17.6293V14.6641L63.7544 14.6633Z"
        fill="#29C278" />
    <path
        d="M84.8558 21.65C84.6769 21.8162 84.4455 21.9782 84.1617 22.1372C83.8795 22.2962 83.5472 22.4455 83.1673 22.5834C82.7852 22.7217 82.3696 22.8313 81.9133 22.9146C81.4577 22.9979 80.9727 23.0374 80.461 23.0374C79.5759 23.0374 78.7865 22.9146 78.0875 22.6652C77.39 22.418 76.7995 22.0543 76.316 21.5773C75.8326 21.1017 75.4618 20.5286 75.2089 19.8567C74.9508 19.1886 74.8242 18.4252 74.8242 17.5679C74.8242 16.6568 74.9685 15.8583 75.2579 15.1733C75.5485 14.4901 75.9464 13.9215 76.4509 13.4637C76.9544 13.0088 77.5467 12.6674 78.2216 12.4368C78.8987 12.21 79.6305 12.0962 80.4192 12.0962C80.9452 12.0962 81.4867 12.1655 82.0452 12.3038C82.6051 12.4414 83.1202 12.6806 83.5909 13.019C84.0608 13.3566 84.444 13.8096 84.7402 14.3763C85.0375 14.943 85.1867 15.662 85.1867 16.5328C85.1867 17.1256 85.117 17.768 84.9791 18.4599H77.5177C77.5313 18.9026 77.6236 19.2761 77.7966 19.579C77.9695 19.8831 78.1971 20.1326 78.4801 20.3247C78.7627 20.5177 79.0875 20.6609 79.4545 20.7487C79.8212 20.8387 80.2104 20.8836 80.6253 20.8836C81.4547 20.8836 82.1348 20.7871 82.6662 20.5938C83.1986 20.3982 83.6304 20.1642 83.9617 19.8888L84.8558 21.65ZM80.3804 14.2505C80.0205 14.2505 79.6818 14.2991 79.3641 14.3985C79.0461 14.4973 78.7597 14.6408 78.505 14.8319C78.2476 15.0218 78.0392 15.2581 77.8723 15.5384C77.7072 15.8203 77.6112 16.1383 77.5818 16.4891H82.6816C82.6816 15.7995 82.4909 15.2535 82.11 14.853C81.7309 14.4524 81.1536 14.2505 80.3804 14.2505Z"
        fill="#29C278" />
    <path
        d="M94.5558 19.8881C94.5558 19.6122 94.3874 19.3914 94.0471 19.2233C93.7095 19.0583 93.2904 18.9061 92.7946 18.7693C92.2972 18.6295 91.7504 18.4874 91.1562 18.3424C90.5627 18.1973 90.0167 17.9972 89.5178 17.7417C89.0204 17.4855 88.6025 17.161 88.2652 16.768C87.9265 16.3735 87.7561 15.8644 87.7561 15.2445C87.7561 14.7324 87.8707 14.2825 88.0979 13.897C88.3255 13.5101 88.6371 13.1803 89.0305 12.9132C89.4251 12.6422 89.8946 12.4384 90.4402 12.3008C90.9855 12.1626 91.5778 12.0947 92.2131 12.0947C92.8884 12.0947 93.4834 12.1418 93.9947 12.2383C94.5061 12.3348 94.9522 12.4531 95.332 12.5917C95.7126 12.7293 96.0363 12.8838 96.3072 13.0575C96.5767 13.2312 96.8069 13.3849 97.0013 13.5232L95.8622 15.3678C95.6542 15.2449 95.4161 15.1168 95.1478 14.9849C94.8772 14.8545 94.5939 14.7324 94.2966 14.6228C94.0004 14.5116 93.6891 14.4227 93.3639 14.3511C93.0387 14.2825 92.7173 14.249 92.3997 14.249C91.819 14.249 91.3502 14.3247 90.9904 14.4777C90.632 14.6284 90.4515 14.8647 90.4515 15.182C90.4515 15.4314 90.6199 15.6315 90.9598 15.7834C91.2975 15.9356 91.7161 16.0769 92.2143 16.2073C92.7094 16.3399 93.2565 16.482 93.8504 16.6342C94.4446 16.7842 94.9903 16.9832 95.4888 17.2232C95.9851 17.4655 96.4048 17.7809 96.7428 18.1668C97.0805 18.5545 97.2519 19.0515 97.2519 19.6601C97.2519 20.7103 96.8672 21.5355 96.0989 22.1365C95.332 22.7372 94.1963 23.0382 92.6906 23.0382C91.5013 23.0382 90.476 22.8623 89.612 22.5107C88.7487 22.1572 88.0531 21.7469 87.5293 21.2781L88.7739 19.3285C88.9544 19.4807 89.1911 19.6503 89.4884 19.8372C89.7849 20.0226 90.1199 20.194 90.4922 20.3459C90.8656 20.4974 91.2628 20.6247 91.6852 20.7287C92.1054 20.8324 92.5244 20.8847 92.9389 20.8847C93.3816 20.8847 93.7607 20.809 94.0791 20.6568C94.3968 20.5026 94.5558 20.2472 94.5558 19.8881Z"
        fill="#29C278" />
    <path
        d="M108.014 7.00113C107.123 8.61579 106.461 10.1807 106.03 11.6959C105.598 13.2092 105.38 14.7229 105.38 16.2369C105.38 17.7366 105.597 19.2507 106.03 20.7727C106.461 22.2969 107.121 23.8712 108.014 25.4923H105.706C104.632 23.9304 103.837 22.3915 103.317 20.8718C102.797 19.3577 102.538 17.8094 102.538 16.2358C102.538 14.6682 102.799 13.1225 103.322 11.5983C103.846 10.0748 104.64 8.54043 105.706 7H108.014V7.00113Z"
        fill="#29C278" />
    <path
        d="M114.267 7.00195H116.574C117.64 8.54313 118.435 10.0768 118.957 11.6003C119.48 13.1245 119.742 14.6698 119.742 16.2377C119.742 17.8113 119.483 19.3597 118.963 20.8737C118.443 22.3927 117.647 23.9323 116.574 25.4935H114.267C115.156 23.872 115.819 22.2985 116.251 20.7746C116.683 19.2526 116.9 17.7378 116.9 16.2389C116.9 14.7248 116.684 13.2111 116.251 11.6978C115.819 10.1815 115.157 8.61661 114.267 7.00195Z"
        fill="#29C278" />
</svg>