<svg xmlns="http://www.w3.org/2000/svg" width="48" height="48" fill="none">
    <path fill="url(#a)"
        d="M0 23.999C0 10.745 10.745 0 23.999 0s23.999 10.745 23.999 23.999-10.745 23.999-24 23.999C10.746 47.998 0 37.253 0 23.998Z" />
    <path fill="#fff"
        d="m17.187 25.484.686-5.172-5.965-4.141 5.45 1.845 1.288-1.974 4.7-2.919 10.364 5.709.536 8.712-4.613 6.416-3.648.558 1.888-3.455v-3.326L26.5 25.141l-1.395-.923-2.146 2.21v2.34l-1.674 1.566-2.124.257-.944.537-1.545-.494-.644-2.318 1.159-1.63v-1.202Z" />
    <path fill="#94A6C3"
        d="M26.714 16.128c-1.137-.236-2.382-.172-2.382-.172s-.407 1.888-2.94 2.382c.022 0 3.348 1.137 5.322-2.21Zm1.03 17.124c1.374-1.073 2.404-2.554 2.876-4.228.021-.064.214-.171.343-.257.215-.129.43-.236.472-.408a8.933 8.933 0 0 0 .129-1.523c0-.194-.193-.387-.386-.58-.15-.128-.3-.279-.3-.386a8.177 8.177 0 0 0-2.554-5.107l-.15.15c1.394 1.309 2.296 3.09 2.489 4.979.021.171.193.343.364.515.15.128.322.321.322.407 0 .494-.043.987-.128 1.48-.022.087-.215.172-.365.258-.215.108-.408.215-.45.387a7.93 7.93 0 0 1-3.262 4.442c.278-.601 1.158-2.554 1.63-3.541l-.085-3.176-2.726-2.64-1.545.215-1.695 2.747s.794 1.008-.322 2.189c-1.094 1.159-1.953 1.416-1.953 1.416l-.794-.43c.236-.3.709-.75 1.073-1.05.623-.516 1.245-.559 1.245-1.117.021-1.158-1.223-.836-1.223-.836l-.45.429-.194 1.588-.944 1.18-.108-.021-1.545-.344s.945-.493 1.095-1.051c.15-.537-.3-2.318-.322-2.425.021.021.45.386.644.987.343-.944.794-1.846.922-1.931.13-.086 1.867-1.009 1.867-1.009l-.579 1.524.43-.236 1.03-2.533s1.008-.493 1.759-.493c1.352-.022 3.347-1.674 2.446-4.635.258.107 4.721 2.339 5.494 6.716.579 3.37-1.33 6.524-4.55 8.348Z" />
    <path fill="#1B314F"
        d="m17.809 28.21.171-.86s-.708 1.245-.772 1.417c-.065.193.043.537.322.515.279-.021.622-.429.622-.73 0-.386-.343-.343-.343-.343Zm4.829-11.61c.493-.58.3-1.438.3-1.438L21.5 17.286c-.021 0 .515.022 1.138-.686Z" />
    <path fill="#1B314F"
        d="M30.556 14.561s1.073.043 2.189.172c-2.511-1.974-4.893-2.554-6.824-2.554-2.661 0-4.464 1.095-4.571 1.16l.837-1.331s-3.348-.322-4.528 3.219c-.3-.752-.58-1.846-.58-1.846s-1.737 1.524-.922 4.056c-1.996-.73-4.85-1.738-4.957-1.76-.15-.021-.193.043-.193.043s-.043.064.086.172c.236.193 4.742 3.519 5.73 4.163-.215.772-.215 1.137 0 1.502.3.493.321.75.278 1.116-.043.365-.429 3.519-.515 3.905-.086.386-.987 1.76-.944 2.168.043.407.6 2.145 1.094 2.339.365.128 1.267.407 1.867.407.215 0 .408-.043.494-.129.365-.321.472-.386.73-.386h.064c.107 0 .236.022.386.022.343 0 .794-.065 1.116-.365.472-.472 1.287-1.116 1.545-1.416.322-.408.494-.966.408-1.524-.065-.515.214-.966.536-1.416.408-.537 1.159-1.502 1.159-1.502 1.48 1.116 2.403 2.81 2.403 4.7 0 3.347-2.918 6.05-6.523 6.05a6.917 6.917 0 0 1-1.631-.193c1.652.58 3.047.773 4.184.773 2.425 0 3.713-.88 3.713-.88s-.45.58-1.18 1.245h.021c4.013-.558 5.966-3.863 5.966-3.863s-.15 1.073-.344 1.803c5.344-4.013 4.442-9.035 4.42-9.206.044.064.58.708.86 1.051.858-8.84-6.374-11.695-6.374-11.695Zm-8.219 14.12c-.086.107-.45.43-.708.665-.258.236-.537.473-.751.687-.086.086-.258.129-.515.129h-.644c.322-.43 1.266-1.416 1.588-1.631.386-.258.58-.515.344-.966-.237-.45-.859-.343-.859-.343s.365-.15.687-.15c-.408-.108-.923 0-1.159.236-.258.236-.215 1.073-.322 1.61-.107.557-.472.836-1.03 1.351-.3.28-.515.365-.687.365a7.39 7.39 0 0 1-1.094-.28c-.215-.278-.536-1.2-.622-1.587.064-.215.322-.665.45-.923.258-.493.408-.772.451-1.03.086-.365.365-2.618.472-3.562.28.365.665.966.58 1.352.622-.88.171-1.738-.043-2.081-.194-.344-.451-1.03-.237-1.76.215-.73.988-2.747.988-2.747s.257.45.622.365c.365-.086 3.305-4.506 3.305-4.506s.794 1.738-.043 3.004c-.859 1.266-1.696 1.502-1.696 1.502s1.18.215 2.275-.58c.45 1.052.88 2.146.901 2.297-.064.15-.922 2.21-1.008 2.339-.043.043-.344.128-.558.171-.365.108-.58.172-.665.236-.15.13-.837 2.017-1.16 2.94a1.772 1.772 0 0 0-1.05.751c.15-.107.622-.171.965-.214.3-.022 1.223.472 1.46 1.394v.043c.042.344-.065.666-.237.923Zm-2.017.258c.193-.28.172-.751.193-.902.022-.15.064-.429.236-.472.172-.043.58.022.58.322 0 .28-.3.343-.515.537-.15.15-.451.472-.494.515Zm8.562-4.099a10.18 10.18 0 0 0 .172-2.811 7.864 7.864 0 0 1 1.502 3.863c.021.171.193.343.365.515.15.128.322.3.322.407 0 .494-.043.987-.13 1.48-.02.065-.214.173-.364.258-.214.108-.408.215-.45.387a7.99 7.99 0 0 1-2.833 4.141c1.995-2.081 2.961-5.515 1.416-8.24Zm-1.352 8.433c1.395-1.073 2.468-2.575 2.94-4.27.021-.064.215-.172.343-.258.215-.107.43-.236.473-.407a8.942 8.942 0 0 0 .128-1.524c0-.193-.193-.386-.386-.58-.107-.128-.279-.278-.279-.385a8.382 8.382 0 0 0-1.76-4.27c-.429-2.576-2.146-3.37-2.188-3.391.043.064 1.158 1.674.386 3.562-.794 1.91-2.833 1.61-3.004 1.63-.172 0-.837.86-1.674 2.447-.108-.043-.558-.15-1.073-.064.386-1.073.965-2.597 1.073-2.726.043-.042.365-.128.58-.193.407-.107.6-.171.664-.257.043-.064.258-.558.473-1.073.193 0 .686-.043.73-.064.042-.043.45-1.095.45-1.224 0-.107-.837-2.188-1.159-2.982.15-.172.3-.387.45-.623a8.79 8.79 0 0 1 7.833 8.734c0 3.476-2.039 6.502-5 7.918Z" />
    <path fill="#D82122"
        d="M33.753 31.363c-.322.43-.687.88-1.116 1.31 2.768-5.322.129-10.194.021-10.387.194.194.387.408.559.601 2.124 2.36 2.381 5.901.536 8.476Z" />
    <path fill="#1B314F"
        d="M21.822 21.685c.408-.472.193-1.352-.558-1.502.193-.45.472-1.352.472-1.352s-2.188 3.434-2.381 3.498c-.194.064-.387-.687-.387-.687-.407 1.567.687 1.782.816 1.288.6-.15 1.63-.794 2.038-1.245Z" />
    <path fill="#FFD923" d="m19.955 22.523 1.116-1.91s.643.322.322.837c-.408.6-1.438 1.073-1.438 1.073Z" />
    <path fill="#D82122"
        d="M36.328 24.518c-.966-2.596-2.34-4.807-5.365-6.802-2.918-1.932-6.051-1.781-6.223-1.76h-.043c.107-.043.215-.064.322-.086.665-.214 1.524-.386 2.382-.493 2.275-.322 4.57.45 6.137 2.103l.043.043c1.781 1.888 2.704 4.248 2.747 6.995Zm-17.875-6.502c-2.51-.086-1.674-3.004-1.63-3.176 0 .022.17 2.296 1.63 3.176Z" />
    <path fill="#fff"
        d="M17.746 18.788c.129.108.257.3.107.58-.086.15-.215.129-.408.043-.257-.129-1.802-1.03-3.197-1.953 1.588.558 3.197 1.159 3.455 1.288l.043.043Z" />
    <path fill="#D82122"
        d="M30.276 13.896c-3.197-.601-5.257-.3-6.738.257-.043-.171-.193-.515-.322-.794-.45.537-.922 1.18-1.223 1.588-.815.558-1.158 1.095-1.158 1.095.472-1.61 1.845-2.812 3.519-3.112a8.654 8.654 0 0 1 1.545-.129c1.48.022 2.961.386 4.377 1.095Zm-9.356-1.137c-1.93 1.159-1.544 3.927-1.544 3.927-1.846-2.811 1.394-3.863 1.545-3.927Z" />
    <defs>
        <linearGradient id="a" x1="0" x2="48" y1="0" y2="48" gradientUnits="userSpaceOnUse">
            <stop stop-color="#742A31" />
            <stop offset="1" stop-color="#175180" />
        </linearGradient>
    </defs>
</svg>