<svg width="161" height="34" viewBox="0 0 161 34" fill="none" xmlns="http://www.w3.org/2000/svg">
    <path
        d="M5.82203 24.0709C3.36445 23.5625 1.78806 20.8125 1.78806 16.9763C1.78806 13.1399 3.34142 10.3898 5.79926 9.88118C5.98476 9.83512 6.10067 9.65039 6.07739 9.46539V9.41934C6.05436 9.18804 5.89188 9.04936 5.68335 9.09567C2.83148 9.69644 1 12.7238 1 16.9763C1 21.2052 2.83174 24.2557 5.68335 24.8337C5.89188 24.8797 6.07739 24.7413 6.10041 24.51V24.4639C6.1237 24.2559 6.00779 24.1173 5.82229 24.0709H5.82203ZM7.35211 9.41934V9.48868C7.32908 9.67367 7.44498 9.83538 7.63049 9.88143C10.0881 10.3901 11.6647 13.1401 11.6647 16.9766C11.6647 20.8125 10.0881 23.5395 7.63049 24.0712C7.44498 24.0942 7.32908 24.2559 7.35236 24.4639V24.5333C7.37539 24.7643 7.56089 24.88 7.76942 24.8337C10.6213 24.2559 12.4297 21.2055 12.4297 16.9763C12.4297 12.7241 10.6213 9.6967 7.76968 9.09567C7.56089 9.04961 7.37565 9.18829 7.35236 9.41934H7.35211ZM33.8671 24.3017L21.811 9.14173C21.7468 9.06571 21.6565 9.01645 21.5579 9.00362C21.4592 8.99079 21.3593 9.01532 21.2778 9.07239C21.0923 9.21106 21.0693 9.46514 21.2082 9.62685L33.2646 24.7868C33.3342 24.8795 33.4501 24.9255 33.566 24.9255C33.6589 24.9255 33.7282 24.9025 33.7978 24.8564C33.9833 24.7175 34.0066 24.4634 33.8674 24.3017H33.8671ZM28.1869 15.4736C28.2796 15.5197 28.3259 15.566 28.4188 15.566C28.5347 15.566 28.6506 15.5199 28.7202 15.4273L33.3339 9.62685C33.4731 9.46514 33.4265 9.21081 33.2643 9.07213C33.1021 8.95673 32.847 8.97976 32.7311 9.14147L28.1173 14.9419C27.9782 15.1039 28.0014 15.3813 28.1869 15.4736ZM26.3785 17.7385C26.2163 17.5999 25.9612 17.6462 25.822 17.8076L20.675 24.3015C20.5361 24.4634 20.5591 24.7175 20.7216 24.8562C20.7912 24.9022 20.8838 24.9255 20.9764 24.9255C21.0923 24.9255 21.2085 24.8795 21.2778 24.7868L26.4481 18.293C26.5873 18.1313 26.541 17.8772 26.3785 17.7385ZM67.222 9.00279C67.0134 9.00279 66.8279 9.1645 66.8279 9.39554V24.5555C66.8279 24.7636 67.0134 24.9255 67.222 24.9255C67.4308 24.9255 67.6162 24.7636 67.6162 24.5558V9.3958C67.6162 9.1645 67.4308 9.00279 67.222 9.00279ZM76.6815 24.3248L72.2067 17.9926H72.4388C74.9194 17.9926 76.9597 15.982 76.9597 13.5091C76.9597 11.0131 74.9194 9.00253 72.4388 9.00253H69.2162C69.0074 9.00253 68.8219 9.1645 68.8219 9.39554C68.8219 9.60356 69.0074 9.7883 69.2162 9.7883H72.4388C74.5021 9.76527 76.1716 11.4522 76.1716 13.5091C76.1716 15.5427 74.5021 17.2299 72.4388 17.2299H69.2162C69.0074 17.2299 68.8219 17.3916 68.8219 17.6226C68.8219 17.8306 69.0074 17.9924 69.2162 17.9924H71.2332L76.0324 24.7638C76.102 24.8795 76.2412 24.9258 76.3571 24.9258C76.4267 24.9258 76.5193 24.9028 76.5889 24.8564C76.7511 24.7408 76.7975 24.4867 76.6815 24.3248ZM89.7483 9.00279C89.5395 9.00279 89.354 9.16475 89.354 9.3958V24.5558C89.354 24.7638 89.5395 24.9255 89.7483 24.9255C89.9568 24.9255 90.1424 24.7638 90.1424 24.5558V9.3958C90.1424 9.16475 89.9568 9.00279 89.7483 9.00279ZM106.163 24.0709C103.706 23.5625 102.129 20.8125 102.129 16.9763C102.129 13.1399 103.682 10.3898 106.14 9.88118C106.325 9.83512 106.441 9.65039 106.418 9.46539V9.41934C106.395 9.18804 106.232 9.04936 106.024 9.09567C103.172 9.69644 101.341 12.7238 101.341 16.9763C101.341 21.2052 103.172 24.2557 106.024 24.8337C106.232 24.8797 106.418 24.7413 106.441 24.51V24.4639C106.464 24.2559 106.348 24.1173 106.163 24.0709H106.163ZM107.693 9.41959V9.48893C107.67 9.67392 107.786 9.83563 107.971 9.88169C110.429 10.3903 112.006 13.1404 112.006 16.9768C112.006 20.8128 110.429 23.5398 107.971 24.0715C107.786 24.0945 107.67 24.2562 107.693 24.4642V24.5335C107.716 24.7646 107.902 24.8802 108.11 24.8339C110.962 24.2562 112.771 21.2058 112.771 16.9766C112.771 12.7243 110.962 9.69695 108.11 9.09593C107.902 9.04987 107.716 9.18855 107.693 9.41959Z"
        fill="black" stroke="black" stroke-width="0.454827" stroke-miterlimit="2" />
    <path
        d="M46.7818 9.17169C46.6815 9.17431 46.5815 9.18285 46.4822 9.19728C46.3576 9.21781 46.2345 9.24627 46.1135 9.28248C46.0575 9.29988 45.9733 9.32905 45.927 9.34772C45.8807 9.36615 45.8118 9.39557 45.7745 9.41271C45.6367 9.47892 45.5037 9.55476 45.3766 9.63967C45.3203 9.67805 45.2203 9.75225 45.1543 9.8047C45.0882 9.85715 44.958 9.97613 44.8646 10.0688C44.7712 10.1614 44.6538 10.287 44.6031 10.3476C44.5446 10.4189 44.4875 10.4913 44.4319 10.5649C44.3882 10.6232 44.3176 10.7227 44.2751 10.7862C44.2326 10.8494 44.1641 10.9569 44.1226 11.0252C44.0733 11.1069 44.0256 11.1895 43.9796 11.2731C43.9422 11.3412 43.8719 11.4786 43.823 11.5784C43.7744 11.6781 43.7048 11.8296 43.6682 11.9148C43.6319 12 43.5753 12.1395 43.5423 12.2247C43.4434 12.4902 43.3534 12.7589 43.2724 13.0304C43.2478 13.1156 43.2058 13.2709 43.179 13.3758C43.1476 13.4992 43.118 13.6231 43.0902 13.7473C43.0682 13.8471 43.0324 14.0226 43.0104 14.137C42.9847 14.2724 42.961 14.4081 42.939 14.5441C42.9216 14.6536 42.8955 14.8371 42.8806 14.9514C42.8629 15.0928 42.8467 15.2344 42.832 15.3762C42.8021 15.6826 42.7792 15.9897 42.7635 16.2973C42.7547 16.5598 42.7509 16.8224 42.7522 17.0851C42.7522 17.4228 42.7571 17.7444 42.7635 17.8731C42.7793 18.1805 42.8021 18.4874 42.832 18.7937C42.8443 18.913 42.8643 19.0903 42.8765 19.1878C42.8888 19.285 42.9131 19.4564 42.9303 19.5683C42.9477 19.6803 42.9776 19.8574 42.9971 19.9623C43.0165 20.0669 43.0523 20.2463 43.0769 20.3607C43.1015 20.475 43.147 20.6682 43.1782 20.79C43.214 20.9293 43.2521 21.068 43.2926 21.206C43.3243 21.3133 43.3803 21.489 43.4172 21.5968C43.4538 21.7047 43.5121 21.8662 43.5467 21.9555C43.5812 22.045 43.64 22.1896 43.6774 22.2774C43.7971 22.5462 43.9296 22.8092 44.0745 23.0654C44.1825 23.2483 44.2997 23.4257 44.4256 23.5968C44.4729 23.66 44.553 23.7616 44.6039 23.8223C44.6543 23.8832 44.772 24.0088 44.8651 24.1014C44.9583 24.1943 45.0885 24.313 45.1543 24.3655C45.2203 24.4182 45.33 24.498 45.3986 24.5433C45.4669 24.5886 45.5667 24.6495 45.6207 24.6789C45.6744 24.7081 45.7683 24.7539 45.8292 24.7807C45.8904 24.8076 45.9764 24.8421 46.0204 24.8575C46.1553 24.9027 46.2933 24.9382 46.4333 24.9637C46.5545 24.9842 46.6769 24.9961 46.7997 24.9995H46.8506V23.7273L46.7695 23.7212C46.7183 23.717 46.6672 23.7104 46.6165 23.7015C46.5607 23.6896 46.5055 23.6747 46.4512 23.6567C46.3891 23.6352 46.3283 23.6101 46.2691 23.5815C46.2051 23.5484 46.1428 23.5121 46.0825 23.4728C46.0288 23.4372 45.9408 23.3704 45.8871 23.3244C45.8236 23.2692 45.7624 23.2114 45.7039 23.1511C45.6512 23.0955 45.6004 23.0382 45.5516 22.9792C45.5042 22.9201 45.4583 22.8598 45.414 22.7983C45.3751 22.7441 45.3134 22.6525 45.2768 22.5949C45.2283 22.517 45.1815 22.438 45.1366 22.358C45.0959 22.2853 45.0314 22.1609 44.9931 22.0814C44.9547 22.002 44.893 21.8664 44.8562 21.7802C44.8196 21.694 44.7641 21.5556 44.7328 21.4724C44.6929 21.3636 44.6547 21.2542 44.6182 21.1441C44.586 21.0469 44.5376 20.8913 44.511 20.7987C44.4748 20.6711 44.4406 20.5429 44.4084 20.4141C44.3718 20.2643 44.3378 20.1138 44.3066 19.9628C44.2763 19.814 44.2484 19.6647 44.2229 19.515C44.1803 19.2579 44.1445 18.9996 44.1157 18.7405C44.1044 18.6359 44.094 18.5311 44.0845 18.4263C44.0746 18.3069 44.0657 18.1874 44.0579 18.0679C44.0484 17.9144 44.0409 17.7609 44.0354 17.6073C44.0298 17.4318 44.0269 17.2563 44.0264 17.0807C44.0264 16.9298 44.0305 16.6967 44.0351 16.5629C44.04 16.4288 44.0482 16.2494 44.0533 16.1642C44.0685 15.9188 44.0892 15.6738 44.1154 15.4294C44.1443 15.1703 44.1801 14.912 44.2229 14.6549C44.2424 14.5379 44.28 14.3366 44.3066 14.2074C44.3329 14.0782 44.3787 13.8747 44.4084 13.7558C44.4381 13.6368 44.4818 13.4718 44.5059 13.3889C44.5875 13.1026 44.683 12.8205 44.7919 12.5435C44.8657 12.3603 44.9468 12.1802 45.035 12.0036C45.0708 11.9327 45.131 11.8214 45.1683 11.7554C45.2059 11.6899 45.2737 11.5791 45.3195 11.5098C45.3653 11.4402 45.4337 11.3427 45.4713 11.2931C45.5089 11.2434 45.5744 11.1628 45.6166 11.114C45.6591 11.0653 45.7346 10.986 45.7845 10.9384C45.8343 10.8906 45.9057 10.8274 45.9431 10.7977C45.9807 10.7678 46.0493 10.7184 46.0958 10.6882C46.1422 10.658 46.2212 10.6125 46.2714 10.5874C46.3215 10.5623 46.4039 10.5285 46.4543 10.5119C46.5078 10.4946 46.5622 10.4801 46.6173 10.4684C46.6564 10.461 46.725 10.4523 46.7695 10.449L46.8504 10.4426V9.17041L46.7818 9.17169ZM53.9893 9.17041H53.9381V10.4426L54.0202 10.4487C54.0655 10.452 54.1413 10.4628 54.1886 10.4723C54.2359 10.4817 54.3099 10.5019 54.3529 10.517C54.3958 10.5321 54.4706 10.5639 54.5187 10.5879C54.567 10.6117 54.641 10.6537 54.6832 10.681C54.7251 10.7084 54.7935 10.757 54.8349 10.7893C54.8764 10.8215 54.9518 10.8875 55.0028 10.9364C55.0534 10.985 55.1309 11.0669 55.175 11.1173C55.219 11.1682 55.2878 11.2537 55.3282 11.3077C55.3684 11.3616 55.4354 11.4576 55.4769 11.5208C55.5183 11.5842 55.5833 11.6897 55.6209 11.7554C55.7888 12.0569 55.9337 12.3706 56.0544 12.6939C56.0861 12.7791 56.1388 12.9286 56.1708 13.0258C56.203 13.1233 56.2516 13.2806 56.279 13.3756C56.3064 13.4705 56.3542 13.6519 56.3855 13.7783C56.4167 13.9049 56.4604 14.0981 56.4827 14.2079C56.5049 14.3171 56.5372 14.4868 56.5541 14.584C56.571 14.6812 56.5965 14.8427 56.6111 14.9425C56.6255 15.0423 56.6475 15.2096 56.6597 15.3145C56.6723 15.4191 56.6904 15.5924 56.7002 15.6996C56.7099 15.8065 56.7237 15.99 56.7311 16.1067C56.7385 16.2236 56.7488 16.4288 56.7536 16.5626C56.7582 16.6964 56.7623 16.9316 56.7623 17.0851C56.7623 17.2383 56.7582 17.4735 56.7536 17.6073C56.7478 17.7594 56.7404 17.9114 56.7314 18.0633C56.7237 18.1802 56.7099 18.3634 56.6999 18.4703C56.6879 18.5989 56.6745 18.7274 56.6597 18.8557C56.6448 18.9798 56.6286 19.1037 56.6111 19.2274C56.5965 19.3272 56.571 19.4889 56.5538 19.5869C56.5316 19.7126 56.5078 19.838 56.4824 19.9631C56.4535 20.1014 56.4223 20.2392 56.389 20.3765C56.3571 20.5069 56.3232 20.6367 56.2872 20.766C56.2156 21.012 56.1354 21.2555 56.0467 21.4959C56.0157 21.5778 55.964 21.707 55.9313 21.7838C55.8988 21.8605 55.833 22.0028 55.7852 22.1003C55.7373 22.1975 55.6718 22.3242 55.6393 22.3817C55.6071 22.4391 55.5524 22.5307 55.5181 22.5852C55.4349 22.7171 55.3444 22.8444 55.2471 22.9664C55.2057 23.0186 55.1269 23.1071 55.0721 23.1639C55.0176 23.2205 54.935 23.2985 54.8884 23.3374C54.8421 23.376 54.7602 23.4369 54.7065 23.4725C54.6527 23.5083 54.5688 23.5569 54.5199 23.5815C54.4711 23.6055 54.3958 23.6378 54.3529 23.6531C54.299 23.6711 54.2441 23.6859 54.1886 23.6977C54.1329 23.7084 54.0767 23.7163 54.0202 23.7212L53.9381 23.7273V24.9995H53.9865C54.189 24.9938 54.3903 24.9651 54.5865 24.914C54.633 24.9012 54.71 24.8777 54.7576 24.8611C54.8055 24.8444 54.8915 24.8109 54.9488 24.7864C55.0061 24.7621 55.1008 24.716 55.1593 24.684C55.2179 24.6523 55.3116 24.5963 55.3671 24.5599C55.4229 24.5236 55.5068 24.4645 55.5536 24.4292C55.6007 24.3934 55.6828 24.3268 55.7366 24.2805C55.7903 24.2342 55.8924 24.1372 55.9633 24.0643C56.0342 23.9919 56.1337 23.8829 56.1846 23.8223C56.2355 23.7616 56.3159 23.66 56.3632 23.5966C56.489 23.4254 56.606 23.2481 56.714 23.0652C56.8368 22.8523 56.9494 22.6337 57.0515 22.4101C57.0888 22.3272 57.1454 22.1962 57.1771 22.119C57.2088 22.0417 57.26 21.9102 57.2907 21.8268C57.3214 21.7436 57.3733 21.5937 57.4061 21.4942C57.4388 21.3941 57.4869 21.2388 57.513 21.1487C57.5391 21.0584 57.5806 20.9072 57.6052 20.812C57.6653 20.5775 57.7186 20.3413 57.7651 20.1038C57.7797 20.0283 57.8019 19.9088 57.8142 19.8382C57.8267 19.7676 57.8487 19.6322 57.8636 19.5373C57.8782 19.4424 57.902 19.2691 57.9165 19.1522C57.9309 19.0353 57.9529 18.8342 57.9652 18.705C57.9774 18.576 57.9936 18.3828 58.001 18.2756C58.0084 18.1687 58.0191 17.9855 58.0253 17.8685C58.0319 17.7421 58.0365 17.4244 58.0365 17.0851C58.0365 16.7456 58.0319 16.4275 58.0253 16.3014C58.0191 16.1847 58.0081 16.0015 58.001 15.8943C57.9906 15.7511 57.9786 15.6079 57.9652 15.4649C57.9506 15.3157 57.9344 15.1666 57.9165 15.0177C57.8989 14.8788 57.8795 14.7401 57.8585 14.6017C57.8378 14.47 57.8155 14.3387 57.7917 14.2076C57.7666 14.0746 57.74 13.9419 57.7119 13.8095C57.6818 13.6717 57.6496 13.5343 57.6151 13.3976C57.5865 13.2857 57.5407 13.1161 57.5133 13.0214C57.4338 12.7511 57.3441 12.4839 57.2444 12.2203C57.2021 12.112 57.1583 12.0042 57.1129 11.8972C57.0514 11.7582 56.9864 11.6208 56.9179 11.4852C56.8533 11.3567 56.7854 11.2298 56.7142 11.1047C56.6062 10.9218 56.4891 10.7445 56.3632 10.5733C56.3055 10.4967 56.2459 10.4214 56.1846 10.3476C56.1134 10.2647 56.0395 10.184 55.9633 10.1056C55.8903 10.031 55.8146 9.95896 55.7366 9.88965C55.6828 9.84334 55.6007 9.77655 55.5536 9.74099C55.4927 9.69561 55.4305 9.65201 55.3671 9.61024C55.3116 9.57365 55.2179 9.51787 55.1593 9.48589C55.0905 9.44903 55.0203 9.41489 54.9488 9.38355C54.8915 9.35898 54.8037 9.3247 54.7533 9.3073C54.6904 9.28589 54.6269 9.26669 54.5627 9.24973C54.4951 9.23289 54.427 9.21847 54.3585 9.20649C54.2883 9.19517 54.2177 9.18621 54.1469 9.17962C54.0883 9.1745 54.0172 9.17067 53.9893 9.17041Z"
        fill="#FD971F" />
</svg>