<svg viewBox="0 0 48 48" fill="none" xmlns="http://www.w3.org/2000/svg" id="research-forum-transparent">\n
    <path fill-rule="evenodd" clip-rule="evenodd"
        d="M48 24C48 37.2548 37.2548 48 24 48C10.7452 48 0 37.2548 0 24C0 10.7452 10.7452 0 24 0C37.2548 0 48 10.7452 48 24ZM22.1038 10.666C15.7874 10.666 10.667 15.8416 10.667 22.2259C10.667 28.6103 15.7874 33.7858 22.1038 33.7858C28.4202 33.7858 33.5407 28.6103 33.5407 22.2259C33.5407 19.16 32.3357 16.2197 30.1909 14.0518C28.0461 11.8839 25.1371 10.666 22.1038 10.666ZM36.7577 34.2879L33.3515 31.5384C32.8361 31.0265 32.01 31.0265 31.4946 31.5384C31.2274 31.8076 31.0772 32.1732 31.0772 32.5545C31.0772 32.9358 31.2274 33.3015 31.4946 33.5706L34.3213 36.8103C35.0104 37.5068 36.1277 37.5068 36.8168 36.8103C37.5059 36.1137 37.5059 34.9844 36.8168 34.2879H36.7577Z"
        fill="currentColor" />\n
</svg>