<svg width="160" height="34" viewBox="0 0 160 34" fill="none" xmlns="http://www.w3.org/2000/svg">
    <g clip-path="url(#clip0_84_1480)">
        <path
            d="M38.3402 28.0464C37.0202 28.0464 36.0155 27.7408 35.3262 27.1296C34.6515 26.5184 34.2628 25.706 34.1602 24.6923H36.5802C36.6388 25.0352 36.8002 25.3258 37.0642 25.5643C37.3282 25.8029 37.6802 25.9221 38.1202 25.9221C38.5602 25.9221 38.9048 25.8103 39.1542 25.5867C39.4182 25.3482 39.5502 25.0873 39.5502 24.8041C39.5502 24.5656 39.4182 24.3792 39.1542 24.2451C38.9048 24.1109 38.5895 23.9917 38.2082 23.8873C37.8268 23.7681 37.4088 23.6488 36.9542 23.5295C36.5142 23.4103 36.1035 23.2388 35.7222 23.0152C35.3408 22.7767 35.0182 22.4786 34.7542 22.1208C34.5048 21.7481 34.3802 21.2637 34.3802 20.6674C34.3802 20.25 34.4608 19.855 34.6222 19.4822C34.7982 19.0947 35.0475 18.7593 35.3702 18.476C35.6928 18.1928 36.0742 17.9692 36.5142 17.8052C36.9542 17.6263 37.4528 17.5369 38.0102 17.5369C39.2275 17.5369 40.1588 17.835 40.8042 18.4313C41.4642 19.0276 41.8528 19.7729 41.9702 20.6674H39.5502C39.4915 20.4438 39.3302 20.2201 39.0662 19.9965C38.8168 19.7729 38.5015 19.6611 38.1202 19.6611C37.7388 19.6611 37.4382 19.758 37.2182 19.9518C37.0128 20.1456 36.9102 20.3841 36.9102 20.6674C36.9102 20.9059 37.0348 21.0922 37.2842 21.2264C37.5482 21.3605 37.8708 21.4873 38.2522 21.6065C38.6335 21.7109 39.0442 21.8301 39.4842 21.9643C39.9388 22.0835 40.3568 22.2624 40.7382 22.5009C41.1195 22.7395 41.4348 23.0525 41.6842 23.4401C41.9482 23.8128 42.0802 24.3047 42.0802 24.9159C42.0802 25.3333 41.9922 25.7358 41.8162 26.1234C41.6402 26.4961 41.3908 26.824 41.0682 27.1072C40.7455 27.3905 40.3495 27.6215 39.8802 27.8004C39.4255 27.9644 38.9122 28.0464 38.3402 28.0464Z"
            fill="#273852" />
        <path
            d="M43.9484 17.6487H46.4784V27.9346H43.9484V17.6487ZM45.2684 16.4188C44.887 16.4188 44.5497 16.2773 44.2564 15.994C43.9777 15.6959 43.8384 15.353 43.8384 14.9654C43.8384 14.5779 43.9777 14.2424 44.2564 13.9592C44.5497 13.6611 44.887 13.512 45.2684 13.512C45.6497 13.512 45.9797 13.6611 46.2584 13.9592C46.5517 14.2424 46.6984 14.5779 46.6984 14.9654C46.6984 15.353 46.5517 15.6959 46.2584 15.994C45.9797 16.2773 45.6497 16.4188 45.2684 16.4188Z"
            fill="#273852" />
        <path
            d="M53.29 31.7359C52.351 31.7359 51.5885 31.5645 51.002 31.2216C50.43 30.8787 49.9752 30.4912 49.6378 30.0588C49.2565 29.5669 48.9705 29.0079 48.7798 28.3818H51.31C51.4125 28.5756 51.552 28.747 51.728 28.8961C51.889 29.0154 52.0945 29.1272 52.344 29.2315C52.593 29.3359 52.9085 29.388 53.29 29.388C54.0085 29.388 54.573 29.1868 54.984 28.7843C55.3945 28.3967 55.6 27.8898 55.6 27.2638V26.4811C55.3945 26.6898 55.16 26.8762 54.896 27.0401C54.661 27.1892 54.3825 27.3234 54.06 27.4426C53.737 27.547 53.3705 27.5992 52.96 27.5992C52.329 27.5992 51.728 27.4725 51.156 27.219C50.5985 26.9656 50.107 26.6153 49.6818 26.1681C49.2712 25.7209 48.9412 25.1917 48.6918 24.5805C48.4572 23.9693 48.3398 23.2985 48.3398 22.568C48.3398 21.8376 48.4572 21.1668 48.6918 20.5556C48.9412 19.9444 49.2712 19.4152 49.6818 18.9679C50.107 18.5207 50.5985 18.1704 51.156 17.917C51.728 17.6636 52.329 17.5369 52.96 17.5369C53.4 17.5369 53.796 17.5965 54.148 17.7158C54.5 17.835 54.8005 17.9617 55.05 18.0959C55.3285 18.2599 55.585 18.4462 55.82 18.6549L56.26 17.6487H58.13V27.2638C58.13 28.6054 57.7045 29.6862 56.854 30.506C56.018 31.326 54.83 31.7359 53.29 31.7359ZM53.29 25.1395C53.6125 25.1395 53.9205 25.0724 54.214 24.9382C54.507 24.8041 54.764 24.6252 54.984 24.4016C55.204 24.1631 55.38 23.8873 55.512 23.5742C55.644 23.2612 55.71 22.9258 55.71 22.568C55.71 22.2102 55.644 21.8748 55.512 21.5618C55.38 21.2487 55.204 20.9804 54.984 20.7568C54.764 20.5183 54.507 20.3319 54.214 20.1978C53.9205 20.0636 53.6125 19.9965 53.29 19.9965C52.9525 19.9965 52.637 20.0636 52.344 20.1978C52.0505 20.3319 51.794 20.5183 51.574 20.7568C51.354 20.9804 51.178 21.2487 51.046 21.5618C50.9285 21.8748 50.87 22.2102 50.87 22.568C50.87 22.9258 50.9285 23.2612 51.046 23.5742C51.178 23.8873 51.354 24.1631 51.574 24.4016C51.794 24.6252 52.0505 24.8041 52.344 24.9382C52.637 25.0724 52.9525 25.1395 53.29 25.1395Z"
            fill="#273852" />
        <path
            d="M60.5562 17.6487H62.4262L62.8662 18.6549C63.0712 18.4462 63.2987 18.2599 63.5482 18.0959C63.7532 17.9617 64.0027 17.835 64.2962 17.7158C64.5892 17.5965 64.9192 17.5369 65.2862 17.5369C65.7992 17.5369 66.2392 17.6114 66.6062 17.7605C66.9727 17.8946 67.2732 18.0437 67.5082 18.2077C67.7722 18.4015 67.9847 18.6251 68.1462 18.8785C68.3807 18.6251 68.6522 18.4015 68.9602 18.2077C69.2242 18.0437 69.5392 17.8946 69.9062 17.7605C70.2727 17.6114 70.6762 17.5369 71.1161 17.5369C72.2162 17.5369 73.0961 17.8946 73.7561 18.6102C74.4161 19.3257 74.7462 20.3841 74.7462 21.7854V27.9346H72.2162V22.009C72.2162 21.3829 72.0472 20.891 71.7102 20.5332C71.3872 20.1754 71.0062 19.9965 70.5662 19.9965C70.1262 19.9965 69.7372 20.1754 69.4002 20.5332C69.0772 20.891 68.9162 21.3829 68.9162 22.009V27.9346H66.3862V22.009C66.3862 21.3829 66.2171 20.891 65.8801 20.5332C65.5571 20.1754 65.1762 19.9965 64.7362 19.9965C64.2962 19.9965 63.9072 20.1754 63.5702 20.5332C63.2472 20.891 63.0862 21.3829 63.0862 22.009V27.9346H60.5562V17.6487Z"
            fill="#273852" />
        <path
            d="M80.0262 28.0464C78.9262 28.0464 78.0827 27.778 77.4962 27.2414C76.9092 26.6898 76.6162 25.9892 76.6162 25.1395C76.6162 24.6327 76.7112 24.1706 76.9022 23.7531C77.1072 23.3209 77.4447 22.9556 77.9142 22.6575C78.3832 22.3444 78.9992 22.1059 79.7622 21.9419C80.5392 21.763 81.5072 21.6736 82.6662 21.6736C82.6662 21.1072 82.5122 20.6674 82.2042 20.3543C81.9107 20.0413 81.5147 19.8847 81.0162 19.8847C80.6787 19.8847 80.4072 19.9444 80.2022 20.0636C80.0112 20.1829 79.8572 20.3096 79.7402 20.4438C79.6082 20.6077 79.5202 20.7941 79.4762 21.0028H76.9462C77.0047 20.5258 77.1367 20.0786 77.3422 19.6611C77.5622 19.2437 77.8552 18.8785 78.2222 18.5655C78.5887 18.2524 79.0212 18.0064 79.5202 17.8276C80.0332 17.6338 80.6052 17.5369 81.2362 17.5369C81.8082 17.5369 82.3362 17.6412 82.8202 17.8499C83.3042 18.0437 83.7222 18.3195 84.0742 18.6773C84.4262 19.035 84.6972 19.4599 84.8882 19.9518C85.0932 20.4437 85.1962 20.9804 85.1962 21.5618V27.9346H83.3262L82.8862 26.9283C82.6512 27.1371 82.3947 27.3234 82.1162 27.4874C81.8667 27.6365 81.5662 27.7706 81.2142 27.8898C80.8622 27.9942 80.4662 28.0464 80.0262 28.0464ZM80.4662 26.0339C81.1262 26.0339 81.6542 25.8401 82.0502 25.4525C82.4607 25.05 82.6662 24.5358 82.6662 23.9097V23.4624C81.9182 23.4624 81.3167 23.4997 80.8622 23.5742C80.4072 23.6339 80.0482 23.7308 79.7842 23.8649C79.5347 23.9842 79.3662 24.1333 79.2782 24.3121C79.1902 24.491 79.1462 24.6923 79.1462 24.9159C79.1462 25.1992 79.2707 25.46 79.5202 25.6985C79.7692 25.9221 80.0847 26.0339 80.4662 26.0339Z"
            fill="#273852" />
        <path
            d="M87.7173 17.8723H88.9273L89.3673 18.9903C89.5723 18.7667 89.8218 18.5655 90.1153 18.3866C90.3643 18.2227 90.6723 18.081 91.0393 17.9617C91.4058 17.8276 91.8383 17.7605 92.3373 17.7605C92.9678 17.7605 93.5618 17.8872 94.1193 18.1406C94.6913 18.3941 95.1823 18.7518 95.5933 19.2139C96.0183 19.6612 96.3483 20.1978 96.5833 20.8239C96.8323 21.45 96.9573 22.1432 96.9573 22.9035C96.9573 23.6637 96.8323 24.3569 96.5833 24.983C96.3483 25.6091 96.0183 26.1532 95.5933 26.6153C95.1823 27.0625 94.6913 27.4129 94.1193 27.6663C93.5618 27.9197 92.9678 28.0464 92.3373 28.0464C91.8383 28.0464 91.4058 27.9793 91.0393 27.8452C90.6723 27.6961 90.3643 27.5396 90.1153 27.3756C89.8218 27.1818 89.5723 26.9582 89.3673 26.7048V31.5123H87.7173V17.8723ZM92.2273 26.4812C92.6378 26.4812 93.0263 26.3992 93.3933 26.2352C93.7743 26.0563 94.1043 25.8103 94.3833 25.4973C94.6618 25.1842 94.8818 24.8116 95.0433 24.3793C95.2193 23.932 95.3073 23.4401 95.3073 22.9035C95.3073 22.3668 95.2193 21.8823 95.0433 21.45C94.8818 21.0028 94.6618 20.6227 94.3833 20.3096C94.1043 19.9966 93.7743 19.7581 93.3933 19.5941C93.0263 19.4152 92.6378 19.3257 92.2273 19.3257C91.8163 19.3257 91.4203 19.4152 91.0393 19.5941C90.6723 19.7581 90.3498 19.9966 90.0713 20.3096C89.7923 20.6227 89.5653 21.0028 89.3893 21.45C89.2278 21.8823 89.1473 22.3668 89.1473 22.9035C89.1473 23.4401 89.2278 23.932 89.3893 24.3793C89.5653 24.8116 89.7923 25.1842 90.0713 25.4973C90.3498 25.8103 90.6723 26.0563 91.0393 26.2352C91.4203 26.3992 91.8163 26.4812 92.2273 26.4812Z"
            fill="#273852" />
        <path
            d="M99.147 17.8723H100.357L100.797 18.9903C101.002 18.7667 101.244 18.5655 101.523 18.3866C101.772 18.2227 102.073 18.081 102.425 17.9617C102.777 17.8276 103.187 17.7605 103.657 17.7605H103.877V19.4375H103.437C102.659 19.4375 102.021 19.691 101.523 20.1978C101.039 20.7047 100.797 21.3829 100.797 22.2326V27.9346H99.147V17.8723Z"
            fill="#273852" />
        <path
            d="M105.742 17.8721H107.392V27.9344H105.742V17.8721ZM106.556 16.0832C106.263 16.0832 106.014 15.9864 105.808 15.7926C105.618 15.5839 105.522 15.3305 105.522 15.0323C105.522 14.7192 105.618 14.4659 105.808 14.272C106.014 14.0634 106.263 13.959 106.556 13.959C106.864 13.959 107.114 14.0634 107.304 14.272C107.51 14.4659 107.612 14.7192 107.612 15.0323C107.612 15.3305 107.51 15.5839 107.304 15.7926C107.114 15.9864 106.864 16.0832 106.556 16.0832Z"
            fill="#273852" />
        <path
            d="M110.254 17.8723H111.464L111.904 18.9903C112.065 18.7667 112.263 18.5655 112.498 18.3866C112.703 18.2227 112.953 18.081 113.246 17.9617C113.539 17.8276 113.899 17.7605 114.324 17.7605C114.823 17.7605 115.241 17.8574 115.578 18.0512C115.93 18.2301 116.216 18.4313 116.436 18.6549C116.7 18.9233 116.913 19.2214 117.074 19.5494C117.265 19.2214 117.499 18.9233 117.778 18.6549C118.027 18.4313 118.335 18.2301 118.702 18.0512C119.069 17.8574 119.516 17.7605 120.044 17.7605C120.484 17.7605 120.902 17.8574 121.298 18.0512C121.694 18.2301 122.046 18.4984 122.354 18.8562C122.662 19.2139 122.904 19.6537 123.08 20.1755C123.256 20.6823 123.344 21.2562 123.344 21.8972V27.9346H121.694V21.8972C121.694 21.0475 121.503 20.4065 121.122 19.9742C120.741 19.5419 120.271 19.3257 119.714 19.3257C119.157 19.3257 118.665 19.5568 118.24 20.0189C117.829 20.4811 117.624 21.1072 117.624 21.8972V27.9346H115.974V21.8972C115.974 21.0475 115.783 20.4065 115.402 19.9742C115.021 19.5419 114.551 19.3257 113.994 19.3257C113.73 19.3257 113.466 19.3928 113.202 19.527C112.953 19.6463 112.733 19.8251 112.542 20.0636C112.351 20.2873 112.197 20.5556 112.08 20.8686C111.963 21.1817 111.904 21.5246 111.904 21.8972V27.9346H110.254V17.8723Z"
            fill="#273852" />
        <path
            d="M130.159 28.0464C129.499 28.0464 128.883 27.9197 128.311 27.6663C127.739 27.4129 127.233 27.0625 126.793 26.6153C126.367 26.1532 126.03 25.6091 125.781 24.983C125.546 24.3569 125.429 23.6637 125.429 22.9035C125.429 22.1432 125.553 21.45 125.803 20.8239C126.067 20.1978 126.411 19.6612 126.837 19.2139C127.262 18.7518 127.753 18.3941 128.311 18.1406C128.868 17.8872 129.447 17.7605 130.049 17.7605C130.65 17.7605 131.222 17.8798 131.765 18.1183C132.322 18.3568 132.806 18.6996 133.217 19.1469C133.627 19.5792 133.95 20.1084 134.185 20.7345C134.434 21.3457 134.559 22.0314 134.559 22.7916C134.559 22.9408 134.551 23.0674 134.537 23.1718C134.522 23.2762 134.507 23.3656 134.493 23.4401C134.478 23.5295 134.463 23.6116 134.449 23.6861H127.189C127.218 24.0438 127.313 24.3942 127.475 24.737C127.651 25.0799 127.871 25.378 128.135 25.6315C128.399 25.8849 128.707 26.0936 129.059 26.2575C129.411 26.4067 129.777 26.4812 130.159 26.4812C130.481 26.4812 130.775 26.4364 131.039 26.347C131.303 26.2575 131.53 26.1532 131.721 26.0339C131.926 25.9147 132.095 25.788 132.227 25.6538C132.373 25.5048 132.491 25.3706 132.579 25.2513H134.339C134.177 25.6091 133.972 25.9594 133.723 26.3023C133.473 26.6452 133.173 26.9433 132.821 27.1967C132.483 27.4501 132.087 27.6589 131.633 27.8228C131.193 27.9719 130.701 28.0464 130.159 28.0464ZM132.909 22.2326C132.85 21.8152 132.733 21.4276 132.557 21.0699C132.395 20.7121 132.183 20.4065 131.919 20.1531C131.669 19.8997 131.383 19.6985 131.061 19.5494C130.738 19.4003 130.401 19.3257 130.049 19.3257C129.697 19.3257 129.359 19.4003 129.037 19.5494C128.714 19.6985 128.421 19.8997 128.157 20.1531C127.907 20.4065 127.695 20.7121 127.519 21.0699C127.357 21.4276 127.247 21.8152 127.189 22.2326H132.909Z"
            fill="#273852" />
        <path fill-rule="evenodd" clip-rule="evenodd"
            d="M29.5 1H26.5V9.63934H29.5V1ZM5 17.7705C5 14.9638 7.2386 12.6885 10 12.6885H15V18.7869H14.9C14.4367 21.1065 12.419 22.8525 10 22.8525C7.2386 22.8525 5 20.5772 5 17.7705ZM10 27.9344C15.1854 27.9344 19.4489 23.923 19.9506 18.7869H20V12.6885H24.5V7.60656H16H10C4.47715 7.60656 0 12.1571 0 17.7705C0 23.3839 4.47715 27.9344 10 27.9344Z"
            fill="black" />
    </g>
    <defs>
        <clipPath id="clip0_84_1480">
            <rect width="135" height="31" fill="white" transform="translate(0 1)" />
        </clipPath>
    </defs>
</svg>