<svg viewBox="0 0 44 41" fill="none" xmlns="http://www.w3.org/2000/svg" id="stake-1">\n
    <path
        d="M33.356 40.4876H30.3664C29.5831 40.4876 28.9482 39.8527 28.9482 39.0695V34.627H34.7742V39.0695C34.7742 39.8527 34.1392 40.4876 33.356 40.4876Z"
        fill="#365E7D" />\n
    <path
        d="M8.94671 40.4876H5.9572C5.17397 40.4876 4.53906 39.8527 4.53906 39.0695V34.627H10.365V39.0695C10.3649 39.8527 9.72995 40.4876 8.94671 40.4876Z"
        fill="#365E7D" />\n
    <path
        d="M8.16812 40.4875H5.95729C5.1738 40.4875 4.53906 39.8528 4.53906 39.0693V34.627H6.7498V39.0693C6.74989 39.8528 7.38548 40.4875 8.16812 40.4875Z"
        fill="#2B4D66" />\n
    <path
        d="M32.5772 40.4856H30.3665C29.583 40.4856 28.9482 39.8509 28.9482 39.0674V34.625H31.159V39.0674C31.159 39.8509 31.7947 40.4856 32.5772 40.4856Z"
        fill="#2B4D66" />\n
    <path
        d="M34.7745 36.6022H4.53913C2.03225 36.6022 0 34.57 0 32.0631V7.19148C0 4.68459 2.03225 2.65234 4.53913 2.65234H34.7744C37.2813 2.65234 39.3136 4.68459 39.3136 7.19148V32.0631C39.3137 34.57 37.2814 36.6022 34.7745 36.6022Z"
        fill="#D0CEE7" />\n
    <path
        d="M6.30609 36.6043H4.53896C2.03268 36.6043 0 34.5715 0 32.0643V7.19326C0 4.68603 2.03268 2.6543 4.53896 2.6543H6.30609C3.79887 2.6543 1.76619 4.68612 1.76619 7.19326V32.0643C1.76619 34.5715 3.79887 36.6043 6.30609 36.6043Z"
        fill="#BEB9DD" />\n
    <path
        d="M32.4057 32.6491H25.7793V6.60938H32.4057C34.0361 6.60938 35.3578 7.93109 35.3578 9.5615V29.6969C35.3578 31.3274 34.0361 32.6491 32.4057 32.6491Z"
        fill="#2B4D66" />\n
    <path
        d="M33.6027 20.7953C39.3452 20.7953 44.0004 16.1401 44.0004 10.3977C44.0004 4.65519 39.3452 0 33.6027 0C27.8603 0 23.2051 4.65519 23.2051 10.3977C23.2051 16.1401 27.8603 20.7953 33.6027 20.7953Z"
        fill="#FFDE55" />\n
    <path
        d="M33.6024 18.1228C37.8685 18.1228 41.3269 14.6644 41.3269 10.3983C41.3269 6.1322 37.8685 2.67383 33.6024 2.67383C29.3363 2.67383 25.8779 6.1322 25.8779 10.3983C25.8779 14.6644 29.3363 18.1228 33.6024 18.1228Z"
        fill="#FFEB99" />\n
    <path
        d="M22.1689 6.60938H25.7806C27.411 6.60938 28.7327 7.93109 28.7327 9.5615V29.6969C28.7327 31.3273 27.411 32.649 25.7806 32.649H22.1689"
        fill="#DDDAEC" />\n
    <path
        d="M22.1684 32.6491H3.95508V6.60938H22.1684C23.7988 6.60938 25.1206 7.93109 25.1206 9.5615V29.6969C25.1206 31.3274 23.7988 32.6491 22.1684 32.6491Z"
        fill="#BEB9DD" />\n
    <path
        d="M6.44501 14.5302H4.27388C3.10814 14.5302 2.16309 13.5851 2.16309 12.4194C2.16309 11.2536 3.10814 10.3086 4.27388 10.3086H6.44501C7.61075 10.3086 8.55581 11.2536 8.55581 12.4194C8.55581 13.5851 7.61075 14.5302 6.44501 14.5302Z"
        fill="#2B4D66" />\n
    <path
        d="M6.44501 28.9462H4.27388C3.10814 28.9462 2.16309 28.0011 2.16309 26.8354C2.16309 25.6697 3.10814 24.7246 4.27388 24.7246H6.44501C7.61075 24.7246 8.55581 25.6697 8.55581 26.8354C8.55581 28.0011 7.61075 28.9462 6.44501 28.9462Z"
        fill="#2B4D66" />\n
    <path
        d="M14.466 26.3568C12.7244 26.3568 11.3125 24.9449 11.3125 23.2033V16.0363C11.3125 14.2947 12.7244 12.8828 14.466 12.8828C16.2076 12.8828 17.6195 14.2947 17.6195 16.0363V23.2033C17.6195 24.9449 16.2076 26.3568 14.466 26.3568Z"
        fill="#DDDAEC" />\n
    <path
        d="M11.5781 16.6055H13.7474C14.527 16.6055 15.159 17.2375 15.159 18.017V21.2249C15.159 22.0045 14.527 22.6365 13.7474 22.6365H11.5781"
        fill="#D0CEE7" />\n
    <path
        d="M11.5795 22.6365C10.8 22.6365 10.168 22.0045 10.168 21.2249V18.017C10.168 17.2375 10.8 16.6055 11.5795 16.6055C12.359 16.6055 12.991 17.2375 12.991 18.017V21.2249C12.991 22.0045 12.359 22.6365 11.5795 22.6365Z"
        fill="#365E7D" />\n
</svg>