<svg width="160" height="34" viewBox="0 0 160 34" fill="none" xmlns="http://www.w3.org/2000/svg">
    <path fill-rule="evenodd" clip-rule="evenodd" d="M34.281 22.9839L35.5259 25.1173H49.037L50.2819 22.9839H34.281Z"
        fill="#F43563" />
    <path fill-rule="evenodd" clip-rule="evenodd"
        d="M50.2727 22.9849L51.4984 20.8405L44.7428 9.14313L42.2722 9.13208L50.2727 22.9849Z" fill="black" />
    <path fill-rule="evenodd" clip-rule="evenodd"
        d="M34.275 22.9849L33.0493 20.8405L39.8048 9.14313L42.2755 9.13208L34.275 22.9849Z" fill="black" />
    <path fill-rule="evenodd" clip-rule="evenodd"
        d="M0 11.7842C0 10.3114 1.19435 9.11742 2.66764 9.11743L13.2047 9.11753C14.678 9.11755 15.8723 10.3115 15.8723 11.7843V12.851H13.7382V11.7843C13.7382 11.4898 13.4993 11.251 13.2047 11.251L2.66762 11.2509C2.37296 11.2509 2.13409 11.4897 2.13409 11.7842V14.4511C2.13409 14.7457 2.37296 14.9845 2.66762 14.9845H13.2047C14.678 14.9845 15.8723 16.1784 15.8723 17.6513V20.3181C15.8723 21.7909 14.678 22.9848 13.2047 22.9848H2.66762C1.19433 22.9848 0 21.7909 0 20.3181V19.3845H2.13409V20.3181C2.13409 20.6126 2.37296 20.8514 2.66762 20.8514H13.2047C13.4993 20.8514 13.7382 20.6126 13.7382 20.3181V17.6513C13.7382 17.3567 13.4993 17.1179 13.2047 17.1179H2.66762C1.19433 17.1179 0 15.9239 0 14.4511V11.7842Z"
        fill="black" />
    <path fill-rule="evenodd" clip-rule="evenodd"
        d="M69.4429 9.09375H84.3814V11.2272H71.5769V14.9606H84.3814V17.0941H71.5769V20.8276H84.3814V22.961H69.4429V9.09375Z"
        fill="black" />
    <path fill-rule="evenodd" clip-rule="evenodd"
        d="M18.4072 9.11743H31.7454V11.2509H26.1434V22.9847H24.0093V11.2509H18.4072V9.11743Z" fill="black" />
    <path fill-rule="evenodd" clip-rule="evenodd"
        d="M52.8206 9.11743H66.1588V11.2509H60.5569V22.9847H58.4226V11.2509H52.8206V9.11743Z" fill="black" />
    <path fill-rule="evenodd" clip-rule="evenodd"
        d="M107.4 22.8673H105.266V11.2978L98.794 22.855H96.9318L90.4603 11.2978V22.8673H88.3262L88.3262 9L91.6193 9L97.8629 20.1501L104.106 9L107.4 9V22.8673Z"
        fill="black" />
    <path fill-rule="evenodd" clip-rule="evenodd" d="M112.81 9V22.8673H110.676V9H112.81Z" fill="black" />
    <path fill-rule="evenodd" clip-rule="evenodd"
        d="M133.162 9V22.8673H129.912L118.441 11.1334H118.357V22.8673H116.223V9L119.339 9L130.81 20.7339H131.028V9L133.162 9Z"
        fill="black" />
    <path fill-rule="evenodd" clip-rule="evenodd"
        d="M148.39 9C151.19 8.99999 153.459 11.2685 153.459 14.0669V17.8004C153.459 20.5988 151.19 22.8673 148.39 22.8673H136.52V9.00003L148.39 9ZM138.654 11.1335V20.7339H148.39C150.011 20.7339 151.325 19.4205 151.325 17.8004V14.0669C151.325 12.4468 150.011 11.1334 148.39 11.1334L138.654 11.1335Z"
        fill="black" />
</svg>