<svg xmlns="http://www.w3.org/2000/svg" viewBox="0 0 44 44" fill="none" id="telegram-transparent">
    <path fill-rule="evenodd" clip-rule="evenodd"
        d="M22 44C34.1503 44 44 34.1503 44 22C44 9.84974 34.1503 0 22 0C9.84974 0 0 9.84974 0 22C0 34.1503 9.84974 44 22 44ZM18.0487 30.8491C18.0041 31.517 18.5618 32.0246 19.0414 31.5576L19.0663 31.5334C20.5907 30.0511 22.9641 29.8906 24.6742 31.154L27.2069 33.0252C28.2186 33.5834 28.9488 33.2944 29.2008 32.0859L32.8097 15.0793C33.1792 13.598 32.245 12.9261 31.2772 13.3655L10.0857 21.5369C8.63915 22.1171 8.64759 22.9241 9.822 23.2837C13.2724 24.3606 17.0214 23.8699 20.0784 21.9413L27.8503 17.0381C28.4446 16.6777 28.9901 16.8714 28.5424 17.2688L18.341 26.4748C18.341 26.4748 18.3409 26.4748 18.3409 26.4748C18.3408 26.4747 18.3407 26.4748 18.3407 26.4749L18.0487 30.8491Z"
        fill="currentColor"></path>
</svg>