<svg viewBox="0 0 48 48" fill="none" xmlns="http://www.w3.org/2000/svg" id="twitter-transparent">\n
    <path fill-rule="evenodd" clip-rule="evenodd"
        d="M0 24C0 10.7452 10.7452 0 24 0C37.2548 0 48 10.7452 48 24C48 37.2548 37.2548 48 24 48C10.7452 48 0 37.2548 0 24ZM33.3482 14L25.9027 22.4643H25.9023L34 33.9897H28.0445L22.5915 26.2285L15.7644 33.9897H14L21.8082 25.1136L14 14H19.9555L25.119 21.3494L31.5838 14H33.3482ZM22.695 24.1049L23.4861 25.2115V25.212L28.8746 32.7498H31.5847L24.9813 23.5123L24.1902 22.4056L19.1103 15.299H16.4002L22.695 24.1049Z"
        fill="currentColor" />\n
</svg>