<svg xmlns="http://www.w3.org/2000/svg" width="48" height="48" fill="none">
    <rect width="48" height="48" fill="url(#a)" rx="24" />
    <path fill="#FF007A" fill-rule="evenodd"
        d="M11.917 12.099c2.885 3.479 5.1 5.434 6.162 6.372.362.32.59.521.665.624.245.336.153.638-.266.875-.233.131-.712.264-.951.264-.271 0-.364-.104-.364-.104l-.056-.049c-.134-.114-.288-.246-.997-1.497a245.898 245.898 0 0 0-2.084-3.186c-.06-.055-.058-.053 1.97 3.553.26.598.147.895.09 1.045a.299.299 0 0 0-.025.09c0 .217-.06.332-.33.631-.451.5-.652 1.061-.798 2.223-.163 1.303-.621 2.223-1.891 3.797-.744.922-.866 1.09-1.053 1.462-.237.468-.302.73-.328 1.32a4.088 4.088 0 0 0 .218 1.626c.168.523.344.868.793 1.558.387.596.61 1.04.61 1.212 0 .138.026.138.626.004 1.435-.322 2.6-.889 3.256-1.583.406-.43.501-.668.504-1.256.002-.386-.011-.466-.116-.688-.17-.36-.481-.66-1.166-1.125-.896-.61-1.28-1.1-1.385-1.775-.087-.553.014-.944.51-1.977.513-1.07.64-1.525.727-2.603.055-.697.132-.971.334-1.192.21-.23.399-.308.918-.378.848-.115 1.387-.333 1.83-.74.385-.352.546-.691.57-1.202l.02-.387-.215-.25c-.779-.902-8.3-7.374-8.347-7.374-.01 0 .246.32.57.71Zm1.801 18.128a.683.683 0 0 0-.211-.903c-.279-.184-.71-.097-.71.142 0 .073.04.127.131.173.155.08.166.168.045.35-.123.183-.113.345.028.454.227.177.549.08.717-.216Z"
        clip-rule="evenodd" />
    <path fill="#FF007A"
        d="M19.017 13.331c-.348-.053-.362-.06-.199-.085.313-.047 1.053.018 1.563.138 1.19.281 2.272 1.002 3.428 2.28l.307.34.439-.07c1.85-.295 3.733-.06 5.307.662.433.2 1.116.595 1.202.697.027.032.077.24.11.463.117.771.059 1.362-.178 1.803-.13.24-.136.316-.05.521a.51.51 0 0 0 .454.285c.39 0 .812-.629 1.007-1.504l.078-.347.153.173c.842.948 1.504 2.242 1.618 3.162l.03.24-.142-.218c-.244-.375-.489-.631-.802-.837-.565-.372-1.163-.498-2.745-.581-1.43-.075-2.238-.196-3.04-.456-1.365-.442-2.053-1.031-3.673-3.145-.72-.939-1.166-1.458-1.608-1.877-1.006-.95-1.994-1.449-3.26-1.644Z" />
    <path fill="#FF007A"
        d="M31.386 15.427c.036-.629.121-1.044.294-1.423.068-.15.132-.272.142-.272.01 0-.02.11-.066.246-.125.367-.146.87-.06 1.456.11.742.173.85.962 1.652.37.376.802.85.958 1.054l.284.37-.284-.264c-.348-.324-1.146-.955-1.322-1.046-.119-.06-.136-.06-.21.013-.067.067-.08.167-.09.639-.015.736-.116 1.21-.36 1.682-.131.255-.152.2-.033-.088.09-.215.098-.31.098-1.023-.002-1.432-.173-1.776-1.176-2.366a11.03 11.03 0 0 0-.93-.48c-.258-.113-.463-.213-.456-.22.029-.028 1.007.256 1.401.406.586.224.683.253.754.226.047-.018.07-.156.094-.562Zm-12.741-1.099c-.095 1.106.341 2.585 1.047 3.55.546.748 1.393 1.329 2.019 1.385.41.037.533-.09.347-.36-.257-.373-.573-.948-.657-1.194a13.009 13.009 0 0 1-.251-1.004c-.294-1.363-.583-1.893-1.251-2.296a4.042 4.042 0 0 0-1.065-.394l-.16-.03-.03.343Zm11.885 10.73c-3.294-1.319-4.455-2.463-4.455-4.394 0-.285.01-.517.022-.517.012 0 .14.094.283.208.669.533 1.417.76 3.488 1.06 1.219.178 1.905.32 2.538.529 2.01.663 3.255 2.008 3.552 3.84.086.533.035 1.532-.104 2.058-.11.416-.447 1.165-.537 1.194-.025.007-.049-.087-.055-.215-.034-.688-.384-1.358-.971-1.86-.668-.57-1.566-1.025-3.76-1.903Zm-2.472-.145c.046.137.118.449.16.693.263 1.561-.561 2.822-2.165 3.311-.17.052-.839.182-1.487.29-1.31.216-1.896.37-2.484.651-.416.2-.921.499-.891.529.01.01.105-.014.211-.05.741-.26 1.566-.393 2.82-.458a25.159 25.159 0 0 0 1.257-.091c1.117-.14 1.89-.477 2.493-1.086.335-.339.534-.654.695-1.1.102-.282.116-.387.117-.887 0-.51-.012-.603-.122-.916-.145-.411-.316-.72-.532-.96l-.156-.175.084.249Z" />
    <path fill="#FF007A"
        d="M29.728 28.272c-.438-.935-.539-1.838-.299-2.68.026-.09.067-.164.092-.164.025 0 .128.055.23.123.201.135.606.362 1.684.947 1.345.729 2.112 1.293 2.634 1.938.456.564.739 1.208.875 1.992.077.444.032 1.513-.083 1.96-.362 1.411-1.202 2.52-2.401 3.166a3.09 3.09 0 0 1-.35.173c-.018 0 .047-.162.142-.36.403-.838.449-1.653.144-2.56-.187-.555-.567-1.233-1.336-2.379-.893-1.332-1.113-1.686-1.332-2.156ZM21.48 31.34c-1.385.224-2.906.953-4.13 1.98l-.363.305.32.05c1.67.258 2.119.488 3.277 1.674.666.682.891.834 1.444.974.812.206 1.612-.172 1.887-.892.123-.322.106-.854-.034-1.122-.335-.637-1.31-.842-1.782-.376-.393.389-.278.974.21 1.075.112.023.109.018-.028-.044-.214-.096-.307-.23-.308-.441-.003-.497.57-.776 1.102-.538.39.175.544.404.544.804 0 .617-.528 1.081-1.142 1.005a1.68 1.68 0 0 1-.946-.491c-.542-.61-.33-1.57.426-1.94.576-.28 1.342-.21 1.936.176.682.444.972.85 1.56 2.182.191.434.438.922.547 1.085.557.828 1.224 1.235 2.027 1.235.443 0 .777-.081 1.196-.29.312-.154.753-.448.721-.48-.009-.008-.138.032-.287.09-.877.34-1.769.316-2.287-.06-.326-.238-.589-.71-.724-1.301-.023-.102-.1-.554-.172-1.004-.18-1.14-.353-1.653-.756-2.24-.412-.603-1.205-1.108-2.092-1.333-.553-.141-1.548-.18-2.145-.083Z" />
    <path fill="#FF007A" fill-rule="evenodd"
        d="M19.54 22.525c.12-.44.507-.859.905-.98.253-.077.775-.028 1.021.096.476.241.822.79.747 1.185-.091.483-.879.869-1.785.875-.462.003-.633-.059-.81-.293-.11-.145-.15-.615-.077-.883Zm1.804-.712c.238.145.3.358.16.555-.097.136-.395.265-.612.265-.327 0-.684-.23-.684-.442 0-.425.684-.652 1.136-.378Z"
        clip-rule="evenodd" />
    <defs>
        <linearGradient id="a" x1="48" x2="0" y1="0" y2="48" gradientUnits="userSpaceOnUse">
            <stop stop-color="#FED4E8" />
            <stop offset="1" stop-color="#FCFDFF" />
        </linearGradient>
    </defs>
</svg>